<?xml version="1.0" encoding="UTF-8" standalone="yes"?>
<svg xmlns="http://www.w3.org/2000/svg" xmlns:xlink="http://www.w3.org/1999/xlink" width="1341.358pt" height="480.048pt" version="1.1" viewBox="1562.934 1400.172 1341.358 480.048">
  <!--
	Exported with Concepts: Smarter Sketching
	Version: 2021.12.5 on Android 11
	https://concepts.app/
	-->
  <title>Untitled 2</title>
  <desc>Drawing exported from Concepts: Smarter Sketching</desc>
  <defs></defs>
  <g id="Pen" opacity="1.000">
    <path id="STROKE_fe9aa3dc-90b2-42a8-b563-90385094d5f6" opacity="1.000" fill="none" stroke="#000000" stroke-width="17.812" stroke-opacity="1.000" stroke-linecap="round" stroke-linejoin="round" d="M 1809.276 1583.507 Q 1812.509 1578.958 1815.550 1562.833 Q 1818.592 1546.709 1816.968 1533.577 Q 1815.344 1520.446 1807.753 1512.056 Q 1800.162 1503.667 1788.185 1496.580 Q 1776.209 1489.492 1759.495 1487.580 Q 1742.781 1485.668 1730.979 1487.445 Q 1719.177 1489.223 1711.180 1494.818 Q 1703.184 1500.413 1701.564 1509.014 Q 1699.944 1517.614 1702.440 1527.106 Q 1704.937 1536.599 1714.173 1549.609 Q 1723.410 1562.619 1726.431 1567.037 Q 1729.453 1571.455 1735.238 1577.817 Q 1741.024 1584.178 1750.581 1593.957 Q 1760.137 1603.735 1773.724 1613.921 Q 1787.310 1624.107 1804.926 1634.700 Q 1822.542 1645.293 1837.198 1653.551 Q 1851.854 1661.809 1863.552 1667.730 Q 1875.250 1673.652 1885.214 1680.301 Q 1895.179 1686.951 1907.532 1698.002 Q 1919.885 1709.054 1928.039 1717.729 Q 1936.193 1726.403 1940.662 1734.347 Q 1945.131 1742.292 1947.913 1751.877 Q 1950.694 1761.463 1944.842 1774.847 Q 1938.990 1788.231 1928.609 1796.936 Q 1918.229 1805.641 1908.862 1811.653 Q 1899.496 1817.664 1887.724 1823.677 Q 1875.951 1829.691 1861.021 1834.531 Q 1846.091 1839.372 1828.266 1842.720 Q 1810.440 1846.068 1797.122 1847.913 Q 1783.804 1849.758 1770.535 1851.000 Q 1757.267 1852.242 1745.172 1852.573 Q 1733.078 1852.904 1729.143 1852.829 Q 1725.207 1852.755 1719.379 1852.684 Q 1713.551 1852.613 1705.063 1852.658 Q 1696.575 1852.704 1688.768 1852.232 Q 1680.961 1851.759 1673.240 1850.817 Q 1665.518 1849.875 1658.714 1848.998 Q 1651.910 1848.120 1643.129 1846.699 Q 1634.347 1845.279 1625.265 1840.966 Q 1616.182 1836.653 1609.730 1832.695 Q 1603.278 1828.736 1600.401 1825.042 Q 1597.524 1821.349 1595.259 1816.095 Q 1592.993 1810.842 1591.125 1801.645 Q 1589.256 1792.448 1591.121 1780.794 Q 1592.986 1769.141 1595.844 1759.351 Q 1598.703 1749.560 1602.575 1737.689 Q 1606.448 1725.817 1608.579 1717.935 Q 1610.711 1710.053 1611.691 1706.492 "></path>
    <path id="STROKE_7c1f58f8-91e1-43cb-aaa6-eb02dac80727" opacity="1.000" fill="none" stroke="#000000" stroke-width="17.812" stroke-opacity="1.000" stroke-linecap="round" stroke-linejoin="round" d="M 1851.014 1563.622 Q 1850.732 1561.946 1850.064 1557.989 Q 1852.669 1560.729 1851.911 1579.865 Q 1851.153 1599.002 1850.935 1618.680 Q 1850.717 1638.358 1852.751 1664.667 Q 1854.786 1690.976 1856.826 1705.859 Q 1858.866 1720.742 1859.444 1724.171 "></path>
    <path id="STROKE_f4f18340-d55d-4be6-b66a-73ab9ff581d2" opacity="1.000" fill="none" stroke="#000000" stroke-width="17.812" stroke-opacity="1.000" stroke-linecap="round" stroke-linejoin="round" d="M 1863.689 1464.001 Q 1859.107 1458.300 1859.760 1459.374 Q 1858.924 1458.844 1855.731 1455.645 Q 1854.043 1454.640 1860.389 1454.907 Q 1866.735 1455.174 1867.756 1455.254 "></path>
    <path id="STROKE_209246a6-33c7-4b93-8e33-1cbe131e306d" opacity="1.000" fill="none" stroke="#000000" stroke-width="17.812" stroke-opacity="1.000" stroke-linecap="round" stroke-linejoin="round" d="M 1896.844 1569.497 Q 1887.926 1567.476 1895.325 1694.946 Q 1897.955 1692.355 1902.352 1664.385 Q 1906.748 1636.415 1911.750 1612.213 Q 1916.752 1588.011 1936.039 1565.911 Q 1939.260 1560.886 1938.335 1586.344 Q 1937.411 1611.802 1936.909 1632.645 Q 1936.408 1653.487 1945.385 1670.636 Q 1949.741 1671.167 1957.828 1644.380 Q 1965.915 1617.592 1969.530 1602.693 Q 1973.146 1587.795 1976.381 1580.738 Q 1979.617 1573.680 1984.276 1570.373 Q 1986.400 1572.745 1985.375 1587.523 Q 1984.351 1602.301 1984.990 1612.800 Q 1985.628 1623.300 1987.200 1628.128 Q 1988.772 1632.956 1991.471 1635.856 Q 1994.171 1638.757 2002.505 1633.065 Q 2010.840 1627.374 2014.788 1624.118 Q 2018.736 1620.863 2020.563 1620.757 Q 2022.390 1620.650 2024.158 1621.763 Q 2025.926 1622.877 2026.582 1623.797 Q 2027.237 1624.717 2028.405 1627.505 Q 2029.573 1630.294 2032.468 1635.605 Q 2035.364 1640.917 2038.796 1644.017 Q 2042.228 1647.117 2044.256 1648.047 Q 2046.284 1648.978 2047.972 1649.234 Q 2049.660 1649.490 2052.431 1649.626 Q 2055.201 1649.761 2058.294 1648.870 Q 2061.388 1647.978 2061.463 1647.186 Q 2061.538 1646.394 2062.594 1645.587 Q 2063.649 1644.781 2068.387 1637.030 Q 2073.125 1629.279 2074.181 1618.061 Q 2075.237 1606.843 2072.788 1597.151 Q 2070.339 1587.459 2064.812 1578.660 Q 2059.284 1569.860 2053.768 1566.205 Q 2048.252 1562.550 2038.096 1561.903 Q 2027.941 1561.257 2015.772 1568.603 Q 2003.602 1575.949 1997.449 1584.022 Q 1991.296 1592.096 1990.358 1601.335 Q 1989.420 1610.574 1996.381 1616.008 Q 2003.341 1621.442 2004.628 1621.603 "></path>
    <path id="STROKE_7c4919aa-1e0c-40e2-8695-7858c92fe367" opacity="1.000" fill="none" stroke="#000000" stroke-width="17.812" stroke-opacity="1.000" stroke-linecap="round" stroke-linejoin="round" d="M 2097.522 1552.537 Q 2098.198 1548.549 2098.149 1549.534 Q 2098.354 1549.249 2098.414 1548.860 Q 2100.609 1544.240 2095.672 1573.872 Q 2090.735 1603.504 2088.677 1626.682 Q 2086.619 1649.860 2089.745 1672.240 Q 2092.021 1667.787 2098.212 1637.955 Q 2104.403 1608.123 2107.933 1588.692 Q 2111.462 1569.261 2120.112 1556.537 Q 2123.019 1564.089 2122.289 1562.719 Q 2122.892 1562.494 2125.888 1583.099 Q 2128.884 1603.705 2133.161 1619.817 Q 2137.438 1635.929 2143.592 1647.716 Q 2149.746 1659.502 2157.979 1665.274 Q 2166.212 1671.046 2175.275 1671.547 Q 2178.388 1667.610 2173.264 1642.668 Q 2168.140 1617.727 2164.161 1603.253 Q 2160.182 1588.779 2159.658 1565.278 Q 2159.135 1541.777 2159.681 1528.789 Q 2160.227 1515.801 2160.496 1508.290 Q 2160.766 1500.778 2165.779 1469.786 Q 2170.792 1438.794 2171.581 1434.505 "></path>
    <path id="STROKE_b6e8247d-0d1c-42af-9a87-08c590b5209a" opacity="1.000" fill="none" stroke="#000000" stroke-width="14.991" stroke-opacity="1.000" stroke-linecap="round" stroke-linejoin="round" d="M 2310.172 1444.466 Q 2310.095 1442.583 2310.347 1441.967 Q 2310.598 1441.351 2303.746 1434.195 Q 2302.666 1434.686 2301.821 1440.728 Q 2300.975 1446.770 2300.387 1458.300 Q 2299.799 1469.830 2299.456 1482.514 Q 2299.114 1495.199 2298.826 1504.972 Q 2298.539 1514.745 2298.226 1525.799 Q 2297.913 1536.853 2297.575 1547.323 Q 2297.238 1557.794 2296.933 1567.681 Q 2296.628 1577.567 2296.375 1586.885 Q 2296.121 1596.202 2295.927 1604.965 Q 2295.732 1613.727 2295.599 1621.945 Q 2295.465 1630.162 2295.353 1641.682 Q 2295.241 1653.202 2295.367 1666.406 Q 2295.493 1679.610 2295.566 1690.011 Q 2295.639 1700.413 2295.708 1711.785 Q 2295.776 1723.158 2295.858 1726.968 "></path>
    <path id="STROKE_b0eb7e2f-bd1a-4769-a48b-00d82d64e726" opacity="1.000" fill="none" stroke="#000000" stroke-width="14.991" stroke-opacity="1.000" stroke-linecap="round" stroke-linejoin="round" d="M 2277.845 1437.568 Q 2277.497 1436.901 2277.640 1435.425 Q 2277.782 1433.949 2278.211 1431.747 Q 2278.640 1429.544 2279.715 1430.103 Q 2280.791 1430.661 2279.100 1430.315 Q 2277.409 1429.968 2296.479 1423.859 Q 2315.550 1417.750 2345.239 1417.052 Q 2374.927 1416.354 2396.759 1417.592 Q 2418.591 1418.830 2441.838 1424.370 Q 2465.085 1429.910 2483.510 1436.638 Q 2501.935 1443.365 2518.023 1453.844 Q 2534.112 1464.324 2542.420 1472.104 Q 2550.729 1479.884 2553.553 1490.712 Q 2556.376 1501.539 2557.958 1510.497 Q 2559.539 1519.456 2552.554 1533.424 Q 2545.569 1547.392 2525.598 1563.439 Q 2505.627 1579.487 2477.545 1590.481 Q 2449.462 1601.475 2432.778 1606.265 Q 2416.094 1611.055 2402.205 1616.164 Q 2388.315 1621.273 2274.080 1635.525 Q 2277.629 1638.068 2279.718 1638.226 Q 2281.806 1638.385 2283.185 1638.670 "></path>
    <path id="STROKE_9606f431-aa18-4b96-806f-4bafa5715f63" opacity="1.000" fill="none" stroke="#000000" stroke-width="14.991" stroke-opacity="1.000" stroke-linecap="round" stroke-linejoin="round" d="M 2308.036 1640.340 Q 2305.646 1638.859 2303.924 1637.217 Q 2302.202 1635.576 2303.113 1636.211 Q 2304.024 1636.846 2301.566 1635.794 Q 2300.349 1634.194 2301.409 1637.161 Q 2302.469 1640.129 2303.833 1643.496 Q 2305.196 1646.863 2307.218 1651.620 Q 2309.240 1656.376 2311.826 1661.058 Q 2314.412 1665.740 2317.562 1670.348 Q 2320.713 1674.956 2324.432 1679.490 Q 2328.151 1684.025 2332.444 1688.485 Q 2336.737 1692.946 2340.714 1696.969 Q 2344.691 1700.992 2348.357 1704.577 Q 2352.023 1708.163 2355.379 1711.312 Q 2358.736 1714.460 2363.316 1718.529 Q 2367.896 1722.598 2374.621 1728.032 Q 2381.345 1733.466 2388.764 1738.921 Q 2396.183 1744.376 2402.268 1748.798 Q 2408.353 1753.220 2412.581 1756.282 Q 2416.810 1759.344 2421.167 1762.513 Q 2425.525 1765.682 2429.781 1768.590 Q 2434.037 1771.498 2440.181 1775.444 Q 2446.326 1779.389 2453.948 1783.592 Q 2461.570 1787.795 2467.545 1790.686 Q 2473.519 1793.577 2477.564 1795.416 Q 2481.609 1797.255 2485.752 1799.009 Q 2489.895 1800.763 2493.714 1802.335 Q 2497.532 1803.907 2502.842 1806.003 Q 2508.152 1808.100 2514.238 1810.227 Q 2520.323 1812.355 2526.463 1814.060 Q 2532.603 1815.764 2537.281 1816.947 Q 2541.960 1818.129 2547.225 1819.359 Q 2552.491 1820.589 2558.212 1821.596 Q 2563.934 1822.603 2570.102 1823.386 Q 2576.270 1824.170 2582.868 1824.727 Q 2589.467 1825.285 2596.483 1825.613 Q 2603.498 1825.942 2609.877 1826.086 Q 2616.257 1826.231 2621.990 1826.189 Q 2627.723 1826.147 2632.807 1825.919 Q 2637.890 1825.690 2644.537 1825.066 Q 2651.184 1824.443 2657.897 1823.339 Q 2664.611 1822.236 2669.174 1820.861 Q 2678.302 1818.111 2684.474 1815.871 "></path>
    <path id="STROKE_112b0401-0023-4ef9-9fa8-99533f7013ea" opacity="1.000" fill="none" stroke="#000000" stroke-width="14.991" stroke-opacity="1.000" stroke-linecap="round" stroke-linejoin="round" d="M 2407.823 1597.505 Q 2403.510 1596.154 2403.247 1595.944 Q 2402.985 1595.734 2403.029 1595.928 Q 2403.073 1596.123 2403.324 1595.675 Q 2403.574 1595.228 2396.010 1593.376 Q 2388.446 1591.524 2381.561 1594.449 Q 2374.676 1597.375 2373.251 1600.736 Q 2371.827 1604.097 2369.883 1608.394 Q 2367.938 1612.692 2367.296 1614.635 Q 2366.654 1616.579 2366.885 1621.729 Q 2367.115 1626.878 2366.742 1629.476 Q 2366.368 1632.074 2370.075 1638.088 Q 2373.783 1644.102 2382.666 1646.917 Q 2391.549 1649.732 2406.545 1647.447 Q 2421.541 1645.161 2435.645 1635.193 Q 2449.748 1625.224 2456.473 1618.601 Q 2463.198 1611.979 2464.700 1603.894 Q 2466.202 1595.810 2464.768 1589.766 Q 2463.333 1583.721 2460.475 1580.621 Q 2457.616 1577.521 2453.907 1575.570 Q 2450.198 1573.619 2446.145 1572.536 Q 2442.092 1571.454 2437.678 1571.241 Q 2433.263 1571.029 2425.988 1570.183 Q 2418.713 1569.337 2403.682 1575.793 Q 2388.651 1582.250 2379.234 1588.057 Q 2369.817 1593.864 2366.702 1604.144 Q 2363.588 1614.423 2364.458 1621.454 Q 2365.330 1628.484 2365.830 1630.557 "></path>
    <path id="STROKE_45a95e03-c905-4779-9a8b-4316d57d89d9" opacity="1.000" fill="none" stroke="#000000" stroke-width="14.991" stroke-opacity="1.000" stroke-linecap="round" stroke-linejoin="round" d="M 2502.040 1520.866 Q 2495.426 1515.005 2496.670 1516.139 Q 2497.914 1517.272 2497.866 1517.178 Q 2497.819 1517.084 2497.045 1516.789 Q 2496.271 1516.494 2491.237 1539.050 Q 2486.203 1561.606 2485.809 1602.633 Q 2485.414 1643.659 2486.508 1669.110 Q 2487.602 1694.561 2491.673 1712.904 Q 2495.745 1731.247 2499.255 1741.228 Q 2502.766 1751.209 2503.443 1754.137 "></path>
    <path id="STROKE_cacbc36e-19d4-4eb0-98ce-429891aef008" opacity="1.000" fill="none" stroke="#000000" stroke-width="14.991" stroke-opacity="1.000" stroke-linecap="round" stroke-linejoin="round" d="M 2547.908 1514.300 Q 2546.897 1513.408 2536.433 1502.888 Q 2535.558 1500.022 2532.983 1519.953 Q 2530.408 1539.884 2532.239 1589.674 Q 2534.071 1639.465 2537.275 1680.235 Q 2540.480 1721.005 2544.741 1749.702 Q 2549.003 1778.398 2550.303 1783.390 "></path>
    <path id="STROKE_aff76a7b-09b1-4ff8-a152-be0263aa2ecf" opacity="1.000" fill="none" stroke="#000000" stroke-width="14.991" stroke-opacity="1.000" stroke-linecap="round" stroke-linejoin="round" d="M 2570.460 1586.393 Q 2563.644 1586.613 2560.677 1584.279 Q 2560.550 1582.307 2580.683 1578.596 Q 2600.816 1574.885 2612.443 1573.388 Q 2624.071 1571.892 2638.872 1574.065 Q 2653.672 1576.238 2663.492 1577.557 Q 2673.311 1578.877 2674.937 1579.147 "></path>
    <path id="STROKE_527cb2fb-7f01-4e74-be51-721a4844a83c" opacity="1.000" fill="none" stroke="#000000" stroke-width="14.991" stroke-opacity="1.000" stroke-linecap="round" stroke-linejoin="round" d="M 2585.553 1610.199 Q 2585.426 1610.315 2574.445 1610.643 Q 2573.886 1610.033 2596.408 1603.282 Q 2618.930 1596.531 2641.308 1596.850 Q 2663.685 1597.170 2664.933 1597.340 "></path>
    <path id="STROKE_1c786eb6-ea81-4c48-bf99-67030452a76e" opacity="1.000" fill="none" stroke="#000000" stroke-width="14.991" stroke-opacity="1.000" stroke-linecap="round" stroke-linejoin="round" d="M 2579.385 1630.381 Q 2584.068 1630.268 2564.564 1630.808 Q 2564.579 1631.054 2564.594 1631.301 Q 2567.710 1630.250 2600.117 1629.072 Q 2632.523 1627.893 2652.606 1630.193 Q 2672.688 1632.492 2676.032 1632.531 "></path>
    <path id="STROKE_a6954cfd-31ef-416f-880d-74140c7e8ec3" opacity="1.000" fill="none" stroke="#000000" stroke-width="15.127" stroke-opacity="1.000" stroke-linecap="round" stroke-linejoin="round" d="M 2638.493 1492.209 Q 2629.038 1489.997 2621.219 1483.388 Q 2624.173 1480.051 2624.558 1480.493 Q 2625.481 1475.435 2667.276 1473.934 Q 2709.071 1472.432 2749.255 1472.568 Q 2789.439 1472.705 2813.193 1472.238 Q 2836.948 1471.771 2857.096 1473.531 Q 2877.243 1475.290 2885.595 1475.591 "></path>
    <path id="STROKE_7d4f0584-4f54-4620-910a-50ade5d5dc12" opacity="1.000" fill="none" stroke="#000000" stroke-width="15.127" stroke-opacity="1.000" stroke-linecap="round" stroke-linejoin="round" d="M 2703.229 1484.415 Q 2703.227 1484.290 2701.715 1482.684 Q 2701.022 1484.031 2701.239 1483.693 Q 2701.456 1483.356 2701.451 1488.284 Q 2701.445 1493.213 2701.428 1497.849 Q 2701.411 1502.484 2701.373 1508.472 Q 2701.335 1514.459 2701.262 1522.353 Q 2701.188 1530.247 2701.086 1537.604 Q 2700.984 1544.962 2700.987 1550.336 Q 2700.990 1555.710 2701.059 1561.555 Q 2701.128 1567.401 2701.256 1573.722 Q 2701.383 1580.043 2701.564 1586.844 Q 2701.744 1593.644 2701.980 1600.930 Q 2702.217 1608.216 2702.518 1615.996 Q 2702.818 1623.777 2703.187 1632.078 Q 2703.556 1640.379 2703.957 1649.265 Q 2704.358 1658.151 2704.643 1666.244 Q 2704.929 1674.337 2705.051 1681.644 Q 2705.173 1688.950 2705.161 1695.420 Q 2705.150 1701.890 2704.977 1710.265 Q 2704.803 1718.640 2704.543 1725.756 Q 2704.283 1732.871 2704.117 1735.767 "></path>
    <path id="STROKE_78875124-b4a2-4a48-84a3-ebffea7b3c1a" opacity="1.000" fill="none" stroke="#000000" stroke-width="15.127" stroke-opacity="1.000" stroke-linecap="round" stroke-linejoin="round" d="M 2749.471 1499.712 Q 2750.094 1494.758 2750.245 1495.665 Q 2753.307 1486.922 2752.453 1489.766 Q 2752.314 1490.510 2755.997 1484.369 Q 2756.570 1487.436 2756.483 1495.241 Q 2756.396 1503.047 2756.181 1509.963 Q 2755.966 1516.878 2755.597 1525.327 Q 2755.229 1533.777 2755.005 1542.344 Q 2754.781 1550.911 2754.678 1559.205 Q 2754.576 1567.499 2754.556 1574.961 Q 2754.535 1582.422 2754.556 1588.364 Q 2754.576 1594.306 2754.516 1597.960 Q 2754.455 1601.613 2754.327 1603.193 Q 2754.199 1604.773 2754.044 1605.081 Q 2753.890 1605.390 2753.767 1605.797 Q 2753.644 1606.204 2753.605 1608.220 Q 2753.566 1610.236 2753.646 1614.861 Q 2753.726 1619.486 2753.903 1626.766 Q 2754.081 1634.046 2754.263 1641.729 Q 2754.444 1649.413 2754.604 1657.095 Q 2754.764 1664.777 2754.879 1675.004 Q 2754.995 1685.231 2755.023 1697.725 Q 2755.051 1710.220 2754.988 1720.147 Q 2754.925 1730.074 2754.793 1741.600 Q 2754.661 1753.126 2754.500 1764.871 Q 2754.340 1776.617 2754.187 1788.588 Q 2754.033 1800.559 2753.906 1812.759 Q 2753.778 1824.959 2753.674 1837.387 "></path>
  </g>
</svg>