<?xml version="1.0" encoding="UTF-8" standalone="yes"?>
<svg xmlns="http://www.w3.org/2000/svg" xmlns:xlink="http://www.w3.org/1999/xlink" width="1191.886pt" height="608.313pt" version="1.1" viewBox="1713.194 1338.634 1191.886 608.313">
  <!--
	Exported with Concepts: Smarter Sketching
	Version: 2021.12.5 on Android 11
	https://concepts.app/
	-->
  <title>Untitled 2</title>
  <desc>Drawing exported from Concepts: Smarter Sketching</desc>
  <defs></defs>
  <g id="Pen" opacity="1.000">
    <path id="STROKE_fe9aa3dc-90b2-42a8-b563-90385094d5f6" opacity="1.000" fill="none" stroke="#000000" stroke-width="17.812" stroke-opacity="1.000" stroke-linecap="round" stroke-linejoin="round" d="M 1976.124 1555.643 Q 1979.224 1552.218 1983.296 1539.261 Q 1987.368 1526.303 1987.313 1515.350 Q 1987.259 1504.398 1981.836 1496.762 Q 1976.414 1489.126 1967.260 1482.133 Q 1958.106 1475.139 1944.554 1471.938 Q 1931.001 1468.737 1921.126 1469.048 Q 1911.252 1469.358 1904.134 1473.178 Q 1897.015 1476.998 1894.845 1483.910 Q 1892.675 1490.821 1893.802 1498.867 Q 1894.929 1506.914 1901.253 1518.508 Q 1907.577 1530.103 1909.630 1534.029 Q 1911.683 1537.955 1915.819 1543.749 Q 1919.955 1549.542 1926.857 1558.511 Q 1933.760 1567.480 1943.935 1577.178 Q 1954.109 1586.875 1967.557 1597.300 Q 1981.005 1607.724 1992.248 1615.941 Q 2003.491 1624.158 2012.529 1630.165 Q 2021.568 1636.173 2029.110 1642.610 Q 2036.653 1649.047 2045.730 1659.336 Q 2054.807 1669.625 2060.664 1677.550 Q 2066.521 1685.475 2069.420 1692.441 Q 2072.319 1699.407 2073.671 1707.557 Q 2075.023 1715.708 2068.908 1726.139 Q 2062.793 1736.570 2053.412 1742.714 Q 2044.031 1748.858 2035.745 1752.886 Q 2027.460 1756.915 2017.197 1760.710 Q 2006.933 1764.506 1994.189 1767.030 Q 1981.445 1769.553 1966.466 1770.568 Q 1951.487 1771.582 1940.360 1771.801 Q 1929.233 1772.019 1918.205 1771.746 Q 1907.177 1771.474 1897.203 1770.567 Q 1887.229 1769.661 1884.001 1769.216 Q 1880.774 1768.771 1875.990 1768.144 Q 1871.206 1767.518 1864.225 1766.728 Q 1857.243 1765.938 1850.872 1764.789 Q 1844.500 1763.640 1838.245 1762.113 Q 1831.990 1760.586 1826.483 1759.201 Q 1820.975 1757.816 1813.896 1755.793 Q 1806.816 1753.769 1799.770 1749.339 Q 1792.724 1744.908 1787.807 1741.025 Q 1782.889 1737.142 1780.884 1733.825 Q 1778.880 1730.509 1777.529 1725.970 Q 1776.179 1721.430 1775.540 1713.688 Q 1774.900 1705.946 1777.569 1696.549 Q 1780.238 1687.152 1783.542 1679.383 Q 1786.846 1671.613 1791.186 1662.232 Q 1795.527 1652.852 1798.047 1646.580 Q 1800.567 1640.309 1801.720 1637.477 "></path>
    <path id="STROKE_7c1f58f8-91e1-43cb-aaa6-eb02dac80727" opacity="1.000" fill="none" stroke="#000000" stroke-width="17.812" stroke-opacity="1.000" stroke-linecap="round" stroke-linejoin="round" d="M 2012.371 1543.366 Q 2012.302 1541.960 2012.139 1538.643 Q 2014.013 1541.149 2011.524 1556.805 Q 2009.036 1572.462 2006.939 1588.616 Q 2004.842 1604.770 2003.949 1626.594 Q 2003.057 1648.418 2003.283 1660.851 Q 2003.509 1673.284 2003.651 1676.159 "></path>
    <path id="STROKE_f4f18340-d55d-4be6-b66a-73ab9ff581d2" opacity="1.000" fill="none" stroke="#000000" stroke-width="17.812" stroke-opacity="1.000" stroke-linecap="round" stroke-linejoin="round" d="M 2032.500 1462.712 Q 2029.289 1457.579 2029.722 1458.526 Q 2029.086 1458.009 2026.773 1455.068 Q 2025.484 1454.077 2030.674 1454.916 Q 2035.865 1455.754 2036.696 1455.919 "></path>
    <path id="STROKE_209246a6-33c7-4b93-8e33-1cbe131e306d" opacity="1.000" fill="none" stroke="#000000" stroke-width="17.812" stroke-opacity="1.000" stroke-linecap="round" stroke-linejoin="round" d="M 2049.470 1552.662 Q 2042.337 1550.131 2035.993 1655.634 Q 2038.408 1653.760 2044.748 1631.197 Q 2051.089 1608.635 2057.559 1589.228 Q 2064.030 1569.822 2082.039 1553.535 Q 2085.176 1549.718 2081.934 1570.555 Q 2078.692 1591.392 2076.249 1608.475 Q 2073.805 1625.559 2079.512 1640.530 Q 2083.041 1641.392 2092.300 1620.160 Q 2101.559 1598.929 2105.983 1587.035 Q 2110.407 1575.141 2113.754 1569.655 Q 2117.102 1564.169 2121.254 1561.904 Q 2122.769 1564.062 2120.486 1576.109 Q 2118.204 1588.157 2117.705 1596.850 Q 2117.207 1605.543 2118.028 1609.664 Q 2118.850 1613.786 2120.786 1616.433 Q 2122.722 1619.081 2130.128 1615.215 Q 2137.534 1611.349 2141.096 1609.058 Q 2144.659 1606.767 2146.171 1606.857 Q 2147.684 1606.948 2149.028 1608.036 Q 2150.373 1609.123 2150.822 1609.943 Q 2151.271 1610.763 2151.959 1613.169 Q 2152.647 1615.575 2154.510 1620.223 Q 2156.373 1624.872 2158.892 1627.755 Q 2161.411 1630.637 2162.987 1631.600 Q 2164.562 1632.562 2165.925 1632.938 Q 2167.288 1633.313 2169.552 1633.694 Q 2171.817 1634.076 2174.446 1633.645 Q 2177.076 1633.213 2177.215 1632.569 Q 2177.354 1631.925 2178.300 1631.365 Q 2179.247 1630.805 2183.896 1624.896 Q 2188.547 1618.986 2190.508 1609.868 Q 2192.469 1600.749 2191.401 1592.544 Q 2190.333 1584.339 2186.647 1576.567 Q 2182.961 1568.794 2178.783 1565.252 Q 2174.605 1561.710 2166.321 1560.189 Q 2158.036 1558.667 2147.316 1563.520 Q 2136.597 1568.372 2130.752 1574.409 Q 2124.907 1580.446 2123.236 1587.948 Q 2121.564 1595.451 2126.756 1600.597 Q 2131.948 1605.742 2132.990 1606.000 "></path>
    <path id="STROKE_7c4919aa-1e0c-40e2-8695-7858c92fe367" opacity="1.000" fill="none" stroke="#000000" stroke-width="17.812" stroke-opacity="1.000" stroke-linecap="round" stroke-linejoin="round" d="M 2216.082 1558.282 Q 2217.026 1555.070 2216.890 1555.875 Q 2217.085 1555.660 2217.173 1555.347 Q 2219.428 1551.763 2212.481 1575.639 Q 2205.534 1599.515 2201.583 1618.367 Q 2197.632 1637.219 2198.021 1655.920 Q 2200.326 1652.481 2208.323 1628.563 Q 2216.320 1604.645 2221.115 1589.017 Q 2225.910 1573.388 2234.261 1563.772 Q 2235.914 1570.264 2235.447 1569.066 Q 2235.965 1568.940 2236.419 1586.170 Q 2236.874 1603.399 2238.819 1617.060 Q 2240.764 1630.721 2244.673 1641.010 Q 2248.583 1651.299 2254.788 1656.845 Q 2260.993 1662.392 2268.394 1663.688 Q 2271.337 1660.755 2269.556 1639.753 Q 2267.775 1618.752 2265.915 1606.466 Q 2264.055 1594.181 2265.916 1574.812 Q 2267.776 1555.443 2269.491 1544.820 Q 2271.206 1534.197 2272.160 1528.049 Q 2273.113 1521.901 2280.255 1496.914 Q 2287.397 1471.927 2288.463 1468.478 "></path>
    <path id="STROKE_b6e8247d-0d1c-42af-9a87-08c590b5209a" opacity="1.000" fill="none" stroke="#000000" stroke-width="17.812" stroke-opacity="1.000" stroke-linecap="round" stroke-linejoin="round" d="M 2388.751 1477.777 Q 2388.692 1476.184 2388.896 1475.675 Q 2389.100 1475.167 2383.328 1468.738 Q 2379.436 1469.997 2369.990 1541.828 Q 2360.545 1613.659 2357.624 1656.997 Q 2354.704 1700.335 2354.402 1706.562 "></path>
    <path id="STROKE_b0eb7e2f-bd1a-4769-a48b-00d82d64e726" opacity="1.000" fill="none" stroke="#000000" stroke-width="17.812" stroke-opacity="1.000" stroke-linecap="round" stroke-linejoin="round" d="M 2354.402 1470.747 Q 2354.154 1470.188 2354.344 1468.998 Q 2354.534 1467.807 2354.994 1466.041 Q 2355.453 1464.275 2356.298 1464.782 Q 2357.142 1465.290 2355.787 1464.923 Q 2354.433 1464.556 2370.220 1460.561 Q 2386.008 1456.566 2410.142 1457.499 Q 2434.276 1458.432 2451.934 1460.540 Q 2469.592 1462.648 2488.182 1468.319 Q 2506.771 1473.991 2521.387 1480.382 Q 2536.002 1486.774 2548.532 1496.093 Q 2561.061 1505.412 2567.412 1512.146 Q 2573.763 1518.881 2575.508 1527.812 Q 2577.253 1536.744 2578.084 1544.095 Q 2578.915 1551.446 2572.540 1562.431 Q 2566.165 1573.416 2549.144 1585.433 Q 2532.123 1597.450 2508.772 1604.955 Q 2485.423 1612.460 2471.638 1615.505 Q 2457.854 1618.551 2446.322 1621.996 Q 2434.789 1625.441 2341.345 1631.238 Q 2344.097 1633.481 2345.785 1633.715 Q 2347.472 1633.949 2348.577 1634.251 "></path>
    <path id="STROKE_9606f431-aa18-4b96-806f-4bafa5715f63" opacity="1.000" fill="none" stroke="#000000" stroke-width="17.812" stroke-opacity="1.000" stroke-linecap="round" stroke-linejoin="round" d="M 2368.664 1636.862 Q 2366.799 1635.538 2365.484 1634.119 Q 2364.169 1632.700 2364.876 1633.261 Q 2365.584 1633.823 2363.642 1632.845 Q 2362.735 1631.485 2363.445 1633.947 Q 2364.156 1636.409 2365.093 1639.211 Q 2366.030 1642.013 2367.430 1645.976 Q 2368.831 1649.939 2370.694 1653.870 Q 2372.556 1657.801 2374.881 1661.700 Q 2377.205 1665.600 2379.995 1669.468 Q 2382.784 1673.336 2386.043 1677.174 Q 2389.302 1681.012 2392.328 1684.478 Q 2395.353 1687.944 2398.147 1691.040 Q 2400.941 1694.135 2403.507 1696.861 Q 2406.072 1699.586 2409.584 1703.120 Q 2413.097 1706.655 2418.280 1711.405 Q 2423.464 1716.155 2429.210 1720.958 Q 2434.956 1725.761 2439.672 1729.657 Q 2444.388 1733.554 2447.666 1736.253 Q 2450.943 1738.952 2454.320 1741.744 Q 2457.697 1744.537 2461.004 1747.112 Q 2464.312 1749.688 2469.100 1753.201 Q 2473.888 1756.714 2479.863 1760.510 Q 2485.838 1764.307 2490.541 1766.955 Q 2495.245 1769.604 2498.435 1771.301 Q 2501.625 1772.998 2504.899 1774.631 Q 2508.174 1776.264 2511.194 1777.733 Q 2514.214 1779.202 2518.418 1781.172 Q 2522.622 1783.141 2527.454 1785.176 Q 2532.286 1787.210 2537.184 1788.904 Q 2542.081 1790.598 2545.819 1791.794 Q 2549.557 1792.990 2553.769 1794.255 Q 2557.981 1795.519 2562.574 1796.625 Q 2567.167 1797.732 2572.134 1798.680 Q 2577.101 1799.627 2582.429 1800.413 Q 2587.757 1801.199 2593.435 1801.820 Q 2599.113 1802.441 2604.284 1802.881 Q 2609.455 1803.320 2614.110 1803.576 Q 2618.766 1803.832 2622.903 1803.903 Q 2627.041 1803.974 2632.468 1803.804 Q 2637.895 1803.633 2643.400 1803.077 Q 2648.905 1802.520 2652.678 1801.635 Q 2660.227 1799.864 2665.349 1798.357 "></path>
    <path id="STROKE_112b0401-0023-4ef9-9fa8-99533f7013ea" opacity="1.000" fill="none" stroke="#000000" stroke-width="17.812" stroke-opacity="1.000" stroke-linecap="round" stroke-linejoin="round" d="M 2451.824 1607.134 Q 2448.392 1605.819 2448.190 1605.636 Q 2447.987 1605.452 2448.013 1605.612 Q 2448.039 1605.772 2448.265 1605.421 Q 2448.491 1605.071 2442.445 1603.186 Q 2436.398 1601.300 2430.662 1603.327 Q 2424.926 1605.354 2423.600 1608.010 Q 2422.274 1610.666 2420.479 1614.056 Q 2418.683 1617.446 2418.064 1618.991 Q 2417.445 1620.536 2417.372 1624.728 Q 2417.298 1628.920 2416.864 1631.009 Q 2416.429 1633.099 2419.135 1638.168 Q 2421.841 1643.237 2428.909 1645.971 Q 2435.977 1648.704 2448.264 1647.607 Q 2460.552 1646.509 2472.503 1639.131 Q 2484.455 1631.752 2490.248 1626.716 Q 2496.041 1621.680 2497.669 1615.194 Q 2499.297 1608.708 2498.438 1603.729 Q 2497.578 1598.750 2495.415 1596.089 Q 2493.251 1593.428 2490.339 1591.657 Q 2487.427 1589.886 2484.192 1588.803 Q 2480.957 1587.720 2477.385 1587.324 Q 2473.812 1586.928 2467.950 1585.874 Q 2462.087 1584.820 2449.561 1589.302 Q 2437.034 1593.783 2429.097 1598.021 Q 2421.159 1602.258 2418.112 1610.445 Q 2415.064 1618.632 2415.416 1624.382 Q 2415.768 1630.133 2416.070 1631.840 "></path>
    <path id="STROKE_45a95e03-c905-4779-9a8b-4316d57d89d9" opacity="1.000" fill="none" stroke="#000000" stroke-width="17.812" stroke-opacity="1.000" stroke-linecap="round" stroke-linejoin="round" d="M 2532.172 1549.687 Q 2527.100 1544.595 2528.052 1545.578 Q 2529.005 1546.561 2528.971 1546.482 Q 2528.937 1546.403 2528.324 1546.125 Q 2527.711 1545.846 2522.485 1563.900 Q 2517.259 1581.955 2514.866 1615.236 Q 2512.474 1648.517 2512.075 1669.231 Q 2511.677 1689.945 2514.056 1705.039 Q 2516.434 1720.134 2518.779 1728.413 Q 2521.124 1736.692 2521.526 1739.102 "></path>
    <path id="STROKE_cacbc36e-19d4-4eb0-98ce-429891aef008" opacity="1.000" fill="none" stroke="#000000" stroke-width="17.812" stroke-opacity="1.000" stroke-linecap="round" stroke-linejoin="round" d="M 2569.735 1546.674 Q 2568.960 1545.899 2560.997 1536.831 Q 2560.432 1534.460 2557.334 1550.508 Q 2554.237 1566.556 2553.208 1607.063 Q 2552.180 1647.570 2552.721 1680.826 Q 2553.262 1714.081 2555.272 1737.589 Q 2557.281 1761.097 2558.084 1765.214 "></path>
    <path id="STROKE_aff76a7b-09b1-4ff8-a152-be0263aa2ecf" opacity="1.000" fill="none" stroke="#000000" stroke-width="17.812" stroke-opacity="1.000" stroke-linecap="round" stroke-linejoin="round" d="M 2584.398 1606.331 Q 2578.854 1606.165 2576.564 1604.121 Q 2576.560 1602.514 2593.090 1600.519 Q 2609.619 1598.523 2619.133 1597.896 Q 2628.646 1597.269 2640.550 1599.780 Q 2652.454 1602.292 2660.358 1603.859 Q 2668.261 1605.427 2669.567 1605.728 "></path>
    <path id="STROKE_527cb2fb-7f01-4e74-be51-721a4844a83c" opacity="1.000" fill="none" stroke="#000000" stroke-width="17.812" stroke-opacity="1.000" stroke-linecap="round" stroke-linejoin="round" d="M 2595.446 1626.417 Q 2595.337 1626.504 2586.407 1626.216 Q 2585.984 1625.693 2604.606 1621.350 Q 2623.229 1617.008 2641.376 1618.398 Q 2659.524 1619.788 2660.528 1619.989 "></path>
    <path id="STROKE_1c786eb6-ea81-4c48-bf99-67030452a76e" opacity="1.000" fill="none" stroke="#000000" stroke-width="17.812" stroke-opacity="1.000" stroke-linecap="round" stroke-linejoin="round" d="M 2589.420 1642.486 Q 2593.227 1642.631 2577.368 1642.085 Q 2577.368 1642.285 2577.368 1642.486 Q 2579.950 1641.791 2606.314 1642.471 Q 2632.678 1643.152 2648.863 1646.033 Q 2665.048 1648.914 2667.760 1649.115 "></path>
    <path id="STROKE_a6954cfd-31ef-416f-880d-74140c7e8ec3" opacity="1.000" fill="none" stroke="#000000" stroke-width="17.812" stroke-opacity="1.000" stroke-linecap="round" stroke-linejoin="round" d="M 2652.292 1550.490 Q 2644.688 1548.640 2638.432 1543.259 Q 2640.837 1540.591 2641.144 1540.949 Q 2641.924 1536.880 2675.618 1535.965 Q 2709.312 1535.049 2741.697 1535.443 Q 2774.081 1535.836 2793.229 1535.627 Q 2812.376 1535.419 2828.602 1536.979 Q 2844.826 1538.539 2851.555 1538.840 "></path>
    <path id="STROKE_7d4f0584-4f54-4620-910a-50ade5d5dc12" opacity="1.000" fill="none" stroke="#000000" stroke-width="17.812" stroke-opacity="1.000" stroke-linecap="round" stroke-linejoin="round" d="M 2704.519 1544.665 Q 2704.519 1544.565 2703.312 1543.260 Q 2702.744 1544.340 2702.921 1544.070 Q 2703.098 1543.799 2703.059 1547.771 Q 2703.020 1551.743 2702.973 1555.479 Q 2702.926 1559.215 2702.854 1564.040 Q 2702.781 1568.865 2702.667 1575.227 Q 2702.552 1581.588 2702.417 1587.517 Q 2702.283 1593.446 2702.247 1597.777 Q 2702.212 1602.108 2702.226 1606.820 Q 2702.241 1611.531 2702.299 1616.626 Q 2702.357 1621.721 2702.455 1627.203 Q 2702.552 1632.686 2702.691 1638.559 Q 2702.830 1644.432 2703.018 1650.705 Q 2703.205 1656.978 2703.444 1663.671 Q 2703.682 1670.363 2703.943 1677.528 Q 2704.204 1684.692 2704.376 1691.216 Q 2704.549 1697.741 2704.596 1703.630 Q 2704.643 1709.520 2704.588 1714.734 Q 2704.533 1719.948 2704.334 1726.696 Q 2704.136 1733.444 2703.876 1739.177 Q 2703.616 1744.911 2703.462 1747.243 "></path>
    <path id="STROKE_78875124-b4a2-4a48-84a3-ebffea7b3c1a" opacity="1.000" fill="none" stroke="#000000" stroke-width="17.812" stroke-opacity="1.000" stroke-linecap="round" stroke-linejoin="round" d="M 2741.680 1557.320 Q 2742.175 1553.366 2742.282 1554.106 Q 2744.727 1547.165 2743.990 1549.486 Q 2743.865 1550.094 2746.802 1545.268 Q 2747.611 1550.323 2745.621 1579.805 Q 2743.630 1609.287 2743.201 1647.550 Q 2742.771 1685.813 2742.703 1723.392 Q 2742.634 1760.971 2742.659 1789.908 Q 2742.684 1818.845 2742.684 1829.491 "></path>
  </g>
</svg>