<svg id="Layer_1" data-name="Layer 1" xmlns="http://www.w3.org/2000/svg" viewBox="0 0 1480.24 514.16"><path d="M291.34,204.86c10.71-20.63,17.86-54.73-.77-74.13-25.72-30-81.13-44-116.11-23.95-25.14,19.08-23.77,49.25-6.65,73.41,16.17,24.22,22,33.23,45.45,53.22,28.59,24.32,68.88,50.9,101.85,69.44,19.53,11.24,36.45,21.48,53.73,32.77C388.7,349.68,410.93,370.8,424,390.8c6.16,12.5,6.43,23.73-1.69,39.42-10.33,25.33-25.84,33-48.66,45.16-28.21,14.2-68.34,19.93-99.42,23.1-40.31,5.23-79.55,2.38-119.18.85-17.41-1.58-32.1-3.81-49.63-6.48-10.61-1.21-33.93-9.13-41-24.42-11.08-24-6.42-53.3-1.49-79.59,3-13.5,5.53-25.73,7.47-36.16,1.24-3.95-32.22,57.15-40.67,80.43-6.72,21.82-.41,45.82,11.49,62.55,8,9.21,21.34,17.06,34.13,22.77,74.1,29.08,236,10.41,306.77-26.46,56.91-29.25,105.61-78.33,51.45-137.2-11.78-13.17-37.28-32.31-52-42.13C364,300.71,346.87,293.35,327,281.71,284.09,257.79,233.22,230,203.15,192c-4.56-6.42-21.77-27.69-23.43-37.41-11.59-33.86,23.53-41.36,50-39.72,21.18.75,40,9.18,52.94,23.08,12.81,14.42,13.54,31.84,10.6,51.62C291.16,201.7,289,208.25,291.34,204.86Z" transform="translate(-27.02 -18.53)"/><path d="M353.14,303.66c-.36-40.93-3.13-74.11-3.36-112.23-3.21-3.86-6.43-12.12-9.49-11.16-4.43,4.36-6.37,7-7.26,8.7-4.61,2.08-6,1.58-7.75,4.53a524.54,524.54,0,0,1-4,59.38c-2,25.61,3.32,76.86,14,99.32,6.18,12.25,4.27,23.71,11.47,23.51a4,4,0,0,0,3.31-4.65C350.11,352.65,354.23,330.2,353.14,303.66Z" transform="translate(-27.02 -18.53)"/><path d="M596.56,226.19c-2.91-14.69-14.69-33.33-25.1-42.36-3.81-3.23-16-7-23.49-8.56-18-1.71-39.41,8.33-53.77,23.35a16.88,16.88,0,0,0-2.49-4.55c-24,5.55-21.18,18.33-30.09,39-3.06,8.14-9.08,27.38-15.63,44,0-2.4-.07-5,0-7.93.25-15.64.78-32.85-.3-52-.95-14.18.82-28.3-9.7-33.16-6.46.35-6.67-.16-11.39,4.85-19.07,20.07-28.37,49.68-34.39,79.23.68-23.15-1.74-43.58-.49-66.74.11-.77-.68.16-.45-.31a.09.09,0,0,0,0-.12c2.64-.91,3.11-5.54-.34-6.27-21.46-1.8-12.23,106-12.78,144.9,38.95,10.8,23.81-68.52,47.36-118.35C420.34,254,417,289,430.56,317.9c28.74,17.86,32.1-10.6,37.78-32.45,2.64-13.72,5.52-25.43,7.57-35.12,1.09,15.75,4.12,29.07,18.5,34.74,11.24,2.22,26-12.56,32.62-18.42a6.78,6.78,0,0,0,.78-1c5.36,12.2,15,29.14,29,31.15,7,1.16,17.56,1,23.3-4.14,0-.05.36-.65.76-1.47C596,276.87,602.06,247.33,596.56,226.19Zm-209.1-25.3h.05C387.39,200.91,387.36,200.91,387.46,200.89Zm113.62,59.16v0a26.81,26.81,0,0,1-.87-3.31c1.65.42,3.11.89,4.34,1.32C503.43,258.7,502.27,259.38,501.08,260.05Zm66.53,17.4h0ZM564.55,282c.78-1.64,1.69-3.61,1.61-3.52a6.52,6.52,0,0,0,.63-.44C566,279.39,565.25,280.7,564.55,282Zm12.71-30.66c-.08,10.91-5.6,18.62-10.21,26.27-12,4.24-19-9.13-22.88-18-2.52-7.92-9.45-12.58-17.34-13.23-5.4,1.33-10.19,4.13-15.55,7.46a2.89,2.89,0,0,0-1.47-.56c-.91-.58-2.27-2-5.18-9-.71-4.47.63-2.63,2.35-6.55-.24-3.12.37.7,1.68-2.67,2.55-11.32,9.67-18.18,21.3-25.14,9.08-5.58,8.53-5.91,16.24-6.87,7.69-.64,7.3-1.13,11.76,1.12C571.83,212.14,579.18,235.09,577.26,251.37Z" transform="translate(-27.02 -18.53)"/><path d="M629.1,188.22s0,.13,0,.33l.73-.55A5.25,5.25,0,0,1,629.1,188.22Z" transform="translate(-27.02 -18.53)"/><path d="M695.45,202.55C681.94,125,702.66,41.34,700,45.1c-12.11,16.84-30,85.65-31,109.19-1.19,29.15,2,53.5,5.91,86.21,1.35,11.17,4.35,24.13,8.32,42.81.22,1,.44,2,.66,2.93a30.49,30.49,0,0,1-4.39-7.69C666.75,255,662.16,220.7,656.15,193.4a39.16,39.16,0,0,0-1.95-7.48c-.61-2.19-6.39-7.87-7.74-10.84-2.17.54-12.67,2.56-19.15,6.56-5.08,3.26-4.85,13.07-7.06,16.47.71-10.71-5.69-27.92-5.71-27.75-.1.39-3.35,3.31-2,3.42l.09,0-.3.09c0,.05-.29.86-.35,1.14a4.07,4.07,0,0,1,0,.46c-.15-.25-.37-.89-.47-.74-15.34,44.13-25,95-19,140.32,26.07.89,30.41-15.29,34.79-37.71,3.87-15.11,5.58-28.72,7.6-41.37,6.83,42.31,21,86.16,65.6,92.25C739.06,299.8,696.47,242.51,695.45,202.55Zm-83.36-27.42c4.88,1.47.7.63.2.48C612.13,175.33,612,175.13,612.09,175.13Zm38.67,5.61,1.39,1.81C651.53,182.35,650.76,180.74,650.76,180.74Z" transform="translate(-27.02 -18.53)"/><path d="M853.92,37.86c-13.27-2.93-20.1,5.19-21.2,6.2-.71,1.12-1.45,4.74-2.13,6.95-2.77,12.91-3.23,33.2-3.73,48.47-2.17,52.82-4.06,104.58-4.77,157C821,293.6,824.8,338.75,830.82,375c.06,8,12.78,7.9,12.49-.27,8.88-57.86,7.66-120,9.8-178.61,1.6-40.61,1.67-81.92,3.18-122.79.15-10.51.85-15.22.57-22.16A126.09,126.09,0,0,0,853.92,37.86Z" transform="translate(-27.02 -18.53)"/><path d="M819.88,42.67a93.52,93.52,0,0,1,18.63-6.46c85-19.51,198.14-7.13,264.45,53.14,11.7,9.89,21.25,29.7,23.35,43-.85,20.66-15.46,35.64-36.59,51.34-24.45,19.54-75.05,35.81-102,43.65-59.61,18.78-55.41,15.61-176.81,31.45-2,21.11,8,7.24,9.4,2.39,113.42,14.58,119,7.18,174.15-10.33,51.67-15.72,151.12-56.59,147.16-122-3.67-14.75-12.4-37.26-27-51.15C1046.43,13,908.49,4.33,821.48,37.32c-3.16,1.29-4,2-5.75,4.88a12.2,12.2,0,0,0-.64,8C816.22,52.43,818,43.94,819.88,42.67Z" transform="translate(-27.02 -18.53)"/><path d="M852.59,274.47c-2-1.08-3.88-2.55-4.21-4.54-.08,0,.62,1.24.57,1.24s-1.26,4.66-1.27,4.64l-3.84.87c.06-.08-1.16-.62-.93-.58s-1.2-1.9-1.1-1.89,1.34-4.24,1.35-4.22c.67-.22,2.55-1,3.11-.56a4,4,0,0,0-.63-2.14c2.15,1.27.73-.13.75-.41,0-.07-1.56-.86-1.56-.93s-3.8-.12-3.83-.17-3.65,2.89-3.72,2.88-.82,2.38-.89,2.4c-.58,7.73,2.17,14.82,4.16,23,8.71,29.83,32.5,52.22,54.14,73.15,84.07,75.28,192.15,142.23,309.35,130.1,17.94-1.2,37.68-6,54.38-12.26,6.07-3.76,19.94-5.32,18.73-11.21a3.08,3.08,0,0,0-3.94-1.85c-35.62,10.61-75.5,2.37-112.13-.53-72.18-7.33-139.33-38.86-196.16-83.23-42-30.62-84.85-65.08-110.8-110.53-1.57-2.31-2.36-4.37-4-6.3-.8-1-.63,1.43-1,1.12,0,0-.8,2.29-.85,2.25s-3.61,2.85-3.61,2.79-3.77-.11-3.73-.15-1.45-.81-1.39-.84c.26-.11-.81-1.12-.4-1,3.46,1.3,4.68,1.75,5.2,1,.82.51,2.64-.21,3.45-.48.07,0,1.4-4.26,1.42-4.27s-1.54-2.21-1.66-2.4-1.56-.86-1.58-1-3.85.86-3.87.84-1.29,4.67-1.31,4.69.72,1.38.72,1.46c2.16,1.23,5.11,3.23,7.43,4.9C852.73,282.79,856.45,276.79,852.59,274.47Z" transform="translate(-27.02 -18.53)"/><path d="M1018.53,197.59A55,55,0,0,0,997,191.54c-13.37-2.11-23.67-.67-42.14,5.09-53.87,16.79-49.27,62.82-49.27,62.82-3.89,45.87,64.66,37.31,93.41,18.79,21.32-13.59,30.88-21.29,35.7-40.39C1037.63,221.67,1033,204.86,1018.53,197.59Zm-6.32,41.17C1009.63,251.7,1005,256,989.65,265c-18.09,10.6-59,24.53-66.31,1.12,1.16-8-2.32-14,2-22.38,1.25-3.32,2.56-6.31,3.51-8.88s1.4-2.25,6.29-5.09c5.81-4,21.54-.55,21.81-.36a5.2,5.2,0,0,0,.58,0c2,.95,6.67,3.06,7.39.39a2,2,0,0,0-1.33-2.53c-2.48-.75-3.34-1-3.94-1.22-.7-1-1.68-1.31-3-1.75a34.18,34.18,0,0,0-11.22-3.59c4.84-2.42,10.27-4.74,16.44-7.77,11.23-4.92,15.11-6.37,20.59-6C1002.5,207.77,1018.27,212,1012.21,238.76Zm-55.59-9.7" transform="translate(-27.02 -18.53)"/><path d="M1073.68,404.73c.28-2.38-1.42-7.64-1.18-16.14,1.3-8.87-1.18-18.2-1.37-32.59a374.56,374.56,0,0,1-4.84-46.85c-2.8-43-1.15-121.55,5.94-164a3.66,3.66,0,0,0-.57-5.11,21.26,21.26,0,0,0-.21-3.72l.54-1.51a6.84,6.84,0,0,0-.9-.93,8,8,0,0,1,.61-4.48c-1.07-.37-1.47-.3-2.22-.54,0,0-.62.69-1.57,1.76a4.22,4.22,0,0,1-1-1.51c0-.07-11,2.53-11.1,2.54-2.58,3.12-7.59,5.74-9.08,10.11-20.83,43.06-13.84,173.77-3.19,220.35,5.92,13.12,9.13,25,15.69,31.14,7.32,7.34,6.72,15.66,12,15.28A3.16,3.16,0,0,0,1073.68,404.73ZM1069.6,132.2v0S1069.65,132.22,1069.6,132.2Zm.72-2.33-.42.46,0-.27C1070,129.8,1070.2,130,1070.32,129.87Zm-1.5,1.69,0,0-.14-.14Zm-8.51,15" transform="translate(-27.02 -18.53)"/><path d="M1116.45,114.09c3.11,4.93,1.46,1.47,1.5,1.35s-10.27-5.7-10.32-5.81-10.11,4.48-10.24,4.47a28.91,28.91,0,0,0-4.88,9.09c-10.39,49.82-4,262.56,23.45,303.71,1.5,6.24,2.35,10.75,3.29,12.51,1.29,5.17,9.59,3.22,8.13-2.12,0-2-.72-5.67-1.3-12.06,2.49-6.9-1.8-15.3.15-26.59-4.35-75.47-15.87-195.62-6.25-269.89-.09-1.68-.77.23-.91-.48A74.66,74.66,0,0,1,1116.45,114.09Z" transform="translate(-27.02 -18.53)"/><path d="M1140.69,222a12.57,12.57,0,0,0,3.06.89,498.31,498.31,0,0,1,106.43-12.6c8.88-1.29,13.64,1.94,15.18-1.45-.22-3.76-6.18-2.11-14.23-5.63-7.1-3-16.26-4.31-26.94-8.83s-23.72-4.91-32.47-4c-9.9,1.93-50.86,5.27-59.73,13.77-.27.63-2.84,2.36-2.76,2.9s-2.81,7.63-2.35,7.78A50.83,50.83,0,0,0,1140.69,222Z" transform="translate(-27.02 -18.53)"/><path d="M1153.73,248.81c13-.55,33.5-6.23,48.62-5.63,14-7.53,35.87-11.72,49.65-12.1,2.62.39,3.2-3.75.55-4.07-.45-.22-3.15-.31-7.57-.56-4.4-1.92-10.83-2-19.2-4-8.34-3.7-18.24-3.07-27.17-5.41-16.61,4.6-38,12.8-50.9,21.59-.06.14-1.52,1.34-1.48,1.45s.07,7.67.17,7.64C1158.83,247.63,1153.58,248.79,1153.73,248.81Z" transform="translate(-27.02 -18.53)"/><path d="M1129.82,267.85c16,10.75,25.7,10.58,50,9.76s42-.46,57.75-4.34c16.86-3.09,29,1.54,30.18-4.6-.21-5.16-11.72-7.38-28.51-9.94C1150.08,245.14,1130,267.65,1129.82,267.85Z" transform="translate(-27.02 -18.53)"/><path d="M1208.24,107.16c0-.3-.11-.59-.16-.92A3.77,3.77,0,0,0,1208.24,107.16Z" transform="translate(-27.02 -18.53)"/><path d="M1500.76,85.35c-20.89-5.27-55.23-13.79-82-11.6-55.86.66-142.56-2.11-201.58,4.93-9.18,1.82-14.41,3.28-18.59,8a24.36,24.36,0,0,0-4.75,6,6.58,6.58,0,0,1-.43,2.47,24.52,24.52,0,0,0,1.32,14.49c4.84,12.12,15.61,27.2,15.21,22.58-.3-3.35-6.24-14.5-2.67-21.08,0,0,1-2.7,19.31-4.12,77.36-6.88,167.93-1.2,240.8-5.19,16.75-3.81,38.49,2.09,39.85-9.5A6.74,6.74,0,0,0,1500.76,85.35Zm-286.29,23.07h0Z" transform="translate(-27.02 -18.53)"/><path d="M1287.4,102.72a.94.94,0,0,0,0-.16C1287.23,102.15,1287.28,102.34,1287.4,102.72Z" transform="translate(-27.02 -18.53)"/><path d="M1288.21,97.32c-1,1.1,1.1-.16,2.8-1.2a4.36,4.36,0,0,0-.76-.48S1288.21,97.29,1288.21,97.32Z" transform="translate(-27.02 -18.53)"/><path d="M1299.19,102.16c0,.11,0,.23.08.34.06-.26.1-.46.07-.45l-.14-.11v0A1.21,1.21,0,0,1,1299.19,102.16Z" transform="translate(-27.02 -18.53)"/><path d="M1305.41,176.16c-1.77-23.65-.42-50.64-6.14-73.66a6.38,6.38,0,0,0-.27,1.36l-.15-.15a3.72,3.72,0,0,0,.34-1.55l0-.14a.38.38,0,0,1,0-.1l0,0a.16.16,0,0,1,0-.06,9.1,9.1,0,0,0-.74-3.79s-.32-.19-.81-.46a7.06,7.06,0,0,1-.18-1.14l-1.47.23c-1.47-.81-3-1.67-3.06-1.69a14,14,0,0,0-1.9,1.09l1.65,1.15c-4.57.81-4.87,1.13-5.4,1.06,0,.13-.56,2.12-.48,2.15l5.74,4.14c.27.28-4.61-.33-4.59-.32s-.34-1-.53-1.58c-3.73,13.93-3.93,26.75-5.12,41.86-1.81,25-3.28,48.09-.93,73,3.12,51.69,12.74,103.86,11.75,155.81.12,5.35,0,9,0,11.22-.31,4.13,6.31,4.65,6.49.37,1.86-18.84,2.86-41.77,3.61-61.17C1304.86,275,1306.32,224.88,1305.41,176.16Z" transform="translate(-27.02 -18.53)"/><path d="M1365.9,99.86c-18,.42-19.84,1.68-18,4.35a24.67,24.67,0,0,0-1.85,2.18,5.29,5.29,0,0,1,0,1.52c-5.12.74-5.25,2.6-5.48,6.11-.09,23.87-1.68,47.93-1.86,71.94-.34,16,.15,33.25-.34,48.21a1.83,1.83,0,0,0-.06.19c-3.17,42.8,4.86,89.2,4.55,132.77.91,34.08,1.23,69.71,1.59,104.18.21,9.15.13,18.4.33,27.72a7.34,7.34,0,0,0,14.67.13c.36-9.32.45-18.54.85-27.69.65-18,1.19-36,1.91-53.83,1.53-55.76,7.26-126.1,3.93-174.88.07-.24-.42,1-.58,1.39a42.61,42.61,0,0,0,2-14.17c-.12-31.62.36-66.91,1.87-98.78C1369.37,122.7,1372.45,105.55,1365.9,99.86ZM1355,107.54,1348.1,105a1,1,0,0,1-.41.3Zm-1.58,1.33c0,.06,0,.15,0,.24s-.06,0-.06,0S1346.51,106.21,1346.52,106.28Z" transform="translate(-27.02 -18.53)"/><circle cx="312.82" cy="66.77" r="12.1"/></svg>