<svg id="Layer_6" data-name="Layer 6" xmlns="http://www.w3.org/2000/svg" viewBox="0 0 936.53 548.45"><path d="M441,550.3c1.18-22.44.43-35.17.06-38.65.26-2.29-1.69-35.63-1.69-35.63s-7.81,39.68-9.09,45c-.27-5.44-.44-10.31-.51-15-.11-7.92-.56-26.27-.6-33s-.1-17.3-.2-31.55.05,5.18.42-22.42c.29-21,4.14-72.32,2.26-73.93,0-6.15-.19-11.84-.45-15.91.17-.87.37-1.78.63-2.73l-.8.3a30.29,30.29,0,0,0-.41-3.73c-5.72,3.48-10.18,6.45-13.65,9-18,6.88-19.44,8.82-20.2,21.32-.94,15.32-2.52,74.06-2.43,88.32s.69,56.94.81,64.86.58,18.27,1.33,29.16,2,21.84,3.29,29.21,5.8,23,17.58,29.4c4.55,2.47,11.34.71,11.52.65,6.45-1.79,8.46-8.92,9.63-18.33C439.26,570.44,440.36,562.25,441,550.3Z" transform="translate(-14.42 -153.38)"/><path d="M492.57,584c-.54-5.6-1.06-11-1.57-17.4-.22-6.41-.93-16.24-1.83-29.88s-1.7-28.53-2.11-45.55c-1.23-17-2.3-22.63-2.61-36.51s1.91-91.27,2.74-94.29c-.36.19,2.89-19.53-14.22-25.92-23.43-8.75-20.48,16.76-22,32.57-.93,15.87-5.82,90.49-5.82,90.49s3.74-19.67,4.58-19.82c0,2.78.09,5.37.14,7.74.31,13.88.89,12.19.94,15.81s.46,14.43.68,31.46c1.06,17,1.91,32.76,2.88,46.4s1.71,23.85,2.5,30.21c.5,6.39,1.13,13,1.85,18.53s1.62,13.43,5.46,23.56c4.69,10,5.57,17.62,8.08,21.22a8.57,8.57,0,1,0,17-2.48c1.38-4.17.6-10.89,3.11-21.69A93.35,93.35,0,0,0,492.57,584Z" transform="translate(-14.42 -153.38)"/><path d="M77.57,365.73c0,.13,0-.7.07-.66a1.28,1.28,0,0,0-.06-.26A5.66,5.66,0,0,1,77.57,365.73Z" transform="translate(-14.42 -153.38)"/><path d="M79.45,516.92c1.13-34.78-1.28-69.67-4.59-104.93-1.29-14.69-1.82-25.81-2-34.25a11,11,0,0,0,4.69-11.67,2.77,2.77,0,0,0,0-.58,16.62,16.62,0,0,0-1-2.65l.57.06s.37,1.34.53,1.91A5.51,5.51,0,0,0,75.66,361c-1.09-2.36-2.41-15.19-3.3-17.41a15.34,15.34,0,0,0-9.54.19c-.12.07-.81.84-1.43,1.54h0c-1.22-.69-9.83,13.43-11.24,13.6-1.67,1.54-7.11,13.14-7.65,17.26-1.09,8.25-.83,25.32,1.62,45.3s4,35.93,6.49,46.41,4,21,7.63,29.92c3,9.08,4.72,39.95,8.76,52.44,3.55,12.56,4.8,21.34,5.79,26.23a3.23,3.23,0,0,0,.2.77c1.05,10,1.5,16,1.73,18a2.93,2.93,0,0,0,5.85-.22C80.68,591,79.37,551.62,79.45,516.92Z" transform="translate(-14.42 -153.38)"/><path d="M408.23,647.77c-2.25-1.19-12.91-6.91-32.13-17.26-17.44-13.65-39.78-21.89-79.54-44.39-72.08-40.79-109.34-64.24-121.06-70.45s-27.82-15.56-41.8-20.9C126.39,492,117.82,485,108.49,482c20.28-5.37,49.7-10.6,70.5-18.87,78.55-31.25,101.21-62.35,104.52-65.65,3.45-3.14,7.87-11.1,7.83-13.5-.71-36.43-14.09-48.68-111.51-52.25-22-.81-53.47-5-93.86-4.62-20.19.17-36.5,10.79-47.3,12s-22.83,16.23-24.25,18.36c14.56,11.13,20.44,11.52,24.1,10a5.62,5.62,0,0,0,3.86,1.51c.16-.08.53-.09.61-.17s4.57-2.86,4.51-2.91-.24-.45-.57-1.1c10-.66,22.76-1,39.1-1,40.39.06,71.34.28,93.36.71s38.87,1.42,52,2.74a231.21,231.21,0,0,1,29,4.37,77,77,0,0,1,14.11,4.25c1.39.6,2.43,2.59,2.05,7.38-.18,2.39.52-.07-3,3a79.66,79.66,0,0,1-14.43,8.88c-14,7.05-24.07,12.26-31.86,15.41s-28.91,11.29-66.29,20.29c-37.49,8.69-77.16,16.62-123.53,26.75C21,480,27.9,503.21,28,503.27s4.56,3.66,4.73,3.74c.34.15,173.33,73.71,250.39,104.06,38,16.19,127.93,45.64,127.93,45.64S411.47,649.46,408.23,647.77ZM42,368.36a1,1,0,0,0-.08-.18l.05,0C42.06,368.29,41.89,368.27,42,368.36Z" transform="translate(-14.42 -153.38)"/><path d="M688.71,415.44l-.12,0Z" transform="translate(-14.42 -153.38)"/><path d="M776.2,676.18c-.19-17.39-2-32.25-1.12-53.18-2.2-58.15,3.92-117.33-1.54-175.26-1.24-13.86-3.75-34.82-12.86-43.64-13.1,2.94-17.64,13-18.5,24.95-6.33,88.66-22.85,138.35-21.45,126.35-3.81,32.8-5.4-106.92-8.73-139.58,2.19-2.92-7.5-14-7.53-13.9s-3.9,1.54-5.23,1.89c-12.1,1.3-8.14,40.1-8.83,50.21.54,54.82.28,105.85,4,159l.21,0c0,.77.24,13.71,10,12.66,16.69-1.79,13.86-14.11,14.12-16.42,3.54-24.21,17.26-81.39,22-105.54-.07,31.83-.85,84.43-.18,123.3.45,26.59-2.55,39.26,2.49,59.32C749.61,712.78,782.41,702.73,776.2,676.18Z" transform="translate(-14.42 -153.38)"/><path d="M470.74,516.53c.4-.25.82-.54,1.24-.84l.46-1C472,515.25,471.4,515.85,470.74,516.53Z" transform="translate(-14.42 -153.38)"/><path d="M473.48,512.46s-.45,1-1,2.28C477,509.78,473.46,512.36,473.48,512.46Z" transform="translate(-14.42 -153.38)"/><path d="M682.38,527.38c-6.46-3.6-15.68-3.69-27.59-7.36-23.78-12.23-53.17-12.29-87.35-9.15-25.68,1.49-39.88,1.76-49.41,1.9,2.79-1.41,4.16-6.62,7.42-8.35,5.68-3,5.82-9.13,20.37-4.59a73.88,73.88,0,0,0,9.13.63,68.18,68.18,0,0,0,12.21-1.2c1.5-.37,3-.79,5.44-1.51s8-1.85,19.24-2.29c11.31-.12,24-3,33-17.44-.91-12.67-7-13.07-12.6-11.14-4.85-5.67-9.26-8.19-13.46-8.93,7.8-2.86,5.06-5.36,11.88-7.44A176.55,176.55,0,0,0,636,441.38c3.12-.44,6.26-2.8,8.19-3.29,1-.25,2.69-3.26,3.4-3.67s.55-5.89.88-6.61c-5.09-16.16-20.92-21.5-28-23.95-7.09-1.69-19.31-1.36-31.61-.27a306.43,306.43,0,0,0-40.2,6.52c-12.23,2.91-26.42,7.28-37.47,13.49-5.46,3.27-8.11,4.18-10.95,6.1-1.28,1.54.45,1.32-.37,2.56-.41.62,3.08,1,2.67,1.48S487.75,446,488.09,446.11a90.31,90.31,0,0,0,9.26,5.66c-4.47,3.72-1,6.35-.91,6.79.13.64,4.33,1,4.79,1.61.94,1.15,5.11.49,7,1.26,3.41.35,9.74-1.7,16-2.79,12.42-2.5,22.17-5.51,34.35-8.65a159.32,159.32,0,0,1,33.36-5.3c9.16-.55,15.51-.83,21.13-1.37-1.35.5-22.83,16.8-42,22.8-15.26,2.16-40.68,1.67-58.87,5.92-4,2.27-7.16,8.52-7.84,8.83-.34.16.65,7,.45,7.31s23.76,5.11,23.77,5.5,1.2,1,2.7,1.61c-2.74.83-5.44,1.59-8.1,2.21-8.33,1.69-15.36,4.45-21.46,5.35-5.69.78-14,8.8-19.73,12.84-1,2-2.05,4.32-2,4.36s3.1,10.83,3.39,10.87c.56.06,4.75,3.53,5.8,3.67.87,2.45,5.5,4.59,8.95,7.8,6.78,6.72,35.29,9.67,69.48,11.39,34.2,2.89,62.91,3,86.93-8.79,12-3.43,43.77-12.14,43.77-12.14S688.87,527.81,682.38,527.38Z" transform="translate(-14.42 -153.38)"/><path d="M950.81,398.39c-5.1-.14-12.08.28-21-.1s-47.11-.42-57.57-2.13c-10.47-1.88-47.3-1.7-65.14-2.56-38.23-1.85-93.34-2.92-119.12-2.12-12.89.4-41.64,1.52-41.75,1.51s-14.74,16.72-14.74,16.75c-.37,16.1,17.63,20.41,17.35,24.28,12.41,2.15,23.6,2.38,28.53-5.68a76.19,76.19,0,0,1,11.45-.81c25.79-.4,124.44-3.07,142-4.51,17.54-3.37,32.16-3.57,42.4-6.43,10.26-2.69,34-6.08,38-6.84s10.37-1.08,19.18-2.64S952.49,398.29,950.81,398.39Z" transform="translate(-14.42 -153.38)"/><path d="M404.44,457.05c-2.44-9-7.42-27.2-15.83-34.68s-29.38-17.8-45.74-18.83c-20-1.26-31.18-1.64-35.63-.4-20.92,4.1-43.37,10.55-48.48,12.26-8.75,2.93-16.47,4.92-26.59,3.25-4.92-.24-23.82,9.65-28.52,12.07,1.9,9.76-7.21,5.73-2.62,15.42,1.23,7.94-1.19,12.72,1.55,18-1,3.42-2.5,7.45-2,8.13a6.88,6.88,0,0,0,13.6,2c.65-.51.8-.25,2.85-3.18,5.81-1.11,7.91-5.26,15.11-8.84,1.1-.18,2-.32,2.89-.42-9.88,9.27-20.26,21.08-23.84,39.89-1.47,7.7,1.12,45.41,4.21,52.13s17.22,19.07,22.3,21a95.82,95.82,0,0,0,19.87,4.35c4.56.32,7.84.62,12.74,1.23s23.57-3.12,36.93-8.54,28.54-12.8,42-19.75,42.38-28.74,52.2-53C405,490,406.89,466,404.44,457.05Zm-158.07,7.84.31.14C245.55,465.42,244.94,465.69,246.37,464.89Zm46.37,72.24c-14,3.46-37.3,4.68-42.42,2.88a5.71,5.71,0,0,0-2.2-.5c0-.35-.33-1.25-1.75-3.31-4.19-6.09-.87-37.18,1.89-45.21s4.33-14.68,16.55-29.74c1.77-2.18,3.64-4.26,5.58-6.27,1.32-.33,2.63-.64,3.9-.94,9-2.1,12.86-2.66,24-3.88s17-.41,33.24,1.71,50.28,5.93,51.93,23.64C385,492.55,359.88,520.56,292.74,537.13Z" transform="translate(-14.42 -153.38)"/><path d="M381.15,246.3c-.09-5.71-13.42-14.63-33.91-20-30.88-8.08-60.11-14.64-58.95-21.28.93-5.28.29-3.65,6.14-8,18.71-14.06,60.36-28.83,71.23-22.54-2.94-1.7-8.45-8.66-16.19-9.9-7.17-1.15-9.93-1.15-12.68-.85-15.36,1.67-42.58,17.14-55.87,24.65-8.63,4.88-21.68,18.69-11.2,33.79,13.76,13.25,88.16,26.79,87.85,35.47-.56,15.8,1.06,29.61-50,37.06-20.09,2.94-67.35,8.9-81.5-.66-2.17-1.28-.57.26-2.19-1.18s-.85.43-2.74-.72c-1.21-1.36-1.39-2.1-3.08-3.51-3.31-1,.51-14.13,1-14.92,1.62-2.78-2.85-5.21-4.33-2.38-1.17,1.19-2.62,4.29-5.77,8.07-3.92,3.43-5.14,10.29-6,12.2-1,1.94-.42,4.44-.67,6.24-.94,2,1.64,7.08,2.44,9.13,13.58,18.72,44.53,21.37,65.71,18.56,27.93-2.59,72.54-11.89,96.84-27.39C379,288.44,381.43,263.92,381.15,246.3Z" transform="translate(-14.42 -153.38)"/><path d="M399.72,190.66s-4.49-2-4.49-2-1.23-.19-1.25-.17-.57,0-.67.05c-.12-.89-.63-.91-1-1.81-.74-.88-10.17,2.45-10.78,2.81s-5.23,12.56-5.8,19.76a242.55,242.55,0,0,0,.09,29.29c.63,11.19,1.71,22.71,7.14,32.08,2.85,4.67,4,16.51,6.52,19.1.71,2.83.33-3.43.74-2.68.17,1.84,3.65,7.6,3.65,7.6s3.06-11,3-13.91c1.82-3.16,1.29-7.12,2.81-12.37,2.74-10.48,1.84-20.08,1.17-31.28a184.21,184.21,0,0,1-.2-25.9,12.84,12.84,0,0,0,0-2.6c.55-4.86.17-6.39,1.1-8.73C403.79,194.86,399.75,190.67,399.72,190.66Z" transform="translate(-14.42 -153.38)"/><path d="M445.93,271.79a24.94,24.94,0,0,0,2.2-1.2c.11-.2,1.51-2.08,1.66-2.44,4.06-8.24,8.54-36.68,12.07-45.56.77,25.66,14.6,61.73,17.82,79.4,3.53,15.19,17.78,10.39,14.77-5-3-17.4-6.88-51.52-9.12-76.67-1.85-15.37-1.43-23.07-5.61-34.14-.11-.16-1.7-2.66-1.81-2.73s-6.05-3.67-6.14-3.65c-12.79,2.24-16.85,6.13-20.9,15.19-3.94,10.46-6.81,20.8-13.24,35.08a66.71,66.71,0,0,1-2.39-11.85c-1.1-6.82-4.46-5.23-3.17-6.58-20.79-9.49-20.94,4.65-19.08,13.41-1.21,11.82-3,19.86-4.3,35.26-.92,11-10.8,42.59-7.95,53.28,14.82-.9,23.55-41.24,24.46-53.78.8-.73,1.21-7.4,1.52-8.52,1.25,1.28,8.38,23.55,8.84,23.16l4.82.13" transform="translate(-14.42 -153.38)"/><path d="M560,233.62c-9.37-24.22-38-35.07-60.55-22.19-7,2.81-15.14,11.72-17.57,19.74-.57,3.59.65,15.5,4.79,17.31,4.38,1.7,5.74,4.19,6.8,4.67,1.8,2.87,4,7.23,6.37,4.8,3.25,13.65,16.28,20.09,30.49,18.52C549.19,272.78,564.47,253.24,560,233.62Zm-28.51,23.67c-2.17,1.51-.77,1-3.54,1.36s-11.09-.85-13.81-1.83-16-31.46,3.53-33.45c1.16-.12,7.73-1.13,12.25.32,5.91,1.25,11.26,7.93,12,16.07C542.74,249.33,537.36,252.83,531.45,257.29Z" transform="translate(-14.42 -153.38)"/><path d="M558.78,229.54h0Z" transform="translate(-14.42 -153.38)"/><path d="M624.2,254.84c.73-13.36-1.43-23.71-1.4-33.8.24-18.36-2.15-45.34-4.45-62.08.07-1.71-4.66,3.71-4.3-2.39-2.55,42.84-2.83,49.39-8.67,89.39.82-5.61-8.56-17.31-10.37-19.43-7.48-7.66-6.7-15.14-17.81-23.84-.5-.12-4.15-2-4.47-1.92-.16,0-4.67-.45-4.76-.34s-6.39,2.81-6.39,2.94c.09.64,1.46.44,2.82.08-1.65,1-4.44,2.67-4.39,2.75a17.75,17.75,0,0,1-.43,2.25,81.43,81.43,0,0,0-6.3,7c6.44,10,.75,11.9,2.7,22.7A128.87,128.87,0,0,0,559,259c2.45,10.19,1.74,27.64,7.33,30.05-.4,1.69,1,3.09,2.5,3.6,0,0,2.64-.61,2.71-.61a22.05,22.05,0,0,0,1.43-2.76c4.34-11.5,1.36-41.73,2.32-55.25,17.45,13.5,20,34.88,25.67,50.74,2.47,5,5,7.34,9.26,12.75C631.94,292.85,623,276.63,624.2,254.84ZM570,286.73s0,0,.14.1l-.23-.08Zm.86.45.1.05Z" transform="translate(-14.42 -153.38)"/><path d="M451.66,164c-.36-.51-5-6.65-6-7-.69-1-3.9-2.45-5.55-3.57-6.85.1-11.79,4.55-12.09,4.59s-1.54,4.11-1.81,4.33c-.53.44-.27,4.49-.56,5.44,2.28,1.29,2.3,13.12,3.33,14,.71,1.75,11.85,9.36,13.61,8.66s7.25-8.1,6.55-9.85C449.2,179.5,452.65,168.36,451.66,164Z" transform="translate(-14.42 -153.38)"/></svg>