<?xml version="1.0" encoding="utf-8"?>
<!-- Generator: Adobe Illustrator 24.0.0, SVG Export Plug-In . SVG Version: 6.00 Build 0)  -->
<svg version="1.1" id="Layer_1" xmlns="http://www.w3.org/2000/svg" xmlns:xlink="http://www.w3.org/1999/xlink" x="0px" y="0px"
	 viewBox="0 0 1275 331" style="enable-background:new 0 0 1275 331;" xml:space="preserve">
<style type="text/css">
	.st0{fill-rule:evenodd;clip-rule:evenodd;}
</style>
<path class="st0" d="M783.2,7c5.3,0,10.7,0,16,0c2.1,4.1,1.7,3.1,5.3,5.3c2.7,25.9-3.2,39.2-8.9,62.2c-2.8,11.3-2,37.9-5.3,53.3
	c-2.2,10.4,0.3,22.1,1.8,30.2c1.4,7.8,1,29.7-1.8,39.1c-1,3.5,2,1,3.6,1.8c1,5.5-1.6,32-3.6,42.7c-8.5,1.5-15.6-0.1-23.1-3.6
	c0.3-11.5-6-19.1-3.6-33.8c-4.8,0.1-2.8,1-3.6-5.3c-11.7-19-1.1-42.7-5.3-67.6c-5.9-34.7,0.4-90.8,16-115.6
	C774.9,12.9,779,10,783.2,7z"/>
<path class="st0" d="M1108.1,305.5c-10.8-109.6-11.8-122.1-11.3-234.5c-16.1,0.2-26.9,5.7-40.9,8.9c-3.4,6.4-3.8,15.6-3.6,26.7
	c-4.3,8.3,2.5,16.9,0,32c-6.1,37.2-4.7,81.5-3.9,122.7c-3.6,0.6-7.1,1.2-10.7,1.8c-3.8-3.2-6.7-3.5-14.2-3.6
	c-1.9-15.9-0.6-28.9-3.8-44.4c-7.8-37.6-9.8-76.5-10.1-119.1c-4.8-2.6-7.5-3.5-16-3.6c-6.2,3.3-29.9,2.4-40.9,0c0-1.2,0-2.4,0-3.6
	c-4.4-5.7-3.5-13.7-1.8-21.3c8-1.7,9.8-6.6,16-8.9c17.2-3,34.4-5.9,51.6-8.9c2.4-0.9,9.7-6.3,12.4-7.1c25.2-7.6,49.7,0.3,72.9-8.9
	c6.7-2.7,10.7-10.7,19.6-12.5c7.6-1.5,8.6,3.4,14.2,5.3c12.5,4.3,30.1-2.3,39.1-3.6c10.2-1.4,16.8,2.1,26.7,3.6
	c14.8,2.1,37.3-2.6,48,1.8c1.4,2.3,1.5,4.4,1.8,8.9c2.2,4.1,0.9,5.7,0,10.7c-15.6,1.9-94.9,10.1-103.1,16
	c-12.6,19.4-5.5,30.5-7.1,56.4c-2.2,35.5-1.2,15.4-5.3,50c-2.4,20.1-5,40.7-8.2,56.9c-4.9,24.9,8.2,60.1-3.6,80
	c-2.5,1.5-5.8,1.7-10.7,1.8C1112.3,305.9,1113.7,306.7,1108.1,305.5z"/>
<path class="st0" d="M726.3,42.6c5.9,0.6,11.8,1.2,17.8,1.8c1.6,6,2.9,7.6,7.1,10.7c-7.8,46.3,6.2,105.9-5.3,154.7
	c-4.2,1.2-8.3,2.4-12.5,3.6c-2.6-6-4.8-5.4-12.5-7.1c-8.5-53.6-16.9-100.9-3.6-158.2C720,46.5,723.9,44.5,726.3,42.6z"/>
<path class="st0" d="M806.3,90.6c12.3,0.2,18.8-4.1,30.2-7.1c25.3-6.7,73.4-5.2,97.8,0c3.3,5.2,4.8,5.2,5.3,14.2
	c-2.5,3.3-1.5,4.7-5.3,7.1c-11.4,6.4-27.8,1.1-39.1,3.6c-14.5,3.1-73.7,17.9-83.6,14.2c-8.6-2.1-12.6-5-14.2-14.2
	c2.2-3.3,3-9.3,5.3-12.4C805.3,92.3,805.2,96.9,806.3,90.6z"/>
<path class="st0" d="M914.8,122.6c7.6,0.6,19.9,1.6,24.9,5.3c2.4,4,2,12.9,1.8,19.6c-24.2,13.1-69.7,9.1-92.5,23.1
	c38.8,1.2,58.5-1.7,106.7-1.8c1.8,5.9,3.2,7.4,3.6,16c-2.7,2.9-4,6.3-7.1,8.9c-19.8,15.5-100.9,22.6-133.4,14.2
	c-1.4-7-3.2-6.6-5.3-12.4c6.3-10.1,2.8-13.1,10.7-21.3c-9.3-2.5-10.5-6.7-16-12.4c2.4-5.9,4.7-11.9,7.1-17.8
	c14.6-10.6,42.3-13.6,62.2-17.8C890.2,123.5,905.1,128.1,914.8,122.6z"/>
<path class="st0" d="M673,113.7c0-2.4,0-4.7,0-7.1c-10.6-2-17.3-8.2-28.5-10.7c-20.4-4.5-39.3,3.9-56.9-1.8
	c-1.2-0.5-9.7-11.2-12.5-16c-3-0.6-5.9-1.2-8.9-1.8c0-1.8,0-3.6,0-5.3c-13.8-3.2-29.4-5.3-42.7-8.9c-8.7-2.3-20.2,1.8-26.7-1.8
	c-0.1,0-6.4,0.4-3.6-1.8c1.2,0,2.4,0,3.6,0c-1-8.9-3.6-10.3-7.1-16c-18.3-0.2-52.1-3.6-62.2,3.6c-3.4-2.5-29-2.8-39.1,0
	c-35,9.6-76.4,25.1-108.5,30.2c-2-5.5-3.5-13.8-3.6-16c-3.4-1.8-4.8-2.5-7.1-5.3c-64.6-0.4-115.9,26.3-165.4,48
	c-3.6,8.3-5.7,19.9-10.7,28.4c27.1,36.8,47.9,33.8,92.4,55.1c8.4,4,15.9,2.2,24.9,7.1c-9.5,16.8-77,8-97.8,8.9
	c-12,0.5-36,3.1-44.5-1.8c-8-0.6-8.5-1.8-14.2-3.6c1.7-4.1,0.8-2.9,3.6-5.3c-2.5-4.7-5.7-5.1-8.9-8.9c-17.6,0-24.7,4.2-35.6,8.9
	c-1,8.3,0.3,24.9,3.6,33.8c40.3,9.6,94.8,8,144,12.4c16.6-0.6,33.2-1.2,49.8-1.8c3,3,5.9,5.9,8.9,8.9c11.4,7.5,30.6,14.9,42.7,19.6
	c18.9,7.2,67.1,19.1,83.6,7.1c30.4-3,33-45.6,32-67.6c12.7,6.5,29.9,12.5,44.5,17.8c1.7,7.7,4,17,3.6,21.3
	c6.6,1.9,13.7,2.4,17.8,5.3c13.6-0.6,15.8-10.2,17.8-21.3c11.1,3.5,114.6,14.1,129.8,8.9c8.8,2.2,34.3,8.3,48,3.6
	c6.5-2.3,33.4-19.7,40.9-24.9C709.6,194.6,716.4,124.5,673,113.7z M338.7,231c-2,5.4-4.3,6.4-7.1,10.7c-32.9,3.9-36.3-6.3-64-8.9
	c-0.6-1.8-1.2-3.6-1.8-5.3c8.1-3.4,14.1-6.6,19.6-12.4c2.1-2.8,3.3-7.9,5.3-10.7c-3.1-11.7-19-18.9-19.6-30.2c-4.1,0-8.3,0-12.5,0
	c0-1.8,0-3.6,0-5.3c-12.7-2.3-26-15.6-37.3-12.4c-0.6,0-1.2,0-1.8,0c0.6-1.2,1.2-2.4,1.8-3.6c-25.7-2.6-59.5-18-78.2-30.2
	C163.8,105,210.5,94,244.4,92.3c-0.6,6.5-1.2,13-1.8,19.6c1.8,2.4,3.6,4.7,5.3,7.1c19.5,0.6,64.3-9.5,80-19.6c0.6,0,1.2,0,1.8,0
	c3.4,17.9-3.3,29.4,0,46.2c3.5,17.7,6.1,40.3,7.1,55.1C337.4,208.3,341.2,225.8,338.7,231z M413.4,154.6
	c-13.7,3.4-27.6,9.4-40.9,8.9c0-14.7,2.2-57.3-1.8-65.8c2-9.1,4.9-7.9,10.7-12.4c4.1,1.4,4,1.8,7.1,3.6c-1.7,2.3-3.5,6.4-5.3,8.9
	c1,8,2.2,7.6,5.3,12.4c10.2,0.9,13.8,3,23.1,0c0.6,0.6,1.2,1.2,1.8,1.8C409.7,117.7,414.1,143.7,413.4,154.6z M456,101.2
	c6.1-1.4,22.4-1.9,28.5-5.3c19,1.8,37.9,3.6,56.9,5.3c-10.1,28.4-55.5,35.2-85.3,44.5C450.7,129.9,453.6,118.6,456,101.2z
	 M543.2,197.2c-0.5,0.4-64.8-3.8-72.9-8.9c-8.2-0.5-7.5-0.2-10.7-5.3c-0.6-0.6-1.2-1.2-1.8-1.8c0.6,0,1.2,0,1.8,0
	c7-9.5,48.9-14,60.5-23.1c7.6,7.2,4.8,13,17.8,16c0.7,9.2,2.9,15.7,7.1,21.3C544.3,196.1,543.8,196.6,543.2,197.2z M665.8,167
	c-2.1,17.7-21.5,24.4-35.6,30.2c-11.2,7.3-45.7-13.2-53.3-16c-1.2-6.5-2.4-13-3.6-19.6c1.2-9.1,5.7-15.8,7.1-24.9
	c6.5-3.3,14.9-6.4,21.3-10.7c28.7-0.7,56.7,0.6,64,21.3C668.5,151.4,668.5,163,665.8,167z"/>
</svg>
