<svg xmlns="http://www.w3.org/2000/svg" xmlns:xlink="http://www.w3.org/1999/xlink" width="373" height="810" fill="none" viewBox="0 0 373 810">
  <g clip-path="url(#clip0)">
    <path fill="#fff" d="M0 0h373v810H0z"/>
    <path stroke="#fff" d="M292.5-4.5h69v74h-69z"/>
    <path fill="#000" fill-opacity=".1" d="M-5 0h365v70H-5z"/>
    <path stroke="#fff" d="M223.5-4.5h69v74h-69zM154.5-4.5h69v74h-69z"/>
    <path fill="url(#pattern0)" d="M12 8h48v48H12z"/>
    <path stroke="#fff" d="M0 69.5h360"/>
    <path fill="#fff" d="M317 41h18v-2h-18v2zm0-5h18v-2h-18v2zm0-7v2h18v-2h-18z"/>
    <path fill="#fff" d="M263.21 29.98l-4.38-6.56A.993.993 0 00258 23c-.32 0-.64.14-.83.43l-4.38 6.55H248c-.55 0-1 .45-1 1 0 .09.01.18.04.27l2.54 9.27c.23.84 1 1.46 1.92 1.46h13c.92 0 1.69-.62 1.93-1.46l2.54-9.27.03-.27c0-.55-.45-1-1-1h-4.79zm-8.21 0l3-4.4 3 4.4h-6zm3 8c-1.1 0-2-.9-2-2s.9-2 2-2 2 .9 2 2-.9 2-2 2z" opacity=".4"/>
    <path fill="#fff" d="M178.234 59.544c.16.016.24.088.24.216V60h-2.304v-.24c0-.128.08-.2.24-.216l.624-.024v-7.776l-.624-.024c-.16-.016-.24-.088-.24-.216v-.24h1.44v8.256l.624.024zm3.892-5.616c.848 0 1.512.284 1.992.852.48.56.72 1.304.72 2.232 0 .936-.24 1.68-.72 2.232-.48.552-1.144.828-1.992.828-.864 0-1.536-.276-2.016-.828-.48-.56-.72-1.304-.72-2.232 0-.928.24-1.672.72-2.232.488-.568 1.16-.852 2.016-.852zm0 5.7c.704 0 1.232-.232 1.584-.696.36-.472.54-1.112.54-1.92 0-.8-.18-1.436-.54-1.908-.352-.48-.88-.72-1.584-.72-.712 0-1.248.236-1.608.708-.352.464-.528 1.104-.528 1.92 0 .808.176 1.448.528 1.92.352.464.888.696 1.608.696zm6.027-5.7c.24 0 .476.032.708.096.232.064.436.152.612.264h1.536v.204c0 .088-.056.14-.168.156l-.912.072c.128.176.216.356.264.54.056.176.084.372.084.588 0 .584-.2 1.048-.6 1.392-.392.336-.9.504-1.524.504-.376 0-.688-.048-.936-.144-.16.088-.292.196-.396.324a.653.653 0 00-.144.396c0 .2.08.348.24.444.16.096.372.16.636.192s.676.06 1.236.084c.696.032 1.22.136 1.572.312.352.176.528.5.528.972 0 .384-.128.72-.384 1.008-.248.288-.58.508-.996.66-.416.16-.852.24-1.308.24-.696 0-1.296-.14-1.8-.42-.496-.28-.744-.676-.744-1.188 0-.328.108-.604.324-.828a2.1 2.1 0 01.852-.516c-.24-.08-.408-.184-.504-.312-.096-.128-.144-.296-.144-.504 0-.2.076-.392.228-.576.152-.192.32-.336.504-.432a1.806 1.806 0 01-.672-.672 1.93 1.93 0 01-.228-.936c0-.592.204-1.06.612-1.404.408-.344.916-.516 1.524-.516zm0 3.432c.488 0 .876-.132 1.164-.396.296-.272.444-.644.444-1.116 0-.456-.148-.82-.444-1.092-.296-.272-.684-.408-1.164-.408-.488 0-.88.136-1.176.408-.288.264-.432.632-.432 1.104 0 .464.144.832.432 1.104.296.264.688.396 1.176.396zm2.22 3.048c0-.352-.16-.584-.48-.696-.312-.112-.748-.184-1.308-.216-.632-.024-1.084-.06-1.356-.108-.336.128-.596.292-.78.492a.982.982 0 00-.276.684c0 .424.208.736.624.936.416.2.888.3 1.416.3.592 0 1.1-.128 1.524-.384.424-.248.636-.584.636-1.008zm2.863-7.908a.522.522 0 01-.384-.156.545.545 0 01-.144-.384c0-.144.048-.264.144-.36a.522.522 0 01.384-.156.47.47 0 01.36.156.47.47 0 01.156.36c0 .152-.052.28-.156.384a.47.47 0 01-.36.156zm.912 7.044c.16.016.24.088.24.216V60h-2.304v-.24c0-.128.08-.2.24-.216l.624-.024v-5.016l-.624-.024c-.16-.016-.24-.088-.24-.216v-.24h1.44v5.496l.624.024zm7.527 0c.16.016.24.088.24.216V60h-1.44v-3.816c0-.56-.128-.996-.384-1.308-.256-.32-.648-.48-1.176-.48-.76 0-1.424.376-1.992 1.128v3.996l.636.024c.152.008.228.08.228.216V60h-2.292v-.24c0-.136.076-.208.228-.216l.636-.024v-5.028l-.648-.024a.34.34 0 01-.18-.06c-.032-.032-.048-.084-.048-.156v-.228h1.188c.112 0 .172.048.18.144l.048.912c.6-.76 1.32-1.14 2.16-1.14.648 0 1.14.2 1.476.6.344.4.516.948.516 1.644v3.336l.624.024zM249.058 59.232c-.224.28-.524.492-.9.636a3.102 3.102 0 01-1.14.216c-.528 0-.988-.132-1.38-.396a2.646 2.646 0 01-.888-1.104c-.2-.464-.3-.988-.3-1.572 0-.6.104-1.132.312-1.596.208-.464.516-.824.924-1.08.408-.264.896-.396 1.464-.396.504 0 1.064.124 1.68.372v1.5h-.288c-.16 0-.248-.096-.264-.288 0-.024-.008-.116-.024-.276a19.084 19.084 0 01-.048-.66c-.392-.136-.732-.204-1.02-.204-.696 0-1.228.24-1.596.72-.368.48-.552 1.116-.552 1.908 0 .784.18 1.416.54 1.896.36.48.868.72 1.524.72.288 0 .572-.052.852-.156.28-.104.5-.236.66-.396.064-.064.124-.096.18-.096.048 0 .084.02.108.06l.156.192zm3.636-5.304c.848 0 1.512.284 1.992.852.48.56.72 1.304.72 2.232 0 .936-.24 1.68-.72 2.232-.48.552-1.144.828-1.992.828-.864 0-1.536-.276-2.016-.828-.48-.56-.72-1.304-.72-2.232 0-.928.24-1.672.72-2.232.488-.568 1.16-.852 2.016-.852zm0 5.7c.704 0 1.232-.232 1.584-.696.36-.472.54-1.112.54-1.92 0-.8-.18-1.436-.54-1.908-.352-.48-.88-.72-1.584-.72-.712 0-1.248.236-1.608.708-.352.464-.528 1.104-.528 1.92 0 .808.176 1.448.528 1.92.352.464.888.696 1.608.696zm9.819-5.376c0 .128-.08.2-.24.216l-.42.012-2.316 5.52h-.504l-2.328-5.52-.396-.012c-.152-.008-.228-.08-.228-.216v-.228h2.088v.228c0 .128-.08.2-.24.216l-.624.024 1.836 4.392c.056.128.104.3.144.516.08-.288.132-.46.156-.516l1.836-4.392-.624-.024c-.16-.016-.24-.088-.24-.216v-.228h2.1v.228zm3.457-.324c.728 0 1.3.244 1.716.732.424.488.636 1.12.636 1.896 0 .152-.056.228-.168.228h-4.308c0 .888.184 1.584.552 2.088.368.504.92.756 1.656.756.296 0 .604-.052.924-.156.328-.104.584-.236.768-.396.064-.064.128-.096.192-.096.056 0 .096.02.12.06l.156.192c-.208.256-.528.46-.96.612-.424.152-.84.228-1.248.228-.888 0-1.568-.292-2.04-.876-.464-.592-.696-1.36-.696-2.304 0-.568.108-1.076.324-1.524.224-.448.54-.8.948-1.056.408-.256.884-.384 1.428-.384zm.012.432c-.608 0-1.096.184-1.464.552-.36.36-.576.86-.648 1.5h3.936c0-.624-.168-1.12-.504-1.488-.328-.376-.768-.564-1.32-.564zm6.781-.432c.336 0 .644.076.924.228l-.108.3a.266.266 0 01-.108.156c-.048.032-.104.036-.168.012a3.35 3.35 0 00-.312-.096 1.306 1.306 0 00-.336-.036c-.448 0-.82.14-1.116.42-.296.28-.532.684-.708 1.212v3.396l.636.024c.08.008.136.028.168.06.04.032.06.084.06.156V60h-2.292v-.24c0-.072.016-.124.048-.156a.34.34 0 01.18-.06l.636-.024v-5.028l-.648-.024a.34.34 0 01-.18-.06c-.032-.032-.048-.084-.048-.156v-.228h1.176c.072 0 .12.012.144.036.032.032.048.08.048.144l.048 1.272c.408-1.032 1.06-1.548 1.956-1.548zM188 26c-5.52 0-10 4.48-10 10s4.48 10 10 10 10-4.48 10-10-4.48-10-10-10zm0 3c1.66 0 3 1.34 3 3s-1.34 3-3 3-3-1.34-3-3 1.34-3 3-3zm0 14.2a7.2 7.2 0 01-6-3.22c.03-1.99 4-3.08 6-3.08 1.99 0 5.97 1.09 6 3.08a7.2 7.2 0 01-6 3.22z"/>
    <path fill="#9AB23B" d="M374 520.432V0H0v536l374-15.568z"/>
    <path fill="#fff" d="M373 345v465H0V365.178L373 345z"/>
    <g opacity=".2">
      <path fill="#563D82" d="M141.881 755.844c-.448.504-.858.887-1.232 1.148-.373.243-.84.485-1.4.728-.41.149-.905.271-1.484.364a9.408 9.408 0 01-1.54.112c-.914 0-1.745-.159-2.492-.476a5.86 5.86 0 01-2.044-1.456 6.863 6.863 0 01-1.4-2.324c-.336-.933-.504-1.988-.504-3.164 0-1.064.15-2.035.448-2.912a7.322 7.322 0 011.344-2.352c.579-.653 1.307-1.167 2.184-1.54.896-.373 1.895-.56 2.996-.56 1.195 0 2.707.345 4.536 1.036l-.028 4.424h-1.596c-.336 0-.55-.177-.644-.532l-.224-2.016c-.69-.187-1.306-.28-1.848-.28-.616 0-1.148.112-1.596.336a2.88 2.88 0 00-1.12.924 4.302 4.302 0 00-.7 1.512 8.55 8.55 0 00-.224 1.96c0 .765.084 1.447.252 2.044.168.616.402 1.12.7 1.512.318.392.691.7 1.12.924.467.205.962.308 1.484.308.579 0 1.027-.065 1.344-.196.411-.168.7-.317.868-.448.094-.075.187-.14.28-.196.112-.075.224-.159.336-.252a.82.82 0 01.56-.196c.299 0 .514.103.644.308l.98 1.26zm7.896-12.432a7.98 7.98 0 012.912.532c.896.355 1.642.84 2.24 1.456.597.616 1.064 1.391 1.4 2.324.336.915.504 1.932.504 3.052s-.168 2.147-.504 3.08c-.355.952-.822 1.736-1.4 2.352a5.968 5.968 0 01-2.24 1.484c-.859.336-1.83.504-2.912.504-1.083 0-2.063-.168-2.94-.504a5.96 5.96 0 01-2.24-1.484 6.382 6.382 0 01-1.456-2.352c-.336-.933-.504-1.96-.504-3.08s.168-2.137.504-3.052a6.759 6.759 0 011.456-2.324c.597-.616 1.344-1.101 2.24-1.456a8.049 8.049 0 012.94-.532zm0 12.124c1.194 0 2.072-.401 2.632-1.204.578-.84.868-2.016.868-3.528s-.29-2.688-.868-3.528c-.56-.821-1.438-1.232-2.632-1.232-1.195 0-2.091.411-2.688 1.232-.598.821-.896 2.007-.896 3.556 0 1.512.298 2.679.896 3.5.578.803 1.474 1.204 2.688 1.204zm24.11-.056c.467.112.7.401.7.868V758h-5.572v-9.128c0-.859-.205-1.54-.616-2.044-.392-.485-.998-.728-1.82-.728-.597 0-1.157.14-1.68.42a6.26 6.26 0 00-1.484 1.092v7.616l.812.14.42.084.168.028c.467.112.7.401.7.868V758h-7.672v-1.652c0-.467.234-.756.7-.868l.168-.028.42-.084.812-.14v-8.82l-.812-.14a5.675 5.675 0 01-.252-.056.52.52 0 00-.168-.028l-.168-.028c-.466-.112-.7-.401-.7-.868v-1.652h4.228c.43 0 .719.215.868.644l.252 1.12c.262-.299.56-.569.896-.812a5.645 5.645 0 011.036-.616c.486-.224.868-.364 1.148-.42.467-.093.915-.14 1.344-.14.822 0 1.522.131 2.1.392.542.224 1.046.597 1.512 1.12.392.467.7 1.045.924 1.736.206.616.308 1.353.308 2.212v6.356l.84.14c.094.019.168.037.224.056.075.019.14.028.196.028l.168.028zm7.581 2.744c-1.251 0-2.212-.355-2.884-1.064-.672-.709-1.008-1.68-1.008-2.912v-8.008h-1.456c-.149 0-.308-.065-.476-.196-.149-.112-.224-.289-.224-.532v-1.4l2.324-.364.728-3.92a.596.596 0 01.252-.42.862.862 0 01.532-.168h1.792v4.536h3.78v2.464h-3.78v7.784c0 .429.112.775.336 1.036.224.243.523.364.896.364.261 0 .439-.019.532-.056l.364-.168.308-.168a.402.402 0 01.224-.056c.149 0 .243.019.28.056l.196.224 1.036 1.68a6.016 6.016 0 01-3.752 1.288zm10.697-18.788c0 .261-.066.541-.196.84a2.224 2.224 0 01-.476.7 2.033 2.033 0 01-.7.476 2.32 2.32 0 01-1.736 0 2.125 2.125 0 01-.672-.476 2.207 2.207 0 01-.476-.7 2.107 2.107 0 01-.168-.84c0-.299.056-.588.168-.868.093-.243.252-.476.476-.7.205-.205.429-.355.672-.448.336-.131.625-.196.868-.196.242 0 .532.065.868.196.28.112.513.261.7.448.224.224.382.457.476.7.13.317.196.607.196.868zm.896 16.044c.466.112.7.401.7.868V758h-7.7v-1.652c0-.467.233-.756.7-.868l.168-.028.42-.084.84-.14v-8.82l-.84-.14a5.104 5.104 0 01-.252-.056.52.52 0 00-.168-.028l-.168-.028c-.467-.112-.7-.401-.7-.868v-1.652h5.572v11.592l.84.14c.093.019.168.037.224.056.074.019.14.028.196.028l.168.028zm17.768 0c.466.112.7.401.7.868V758h-5.572v-9.128c0-.859-.206-1.54-.616-2.044-.392-.485-.999-.728-1.82-.728a3.5 3.5 0 00-1.68.42 6.239 6.239 0 00-1.484 1.092v7.616l.812.14.42.084.168.028c.466.112.7.401.7.868V758h-7.672v-1.652c0-.467.233-.756.7-.868l.168-.028.42-.084.812-.14v-8.82l-.812-.14a5.104 5.104 0 01-.252-.056.52.52 0 00-.168-.028l-.168-.028c-.467-.112-.7-.401-.7-.868v-1.652h4.228c.429 0 .718.215.868.644l.252 1.12c.261-.299.56-.569.896-.812a5.577 5.577 0 011.036-.616c.485-.224.868-.364 1.148-.42.466-.093.914-.14 1.344-.14.821 0 1.521.131 2.1.392.541.224 1.045.597 1.512 1.12.392.467.7 1.045.924 1.736.205.616.308 1.353.308 2.212v6.356l.84.14c.093.019.168.037.224.056.074.019.14.028.196.028l.168.028zm17.604 0c.467.112.7.401.7.868V758h-4.228c-.429 0-.718-.215-.868-.644l-.252-1.148c-.317.317-.625.597-.924.84-.28.224-.616.429-1.008.616a7.945 7.945 0 01-1.176.42c-.466.093-.905.14-1.316.14a5.473 5.473 0 01-2.1-.392c-.541-.224-1.045-.607-1.512-1.148-.373-.429-.681-.999-.924-1.708a7.927 7.927 0 01-.308-2.212v-6.356l-1.428-.252c-.466-.112-.7-.401-.7-.868v-1.652h5.572v9.128c0 .859.206 1.54.616 2.044.392.467.999.7 1.82.7.56 0 1.12-.131 1.68-.392.504-.243.999-.607 1.484-1.092v-7.616a20.925 20.925 0 00-1.036-.168 13.294 13.294 0 01-.364-.084c-.466-.112-.7-.401-.7-.868v-1.652h5.572v11.592l1.4.252zm8.565-12.068c.915 0 1.745.14 2.492.42.709.261 1.363.691 1.96 1.288.541.541.971 1.223 1.288 2.044.317.84.476 1.755.476 2.744 0 .224-.019.448-.056.672-.037.205-.075.336-.112.392-.037.093-.121.168-.252.224-.075.037-.205.056-.392.056h-8.876c.112 1.475.513 2.557 1.204 3.248.691.691 1.605 1.036 2.744 1.036.579 0 1.055-.065 1.428-.196.411-.131.765-.28 1.064-.448a3.77 3.77 0 01.392-.196c.149-.075.289-.149.42-.224.205-.131.42-.196.644-.196.149 0 .28.028.392.084a.566.566 0 01.252.224l1.008 1.26c-.429.485-.859.868-1.288 1.148-.504.317-.999.56-1.484.728-.467.149-.999.271-1.596.364a9.94 9.94 0 01-1.568.112c-1.027 0-1.951-.159-2.772-.476a6.431 6.431 0 01-2.24-1.484c-.635-.635-1.139-1.437-1.512-2.408-.355-.933-.532-2.044-.532-3.332 0-.933.159-1.848.476-2.744a6.606 6.606 0 011.372-2.268c.579-.635 1.297-1.139 2.156-1.512.859-.373 1.829-.56 2.912-.56zm.056 2.464c-.989 0-1.773.289-2.352.868-.56.56-.924 1.363-1.092 2.408h6.496a4.5 4.5 0 00-.196-1.26 3.322 3.322 0 00-.56-1.036 2.436 2.436 0 00-.952-.7 3.328 3.328 0 00-1.344-.28z"/>
      <path fill="#F04E98" d="M301.449 740.009l-2.151-2.15-12.028 12.024 12.028 12.023 2.151-2.149-9.878-9.874 9.878-9.874zM327.229 740.009l-2.151-2.15-12.028 12.024 12.028 12.023 2.151-2.149-9.878-9.874 9.878-9.874zM353.008 740.009l-2.15-2.15-12.029 12.024 12.029 12.023 2.15-2.149-9.877-9.874 9.877-9.874z"/>
    </g>
    <path fill="#fff" d="M26.409 95.668c.16.016.24.088.24.216v.228h-2.304v-.228c0-.128.08-.2.24-.216l.624-.024v-2.7c-.576.752-1.276 1.128-2.1 1.128-.784 0-1.368-.272-1.752-.816-.384-.552-.576-1.292-.576-2.22 0-.584.104-1.108.312-1.572.208-.472.508-.844.9-1.116.392-.272.86-.408 1.404-.408.552 0 1.348.112 2.388.336v7.368l.624.024zm-1.2-7.032c-.832-.168-1.4-.252-1.704-.252-.696 0-1.224.244-1.584.732-.36.48-.54 1.12-.54 1.92 0 1.72.632 2.58 1.896 2.58.4 0 .756-.096 1.068-.288.312-.2.6-.488.864-.864v-3.828zm7.98 4.908c.16.016.24.088.24.216V94h-1.175c-.12 0-.18-.052-.18-.156l-.048-.888c-.288.36-.616.64-.984.84-.368.2-.764.3-1.188.3-.648 0-1.144-.204-1.488-.612-.336-.408-.504-.956-.504-1.644v-3.336l-.624-.024c-.16-.016-.24-.088-.24-.216v-.228h.864l.576-.012v3.816c0 .568.128 1.012.384 1.332.264.312.656.468 1.176.468.376 0 .736-.1 1.08-.3.344-.2.648-.476.912-.828v-4.008l-.624-.024c-.16-.016-.24-.088-.24-.216v-.228h.864l.576-.012v5.496l.624.024zm3.897-5.616c.728 0 1.3.244 1.716.732.424.488.636 1.12.636 1.896 0 .152-.056.228-.168.228h-4.308c0 .888.184 1.584.552 2.088.368.504.92.756 1.656.756.296 0 .604-.052.924-.156.328-.104.584-.236.768-.396.064-.064.128-.096.192-.096.056 0 .096.02.12.06l.156.192c-.208.256-.528.46-.96.612-.424.152-.84.228-1.248.228-.888 0-1.568-.292-2.04-.876-.464-.592-.696-1.36-.696-2.304 0-.568.108-1.076.324-1.524.224-.448.54-.8.948-1.056.408-.256.884-.384 1.428-.384zm.012.432c-.608 0-1.096.184-1.464.552-.36.36-.576.86-.648 1.5h3.936c0-.624-.168-1.12-.504-1.488-.328-.376-.768-.564-1.32-.564zm7.453 3.888c0 .56-.2 1.008-.6 1.344-.392.336-.892.504-1.5.504a5.023 5.023 0 01-1.764-.336v-1.452h.288c.167 0 .255.096.264.288l.072.888c.312.128.7.192 1.163.192.44 0 .805-.12 1.093-.36.295-.24.444-.564.444-.972a.82.82 0 00-.409-.744c-.263-.176-.683-.348-1.26-.516-.544-.152-.956-.34-1.236-.564-.28-.232-.42-.556-.42-.972 0-.32.089-.6.264-.84.184-.248.424-.436.72-.564.304-.136.633-.204.984-.204.456 0 .984.104 1.584.312v1.428h-.288c-.16 0-.248-.096-.264-.288l-.072-.864a2.98 2.98 0 00-.947-.156c-.392 0-.733.104-1.02.312a.982.982 0 00-.42.828c0 .216.068.396.204.54.136.144.312.264.528.36.223.088.531.188.923.3.529.152.937.348 1.224.588.297.232.444.548.444.948zm2.96 1.848c-.423 0-.743-.116-.96-.348-.215-.24-.323-.58-.323-1.02v-4.08h-.852a.194.194 0 01-.12-.036c-.024-.024-.036-.06-.036-.108v-.216l1.02-.072.144-2.136a.16.16 0 01.036-.096.15.15 0 01.108-.048h.276v2.28h1.884v.432h-1.884v4.044c0 .296.072.528.216.696.152.16.356.24.612.24.24 0 .512-.112.816-.336a.276.276 0 01.108-.036c.056 0 .1.024.132.072l.132.216a1.658 1.658 0 01-.6.408c-.24.096-.476.144-.708.144zm3.522-7.596a.522.522 0 01-.384-.156.545.545 0 01-.144-.384c0-.144.048-.264.144-.36a.522.522 0 01.384-.156.47.47 0 01.36.156.47.47 0 01.156.36c0 .152-.052.28-.156.384a.47.47 0 01-.36.156zm.912 7.044c.16.016.24.088.24.216V94h-2.304v-.24c0-.128.08-.2.24-.216l.624-.024v-5.016l-.624-.024c-.16-.016-.24-.088-.24-.216v-.24h1.44v5.496l.624.024zm3.915-5.616c.848 0 1.512.284 1.992.852.48.56.72 1.304.72 2.232 0 .936-.24 1.68-.72 2.232-.48.552-1.144.828-1.992.828-.864 0-1.536-.276-2.016-.828-.48-.56-.72-1.304-.72-2.232 0-.928.24-1.672.72-2.232.488-.568 1.16-.852 2.016-.852zm0 5.7c.704 0 1.232-.232 1.584-.696.36-.472.54-1.112.54-1.92 0-.8-.18-1.436-.54-1.908-.352-.48-.88-.72-1.584-.72-.712 0-1.248.236-1.608.708-.352.464-.528 1.104-.528 1.92 0 .808.176 1.448.528 1.92.352.464.888.696 1.608.696zm9.975-.084c.16.016.24.088.24.216V94h-1.44v-3.816c0-.56-.128-.996-.384-1.308-.256-.32-.648-.48-1.176-.48-.76 0-1.424.376-1.992 1.128v3.996l.636.024c.152.008.228.08.228.216V94h-2.292v-.24c0-.136.076-.208.228-.216l.636-.024v-5.028l-.648-.024a.34.34 0 01-.18-.06c-.032-.032-.048-.084-.048-.156v-.228h1.188c.112 0 .172.048.18.144l.048.912c.6-.76 1.32-1.14 2.16-1.14.648 0 1.14.2 1.476.6.344.4.516.948.516 1.644v3.336l.624.024zm5.4-1.296c0 .56-.2 1.008-.6 1.344-.393.336-.893.504-1.5.504a5.023 5.023 0 01-1.765-.336v-1.452h.288c.168 0 .256.096.264.288l.072.888c.312.128.7.192 1.164.192.44 0 .804-.12 1.092-.36.296-.24.444-.564.444-.972a.82.82 0 00-.408-.744c-.264-.176-.684-.348-1.26-.516-.544-.152-.956-.34-1.236-.564-.28-.232-.42-.556-.42-.972 0-.32.088-.6.264-.84.184-.248.424-.436.72-.564.304-.136.632-.204.984-.204.456 0 .984.104 1.584.312v1.428h-.288c-.16 0-.248-.096-.264-.288l-.072-.864a2.98 2.98 0 00-.948-.156c-.392 0-.732.104-1.02.312a.982.982 0 00-.42.828c0 .216.068.396.204.54.136.144.312.264.528.36.224.088.532.188.924.3.528.152.936.348 1.224.588.296.232.444.548.444.948zM126.436 95.668c.16.016.24.088.24.216v.228h-2.304v-.228c0-.128.08-.2.24-.216l.624-.024v-2.7c-.576.752-1.276 1.128-2.1 1.128-.784 0-1.368-.272-1.752-.816-.384-.552-.576-1.292-.576-2.22 0-.584.104-1.108.312-1.572.208-.472.508-.844.9-1.116.392-.272.86-.408 1.404-.408.552 0 1.348.112 2.388.336v7.368l.624.024zm-1.2-7.032c-.832-.168-1.4-.252-1.704-.252-.696 0-1.224.244-1.584.732-.36.48-.54 1.12-.54 1.92 0 1.72.632 2.58 1.896 2.58.4 0 .756-.096 1.068-.288.312-.2.6-.488.864-.864v-3.828zm7.981 4.908c.16.016.24.088.24.216V94h-1.176c-.12 0-.18-.052-.18-.156l-.048-.888c-.288.36-.616.64-.984.84-.368.2-.764.3-1.188.3-.648 0-1.144-.204-1.488-.612-.336-.408-.504-.956-.504-1.644v-3.336l-.624-.024c-.16-.016-.24-.088-.24-.216v-.228h.864l.576-.012v3.816c0 .568.128 1.012.384 1.332.264.312.656.468 1.176.468.376 0 .736-.1 1.08-.3.344-.2.648-.476.912-.828v-4.008l-.624-.024c-.16-.016-.24-.088-.24-.216v-.228h.864l.576-.012v5.496l.624.024zm3.932-5.616c.848 0 1.512.284 1.992.852.48.56.72 1.304.72 2.232 0 .936-.24 1.68-.72 2.232-.48.552-1.144.828-1.992.828-.864 0-1.536-.276-2.016-.828-.48-.56-.72-1.304-.72-2.232 0-.928.24-1.672.72-2.232.488-.568 1.16-.852 2.016-.852zm0 5.7c.704 0 1.232-.232 1.584-.696.36-.472.54-1.112.54-1.92 0-.8-.18-1.436-.54-1.908-.352-.48-.88-.72-1.584-.72-.712 0-1.248.236-1.608.708-.352.464-.528 1.104-.528 1.92 0 .808.176 1.448.528 1.92.352.464.888.696 1.608.696zm5.667.468c-.424 0-.744-.116-.96-.348-.216-.24-.324-.58-.324-1.02v-4.08h-.852a.194.194 0 01-.12-.036c-.024-.024-.036-.06-.036-.108v-.216l1.02-.072.144-2.136a.16.16 0 01.036-.096.15.15 0 01.108-.048h.276v2.28h1.884v.432h-1.884v4.044c0 .296.072.528.216.696.152.16.356.24.612.24.24 0 .512-.112.816-.336a.276.276 0 01.108-.036c.056 0 .1.024.132.072l.132.216a1.658 1.658 0 01-.6.408c-.24.096-.476.144-.708.144zm4.926-6.168c.728 0 1.3.244 1.716.732.424.488.636 1.12.636 1.896 0 .152-.056.228-.168.228h-4.308c0 .888.184 1.584.552 2.088.368.504.92.756 1.656.756.296 0 .604-.052.924-.156.328-.104.584-.236.768-.396.064-.064.128-.096.192-.096.056 0 .096.02.12.06l.156.192c-.208.256-.528.46-.96.612-.424.152-.84.228-1.248.228-.888 0-1.568-.292-2.04-.876-.464-.592-.696-1.36-.696-2.304 0-.568.108-1.076.324-1.524.224-.448.54-.8.948-1.056.408-.256.884-.384 1.428-.384zm.012.432c-.608 0-1.096.184-1.464.552-.36.36-.576.86-.648 1.5h3.936c0-.624-.168-1.12-.504-1.488-.328-.376-.768-.564-1.32-.564zm7.453 3.888c0 .56-.2 1.008-.6 1.344-.392.336-.892.504-1.5.504a5.023 5.023 0 01-1.764-.336v-1.452h.288c.168 0 .256.096.264.288l.072.888c.312.128.7.192 1.164.192.44 0 .804-.12 1.092-.36.296-.24.444-.564.444-.972a.82.82 0 00-.408-.744c-.264-.176-.684-.348-1.26-.516-.544-.152-.956-.34-1.236-.564-.28-.232-.42-.556-.42-.972 0-.32.088-.6.264-.84.184-.248.424-.436.72-.564.304-.136.632-.204.984-.204.456 0 .984.104 1.584.312v1.428h-.288c-.16 0-.248-.096-.264-.288l-.072-.864a2.98 2.98 0 00-.948-.156c-.392 0-.732.104-1.02.312a.982.982 0 00-.42.828c0 .216.068.396.204.54.136.144.312.264.528.36.224.088.532.188.924.3.528.152.936.348 1.224.588.296.232.444.548.444.948zM208.758 92.248c0 .56-.2 1.008-.6 1.344-.392.336-.892.504-1.5.504a5.023 5.023 0 01-1.764-.336v-1.452h.288c.168 0 .256.096.264.288l.072.888c.312.128.7.192 1.164.192.44 0 .804-.12 1.092-.36.296-.24.444-.564.444-.972a.82.82 0 00-.408-.744c-.264-.176-.684-.348-1.26-.516-.544-.152-.956-.34-1.236-.564-.28-.232-.42-.556-.42-.972 0-.32.088-.6.264-.84.184-.248.424-.436.72-.564.304-.136.632-.204.984-.204.456 0 .984.104 1.584.312v1.428h-.288c-.16 0-.248-.096-.264-.288l-.072-.864a2.98 2.98 0 00-.948-.156c-.392 0-.732.104-1.02.312a.982.982 0 00-.42.828c0 .216.068.396.204.54.136.144.312.264.528.36.224.088.532.188.924.3.528.152.936.348 1.224.588.296.232.444.548.444.948zm6.897 1.296c.16.016.24.088.24.216V94h-1.176c-.12 0-.18-.052-.18-.156l-.048-.888c-.288.36-.616.64-.984.84-.368.2-.764.3-1.188.3-.648 0-1.144-.204-1.488-.612-.336-.408-.504-.956-.504-1.644v-3.336l-.624-.024c-.16-.016-.24-.088-.24-.216v-.228h.864l.576-.012v3.816c0 .568.128 1.012.384 1.332.264.312.656.468 1.176.468.376 0 .736-.1 1.08-.3.344-.2.648-.476.912-.828v-4.008l-.624-.024c-.16-.016-.24-.088-.24-.216v-.228h.864l.576-.012v5.496l.624.024zm10.604 0c.152.008.228.08.228.216V94h-1.428v-3.816c0-.552-.124-.988-.372-1.308-.24-.32-.604-.48-1.092-.48-.496 0-.884.164-1.164.492-.272.328-.408.76-.408 1.296v3.336l.624.024c.16.016.24.088.24.216V94h-1.44v-3.816c0-.56-.112-.996-.336-1.308-.216-.32-.556-.48-1.02-.48-.336 0-.644.1-.924.3-.28.2-.52.464-.72.792v4.032l.636.024c.152.008.228.08.228.216V94h-2.292v-.24c0-.136.076-.208.228-.216l.636-.024v-5.028l-.636-.024c-.152-.008-.228-.08-.228-.216v-.228h1.176c.112 0 .172.048.18.144l.048.876c.272-.376.552-.652.84-.828.288-.184.612-.276.972-.276.848 0 1.372.48 1.572 1.44.128-.448.36-.8.696-1.056.336-.256.74-.384 1.212-.384.632 0 1.108.204 1.428.612.32.408.48.952.48 1.632v3.336l.636.024zm10.593 0c.152.008.228.08.228.216V94h-1.428v-3.816c0-.552-.124-.988-.372-1.308-.24-.32-.604-.48-1.092-.48-.496 0-.884.164-1.164.492-.272.328-.408.76-.408 1.296v3.336l.624.024c.16.016.24.088.24.216V94h-1.44v-3.816c0-.56-.112-.996-.336-1.308-.216-.32-.556-.48-1.02-.48-.336 0-.644.1-.924.3-.28.2-.52.464-.72.792v4.032l.636.024c.152.008.228.08.228.216V94h-2.292v-.24c0-.136.076-.208.228-.216l.636-.024v-5.028l-.636-.024c-.152-.008-.228-.08-.228-.216v-.228h1.176c.112 0 .172.048.18.144l.048.876c.272-.376.552-.652.84-.828.288-.184.612-.276.972-.276.848 0 1.372.48 1.572 1.44.128-.448.36-.8.696-1.056.336-.256.74-.384 1.212-.384.632 0 1.108.204 1.428.612.32.408.48.952.48 1.632v3.336l.636.024zm6.13 0c.16.016.24.088.24.216V94h-1.02c-.128 0-.204-.056-.228-.168l-.084-.768c-.4.376-.76.644-1.08.804-.312.152-.696.228-1.152.228-.48 0-.868-.136-1.164-.408-.288-.28-.432-.66-.432-1.14 0-.64.384-1.1 1.152-1.38.768-.28 1.652-.424 2.652-.432v-.624c0-.56-.12-.984-.36-1.272-.232-.296-.584-.444-1.056-.444-.288 0-.58.064-.876.192-.296.12-.532.268-.708.444-.088.088-.172.132-.252.132-.064 0-.116-.036-.156-.108l-.096-.18c.32-.32.652-.556.996-.708a2.75 2.75 0 011.152-.24c.632 0 1.108.2 1.428.6.328.392.492.92.492 1.584v3.42l.552.012zm-1.116-2.424c-.864.008-1.624.12-2.28.336-.648.208-.972.568-.972 1.08 0 .36.104.64.312.84.216.2.508.3.876.3.44 0 .804-.076 1.092-.228.288-.16.612-.42.972-.78V91.12zm5.852-3.192c.336 0 .644.076.924.228l-.108.3a.266.266 0 01-.108.156c-.048.032-.104.036-.168.012a3.35 3.35 0 00-.312-.096 1.306 1.306 0 00-.336-.036c-.448 0-.82.14-1.116.42-.296.28-.532.684-.708 1.212v3.396l.636.024c.08.008.136.028.168.06.04.032.06.084.06.156V94h-2.292v-.24c0-.072.016-.124.048-.156a.34.34 0 01.18-.06l.636-.024v-5.028l-.648-.024a.34.34 0 01-.18-.06c-.032-.032-.048-.084-.048-.156v-.228h1.176c.072 0 .12.012.144.036.032.032.048.08.048.144l.048 1.272c.408-1.032 1.06-1.548 1.956-1.548zm7.867.324c0 .128-.08.2-.24.216l-.408.012-3.228 7.44c-.056.128-.144.192-.264.192h-.408l1.056-2.328-2.328-5.304-.36-.012c-.16-.016-.24-.088-.24-.216v-.228h2.088v.228c0 .128-.08.2-.24.216l-.612.024 1.86 4.332c.048.104.088.224.12.36.024-.096.068-.216.132-.36l1.836-4.332-.612-.024c-.16-.016-.24-.088-.24-.216v-.228h2.088v.228zM304.09 90.976c0 .592-.104 1.124-.312 1.596a2.611 2.611 0 01-.9 1.104c-.392.264-.852.396-1.38.396-.392 0-.74-.068-1.044-.204a2.13 2.13 0 01-.78-.672v2.436l.624.024c.16.016.24.088.24.216v.24h-2.304v-.24c0-.128.08-.2.24-.216l.624-.024v-7.14l-.624-.024c-.16-.016-.24-.088-.24-.216v-.228h1.176c.072 0 .12.012.144.036.024.016.036.052.036.108l.06.936a3.12 3.12 0 01.948-.864c.36-.208.748-.312 1.164-.312.784 0 1.368.272 1.752.816.384.544.576 1.288.576 2.232zm-.588 0c0-1.72-.632-2.58-1.896-2.58-.768 0-1.412.388-1.932 1.164v3.132c.408.624.976.936 1.704.936.704 0 1.232-.24 1.584-.72.36-.488.54-1.132.54-1.932zm6.455 2.568c.16.016.24.088.24.216V94h-1.02c-.128 0-.204-.056-.228-.168l-.084-.768c-.4.376-.76.644-1.08.804-.312.152-.696.228-1.152.228-.48 0-.868-.136-1.164-.408-.288-.28-.432-.66-.432-1.14 0-.64.384-1.1 1.152-1.38.768-.28 1.652-.424 2.652-.432v-.624c0-.56-.12-.984-.36-1.272-.232-.296-.584-.444-1.056-.444-.288 0-.58.064-.876.192-.296.12-.532.268-.708.444-.088.088-.172.132-.252.132-.064 0-.116-.036-.156-.108l-.096-.18c.32-.32.652-.556.996-.708a2.75 2.75 0 011.152-.24c.632 0 1.108.2 1.428.6.328.392.492.92.492 1.584v3.42l.552.012zm-1.116-2.424c-.864.008-1.624.12-2.28.336-.648.208-.972.568-.972 1.08 0 .36.104.64.312.84.216.2.508.3.876.3.44 0 .804-.076 1.092-.228.288-.16.612-.42.972-.78V91.12zm8.492-2.868c0 .128-.08.2-.24.216l-.408.012-3.228 7.44c-.056.128-.144.192-.264.192h-.408l1.056-2.328-2.328-5.304-.36-.012c-.16-.016-.24-.088-.24-.216v-.228h2.088v.228c0 .128-.08.2-.24.216l-.612.024 1.86 4.332c.048.104.088.224.12.36.024-.096.068-.216.132-.36l1.836-4.332-.612-.024c-.16-.016-.24-.088-.24-.216v-.228h2.088v.228zm10.177 5.292c.152.008.228.08.228.216V94h-1.428v-3.816c0-.552-.124-.988-.372-1.308-.24-.32-.604-.48-1.092-.48-.496 0-.884.164-1.164.492-.272.328-.408.76-.408 1.296v3.336l.624.024c.16.016.24.088.24.216V94h-1.44v-3.816c0-.56-.112-.996-.336-1.308-.216-.32-.556-.48-1.02-.48-.336 0-.644.1-.924.3-.28.2-.52.464-.72.792v4.032l.636.024c.152.008.228.08.228.216V94h-2.292v-.24c0-.136.076-.208.228-.216l.636-.024v-5.028l-.636-.024c-.152-.008-.228-.08-.228-.216v-.228h1.176c.112 0 .172.048.18.144l.048.876c.272-.376.552-.652.84-.828.288-.184.612-.276.972-.276.848 0 1.372.48 1.572 1.44.128-.448.36-.8.696-1.056.336-.256.74-.384 1.212-.384.632 0 1.108.204 1.428.612.32.408.48.952.48 1.632v3.336l.636.024zm3.886-5.616c.728 0 1.3.244 1.716.732.424.488.636 1.12.636 1.896 0 .152-.056.228-.168.228h-4.308c0 .888.184 1.584.552 2.088.368.504.92.756 1.656.756.296 0 .604-.052.924-.156.328-.104.584-.236.768-.396.064-.064.128-.096.192-.096.056 0 .096.02.12.06l.156.192c-.208.256-.528.46-.96.612-.424.152-.84.228-1.248.228-.888 0-1.568-.292-2.04-.876-.464-.592-.696-1.36-.696-2.304 0-.568.108-1.076.324-1.524.224-.448.54-.8.948-1.056.408-.256.884-.384 1.428-.384zm.012.432c-.608 0-1.096.184-1.464.552-.36.36-.576.86-.648 1.5h3.936c0-.624-.168-1.12-.504-1.488-.328-.376-.768-.564-1.32-.564zm9.601 5.184c.16.016.24.088.24.216V94h-1.44v-3.816c0-.56-.128-.996-.384-1.308-.256-.32-.648-.48-1.176-.48-.76 0-1.424.376-1.992 1.128v3.996l.636.024c.152.008.228.08.228.216V94h-2.292v-.24c0-.136.076-.208.228-.216l.636-.024v-5.028l-.648-.024a.34.34 0 01-.18-.06c-.032-.032-.048-.084-.048-.156v-.228h1.188c.112 0 .172.048.18.144l.048.912c.6-.76 1.32-1.14 2.16-1.14.648 0 1.14.2 1.476.6.344.4.516.948.516 1.644v3.336l.624.024zm3.239.552c-.424 0-.744-.116-.96-.348-.216-.24-.324-.58-.324-1.02v-4.08h-.852a.194.194 0 01-.12-.036c-.024-.024-.036-.06-.036-.108v-.216l1.02-.072.144-2.136a.16.16 0 01.036-.096.15.15 0 01.108-.048h.276v2.28h1.884v.432h-1.884v4.044c0 .296.072.528.216.696.152.16.356.24.612.24.24 0 .512-.112.816-.336a.276.276 0 01.108-.036c.056 0 .1.024.132.072l.132.216a1.658 1.658 0 01-.6.408c-.24.096-.476.144-.708.144z"/>
    <path stroke="#fff" d="M47.022 110.378h276"/>
    <circle cx="47.022" cy="109.867" r="5.633" fill="#fff" stroke="#fff"/>
    <circle cx="139.022" cy="109.867" r="5.633" fill="#9AB23B" stroke="#fff"/>
    <circle cx="231.022" cy="109.867" r="5.633" fill="#9AB23B" stroke="#fff"/>
    <circle cx="323.022" cy="109.867" r="5.633" fill="#9AB23B" stroke="#fff"/>
    <path fill="#563D82" d="M89.39 403.844c.355.131.533.373.533.728V406H83.09v-1.428c0-.317.186-.56.56-.728l.56-.224-1.12-3.052h-8.064l-1.12 3.052.56.224c.373.168.56.411.56.728V406h-6.832v-1.428c0-.317.186-.56.56-.728l1.54-.644 6.832-17.444h3.864l6.86 17.444 1.54.644zm-7.251-5.936l-2.324-6.3a37.995 37.995 0 01-.756-2.38l-.252.868c-.15.504-.318 1.017-.504 1.54l-2.296 6.272h6.132zm19.81 8.036a.988.988 0 01-.56-.168c-.149-.093-.252-.252-.308-.476l-.28-1.316a7.544 7.544 0 01-1.988 1.596c-.746.411-1.633.616-2.66.616-.802 0-1.512-.159-2.128-.476a4.91 4.91 0 01-1.68-1.428c-.466-.597-.83-1.363-1.092-2.296-.26-.952-.392-1.997-.392-3.136 0-1.064.14-2.053.42-2.968a7.136 7.136 0 011.26-2.38c.504-.635 1.148-1.157 1.932-1.568.747-.392 1.596-.588 2.548-.588.803 0 1.494.131 2.072.392.616.28 1.12.616 1.512 1.008v-4.788l-.812-.14a5.49 5.49 0 01-.252-.056.52.52 0 00-.168-.028l-.168-.028c-.466-.112-.7-.401-.7-.868v-1.652h5.572V403.2l.728.112.364.084.168.028c.467.112.7.401.7.868v1.652h-4.088zm-1.316-10.64c-.373-.467-.802-.803-1.288-1.008a3.987 3.987 0 00-1.512-.308c-.485 0-.952.103-1.4.308-.41.187-.774.485-1.092.896-.28.392-.504.896-.672 1.512-.149.541-.224 1.26-.224 2.156 0 .896.066 1.615.196 2.156.131.56.327 1.027.588 1.4.262.392.56.663.896.812.355.168.766.252 1.232.252.747 0 1.363-.149 1.848-.448a5.417 5.417 0 001.428-1.288v-6.44zM118 405.944a.988.988 0 01-.56-.168c-.149-.093-.252-.252-.308-.476l-.28-1.316a7.534 7.534 0 01-1.988 1.596c-.746.411-1.633.616-2.66.616-.802 0-1.512-.159-2.128-.476a4.916 4.916 0 01-1.68-1.428c-.466-.597-.83-1.363-1.092-2.296-.261-.952-.392-1.997-.392-3.136 0-1.064.14-2.053.42-2.968a7.161 7.161 0 011.26-2.38c.504-.635 1.148-1.157 1.932-1.568.747-.392 1.596-.588 2.548-.588.803 0 1.494.131 2.072.392.616.28 1.12.616 1.512 1.008v-4.788l-.812-.14a5.675 5.675 0 01-.252-.056.52.52 0 00-.168-.028l-.168-.028c-.466-.112-.7-.401-.7-.868v-1.652h5.572V403.2l.728.112.364.084.168.028c.467.112.7.401.7.868v1.652H118zm-1.316-10.64c-.373-.467-.802-.803-1.288-1.008a3.987 3.987 0 00-1.512-.308 3.33 3.33 0 00-1.4.308c-.41.187-.774.485-1.092.896-.28.392-.504.896-.672 1.512-.149.541-.224 1.26-.224 2.156 0 .896.066 1.615.196 2.156.131.56.327 1.027.588 1.4.262.392.56.663.896.812.355.168.766.252 1.232.252.747 0 1.363-.149 1.848-.448a5.414 5.414 0 001.428-1.288v-6.44zm15.911-3.92c.728 0 1.316.159 1.764.476l-.448 2.604c-.019.168-.075.28-.168.336a.688.688 0 01-.392.112c-.131 0-.317-.028-.56-.084a4.494 4.494 0 00-.98-.112c-.728 0-1.344.196-1.848.588-.467.355-.896.943-1.288 1.764v6.16l1.4.252c.467.112.7.401.7.868V406h-7.672v-1.652c0-.467.233-.756.7-.868l1.4-.252v-8.82l-1.4-.252c-.467-.112-.7-.401-.7-.868v-1.652h4.144c.355 0 .597.065.728.196s.224.355.28.672l.224 1.736c.504-.915 1.101-1.615 1.792-2.1a3.927 3.927 0 012.324-.756zm9.479.028c.915 0 1.746.14 2.492.42.71.261 1.363.691 1.96 1.288.542.541.971 1.223 1.288 2.044.318.84.476 1.755.476 2.744 0 .224-.018.448-.056.672-.037.205-.074.336-.112.392-.037.093-.121.168-.252.224-.074.037-.205.056-.392.056h-8.876c.112 1.475.514 2.557 1.204 3.248.691.691 1.606 1.036 2.744 1.036.579 0 1.055-.065 1.428-.196.411-.131.766-.28 1.064-.448.131-.075.262-.14.392-.196.15-.075.29-.149.42-.224a1.18 1.18 0 01.644-.196c.15 0 .28.028.392.084a.556.556 0 01.252.224l1.008 1.26c-.429.485-.858.868-1.288 1.148a7.25 7.25 0 01-1.484.728c-.466.149-.998.271-1.596.364a9.93 9.93 0 01-1.568.112c-1.026 0-1.95-.159-2.772-.476a6.431 6.431 0 01-2.24-1.484c-.634-.635-1.138-1.437-1.512-2.408-.354-.933-.532-2.044-.532-3.332 0-.933.159-1.848.476-2.744a6.606 6.606 0 011.372-2.268c.579-.635 1.298-1.139 2.156-1.512.859-.373 1.83-.56 2.912-.56zm.056 2.464c-.989 0-1.773.289-2.352.868-.56.56-.924 1.363-1.092 2.408h6.496a4.5 4.5 0 00-.196-1.26 3.301 3.301 0 00-.56-1.036 2.429 2.429 0 00-.952-.7 3.328 3.328 0 00-1.344-.28zm17.165 6.076c.205.448.308.943.308 1.484 0 .672-.131 1.316-.392 1.932a4.598 4.598 0 01-1.092 1.512 4.646 4.646 0 01-1.792.98c-.672.243-1.493.364-2.464.364-.84 0-1.671-.075-2.492-.224-.803-.149-1.493-.336-2.072-.56v-4.06h1.624c.336 0 .551.177.644.532.037.205.103.756.196 1.652.504.149 1.26.224 2.268.224.392 0 .747-.047 1.064-.14.317-.112.56-.243.728-.392.224-.187.364-.364.42-.532.075-.205.112-.429.112-.672 0-.336-.093-.607-.28-.812-.168-.187-.439-.373-.812-.56a7.301 7.301 0 00-1.12-.42l-1.316-.42c-.299-.093-.728-.271-1.288-.532a4.207 4.207 0 01-1.148-.756 3.04 3.04 0 01-.784-1.12c-.205-.467-.308-1.008-.308-1.624 0-.597.112-1.157.336-1.68a3.907 3.907 0 011.036-1.4c.467-.411 1.036-.728 1.708-.952a7.294 7.294 0 012.324-.364c.709 0 1.335.056 1.876.168.541.093 1.316.289 2.324.588h-.028v4.06h-1.596c-.336 0-.551-.177-.644-.532-.056-.243-.121-.765-.196-1.568-.429-.131-.989-.196-1.68-.196-.672 0-1.204.14-1.596.42-.392.28-.588.663-.588 1.148 0 .28.103.541.308.784.149.168.411.345.784.532.429.205.803.355 1.12.448.149.037.579.168 1.288.392.355.112.793.289 1.316.532.448.205.821.448 1.12.728.336.28.597.625.784 1.036zm11.266 0c.205.448.308.943.308 1.484 0 .672-.131 1.316-.392 1.932a4.627 4.627 0 01-1.092 1.512 4.653 4.653 0 01-1.792.98c-.672.243-1.494.364-2.464.364-.84 0-1.671-.075-2.492-.224-.803-.149-1.494-.336-2.072-.56v-4.06h1.624c.336 0 .55.177.644.532.037.205.102.756.196 1.652.504.149 1.26.224 2.268.224.392 0 .746-.047 1.064-.14.317-.112.56-.243.728-.392.224-.187.364-.364.42-.532.074-.205.112-.429.112-.672 0-.336-.094-.607-.28-.812-.168-.187-.439-.373-.812-.56a7.301 7.301 0 00-1.12-.42l-1.316-.42c-.299-.093-.728-.271-1.288-.532a4.207 4.207 0 01-1.148-.756 3.028 3.028 0 01-.784-1.12c-.206-.467-.308-1.008-.308-1.624 0-.597.112-1.157.336-1.68a3.907 3.907 0 011.036-1.4c.466-.411 1.036-.728 1.708-.952a7.29 7.29 0 012.324-.364 9.34 9.34 0 011.876.168c.541.093 1.316.289 2.324.588h-.028v4.06h-1.596c-.336 0-.551-.177-.644-.532-.056-.243-.122-.765-.196-1.568-.43-.131-.99-.196-1.68-.196-.672 0-1.204.14-1.596.42-.392.28-.588.663-.588 1.148 0 .28.102.541.308.784.149.168.41.345.784.532.429.205.802.355 1.12.448.149.037.578.168 1.288.392.354.112.793.289 1.316.532.448.205.821.448 1.12.728.336.28.597.625.784 1.036zm13.546 6.272c-1.251 0-2.212-.355-2.884-1.064-.672-.709-1.008-1.68-1.008-2.912v-8.008h-1.456c-.15 0-.308-.065-.476-.196-.15-.112-.224-.289-.224-.532v-1.4l2.324-.364.728-3.92a.59.59 0 01.252-.42.86.86 0 01.532-.168h1.792v4.536h3.78v2.464h-3.78v7.784c0 .429.112.775.336 1.036.224.243.522.364.896.364.261 0 .438-.019.532-.056l.364-.168.308-.168a.4.4 0 01.224-.056c.149 0 .242.019.28.056l.196.224 1.036 1.68a6.016 6.016 0 01-3.752 1.288zm11.648-14.812c1.027 0 1.998.177 2.912.532.896.355 1.643.84 2.24 1.456.598.616 1.064 1.391 1.4 2.324.336.915.504 1.932.504 3.052s-.168 2.147-.504 3.08c-.354.952-.821 1.736-1.4 2.352a5.96 5.96 0 01-2.24 1.484c-.858.336-1.829.504-2.912.504-1.082 0-2.062-.168-2.94-.504a5.968 5.968 0 01-2.24-1.484 6.409 6.409 0 01-1.456-2.352c-.336-.933-.504-1.96-.504-3.08s.168-2.137.504-3.052a6.789 6.789 0 011.456-2.324c.598-.616 1.344-1.101 2.24-1.456a8.056 8.056 0 012.94-.532zm0 12.124c1.195 0 2.072-.401 2.632-1.204.579-.84.868-2.016.868-3.528s-.289-2.688-.868-3.528c-.56-.821-1.437-1.232-2.632-1.232-1.194 0-2.09.411-2.688 1.232-.597.821-.896 2.007-.896 3.556 0 1.512.299 2.679.896 3.5.579.803 1.475 1.204 2.688 1.204zm20.595-16.1a2.1 2.1 0 01-.196.84c-.112.261-.27.495-.476.7a2.024 2.024 0 01-.7.476 2.315 2.315 0 01-1.736 0 2.125 2.125 0 01-.672-.476 2.224 2.224 0 01-.476-.7 2.107 2.107 0 01-.168-.84c0-.299.056-.588.168-.868.094-.243.252-.476.476-.7.206-.205.43-.355.672-.448.336-.131.626-.196.868-.196.243 0 .532.065.868.196.28.112.514.261.7.448.224.224.383.457.476.7.131.317.196.607.196.868zm.896 16.044c.467.112.7.401.7.868V406h-7.7v-1.652c0-.467.234-.756.7-.868l.168-.028.42-.084.84-.14v-8.82l-.84-.14a5.675 5.675 0 01-.252-.056.52.52 0 00-.168-.028l-.168-.028c-.466-.112-.7-.401-.7-.868v-1.652h5.572v11.592l.84.14c.094.019.168.037.224.056.075.019.14.028.196.028l.168.028zm17.768 0c.467.112.7.401.7.868V406h-5.572v-9.128c0-.859-.205-1.54-.616-2.044-.392-.485-.999-.728-1.82-.728-.597 0-1.157.14-1.68.42a6.239 6.239 0 00-1.484 1.092v7.616l.812.14.42.084.168.028c.467.112.7.401.7.868V406h-7.672v-1.652c0-.467.233-.756.7-.868l.168-.028.42-.084.812-.14v-8.82l-.812-.14a5.675 5.675 0 01-.252-.056.52.52 0 00-.168-.028l-.168-.028c-.467-.112-.7-.401-.7-.868v-1.652h4.228c.429 0 .719.215.868.644l.252 1.12c.261-.299.56-.569.896-.812a5.61 5.61 0 011.036-.616c.485-.224.868-.364 1.148-.42.467-.093.915-.14 1.344-.14.821 0 1.521.131 2.1.392.541.224 1.045.597 1.512 1.12.392.467.7 1.045.924 1.736.205.616.308 1.353.308 2.212v6.356l.84.14c.093.019.168.037.224.056.075.019.14.028.196.028l.168.028zm11.781-3.528c.205.448.308.943.308 1.484 0 .672-.131 1.316-.392 1.932a4.598 4.598 0 01-1.092 1.512 4.646 4.646 0 01-1.792.98c-.672.243-1.493.364-2.464.364-.84 0-1.671-.075-2.492-.224-.803-.149-1.493-.336-2.072-.56v-4.06h1.624c.336 0 .551.177.644.532.037.205.103.756.196 1.652.504.149 1.26.224 2.268.224.392 0 .747-.047 1.064-.14.317-.112.56-.243.728-.392.224-.187.364-.364.42-.532.075-.205.112-.429.112-.672 0-.336-.093-.607-.28-.812-.168-.187-.439-.373-.812-.56a7.301 7.301 0 00-1.12-.42l-1.316-.42c-.299-.093-.728-.271-1.288-.532a4.207 4.207 0 01-1.148-.756 3.04 3.04 0 01-.784-1.12c-.205-.467-.308-1.008-.308-1.624 0-.597.112-1.157.336-1.68a3.907 3.907 0 011.036-1.4c.467-.411 1.036-.728 1.708-.952a7.294 7.294 0 012.324-.364c.709 0 1.335.056 1.876.168.541.093 1.316.289 2.324.588h-.028v4.06h-1.596c-.336 0-.551-.177-.644-.532-.056-.243-.121-.765-.196-1.568-.429-.131-.989-.196-1.68-.196-.672 0-1.204.14-1.596.42-.392.28-.588.663-.588 1.148 0 .28.103.541.308.784.149.168.411.345.784.532.429.205.803.355 1.12.448.149.037.579.168 1.288.392.355.112.793.289 1.316.532.448.205.821.448 1.12.728.336.28.597.625.784 1.036zm17.09 3.528c.466.112.7.401.7.868V406h-4.228c-.43 0-.719-.215-.868-.644l-.252-1.148c-.318.317-.626.597-.924.84-.28.224-.616.429-1.008.616a8.027 8.027 0 01-1.176.42 6.76 6.76 0 01-1.316.14 5.466 5.466 0 01-2.1-.392c-.542-.224-1.046-.607-1.512-1.148-.374-.429-.682-.999-.924-1.708a7.89 7.89 0 01-.308-2.212v-6.356l-1.428-.252c-.467-.112-.7-.401-.7-.868v-1.652h5.572v9.128c0 .859.205 1.54.616 2.044.392.467.998.7 1.82.7.56 0 1.12-.131 1.68-.392.504-.243.998-.607 1.484-1.092v-7.616a21.123 21.123 0 00-1.036-.168c-.168-.037-.29-.065-.364-.084-.467-.112-.7-.401-.7-.868v-1.652h5.572v11.592l1.4.252zm11.28-12.096c.728 0 1.316.159 1.764.476l-.448 2.604c-.018.168-.074.28-.168.336a.686.686 0 01-.392.112c-.13 0-.317-.028-.56-.084a4.487 4.487 0 00-.98-.112c-.728 0-1.344.196-1.848.588-.466.355-.896.943-1.288 1.764v6.16l1.4.252c.467.112.7.401.7.868V406h-7.672v-1.652c0-.467.234-.756.7-.868l1.4-.252v-8.82l-1.4-.252c-.466-.112-.7-.401-.7-.868v-1.652h4.144c.355 0 .598.065.728.196.131.131.224.355.28.672l.224 1.736c.504-.915 1.102-1.615 1.792-2.1a3.93 3.93 0 012.324-.756zm9.48.028c.914 0 1.745.14 2.492.42.709.261 1.362.691 1.96 1.288.541.541.97 1.223 1.288 2.044.317.84.476 1.755.476 2.744 0 .224-.019.448-.056.672-.038.205-.075.336-.112.392-.038.093-.122.168-.252.224-.075.037-.206.056-.392.056h-8.876c.112 1.475.513 2.557 1.204 3.248.69.691 1.605 1.036 2.744 1.036.578 0 1.054-.065 1.428-.196.41-.131.765-.28 1.064-.448.13-.075.261-.14.392-.196.149-.075.289-.149.42-.224.205-.131.42-.196.644-.196.149 0 .28.028.392.084a.566.566 0 01.252.224l1.008 1.26c-.43.485-.859.868-1.288 1.148-.504.317-.999.56-1.484.728-.467.149-.999.271-1.596.364-.467.075-.99.112-1.568.112-1.027 0-1.951-.159-2.772-.476a6.422 6.422 0 01-2.24-1.484c-.635-.635-1.139-1.437-1.512-2.408-.355-.933-.532-2.044-.532-3.332 0-.933.158-1.848.476-2.744a6.59 6.59 0 011.372-2.268c.578-.635 1.297-1.139 2.156-1.512.858-.373 1.829-.56 2.912-.56zm.056 2.464c-.99 0-1.774.289-2.352.868-.56.56-.924 1.363-1.092 2.408h6.496c0-.392-.066-.812-.196-1.26a3.322 3.322 0 00-.56-1.036 2.436 2.436 0 00-.952-.7 3.335 3.335 0 00-1.344-.28z"/>
    <g>
      <path fill="#F04E98" d="M320 445h2v-2h-2v2zm1-16c-5.52 0-10 4.48-10 10s4.48 10 10 10 10-4.48 10-10-4.48-10-10-10zm0 18c-4.41 0-8-3.59-8-8s3.59-8 8-8 8 3.59 8 8-3.59 8-8 8zm0-14c-2.21 0-4 1.79-4 4h2c0-1.1.9-2 2-2s2 .9 2 2c0 2-3 1.75-3 5h2c0-2.25 3-2.5 3-5 0-2.21-1.79-4-4-4z"/>
    </g>
    <g>
      <path stroke="#fff" d="M302.18-4.5h71.32v76h-71.32z"/>
      <path fill="#000" fill-opacity=".1" d="M-5.166.133h377.099V72H-5.166z"/>
      <path stroke="#fff" d="M230.892-4.5h71.32v76h-71.32z"/>
      <path stroke="#fff" d="M159.605-4.5h71.32v76h-71.32zM0 71.5h371.934"/>
      <path fill="#fff" d="M327.508 42.227h18.597v-2.054h-18.597v2.054zm0-5.134h18.597V35.04h-18.597v2.053zm0-7.186v2.053h18.597v-2.053h-18.597z"/>
      <path fill="#fff" d="M271.935 30.913l-4.525-6.735a1.028 1.028 0 00-.858-.431c-.33 0-.661.143-.857.441l-4.525 6.725h-4.949c-.568 0-1.033.462-1.033 1.026 0 .093.01.185.041.278l2.624 9.517a2.054 2.054 0 001.984 1.499h13.431c.95 0 1.746-.637 1.994-1.5l2.624-9.516.031-.277c0-.565-.465-1.027-1.033-1.027h-4.949zm-8.482 0l3.099-4.518 3.1 4.518h-6.199zm3.099 8.213a2.066 2.066 0 01-2.066-2.053c0-1.13.93-2.053 2.066-2.053 1.137 0 2.067.923 2.067 2.053s-.93 2.053-2.067 2.053z" opacity=".4"/>
      <path fill="#fff" d="M184.499 60.984c.16.016.24.088.24.216v.24h-2.304v-.24c0-.128.08-.2.24-.216l.624-.024v-7.776l-.624-.024c-.16-.016-.24-.088-.24-.216v-.24h1.44v8.256l.624.024zm3.892-5.616c.848 0 1.512.284 1.992.852.48.56.72 1.304.72 2.232 0 .936-.24 1.68-.72 2.232-.48.552-1.144.828-1.992.828-.864 0-1.536-.276-2.016-.828-.48-.56-.72-1.304-.72-2.232 0-.928.24-1.672.72-2.232.488-.568 1.16-.852 2.016-.852zm0 5.7c.704 0 1.232-.232 1.584-.696.36-.472.54-1.112.54-1.92 0-.8-.18-1.436-.54-1.908-.352-.48-.88-.72-1.584-.72-.712 0-1.248.236-1.608.708-.352.464-.528 1.104-.528 1.92 0 .808.176 1.448.528 1.92.352.464.888.696 1.608.696zm6.027-5.7c.24 0 .476.032.708.096.232.064.436.152.612.264h1.536v.204c0 .088-.056.14-.168.156l-.912.072c.128.176.216.356.264.54.056.176.084.372.084.588 0 .584-.2 1.048-.6 1.392-.392.336-.9.504-1.524.504-.376 0-.688-.048-.936-.144-.16.088-.292.196-.396.324a.653.653 0 00-.144.396c0 .2.08.348.24.444.16.096.372.16.636.192s.676.06 1.236.084c.696.032 1.22.136 1.572.312.352.176.528.5.528.972 0 .384-.128.72-.384 1.008-.248.288-.58.508-.996.66-.416.16-.852.24-1.308.24-.696 0-1.296-.14-1.8-.42-.496-.28-.744-.676-.744-1.188 0-.328.108-.604.324-.828a2.1 2.1 0 01.852-.516c-.24-.08-.408-.184-.504-.312-.096-.128-.144-.296-.144-.504 0-.2.076-.392.228-.576.152-.192.32-.336.504-.432a1.806 1.806 0 01-.672-.672 1.93 1.93 0 01-.228-.936c0-.592.204-1.06.612-1.404.408-.344.916-.516 1.524-.516zm0 3.432c.488 0 .876-.132 1.164-.396.296-.272.444-.644.444-1.116 0-.456-.148-.82-.444-1.092-.296-.272-.684-.408-1.164-.408-.488 0-.88.136-1.176.408-.288.264-.432.632-.432 1.104 0 .464.144.832.432 1.104.296.264.688.396 1.176.396zm2.22 3.048c0-.352-.16-.584-.48-.696-.312-.112-.748-.184-1.308-.216-.632-.024-1.084-.06-1.356-.108-.336.128-.596.292-.78.492a.982.982 0 00-.276.684c0 .424.208.736.624.936.416.2.888.3 1.416.3.592 0 1.1-.128 1.524-.384.424-.248.636-.584.636-1.008zm2.864-7.908a.522.522 0 01-.384-.156.545.545 0 01-.144-.384c0-.144.048-.264.144-.36a.522.522 0 01.384-.156.47.47 0 01.36.156.47.47 0 01.156.36c0 .152-.052.28-.156.384a.47.47 0 01-.36.156zm.912 7.044c.16.016.24.088.24.216v.24h-2.304v-.24c0-.128.08-.2.24-.216l.624-.024v-5.016l-.624-.024c-.16-.016-.24-.088-.24-.216v-.24h1.44v5.496l.624.024zm7.526 0c.16.016.24.088.24.216v.24h-1.44v-3.816c0-.56-.128-.996-.384-1.308-.256-.32-.648-.48-1.176-.48-.76 0-1.424.376-1.992 1.128v3.996l.636.024c.152.008.228.08.228.216v.24h-2.292v-.24c0-.136.076-.208.228-.216l.636-.024v-5.028l-.648-.024a.34.34 0 01-.18-.06c-.032-.032-.048-.084-.048-.156v-.228h1.188c.112 0 .172.048.18.144l.048.912c.6-.76 1.32-1.14 2.16-1.14.648 0 1.14.2 1.476.6.344.4.516.948.516 1.644v3.336l.624.024zM257.644 60.672c-.224.28-.524.492-.9.636a3.102 3.102 0 01-1.14.216c-.528 0-.988-.132-1.38-.396a2.646 2.646 0 01-.888-1.104c-.2-.464-.3-.988-.3-1.572 0-.6.104-1.132.312-1.596.208-.464.516-.824.924-1.08.408-.264.896-.396 1.464-.396.504 0 1.064.124 1.68.372v1.5h-.288c-.16 0-.248-.096-.264-.288 0-.024-.008-.116-.024-.276a19.084 19.084 0 01-.048-.66c-.392-.136-.732-.204-1.02-.204-.696 0-1.228.24-1.596.72-.368.48-.552 1.116-.552 1.908 0 .784.18 1.416.54 1.896.36.48.868.72 1.524.72.288 0 .572-.052.852-.156.28-.104.5-.236.66-.396.064-.064.124-.096.18-.096.048 0 .084.02.108.06l.156.192zm3.636-5.304c.848 0 1.512.284 1.992.852.48.56.72 1.304.72 2.232 0 .936-.24 1.68-.72 2.232-.48.552-1.144.828-1.992.828-.864 0-1.536-.276-2.016-.828-.48-.56-.72-1.304-.72-2.232 0-.928.24-1.672.72-2.232.488-.568 1.16-.852 2.016-.852zm0 5.7c.704 0 1.232-.232 1.584-.696.36-.472.54-1.112.54-1.92 0-.8-.18-1.436-.54-1.908-.352-.48-.88-.72-1.584-.72-.712 0-1.248.236-1.608.708-.352.464-.528 1.104-.528 1.92 0 .808.176 1.448.528 1.92.352.464.888.696 1.608.696zm9.819-5.376c0 .128-.08.2-.24.216l-.42.012-2.316 5.52h-.504l-2.328-5.52-.396-.012c-.152-.008-.228-.08-.228-.216v-.228h2.088v.228c0 .128-.08.2-.24.216l-.624.024 1.836 4.392c.056.128.104.3.144.516.08-.288.132-.46.156-.516l1.836-4.392-.624-.024c-.16-.016-.24-.088-.24-.216v-.228h2.1v.228zm3.457-.324c.728 0 1.3.244 1.716.732.424.488.636 1.12.636 1.896 0 .152-.056.228-.168.228h-4.308c0 .888.184 1.584.552 2.088.368.504.92.756 1.656.756.296 0 .604-.052.924-.156.328-.104.584-.236.768-.396.064-.064.128-.096.192-.096.056 0 .096.02.12.06l.156.192c-.208.256-.528.46-.96.612-.424.152-.84.228-1.248.228-.888 0-1.568-.292-2.04-.876-.464-.592-.696-1.36-.696-2.304 0-.568.108-1.076.324-1.524.224-.448.54-.8.948-1.056.408-.256.884-.384 1.428-.384zm.012.432c-.608 0-1.096.184-1.464.552-.36.36-.576.86-.648 1.5h3.936c0-.624-.168-1.12-.504-1.488-.328-.376-.768-.564-1.32-.564zm6.781-.432c.336 0 .644.076.924.228l-.108.3a.266.266 0 01-.108.156c-.048.032-.104.036-.168.012a3.35 3.35 0 00-.312-.096 1.306 1.306 0 00-.336-.036c-.448 0-.82.14-1.116.42-.296.28-.532.684-.708 1.212v3.396l.636.024c.08.008.136.028.168.06.04.032.06.084.06.156v.24h-2.292v-.24c0-.072.016-.124.048-.156a.34.34 0 01.18-.06l.636-.024v-5.028l-.648-.024a.34.34 0 01-.18-.06c-.032-.032-.048-.084-.048-.156v-.228h1.176c.072 0 .12.012.144.036.032.032.048.08.048.144l.048 1.272c.408-1.032 1.06-1.548 1.956-1.548zM194.232 26.827c-5.703 0-10.331 4.6-10.331 10.266 0 5.667 4.628 10.267 10.331 10.267 5.703 0 10.331-4.6 10.331-10.267s-4.628-10.266-10.331-10.266zm0 3.08a3.085 3.085 0 013.099 3.08 3.085 3.085 0 01-3.099 3.08 3.085 3.085 0 01-3.099-3.08 3.085 3.085 0 013.099-3.08zm0 14.578a7.452 7.452 0 01-6.199-3.306c.031-2.043 4.133-3.162 6.199-3.162 2.056 0 6.168 1.12 6.199 3.162a7.452 7.452 0 01-6.199 3.306z"/>
    </g>
    <path fill="#EEE" d="M39 484h138v50H39z"/>
    <path fill="#563D82" d="M45.928 437h-8.64l.054-.36c.012-.192.144-.3.396-.324l1.17-.036 1.386-11.322-1.152-.036c-.228-.024-.336-.132-.324-.324l.036-.342h3.96l-.054.342c-.012.192-.144.3-.396.324l-1.152.036-1.386 11.25H45.1l.234-1.152c.048-.288.198-.432.45-.432h.432L45.928 437zm8.454-7.236c0 .744-.306 1.326-.918 1.746-.612.408-1.32.696-2.124.864-.792.168-1.794.324-3.006.468l-.036.738c0 .888.198 1.59.594 2.106.408.504 1.02.756 1.836.756.408 0 .75-.042 1.026-.126a3.06 3.06 0 00.792-.396c.24-.18.57-.45.99-.81.06-.06.132-.09.216-.09.084 0 .15.03.198.09l.198.234c-.996 1.176-2.184 1.764-3.564 1.764-1.02 0-1.794-.318-2.322-.954-.528-.648-.792-1.5-.792-2.556 0-.984.192-1.908.576-2.772.384-.876.918-1.578 1.602-2.106a3.776 3.776 0 012.34-.792c.684 0 1.254.174 1.71.522.456.336.684.774.684 1.314zm-2.43-1.206c-.9 0-1.662.36-2.286 1.08-.624.72-1.032 1.59-1.224 2.61 1.008-.12 1.86-.252 2.556-.396.708-.144 1.32-.384 1.836-.72.528-.336.792-.786.792-1.35 0-.384-.156-.684-.468-.9-.312-.216-.714-.324-1.206-.324zm5.823 8.586c-.564 0-.99-.138-1.279-.414-.288-.276-.431-.684-.431-1.224 0-.084.012-.222.035-.414l.756-6.12h-1.278c-.132 0-.198-.072-.198-.216l.036-.324 1.549-.108.593-3.204c.048-.144.133-.216.252-.216h.414l-.413 3.42h2.807l-.072.648h-2.825l-.738 6.066c-.012.06-.018.15-.018.27 0 .348.09.624.27.828.191.204.462.306.81.306.215 0 .45-.054.701-.162.264-.12.462-.234.594-.342.084-.06.15-.09.198-.09.06 0 .109.036.145.108l.161.36a2.808 2.808 0 01-.971.612 3.232 3.232 0 01-1.098.216zm4.878-8.874a.637.637 0 01-.126.234.295.295 0 01-.216.09c-.168 0-.252-.108-.252-.324l.09-1.386.324-2.628h.738l-.324 2.628-.234 1.386zm7.987 6.102c-.12.84-.504 1.512-1.152 2.016-.648.504-1.428.756-2.34.756-.852 0-1.71-.168-2.574-.504l.252-2.178h.45c.24 0 .348.144.324.432l-.054 1.332c.456.192 1.032.288 1.728.288.66 0 1.224-.174 1.692-.522.48-.36.762-.852.846-1.476l.018-.198c0-.432-.192-.762-.576-.99-.372-.24-.942-.474-1.71-.702-.732-.216-1.29-.474-1.674-.774-.372-.3-.558-.702-.558-1.206 0-.144.006-.252.018-.324.048-.468.228-.882.54-1.242.324-.372.72-.66 1.188-.864a3.87 3.87 0 011.53-.306c.684 0 1.458.156 2.322.468l-.27 2.142h-.432c-.228 0-.336-.144-.324-.432l.036-1.296a4.256 4.256 0 00-1.386-.234c-.588 0-1.11.156-1.566.468-.456.312-.726.726-.81 1.242a.757.757 0 00-.018.18c0 .408.18.72.54.936.36.216.942.444 1.746.684.732.216 1.284.486 1.656.81.384.324.576.738.576 1.242 0 .108-.006.192-.018.252zm15.692-8.928c0 .252-.09.462-.27.63a.91.91 0 01-.611.234.682.682 0 01-.54-.252.68.68 0 01-.162-.522c.035-.228.12-.402.252-.522-.373-.24-.829-.36-1.369-.36a4.41 4.41 0 00-.648.054c-1.475.276-2.316 1.236-2.52 2.88l-.09.738h5.257l-.99 7.956 1.17.036c.227.012.33.12.305.324l-.035.36h-2.377l.99-8.028H80.32l-.99 8.01c-.275 2.244-1.535 3.366-3.78 3.366v-.432c0-.192.109-.288.325-.288.72 0 1.314-.246 1.781-.738.468-.492.744-1.134.828-1.926l.973-7.992-1.242-.072a.498.498 0 01-.199-.054c-.035-.036-.047-.09-.035-.162l.035-.36h1.53l.09-.774c.145-1.116.57-1.992 1.279-2.628.72-.636 1.637-.954 2.753-.954 1.104 0 1.932.324 2.484.972.12.168.18.336.18.504zm9.502 10.872c.228.012.33.12.306.324l-.036.36h-2.16l.702-5.742c.024-.288.036-.486.036-.594 0-1.392-.678-2.088-2.034-2.088-1.128 0-2.196.564-3.204 1.692L88.616 437h-.846l1.008-8.262-.936-.036c-.228-.024-.336-.132-.324-.324l.054-.342h1.764c.156 0 .234.072.234.216l-.072 1.35c.48-.54 1.008-.96 1.584-1.26.588-.3 1.206-.45 1.854-.45.876 0 1.53.246 1.962.738.432.48.648 1.14.648 1.98 0 .276-.012.492-.036.648l-.612 5.022.936.036zm8.215.684c-.156 0-.234-.078-.234-.234l.072-1.422c-1.02 1.176-2.148 1.764-3.384 1.764-1.02 0-1.776-.306-2.268-.918-.492-.612-.738-1.464-.738-2.556 0-.396.024-.762.072-1.098.096-.876.342-1.662.738-2.358a4.631 4.631 0 011.548-1.674c.648-.408 1.38-.612 2.196-.612 1.152 0 2.004.438 2.556 1.314l.576-4.59-.936-.036c-.228-.012-.336-.12-.324-.324l.036-.36h2.16l-1.512 12.402.828.018c.24.012.348.12.324.324l-.036.36h-1.674zm.468-7.038c-.276-.492-.606-.846-.99-1.062-.384-.228-.852-.342-1.404-.342-1.056 0-1.896.372-2.52 1.116-.612.732-.996 1.686-1.152 2.862-.048.48-.072.822-.072 1.026 0 1.908.816 2.862 2.448 2.862 1.104 0 2.142-.582 3.114-1.746l.576-4.716zm8.91 7.182c-.564 0-.99-.138-1.278-.414-.288-.276-.432-.684-.432-1.224 0-.084.012-.222.036-.414l.756-6.12h-1.278c-.132 0-.198-.072-.198-.216l.036-.324 1.548-.108.594-3.204c.048-.144.132-.216.252-.216h.414l-.414 3.42h2.808l-.072.648h-2.826l-.738 6.066c-.012.06-.018.15-.018.27 0 .348.09.624.27.828.192.204.462.306.81.306.216 0 .45-.054.702-.162.264-.12.462-.234.594-.342.084-.06.15-.09.198-.09.06 0 .108.036.144.108l.162.36a2.808 2.808 0 01-.972.612 3.232 3.232 0 01-1.098.216zm11.844-.828c.228.012.33.12.306.324l-.036.36h-2.16l.702-5.724c.024-.144.036-.348.036-.612 0-.66-.168-1.17-.504-1.53-.336-.36-.852-.54-1.548-.54-.612 0-1.176.15-1.692.45-.516.288-1.014.702-1.494 1.242l-.828 6.714h-.846l1.512-12.384-.936-.036c-.228-.012-.336-.12-.324-.324l.054-.342h2.142l-.684 5.67c1.032-1.116 2.166-1.674 3.402-1.674.876 0 1.53.24 1.962.72.444.468.666 1.116.666 1.944 0 .216-.018.45-.054.702l-.63 5.004.954.036zm8.511-6.552c0 .744-.306 1.326-.918 1.746-.612.408-1.32.696-2.124.864-.792.168-1.794.324-3.006.468l-.036.738c0 .888.198 1.59.594 2.106.408.504 1.02.756 1.836.756.408 0 .75-.042 1.026-.126a3.06 3.06 0 00.792-.396c.24-.18.57-.45.99-.81.06-.06.132-.09.216-.09.084 0 .15.03.198.09l.198.234c-.996 1.176-2.184 1.764-3.564 1.764-1.02 0-1.794-.318-2.322-.954-.528-.648-.792-1.5-.792-2.556 0-.984.192-1.908.576-2.772.384-.876.918-1.578 1.602-2.106a3.776 3.776 0 012.34-.792c.684 0 1.254.174 1.71.522.456.336.684.774.684 1.314zm-2.43-1.206c-.9 0-1.662.36-2.286 1.08-.624.72-1.032 1.59-1.224 2.61 1.008-.12 1.86-.252 2.556-.396.708-.144 1.32-.384 1.836-.72.528-.336.792-.786.792-1.35 0-.384-.156-.684-.468-.9-.312-.216-.714-.324-1.206-.324zm14.585 7.758c.24.012.348.12.324.324l-.054.36h-1.602c-.108 0-.186-.03-.234-.09a.31.31 0 01-.072-.198l.306-2.808c-.42.912-.948 1.674-1.584 2.286-.636.612-1.326.918-2.07.918-.78 0-1.356-.282-1.728-.846-.36-.576-.54-1.332-.54-2.268a6.14 6.14 0 01.756-2.952c.504-.936 1.17-1.686 1.998-2.25.84-.576 1.74-.864 2.7-.864.78 0 1.428.138 1.944.414l-.972 7.956.828.018zm-.738-7.578a3.515 3.515 0 00-1.152-.18c-.792 0-1.536.258-2.232.774a5.677 5.677 0 00-1.674 1.998 5.572 5.572 0 00-.612 2.52c0 .78.132 1.404.396 1.872.264.456.696.684 1.296.684.756 0 1.434-.396 2.034-1.188.6-.792 1.098-1.734 1.494-2.826l.45-3.654zM154.27 437c-.156 0-.234-.078-.234-.234l.072-1.422c-1.02 1.176-2.148 1.764-3.384 1.764-1.02 0-1.776-.306-2.268-.918-.492-.612-.738-1.464-.738-2.556 0-.396.024-.762.072-1.098.096-.876.342-1.662.738-2.358a4.631 4.631 0 011.548-1.674c.648-.408 1.38-.612 2.196-.612 1.152 0 2.004.438 2.556 1.314l.576-4.59-.936-.036c-.228-.012-.336-.12-.324-.324l.036-.36h2.16l-1.512 12.402.828.018c.24.012.348.12.324.324l-.036.36h-1.674zm.468-7.038c-.276-.492-.606-.846-.99-1.062-.384-.228-.852-.342-1.404-.342-1.056 0-1.896.372-2.52 1.116-.612.732-.996 1.686-1.152 2.862-.048.48-.072.822-.072 1.026 0 1.908.816 2.862 2.448 2.862 1.104 0 2.142-.582 3.114-1.746l.576-4.716zm9.13 7.038c-.156 0-.234-.078-.234-.234l.072-1.422c-1.02 1.176-2.148 1.764-3.384 1.764-1.02 0-1.776-.306-2.268-.918-.492-.612-.738-1.464-.738-2.556 0-.396.024-.762.072-1.098.096-.876.342-1.662.738-2.358a4.631 4.631 0 011.548-1.674c.648-.408 1.38-.612 2.196-.612 1.152 0 2.004.438 2.556 1.314l.576-4.59-.936-.036c-.228-.012-.336-.12-.324-.324l.036-.36h2.16l-1.512 12.402.828.018c.24.012.348.12.324.324l-.036.36h-1.674zm.468-7.038c-.276-.492-.606-.846-.99-1.062-.384-.228-.852-.342-1.404-.342-1.056 0-1.896.372-2.52 1.116-.612.732-.996 1.686-1.152 2.862-.048.48-.072.822-.072 1.026 0 1.908.816 2.862 2.448 2.862 1.104 0 2.142-.582 3.114-1.746l.576-4.716zm9.057-1.134c-.048.096-.114.144-.198.144a.571.571 0 01-.162-.036 4.471 4.471 0 00-.54-.162 2.806 2.806 0 00-.54-.036c-1.284 0-2.292.816-3.024 2.448l-.72 5.814h-.846l1.008-8.262-.936-.036c-.228-.024-.336-.132-.324-.324l.054-.342h1.746c.12 0 .192.018.216.054.024.036.036.108.036.216l-.144 1.908c.396-.768.852-1.344 1.368-1.728.528-.396 1.14-.594 1.836-.594.48 0 .93.114 1.35.342l-.18.594zm7.833.936c0 .744-.306 1.326-.918 1.746-.612.408-1.32.696-2.124.864-.792.168-1.794.324-3.006.468l-.036.738c0 .888.198 1.59.594 2.106.408.504 1.02.756 1.836.756.408 0 .75-.042 1.026-.126a3.06 3.06 0 00.792-.396c.24-.18.57-.45.99-.81.06-.06.132-.09.216-.09.084 0 .15.03.198.09l.198.234c-.996 1.176-2.184 1.764-3.564 1.764-1.02 0-1.794-.318-2.322-.954-.528-.648-.792-1.5-.792-2.556 0-.984.192-1.908.576-2.772.384-.876.918-1.578 1.602-2.106a3.776 3.776 0 012.34-.792c.684 0 1.254.174 1.71.522.456.336.684.774.684 1.314zm-2.43-1.206c-.9 0-1.662.36-2.286 1.08-.624.72-1.032 1.59-1.224 2.61 1.008-.12 1.86-.252 2.556-.396.708-.144 1.32-.384 1.836-.72.528-.336.792-.786.792-1.35 0-.384-.156-.684-.468-.9-.312-.216-.714-.324-1.206-.324zm9.512 5.814c-.12.84-.504 1.512-1.152 2.016-.648.504-1.428.756-2.34.756-.852 0-1.71-.168-2.574-.504l.252-2.178h.45c.24 0 .348.144.324.432l-.054 1.332c.456.192 1.032.288 1.728.288.66 0 1.224-.174 1.692-.522.48-.36.762-.852.846-1.476l.018-.198c0-.432-.192-.762-.576-.99-.372-.24-.942-.474-1.71-.702-.732-.216-1.29-.474-1.674-.774-.372-.3-.558-.702-.558-1.206 0-.144.006-.252.018-.324.048-.468.228-.882.54-1.242.324-.372.72-.66 1.188-.864a3.87 3.87 0 011.53-.306c.684 0 1.458.156 2.322.468l-.27 2.142h-.432c-.228 0-.336-.144-.324-.432l.036-1.296a4.256 4.256 0 00-1.386-.234c-.588 0-1.11.156-1.566.468-.456.312-.726.726-.81 1.242a.757.757 0 00-.018.18c0 .408.18.72.54.936.36.216.942.444 1.746.684.732.216 1.284.486 1.656.81.384.324.576.738.576 1.242 0 .108-.006.192-.018.252zm7.489 0c-.12.84-.504 1.512-1.152 2.016-.648.504-1.428.756-2.34.756-.852 0-1.71-.168-2.574-.504l.252-2.178h.45c.24 0 .348.144.324.432l-.054 1.332c.456.192 1.032.288 1.728.288.66 0 1.224-.174 1.692-.522.48-.36.762-.852.846-1.476l.018-.198c0-.432-.192-.762-.576-.99-.372-.24-.942-.474-1.71-.702-.732-.216-1.29-.474-1.674-.774-.372-.3-.558-.702-.558-1.206 0-.144.006-.252.018-.324.048-.468.228-.882.54-1.242.324-.372.72-.66 1.188-.864a3.87 3.87 0 011.53-.306c.684 0 1.458.156 2.322.468l-.27 2.142h-.432c-.228 0-.336-.144-.324-.432l.036-1.296a4.256 4.256 0 00-1.386-.234c-.588 0-1.11.156-1.566.468-.456.312-.726.726-.81 1.242a.757.757 0 00-.018.18c0 .408.18.72.54.936.36.216.942.444 1.746.684.732.216 1.284.486 1.656.81.384.324.576.738.576 1.242 0 .108-.006.192-.018.252zm10.022-6.48c1.128 0 2.004.342 2.628 1.026.624.684.936 1.602.936 2.754 0 .276-.018.558-.054.846-.18 1.416-.678 2.538-1.494 3.366-.816.816-1.866 1.224-3.15 1.224-1.14 0-2.022-.336-2.646-1.008-.612-.672-.918-1.578-.918-2.718 0-.288.018-.576.054-.864.18-1.428.678-2.556 1.494-3.384.816-.828 1.866-1.242 3.15-1.242zm-1.044 8.55c1.068 0 1.908-.354 2.52-1.062.612-.72.996-1.674 1.152-2.862.036-.312.054-.6.054-.864 0-.96-.234-1.71-.702-2.25-.456-.552-1.146-.828-2.07-.828-1.068 0-1.914.366-2.538 1.098-.612.72-.99 1.668-1.134 2.844-.036.288-.054.57-.054.846 0 .972.234 1.728.702 2.268.468.54 1.158.81 2.07.81zm13.562-11.79c-.012.12-.108.18-.288.18a.854.854 0 01-.198-.018 3.218 3.218 0 00-.45-.036c-1.344 0-2.118.816-2.322 2.448l-.144 1.098h2.916l-.09.648h-2.88l-.99 8.01c-.144 1.104-.534 1.938-1.17 2.502-.636.576-1.506.864-2.61.864v-.432c0-.192.108-.288.324-.288.732 0 1.326-.24 1.782-.72.456-.48.732-1.128.828-1.944l.972-7.974-1.242-.09a.498.498 0 01-.198-.054c-.036-.036-.048-.09-.036-.162l.036-.36h1.53l.126-1.134c.108-.924.432-1.668.972-2.232.552-.564 1.272-.846 2.16-.846.396 0 .744.06 1.044.18l-.072.36zm7.027 12.492c-.564 0-.99-.138-1.278-.414-.288-.276-.432-.684-.432-1.224 0-.084.012-.222.036-.414l.756-6.12h-1.278c-.132 0-.198-.072-.198-.216l.036-.324 1.548-.108.594-3.204c.048-.144.132-.216.252-.216h.414l-.414 3.42h2.808l-.072.648h-2.826l-.738 6.066c-.012.06-.018.15-.018.27 0 .348.09.624.27.828.192.204.462.306.81.306.216 0 .45-.054.702-.162.264-.12.462-.234.594-.342.084-.06.15-.09.198-.09.06 0 .108.036.144.108l.162.36a2.808 2.808 0 01-.972.612 3.232 3.232 0 01-1.098.216zm11.845-.828c.228.012.33.12.306.324l-.036.36h-2.16l.702-5.724c.024-.144.036-.348.036-.612 0-.66-.168-1.17-.504-1.53-.336-.36-.852-.54-1.548-.54-.612 0-1.176.15-1.692.45-.516.288-1.014.702-1.494 1.242l-.828 6.714h-.846l1.512-12.384-.936-.036c-.228-.012-.336-.12-.324-.324l.054-.342h2.142l-.684 5.67c1.032-1.116 2.166-1.674 3.402-1.674.876 0 1.53.24 1.962.72.444.468.666 1.116.666 1.944 0 .216-.018.45-.054.702l-.63 5.004.954.036zm8.511-6.552c0 .744-.306 1.326-.918 1.746-.612.408-1.32.696-2.124.864-.792.168-1.794.324-3.006.468l-.036.738c0 .888.198 1.59.594 2.106.408.504 1.02.756 1.836.756.408 0 .75-.042 1.026-.126a3.06 3.06 0 00.792-.396c.24-.18.57-.45.99-.81.06-.06.132-.09.216-.09.084 0 .15.03.198.09l.198.234c-.996 1.176-2.184 1.764-3.564 1.764-1.02 0-1.794-.318-2.322-.954-.528-.648-.792-1.5-.792-2.556 0-.984.192-1.908.576-2.772.384-.876.918-1.578 1.602-2.106a3.776 3.776 0 012.34-.792c.684 0 1.254.174 1.71.522.456.336.684.774.684 1.314zm-2.43-1.206c-.9 0-1.662.36-2.286 1.08-.624.72-1.032 1.59-1.224 2.61 1.008-.12 1.86-.252 2.556-.396.708-.144 1.32-.384 1.836-.72.528-.336.792-.786.792-1.35 0-.384-.156-.684-.468-.9-.312-.216-.714-.324-1.206-.324zM46.81 454.464a6.173 6.173 0 01-.738 2.358 4.77 4.77 0 01-1.566 1.674c-.636.408-1.356.612-2.16.612-.588 0-1.092-.102-1.512-.306-.42-.204-.774-.54-1.062-1.008l-.45 3.654.936.036c.228.012.33.12.306.324l-.036.36h-3.456l.036-.36c.012-.192.144-.3.396-.324l.954-.036 1.314-10.71-.936-.036c-.228-.024-.336-.132-.324-.324l.054-.342h1.764c.096 0 .156.018.18.054.036.024.054.078.054.162l-.09 1.404a5.705 5.705 0 011.584-1.296 3.764 3.764 0 011.818-.468c1.02 0 1.776.312 2.268.936.492.612.738 1.464.738 2.556 0 .216-.024.576-.072 1.08zm-.882 0c.048-.48.072-.816.072-1.008 0-1.908-.816-2.862-2.448-2.862-1.164 0-2.202.582-3.114 1.746l-.576 4.698c.48.936 1.278 1.404 2.394 1.404 1.032 0 1.866-.36 2.502-1.08.636-.732 1.026-1.698 1.17-2.898zm8.55-3.636c-.049.096-.115.144-.199.144a.571.571 0 01-.162-.036 4.471 4.471 0 00-.54-.162 2.806 2.806 0 00-.54-.036c-1.284 0-2.292.816-3.024 2.448l-.72 5.814h-.846l1.008-8.262-.936-.036c-.228-.024-.336-.132-.324-.324l.054-.342h1.746c.12 0 .192.018.216.054.024.036.036.108.036.216l-.144 1.908c.396-.768.852-1.344 1.368-1.728.528-.396 1.14-.594 1.836-.594.48 0 .93.114 1.35.342l-.18.594zm5.636-.936c1.128 0 2.004.342 2.628 1.026.624.684.936 1.602.936 2.754 0 .276-.018.558-.054.846-.18 1.416-.678 2.538-1.494 3.366-.816.816-1.866 1.224-3.15 1.224-1.14 0-2.022-.336-2.646-1.008-.612-.672-.918-1.578-.918-2.718 0-.288.018-.576.054-.864.18-1.428.678-2.556 1.494-3.384.816-.828 1.866-1.242 3.15-1.242zm-1.044 8.55c1.068 0 1.908-.354 2.52-1.062.612-.72.996-1.674 1.152-2.862.036-.312.054-.6.054-.864 0-.96-.234-1.71-.702-2.25-.456-.552-1.146-.828-2.07-.828-1.068 0-1.914.366-2.538 1.098-.612.72-.99 1.668-1.134 2.844-.036.288-.054.57-.054.846 0 .972.234 1.728.702 2.268.468.54 1.158.81 2.07.81zm15.074-3.978a6.173 6.173 0 01-.738 2.358 4.77 4.77 0 01-1.566 1.674c-.636.408-1.356.612-2.16.612-.588 0-1.092-.102-1.512-.306-.42-.204-.774-.54-1.062-1.008l-.45 3.654.936.036c.228.012.33.12.306.324l-.036.36h-3.456l.036-.36c.012-.192.144-.3.396-.324l.954-.036 1.314-10.71-.936-.036c-.228-.024-.336-.132-.324-.324l.054-.342h1.764c.096 0 .156.018.18.054.036.024.054.078.054.162l-.09 1.404a5.705 5.705 0 011.584-1.296 3.764 3.764 0 011.818-.468c1.02 0 1.776.312 2.268.936.492.612.738 1.464.738 2.556 0 .216-.024.576-.072 1.08zm-.882 0c.048-.48.072-.816.072-1.008 0-1.908-.816-2.862-2.448-2.862-1.164 0-2.202.582-3.114 1.746l-.576 4.698c.48.936 1.278 1.404 2.394 1.404 1.032 0 1.866-.36 2.502-1.08.636-.732 1.026-1.698 1.17-2.898zm8.981-2.7c0 .744-.306 1.326-.918 1.746-.612.408-1.32.696-2.124.864-.792.168-1.794.324-3.006.468l-.036.738c0 .888.198 1.59.594 2.106.408.504 1.02.756 1.836.756.408 0 .75-.042 1.026-.126a3.06 3.06 0 00.792-.396c.24-.18.57-.45.99-.81.06-.06.132-.09.216-.09.084 0 .15.03.198.09l.198.234c-.996 1.176-2.184 1.764-3.564 1.764-1.02 0-1.794-.318-2.322-.954-.528-.648-.792-1.5-.792-2.556 0-.984.192-1.908.576-2.772.384-.876.918-1.578 1.602-2.106a3.776 3.776 0 012.34-.792c.684 0 1.254.174 1.71.522.456.336.684.774.684 1.314zm-2.43-1.206c-.9 0-1.662.36-2.286 1.08-.624.72-1.032 1.59-1.224 2.61 1.008-.12 1.86-.252 2.556-.396.708-.144 1.32-.384 1.836-.72.528-.336.792-.786.792-1.35 0-.384-.156-.684-.468-.9-.312-.216-.714-.324-1.206-.324zm9.89.27c-.047.096-.113.144-.197.144a.571.571 0 01-.162-.036 4.471 4.471 0 00-.54-.162 2.806 2.806 0 00-.54-.036c-1.284 0-2.292.816-3.024 2.448L84.52 459h-.846l1.008-8.262-.936-.036c-.228-.024-.336-.132-.324-.324l.054-.342h1.746c.12 0 .192.018.216.054.024.036.036.108.036.216l-.144 1.908c.396-.768.852-1.344 1.368-1.728.528-.396 1.14-.594 1.836-.594.48 0 .93.114 1.35.342l-.18.594zm3.333 8.316c-.564 0-.99-.138-1.278-.414-.288-.276-.432-.684-.432-1.224 0-.084.012-.222.036-.414l.756-6.12H90.84c-.132 0-.198-.072-.198-.216l.036-.324 1.548-.108.594-3.204c.048-.144.132-.216.252-.216h.414l-.414 3.42h2.808l-.072.648h-2.826l-.738 6.066c-.012.06-.018.15-.018.27 0 .348.09.624.27.828.192.204.462.306.81.306.216 0 .45-.054.702-.162.264-.12.462-.234.594-.342.084-.06.15-.09.198-.09.06 0 .108.036.144.108l.162.36a2.808 2.808 0 01-.972.612 3.232 3.232 0 01-1.098.216zm13.213-8.766c-.012.192-.144.3-.396.324l-.612.018-6.21 11.16a.523.523 0 01-.198.198.358.358 0 01-.234.09h-.612l2.016-3.492-2.52-7.956-.54-.018c-.228-.024-.336-.132-.324-.324l.054-.342h3.132l-.054.342c-.012.192-.144.3-.396.324l-.936.036 2.016 6.498.09.576.27-.576 3.564-6.498-.918-.036c-.228-.024-.336-.132-.324-.324l.054-.342h3.132l-.054.342zm14.344 0c-.012.192-.144.3-.396.324l-.612.018-6.21 11.16a.523.523 0 01-.198.198.358.358 0 01-.234.09h-.612l2.016-3.492-2.52-7.956-.54-.018c-.228-.024-.336-.132-.324-.324l.054-.342h3.132l-.054.342c-.012.192-.144.3-.396.324l-.936.036 2.016 6.498.09.576.27-.576 3.564-6.498-.918-.036c-.228-.024-.336-.132-.324-.324l.054-.342h3.132l-.054.342zm5.491-.486c1.128 0 2.004.342 2.628 1.026.624.684.936 1.602.936 2.754 0 .276-.018.558-.054.846-.18 1.416-.678 2.538-1.494 3.366-.816.816-1.866 1.224-3.15 1.224-1.14 0-2.022-.336-2.646-1.008-.612-.672-.918-1.578-.918-2.718 0-.288.018-.576.054-.864.18-1.428.678-2.556 1.494-3.384.816-.828 1.866-1.242 3.15-1.242zm-1.044 8.55c1.068 0 1.908-.354 2.52-1.062.612-.72.996-1.674 1.152-2.862.036-.312.054-.6.054-.864 0-.96-.234-1.71-.702-2.25-.456-.552-1.146-.828-2.07-.828-1.068 0-1.914.366-2.538 1.098-.612.72-.99 1.668-1.134 2.844-.036.288-.054.57-.054.846 0 .972.234 1.728.702 2.268.468.54 1.158.81 2.07.81zm14.157-.126c.228.012.33.12.306.324l-.036.36h-1.764c-.168 0-.246-.078-.234-.234l.072-1.332c-1.056 1.14-2.208 1.71-3.456 1.71-.876 0-1.536-.24-1.98-.72-.432-.492-.648-1.152-.648-1.98 0-.228.018-.456.054-.684l.63-5.004-.954-.036c-.228-.012-.33-.12-.306-.324l.036-.342h1.296l.864-.018-.702 5.724a3.962 3.962 0 00-.036.612c0 .672.168 1.188.504 1.548.336.36.846.54 1.53.54.6 0 1.17-.15 1.71-.45a6.01 6.01 0 001.494-1.242l.756-6.012-.954-.036c-.228-.012-.33-.12-.306-.324l.036-.342h1.296l.864-.018-1.008 8.244.936.036zm20.038-7.938c-.012.192-.144.3-.396.324l-.63.018-3.78 8.28h-.63c-.096 0-.156-.066-.18-.198l-1.566-7.272-.09-.558-.198.558-3.366 7.272c-.06.132-.144.198-.252.198h-.594l-1.746-8.28-.594-.018c-.228-.024-.336-.132-.324-.324l.054-.342h3.132l-.054.342c-.012.192-.144.3-.396.324l-.936.036 1.296 6.588c.048.336.072.594.072.774.036-.132.144-.39.324-.774l3.276-7.128c.06-.132.156-.198.288-.198h.342c.132 0 .21.066.234.198l1.494 7.128c.072.372.114.63.126.774l.288-.774 2.916-6.588-.936-.036c-.228-.012-.33-.12-.306-.324l.036-.342h3.132l-.036.342zm8.024 7.938c.24.012.348.12.324.324l-.054.36h-1.602c-.108 0-.186-.03-.234-.09a.31.31 0 01-.072-.198l.306-2.808c-.42.912-.948 1.674-1.584 2.286-.636.612-1.326.918-2.07.918-.78 0-1.356-.282-1.728-.846-.36-.576-.54-1.332-.54-2.268a6.14 6.14 0 01.756-2.952c.504-.936 1.17-1.686 1.998-2.25.84-.576 1.74-.864 2.7-.864.78 0 1.428.138 1.944.414l-.972 7.956.828.018zm-.738-7.578a3.515 3.515 0 00-1.152-.18c-.792 0-1.536.258-2.232.774a5.677 5.677 0 00-1.674 1.998 5.572 5.572 0 00-.612 2.52c0 .78.132 1.404.396 1.872.264.456.696.684 1.296.684.756 0 1.434-.396 2.034-1.188.6-.792 1.098-1.734 1.494-2.826l.45-3.654zm11.033 7.578c.228.012.33.12.306.324l-.036.36h-2.16l.702-5.742c.024-.288.036-.486.036-.594 0-1.392-.678-2.088-2.034-2.088-1.128 0-2.196.564-3.204 1.692l-.828 6.732h-.846l1.008-8.262-.936-.036c-.228-.024-.336-.132-.324-.324l.054-.342h1.764c.156 0 .234.072.234.216l-.072 1.35c.48-.54 1.008-.96 1.584-1.26.588-.3 1.206-.45 1.854-.45.876 0 1.53.246 1.962.738.432.48.648 1.14.648 1.98 0 .276-.012.492-.036.648l-.612 5.022.936.036zm4.076.828c-.564 0-.99-.138-1.278-.414-.288-.276-.432-.684-.432-1.224 0-.084.012-.222.036-.414l.756-6.12h-1.278c-.132 0-.198-.072-.198-.216l.036-.324 1.548-.108.594-3.204c.048-.144.132-.216.252-.216h.414l-.414 3.42h2.808l-.072.648h-2.826l-.738 6.066c-.012.06-.018.15-.018.27 0 .348.09.624.27.828.192.204.462.306.81.306.216 0 .45-.054.702-.162.264-.12.462-.234.594-.342.084-.06.15-.09.198-.09.06 0 .108.036.144.108l.162.36a2.808 2.808 0 01-.972.612 3.232 3.232 0 01-1.098.216zm9.896 0c-.564 0-.99-.138-1.278-.414-.288-.276-.432-.684-.432-1.224 0-.084.012-.222.036-.414l.756-6.12h-1.278c-.132 0-.198-.072-.198-.216l.036-.324 1.548-.108.594-3.204c.048-.144.132-.216.252-.216h.414l-.414 3.42h2.808l-.072.648h-2.826l-.738 6.066c-.012.06-.018.15-.018.27 0 .348.09.624.27.828.192.204.462.306.81.306.216 0 .45-.054.702-.162.264-.12.462-.234.594-.342.084-.06.15-.09.198-.09.06 0 .108.036.144.108l.162.36a2.808 2.808 0 01-.972.612 3.232 3.232 0 01-1.098.216zm8.281-9.252c1.128 0 2.004.342 2.628 1.026.624.684.936 1.602.936 2.754 0 .276-.018.558-.054.846-.18 1.416-.678 2.538-1.494 3.366-.816.816-1.866 1.224-3.15 1.224-1.14 0-2.022-.336-2.646-1.008-.612-.672-.918-1.578-.918-2.718 0-.288.018-.576.054-.864.18-1.428.678-2.556 1.494-3.384.816-.828 1.866-1.242 3.15-1.242zm-1.044 8.55c1.068 0 1.908-.354 2.52-1.062.612-.72.996-1.674 1.152-2.862.036-.312.054-.6.054-.864 0-.96-.234-1.71-.702-2.25-.456-.552-1.146-.828-2.07-.828-1.068 0-1.914.366-2.538 1.098-.612.72-.99 1.668-1.134 2.844-.036.288-.054.57-.054.846 0 .972.234 1.728.702 2.268.468.54 1.158.81 2.07.81zm12.136-10.746a.683.683 0 01-.504-.198.745.745 0 01-.198-.522c0-.228.09-.426.27-.594.192-.18.402-.27.63-.27.216 0 .39.084.522.252a.68.68 0 01.162.54.776.776 0 01-.288.558.887.887 0 01-.594.234zm.072 10.62c.228.012.33.12.306.324l-.036.36h-2.16l1.026-8.244-.954-.036c-.228-.012-.33-.12-.306-.324l.036-.36h2.16l-1.008 8.244.936.036zm9.931 0c.228.012.33.12.306.324l-.036.36h-2.16l.702-5.742c.024-.288.036-.486.036-.594 0-1.392-.678-2.088-2.034-2.088-1.128 0-2.196.564-3.204 1.692l-.828 6.732h-.846l1.008-8.262-.936-.036c-.228-.024-.336-.132-.324-.324l.054-.342h1.764c.156 0 .234.072.234.216l-.072 1.35c.48-.54 1.008-.96 1.584-1.26.588-.3 1.206-.45 1.854-.45.876 0 1.53.246 1.962.738.432.48.648 1.14.648 1.98 0 .276-.012.492-.036.648l-.612 5.022.936.036zm7.766-1.944c-.12.84-.504 1.512-1.152 2.016-.648.504-1.428.756-2.34.756-.852 0-1.71-.168-2.574-.504l.252-2.178h.45c.24 0 .348.144.324.432l-.054 1.332c.456.192 1.032.288 1.728.288.66 0 1.224-.174 1.692-.522.48-.36.762-.852.846-1.476l.018-.198c0-.432-.192-.762-.576-.99-.372-.24-.942-.474-1.71-.702-.732-.216-1.29-.474-1.674-.774-.372-.3-.558-.702-.558-1.206 0-.144.006-.252.018-.324.048-.468.228-.882.54-1.242.324-.372.72-.66 1.188-.864a3.87 3.87 0 011.53-.306c.684 0 1.458.156 2.322.468l-.27 2.142h-.432c-.228 0-.336-.144-.324-.432l.036-1.296a4.256 4.256 0 00-1.386-.234c-.588 0-1.11.156-1.566.468-.456.312-.726.726-.81 1.242a.757.757 0 00-.018.18c0 .408.18.72.54.936.36.216.942.444 1.746.684.732.216 1.284.486 1.656.81.384.324.576.738.576 1.242 0 .108-.006.192-.018.252zm9.81 1.944c.228.012.33.12.306.324l-.036.36h-1.764c-.168 0-.246-.078-.234-.234l.072-1.332c-1.056 1.14-2.208 1.71-3.456 1.71-.876 0-1.536-.24-1.98-.72-.432-.492-.648-1.152-.648-1.98 0-.228.018-.456.054-.684l.63-5.004-.954-.036c-.228-.012-.33-.12-.306-.324l.036-.342h1.296l.864-.018-.702 5.724a3.962 3.962 0 00-.036.612c0 .672.168 1.188.504 1.548.336.36.846.54 1.53.54.6 0 1.17-.15 1.71-.45a6.01 6.01 0 001.494-1.242l.756-6.012-.954-.036c-.228-.012-.33-.12-.306-.324l.036-.342h1.296l.864-.018-1.008 8.244.936.036zm8.216-7.488c-.048.096-.114.144-.198.144a.571.571 0 01-.162-.036 4.471 4.471 0 00-.54-.162 2.806 2.806 0 00-.54-.036c-1.284 0-2.292.816-3.024 2.448l-.72 5.814h-.846l1.008-8.262-.936-.036c-.228-.024-.336-.132-.324-.324l.054-.342h1.746c.12 0 .192.018.216.054.024.036.036.108.036.216l-.144 1.908c.396-.768.852-1.344 1.368-1.728.528-.396 1.14-.594 1.836-.594.48 0 .93.114 1.35.342l-.18.594zm7.832.936c0 .744-.306 1.326-.918 1.746-.612.408-1.32.696-2.124.864-.792.168-1.794.324-3.006.468l-.036.738c0 .888.198 1.59.594 2.106.408.504 1.02.756 1.836.756.408 0 .75-.042 1.026-.126a3.06 3.06 0 00.792-.396c.24-.18.57-.45.99-.81.06-.06.132-.09.216-.09.084 0 .15.03.198.09l.198.234c-.996 1.176-2.184 1.764-3.564 1.764-1.02 0-1.794-.318-2.322-.954-.528-.648-.792-1.5-.792-2.556 0-.984.192-1.908.576-2.772.384-.876.918-1.578 1.602-2.106a3.776 3.776 0 012.34-.792c.684 0 1.254.174 1.71.522.456.336.684.774.684 1.314zm-2.43-1.206c-.9 0-1.662.36-2.286 1.08-.624.72-1.032 1.59-1.224 2.61 1.008-.12 1.86-.252 2.556-.396.708-.144 1.32-.384 1.836-.72.528-.336.792-.786.792-1.35 0-.384-.156-.684-.468-.9-.312-.216-.714-.324-1.206-.324zM61.104 508.736c1.456.464 2.528 1.008 3.216 1.632.704.608 1.056 1.496 1.056 2.664 0 1.04-.24 1.952-.72 2.736a4.596 4.596 0 01-1.944 1.8c-.832.416-1.76.624-2.784.624-1.568 0-3.088-.312-4.56-.936v-3.792h.576c.336 0 .512.192.528.576l.12 2.448a8.139 8.139 0 001.608.528c.48.096 1.072.144 1.776.144 1.296 0 2.328-.352 3.096-1.056.768-.72 1.152-1.68 1.152-2.88 0-.72-.168-1.288-.504-1.704-.32-.432-.76-.776-1.32-1.032-.544-.256-1.352-.552-2.424-.888-1.488-.464-2.576-1.008-3.264-1.632-.672-.64-1.008-1.56-1.008-2.76 0-.864.216-1.624.648-2.28a4.186 4.186 0 011.752-1.536c.752-.368 1.592-.552 2.52-.552 1.376 0 2.832.328 4.368.984v3.792h-.576c-.32 0-.496-.192-.528-.576l-.12-2.592c-.944-.4-1.992-.6-3.144-.6-1.104 0-2.016.304-2.736.912-.704.608-1.056 1.4-1.056 2.376 0 .656.168 1.2.504 1.632.352.432.816.792 1.392 1.08.576.272 1.368.568 2.376.888zm18.64-4.224h-.6c-.304 0-.472-.192-.504-.576l-.096-1.92h-7.752v6.888h6.768v.984h-6.768v7.08h7.752l.096-1.896c.032-.4.2-.6.504-.6h.6V518H67.552v-.48c0-.272.152-.416.456-.432l1.56-.048v-15.096l-1.56-.048c-.32-.032-.48-.176-.48-.432v-.456h12.216v3.504zM93.09 518H82.146v-.384c0-.176.072-.352.216-.528l5.808-5.856c1.12-1.12 1.96-2.128 2.52-3.024.56-.912.84-1.832.84-2.76 0-1.104-.344-1.984-1.032-2.64-.688-.672-1.6-1.008-2.736-1.008-1.04 0-1.92.288-2.64.864-.704.576-1.16 1.392-1.368 2.448-.08.304-.272.432-.576.384l-.6-.072c.192-1.456.752-2.584 1.68-3.384.944-.8 2.136-1.2 3.576-1.2 1.488 0 2.672.416 3.552 1.248.88.832 1.32 1.936 1.32 3.312 0 .784-.152 1.504-.456 2.16a7.739 7.739 0 01-1.152 1.848c-.464.56-1.152 1.32-2.064 2.28l-5.304 5.424c.208-.064.472-.112.792-.144.32-.032.6-.048.84-.048h6.504l.144-1.56c.032-.384.2-.576.504-.576h.576V518zm13.031 0H95.177v-.384c0-.176.072-.352.216-.528l5.808-5.856c1.12-1.12 1.96-2.128 2.52-3.024.56-.912.84-1.832.84-2.76 0-1.104-.344-1.984-1.032-2.64-.688-.672-1.6-1.008-2.736-1.008-1.04 0-1.92.288-2.64.864-.704.576-1.16 1.392-1.368 2.448-.08.304-.272.432-.576.384l-.6-.072c.192-1.456.752-2.584 1.68-3.384.944-.8 2.136-1.2 3.576-1.2 1.488 0 2.672.416 3.552 1.248.88.832 1.32 1.936 1.32 3.312 0 .784-.152 1.504-.456 2.16a7.739 7.739 0 01-1.152 1.848c-.464.56-1.152 1.32-2.064 2.28l-5.304 5.424c.208-.064.472-.112.792-.144.32-.032.6-.048.84-.048h6.504l.144-1.56c.032-.384.2-.576.504-.576h.576V518z"/>
    <g>
      <path fill="#000" fill-opacity=".3" d="M206 490h133v50H206z"/>
      <path fill="#F04E98" d="M199 484h133v50H199z"/>
      <path fill="#fff" d="M311.673 517.302L313.19 519l8.483-9.5-8.483-9.5-1.517 1.698 6.967 7.802-6.967 7.802zM227.386 504.406h-1.044c-.216 0-.354-.114-.414-.342-.06-.468-.102-.852-.126-1.152h-4.644v3.852h4.554v1.926h-4.554v3.528l.54.09c.06.012.108.024.144.036.048.012.09.018.126.018l.108.018c.3.072.45.258.45.558V514h-5.166v-1.062c0-.3.15-.486.45-.558l.108-.018a.34.34 0 00.108-.018c.048-.012.102-.024.162-.036l.54-.09v-9.45l-.54-.09a3.517 3.517 0 01-.162-.036.34.34 0 00-.108-.018l-.108-.018c-.3-.072-.45-.258-.45-.558v-1.062h10.026v3.42zm4.532-2.34c0 .168-.042.348-.126.54a1.426 1.426 0 01-.306.45 1.306 1.306 0 01-.45.306 1.49 1.49 0 01-1.116 0 1.37 1.37 0 01-.432-.306 1.426 1.426 0 01-.306-.45 1.356 1.356 0 01-.108-.54c0-.192.036-.378.108-.558.06-.156.162-.306.306-.45a1.24 1.24 0 01.432-.288c.216-.084.402-.126.558-.126.156 0 .342.042.558.126.18.072.33.168.45.288.144.144.246.294.306.45.084.204.126.39.126.558zm.576 10.314c.3.072.45.258.45.558V514h-4.95v-1.062c0-.3.15-.486.45-.558l.108-.018.27-.054.54-.09v-5.67l-.54-.09a3.517 3.517 0 01-.162-.036.34.34 0 00-.108-.018l-.108-.018c-.3-.072-.45-.258-.45-.558v-1.062h3.582v7.452l.54.09c.06.012.108.024.144.036.048.012.09.018.126.018l.108.018zm11.422 0c.3.072.45.258.45.558V514h-3.582v-5.868c0-.552-.132-.99-.396-1.314-.252-.312-.642-.468-1.17-.468-.384 0-.744.09-1.08.27-.36.192-.678.426-.954.702v4.896l.522.09.27.054.108.018c.3.072.45.258.45.558V514h-4.932v-1.062c0-.3.15-.486.45-.558l.108-.018.27-.054.522-.09v-5.67l-.522-.09a3.517 3.517 0 01-.162-.036.34.34 0 00-.108-.018l-.108-.018c-.3-.072-.45-.258-.45-.558v-1.062h2.718c.276 0 .462.138.558.414l.162.72a3.43 3.43 0 01.576-.522c.168-.132.39-.264.666-.396.312-.144.558-.234.738-.27.3-.06.588-.09.864-.09.528 0 .978.084 1.35.252.348.144.672.384.972.72.252.3.45.672.594 1.116.132.396.198.87.198 1.422v4.086l.54.09c.06.012.108.024.144.036.048.012.09.018.126.018l.108.018zm8.168 1.584a.635.635 0 01-.36-.108.477.477 0 01-.198-.306l-.18-.846a4.86 4.86 0 01-1.278 1.026c-.48.264-1.05.396-1.71.396-.516 0-.972-.102-1.368-.306a3.157 3.157 0 01-1.08-.918c-.3-.384-.534-.876-.702-1.476a7.601 7.601 0 01-.252-2.016c0-.684.09-1.32.27-1.908a4.59 4.59 0 01.81-1.53 3.827 3.827 0 011.242-1.008c.48-.252 1.026-.378 1.638-.378.516 0 .96.084 1.332.252.396.18.72.396.972.648v-3.078l-.522-.09a3.517 3.517 0 01-.162-.036.34.34 0 00-.108-.018l-.108-.018c-.3-.072-.45-.258-.45-.558v-1.062h3.582V512.2l.468.072.234.054.108.018c.3.072.45.258.45.558v1.062h-2.628zm-.846-6.84c-.24-.3-.516-.516-.828-.648a2.56 2.56 0 00-.972-.198c-.312 0-.612.066-.9.198-.264.12-.498.312-.702.576-.18.252-.324.576-.432.972-.096.348-.144.81-.144 1.386 0 .576.042 1.038.126 1.386.084.36.21.66.378.9.168.252.36.426.576.522.228.108.492.162.792.162.48 0 .876-.096 1.188-.288.336-.204.642-.48.918-.828v-4.14z"/>
    </g>
    <g>
      <path fill="#000" fill-opacity=".2" d="M185.26 151c-.419 1.128-1.929 4.568-4.613 9.306-2.684 4.737-6.989 10.433-8.807 12.689 2.377-.846 8.388-2.622 13.42-2.961 6.291-.423 7.13-2.961 9.646 0 2.013 2.369 2.796 6.909 2.936 8.883-1.258 2.82-4.362 9.136-6.71 11.843-2.349 2.707-4.893 6.768-5.872 8.46-3.075-.141-8.303.085-4.613 2.115 4.613 2.538 14.259-.846 14.259 2.115 0 2.961 9.226 8.46 10.065 14.804.671 5.076.28 10.575 0 12.69 3.076.141 9.73 1.353 11.743 5.076 2.013 3.722 2.796 6.908 2.936 8.036l4.613 3.384-4.613 2.538c.559.423 2.264 1.946 4.613 4.653 2.935 3.384-3.355 8.036 0 9.728 3.355 1.692 2.935-4.229 9.226-2.115 6.291 2.115 10.904 8.46 10.485 13.113-.42 4.653-6.291 8.883-8.388 12.689-2.097 3.807 8.388 3.807 8.388 6.345s-6.291 9.729-8.388 10.575c-2.097.846-7.968 0-15.936 0-7.969 0-10.485 2.538-17.614 4.23-5.704 1.353-11.883.564-14.259 0-1.398-.141-4.278.084-4.613 2.115-.42 2.537 1.677 9.305-2.517 8.882-4.194-.423-4.613-3.807-8.807-3.384-4.194.423-5.871 7.191-8.387 7.191-2.517 0-6.291-3.807-9.646-3.807-3.355 0 4.194-2.538 9.646-8.882 5.452-6.345 9.645-10.575 14.678-10.998 5.033-.423 6.291 2.961 9.646 0 2.684-2.369 3.355-9.165 3.355-12.267-.42 2.115-2.181 6.345-5.872 6.345-4.613 0-8.387-6.345-10.903-6.345-2.517 0-.839 4.653-5.872 3.807-5.032-.846-10.484 1.692-11.323-3.807-.839-5.498 7.968-7.19 11.323-8.882 3.355-1.692 5.872-5.076 5.872-8.037 0-2.961-2.936-1.692-5.872-4.23-2.935-2.538-3.355-12.266 0-12.266h14.679c2.096 0 6.71-8.46 2.096-10.575-4.613-2.115-7.129-2.961-7.129-8.036 0-4.061-2.516-7.614-3.774-8.883h-8.807c-1.678 0-.699-5.922 0-8.883-1.119 1.41-3.859 4.146-5.872 3.807-1.682-.283-1.138-4.723-.424-7.985-.726 1.952-2.366 3.712-5.447 1.64-5.033-3.383-4.613-9.305-3.774-14.381.838-5.076-3.775-6.345 0-10.575 3.774-4.229 2.516-11.843 0-11.843-2.013 0-4.194-3.948-5.033-5.922h5.033c1.537.564 5.116 2.115 7.129 3.807 2.516 2.115-2.516-1.269 0-6.768S155.065 151 163.453 151h21.807z"/>
      <path fill="#000" fill-opacity=".2" d="M211.541 309.196l-4.463 2.115 4.463 2.08 5.173-2.08-5.173-2.115z"/>
    </g>
    <g>
      <path fill="#B73C74" d="M183.26 149c-.419 1.128-1.929 4.568-4.613 9.306-2.684 4.737-6.989 10.433-8.807 12.689 2.377-.846 8.388-2.622 13.42-2.961 6.291-.423 7.13-2.961 9.646 0 2.013 2.369 2.796 6.909 2.936 8.883-1.258 2.82-4.362 9.136-6.71 11.843-2.349 2.707-4.893 6.768-5.872 8.46-3.075-.141-8.303.085-4.613 2.115 4.613 2.538 14.259-.846 14.259 2.115 0 2.961 9.226 8.46 10.065 14.804.671 5.076.28 10.575 0 12.69 3.076.141 9.73 1.353 11.743 5.076 2.013 3.722 2.796 6.908 2.936 8.036l4.613 3.384-4.613 2.538c.559.423 2.264 1.946 4.613 4.653 2.935 3.384-3.355 8.036 0 9.728 3.355 1.692 2.935-4.229 9.226-2.115 6.291 2.115 10.904 8.46 10.485 13.113-.42 4.653-6.291 8.883-8.388 12.689-2.097 3.807 8.388 3.807 8.388 6.345s-6.291 9.729-8.388 10.575c-2.097.846-7.968 0-15.936 0-7.969 0-10.485 2.538-17.614 4.23-5.704 1.353-11.883.564-14.259 0-1.398-.141-4.278.084-4.613 2.115-.42 2.537 1.677 9.305-2.517 8.882-4.194-.423-4.613-3.807-8.807-3.384-4.194.423-5.871 7.191-8.387 7.191-2.517 0-6.291-3.807-9.646-3.807-3.355 0 4.194-2.538 9.646-8.882 5.452-6.345 9.645-10.575 14.678-10.998 5.033-.423 6.291 2.961 9.646 0 2.684-2.369 3.355-9.165 3.355-12.267-.42 2.115-2.181 6.345-5.872 6.345-4.613 0-8.387-6.345-10.903-6.345-2.517 0-.839 4.653-5.872 3.807-5.032-.846-10.484 1.692-11.323-3.807-.839-5.498 7.968-7.19 11.323-8.882 3.355-1.692 5.872-5.076 5.872-8.037 0-2.961-2.936-1.692-5.872-4.23-2.935-2.538-3.355-12.266 0-12.266h14.679c2.096 0 6.71-8.46 2.096-10.575-4.613-2.115-7.129-2.961-7.129-8.036 0-4.061-2.516-7.614-3.774-8.883h-8.807c-1.678 0-.699-5.922 0-8.883-1.119 1.41-3.859 4.146-5.872 3.807-1.682-.283-1.138-4.723-.424-7.985-.726 1.952-2.366 3.712-5.447 1.64-5.033-3.383-4.613-9.305-3.774-14.381.838-5.076-3.775-6.345 0-10.575 3.774-4.229 2.516-11.843 0-11.843-2.013 0-4.194-3.948-5.033-5.922h5.033c1.537.564 5.116 2.115 7.129 3.807 2.516 2.115-2.516-1.269 0-6.768S153.065 149 161.453 149h21.807z"/>
      <path fill="#B73C74" d="M209.541 307.196l-4.463 2.115 4.463 2.08 5.173-2.08-5.173-2.115z"/>
    </g>
    <path fill="url(#paint0_linear)" d="M213 282l-14-20.312 5.353-5.688L213 282z"/>
    <path fill="url(#paint1_linear)" d="M213 281.481l29.709 15.344-4.069 4.883L213 281.481z" opacity=".6"/>
    <g>
      <ellipse cx="197.128" cy="250.744" fill="url(#paint2_radial)" rx="14.244" ry="15.465"/>
    </g>
    <g>
      <path fill="#593C81" d="M62.385 35.723c1.488-6.213-2.582-8.093-2.582-8.093 1.08 3.21-.587 7.244-1.09 8.337L26.16 38.135 23.37 55.82l39.11-2.305 2.513-17.965-2.609.173z"/>
      <path fill="#F64D96" d="M20.579 36.956c-.843 4.953 3.258 6.676 3.258 6.676-.676-3.294-.636-5.253-.466-6.884l34.322-2.434L59.623 16 18 19.206l1.104 17.874 1.475-.124z"/>
      <path fill="#fff" d="M24.82 27.532c.396-.028.766-.099.984-.228.36-.208.471-.568.442-.987-.03-.43-.258-.756-.596-.88-.256-.085-.609-.105-.983-.08l-.665.047.151 2.174.667-.046zm-3.267 4.28l-.107-1.529.77-.054-.333-4.744-.77.053-.106-1.528 3.696-.26c.723-.05 1.374-.005 1.823.088 1.036.2 1.788.887 1.886 2.28.088 1.257-.425 2.032-1.38 2.51-.516.263-1.322.434-1.989.48l-.78.055.065.918.893-.064.107 1.53-3.774.265zM31.812 26.825c-.745.052-1.193.63-1.133 1.49.064.907.617 1.357 1.329 1.308.757-.053 1.17-.63 1.112-1.479-.058-.838-.55-1.373-1.308-1.32zm.297 4.394c-1.91.135-3.285-1.009-3.407-2.765-.124-1.755 1.202-3.1 3.022-3.227 1.899-.133 3.25 1.001 3.373 2.767.122 1.732-1.09 3.092-2.988 3.225zM35.863 30.807l-.103-1.46.711-.05-.365-5.231-.713.049-.108-1.551 2.656-.187.474 6.783.702-.049.102 1.46-3.356.236z"/>
      <g>
        <path fill="#fff" d="M40.785 24.078c-.52.036-.998-.305-1.04-.916-.05-.69.45-1.022.902-1.054.465-.033 1.005.226 1.052.916.044.612-.348 1.015-.913 1.054zm-1.16 6.465l-.103-1.46.724-.051-.187-2.672-.723.05-.11-1.552 2.658-.186.294 4.224.702-.05.102 1.462-3.357.235zM46.654 30.197c-1.706.12-3.263-.704-3.404-2.73-.13-1.846 1.212-3.136 3.1-3.268.79-.055 1.63.079 2.023.347l.139 1.993-1.436.101-.117-.879c-.047-.008-.126-.002-.195.002-.779.054-1.623.5-1.552 1.509.062.883.709 1.361 1.669 1.294.621-.044 1.32-.297 1.745-.714l.045-.003.115 1.642c-.426.404-1.409.656-2.132.706zM49.844 30.35l.046-.004c.25.154.538.236.923.208.327-.023.558-.119.704-.31.104-.145.202-.345.234-.54l.032-.197-2.062-3.826-.622.044-.108-1.551 3.267-.23.108 1.55-.486.035c.546 1.134.789 1.709.97 2.163.155-.511.352-1.128.737-2.282l-.553.039-.11-1.552 2.905-.204.109 1.551-.61.043-1.573 4.333c-.183.479-.386.948-.587 1.338-.45.874-1.216 1.132-2.03 1.19-.383.026-.876-.042-1.182-.179l-.112-1.62z"/>
      </g>
      <path fill="#fff" d="M26.61 50.083l.226-1.45.7-.037.714-4.614-.732.04.215-1.45 5.585-.297-.31 2.276-1.4.075.056-.783-1.442.078-.228 1.406 2.11-.11-.231 1.524-2.1.112-.26 1.593 1.852-.099.2-.897 1.399-.075-.402 2.389-5.951.319z"/>
      <g>
        <path fill="#fff" d="M33.121 49.735l.203-1.45.807-.043 1.164-1.445-.651-1.09-.883.047.3-1.464 1.83-.098.774 1.386c.111-.157.284-.372.576-.756l.114-.71 2.367-.125-.235 1.461-.817.043-1.047 1.225.615 1.005c.142.231.342.329.621.313.194-.01.365-.05.49-.122l.033.008-.239 1.397a2.576 2.576 0 01-.948.224c-.796.042-1.12-.361-1.485-.915l-.398-.606c-.163.192-.344.44-.677.868l-.123.72-2.39.127zM43.152 47.804c.333-.017.672-.144.912-.492.26-.392.34-.893.318-1.346-.033-.605-.382-.877-.876-.85-.43.022-.913.296-1.187.84l-.186 1.146c.123.511.6.724 1.019.703zm-3.484 3.678l.95-6.095-.68.036.215-1.46 2.431-.13-.11.773c.266-.48.942-.959 1.76-1.002 1.066-.057 1.929.534 2.003 1.947.051.981-.11 1.974-.78 2.777-.537.655-1.27.9-1.925.935-.679.036-1.316-.167-1.609-.617l-.437 2.738-1.818.098zM50.678 45.25c-.022-.42-.377-.606-.82-.583-.43.022-.978.268-1.148.936l1.948-.103c.018-.088.024-.185.02-.25zm-1.053 3.743c-1.68.088-2.73-.794-2.805-2.218-.05-.926.25-1.82.883-2.49.57-.615 1.385-.929 2.15-.97 1.452-.078 2.356.686 2.425 1.98.02.365.007.733-.07 1.105l-3.595.194a.364.364 0 00-.005.097c.029.55.487.838 1.392.79a3.884 3.884 0 001.93-.644l.042-.003-.221 1.516c-.5.362-1.19.593-2.126.643zM52.953 48.675l.598-3.979-.667.035.213-1.461 2.444-.13-.137.872c.214-.454.615-1.016 1.411-1.058.226-.013.466.017.611.109l-.266 1.71-.042.004c-.19-.11-.462-.16-.742-.145-.646.034-.955.333-1.15.894l-.464 3.051-1.809.099zM59.663 48.435c-.828.044-1.582-.316-1.63-1.253a3.728 3.728 0 01.024-.737l.325-2.007-.722.04.203-1.462.732-.039s.034-.164.298-1.497l1.744-.093-.234 1.494 1.076-.058-.213 1.462-1.078.058-.277 1.679a2.87 2.87 0 00-.038.488c.015.291.236.387.581.37.204-.011.493-.07.671-.166l.044-.002-.196 1.394c-.28.2-.846.305-1.31.33z"/>
      </g>
    </g>
  </g>
  <defs>
    <linearGradient id="paint0_linear" x1="206" x2="206" y1="256" y2="282" gradientUnits="userSpaceOnUse">
      <stop/>
      <stop offset=".677" stop-color="#fff"/>
    </linearGradient>
    <linearGradient id="paint1_linear" x1="213" x2="233.349" y1="281.36" y2="299.267" gradientUnits="userSpaceOnUse">
      <stop/>
      <stop offset="1" stop-opacity="0"/>
    </linearGradient>
    <radialGradient id="paint2_radial" cx="0" cy="0" r="1" gradientTransform="rotate(-108.548 187.798 52.74) scale(15.3529 14.9633)" gradientUnits="userSpaceOnUse">
      <stop stop-color="#F60"/>
      <stop offset="1" stop-color="#FFBB8D"/>
      <stop offset="1" stop-color="#FFC8A3" stop-opacity="0"/>
    </radialGradient>
    <clipPath id="clip0">
      <path fill="#fff" d="M0 0h373v810H0z"/>
    </clipPath>
    <pattern id="pattern0" width="1" height="1" patternContentUnits="objectBoundingBox">
      <use transform="scale(.00333)" xlink:href="#image0"/>
    </pattern>
  </defs>
</svg>
