<?xml version="1.0" encoding="utf-8"?>
<!-- Generator: Adobe Illustrator 25.4.0, SVG Export Plug-In . SVG Version: 6.00 Build 0)  -->
<svg version="1.1" id="Layer_1" xmlns="http://www.w3.org/2000/svg" xmlns:xlink="http://www.w3.org/1999/xlink" x="0px" y="0px"
	 viewBox="0 0 954 714" style="enable-background:new 0 0 954 714;" xml:space="preserve">
<style type="text/css">
	.st0{clip-path:url(#SVGID_00000016055912348111199720000015157180505948802445_);}
	.st1{display:none;clip-path:url(#SVGID_00000016055912348111199720000015157180505948802445_);fill:#1D1D1B;}
	.st2{clip-path:url(#SVGID_00000016055912348111199720000015157180505948802445_);fill:#FFFFFF;}
</style>
<g>
	<defs>
		<rect id="SVGID_1_" x="8.5" y="5.8" width="947.9" height="613.7"/>
	</defs>
	<clipPath id="SVGID_00000089566954569833896240000007195771281276139163_">
		<use xlink:href="#SVGID_1_"  style="overflow:visible;"/>
	</clipPath>
	<path style="clip-path:url(#SVGID_00000089566954569833896240000007195771281276139163_);" d="M486.4,475.4c1.1-20.3,0.4-31.9,0-35
		c0.2-2.1-1.5-32.3-1.5-32.3s-7.1,35.9-8.2,40.8c-0.3-4.9-0.4-9.3-0.5-13.6c-0.1-7.2-0.5-23.8-0.5-29.9c0-6.1-0.1-15.7-0.2-28.6
		c-0.1-12.9,0,4.7,0.4-20.3c0.3-19,3.7-65.5,2-67c0-5.6-0.2-10.7-0.4-14.4c0.1-0.8,0.3-1.6,0.6-2.5c-0.2,0.1-0.5,0.2-0.7,0.3
		c-0.2-2-0.3-3.2-0.4-3.4c-5.2,3.2-9.2,5.8-12.4,8.2c-16.3,6.2-12.6,8-13.3,19.3c-0.8,13.9-7.3,67.1-7.2,80
		c0.1,12.9,0.6,51.6,0.7,58.8c0.1,7.2,0.5,16.5,1.2,26.4c0.7,9.9-9.2,49.8-8,56.5c1.2,6.7,17,3.8,26.9-3.4
		c3.8-2.8,10.3,0.6,10.4,0.6c5.8-1.6,7.7-8.1,8.7-16.6C484.9,493.6,485.9,486.2,486.4,475.4"/>
	<path style="clip-path:url(#SVGID_00000089566954569833896240000007195771281276139163_);" d="M533.2,505.9c-0.5-5.1-1-10-1.4-15.8
		c-0.2-5.8-0.8-14.7-1.7-27.1c-0.8-12.4-1.5-25.8-1.9-41.3c-1.1-15.4-2.1-20.5-2.4-33.1c-0.3-12.6,1.7-82.7,2.5-85.4
		c-0.3,0.2,2.6-17.7-12.9-23.5c-21.2-7.9-18.6,15.2-20,29.5c-0.8,14.4-5.3,82-5.3,82s3.4-17.8,4.1-17.9c0,2.5,0.1,4.9,0.1,7
		c0.3,12.6,0.8,11,0.9,14.3c0,3.3,0.4,13.1,0.6,28.5c1,15.4,1.7,29.7,2.6,42c0.9,12.4,1.5,21.6,2.3,27.4c0.5,5.8,1,11.7,1.7,16.8
		c0.7,5,1.5,12.2,4.9,21.3c4.2,9.1,5.1,16,7.3,19.2c0.6,4.2,4.6,7.2,8.8,6.6c4.2-0.6,7.2-4.6,6.6-8.8c1.2-3.8,0.5-9.9,2.8-19.6
		C534.4,518.4,533.6,511,533.2,505.9"/>
	<path style="clip-path:url(#SVGID_00000089566954569833896240000007195771281276139163_);" d="M169.1,308.2c0,0.1,0-0.6,0.1-0.6
		c0,0,0-0.1-0.1-0.2C169.2,307.6,169.2,307.9,169.1,308.2"/>
	<path style="clip-path:url(#SVGID_00000089566954569833896240000007195771281276139163_);" d="M144,492.9c1-31.5,2.8-63.1-0.2-95.1
		c-1.2-13.3-1.6-23.4-1.8-31c1.7-1.2-0.8-2.9-0.1-5c0.7-1.9,0.7-3.8,0.3-5.6c0-0.2,0-0.4,0-0.5c0-0.3-0.4-1.2-0.9-2.4
		c0.3,0,0.5,0.1,0.5,0.1c0,0,0.3,1.2,0.5,1.7c-0.1-1.4-0.7-2.6-1.7-3.4c-1-2.1-2.2-13.8-3-15.8c-4.5-1.4-8.5,0.1-8.6,0.2
		c-0.1,0.1-0.7,0.8-1.3,1.4c0,0,0,0,0,0c-1.1-0.6-8.9,12.2-10.2,12.3c-1.5,1.4-6.4,11.9-6.9,15.6c-1,7.5-0.8,22.9,1.5,41
		c2.2,18.1,3.6,32.5,5.9,42c2.2,9.5,3.6,19,6.9,27.1c2.7,8.2,4.3,36.2,7.9,47.5c3.2,11.4,4.3,19.3,5.2,23.8c0,0.2,0.1,0.5,0.2,0.7
		c0.9,9,1.4,14.5,1.6,16.3c0.1,1.5,1.3,2.6,2.8,2.5c1.5-0.1,2.6-1.3,2.5-2.7C145.1,560,143.9,524.3,144,492.9"/>
	<path style="clip-path:url(#SVGID_00000089566954569833896240000007195771281276139163_);" d="M110,358.3c0,0,0-0.1-0.1-0.2
		c0,0,0,0,0,0C110.1,358.2,109.9,358.2,110,358.3 M429.9,611.4c-2-1.1-11.7-6.3-29.1-15.6c-15.8-12.4-36-19.8-72.1-40.2
		c-65.3-37-87.1-58.2-97.7-63.8c-10.6-5.6-25.2-14.1-37.9-18.9c-6.6-2.5-14.4-8.8-22.8-11.6c18.4-4.9,33.1-9.6,51.9-17.1
		c71.2-28.3,91.7-56.5,94.7-59.5c3.1-2.8,7.1-10.1,7.1-12.2c-0.6-33-12.8-44.1-101-47.3c-19.9-0.7-36.5-4.5-73.1-4.2
		c-18.3,0.2-33.1,1.8-42.9,2.9c-9.8,1-100.2,10.7-101.5,12.7c13.2,10.1,98.1,22.4,101.4,21c0.9,0.9,4,1.3,4,1.2
		c0.1-0.1,3.9,3,3.6,2.4c9.1-0.6,20.6-1.9,35.4-1.9c36.6,0.1,52.7,0.3,72.6,0.6c19.9,0.4,35.2,1.3,47.1,2.5
		c11.9,1.2,25.2,4.2,24.9,8.5c-0.2,2.2,2.5,6-2.8,10.7c-8.2,7.3-40.1,25.2-74,33.3c-34,7.9-69.9,15.1-111.9,24.2
		c-14.8,20.4-8.6,41.4-8.5,41.4c0.1,0.1,4.1,3.3,4.3,3.4c0.3,0.1,145.1,66.8,214.9,94.3c34.4,14.7,115.9,41.3,115.9,41.3
		S432.8,612.9,429.9,611.4"/>
	<path style="clip-path:url(#SVGID_00000089566954569833896240000007195771281276139163_);" d="M710.8,353.2c-0.1,0-0.1,0-0.1,0
		C710.7,353.2,710.8,353.2,710.8,353.2"/>
	<path style="clip-path:url(#SVGID_00000089566954569833896240000007195771281276139163_);" d="M790.1,589.4
		c-0.2-15.8-1.8-29.2-1-48.2c-2-52.7,3.5-106.3-1.4-158.8c-1.1-12.6-3.4-31.5-11.6-39.5c-11.9,2.7-16,11.8-16.8,22.6
		c-5.7,80.3-20.7,125.3-19.4,114.5c-3.5,29.7-4.9-96.9-7.9-126.4c2-2.6-6.8-12.7-6.8-12.6c0,0-3.5,1.4-4.7,1.7
		c-11,1.2-7.4,36.3-8,45.5c0.5,49.7,0.3,95.9,3.6,144.1c0.1,0,0.1,0,0.2,0c0,0.7,0.2,12.4,9,11.5c15.1-1.6,12.6-12.8,12.8-14.9
		c3.2-21.9,15.6-73.7,19.9-95.6c-0.1,28.8-0.8,76.5-0.2,111.7c0.4,24.1-2.3,35.6,2.3,53.7C766,622.6,795.7,613.5,790.1,589.4"/>
	<path style="clip-path:url(#SVGID_00000089566954569833896240000007195771281276139163_);" d="M513.4,444.8
		c0.4-0.2,0.7-0.5,1.1-0.8c0.1-0.3,0.3-0.6,0.4-0.9C514.5,443.6,514,444.2,513.4,444.8"/>
	<path style="clip-path:url(#SVGID_00000089566954569833896240000007195771281276139163_);" d="M515.9,441.1c0,0-0.4,0.9-0.9,2.1
		C519.1,438.7,515.9,441,515.9,441.1"/>
	<path style="clip-path:url(#SVGID_00000089566954569833896240000007195771281276139163_);" d="M705.1,454.6
		c-5.9-3.3-14.2-3.4-25-6.7c-21.5-11.1-48.2-11.1-79.1-8.3c-23.3,1.3-36.1,1.6-44.8,1.7c2.5-1.3,3.8-6,6.7-7.6
		c5.1-2.7,5.3-8.3,18.4-4.2c3,0.5,6,0.5,8.3,0.6c3.5,0.1,9.7-0.8,11.1-1.1c1.4-0.3,2.7-0.7,4.9-1.4c2.2-0.6,7.3-1.7,17.4-2.1
		c10.2-0.1,21.7-2.7,29.9-15.8c-0.8-11.5-6.3-11.8-11.4-10.1c-4.4-5.1-8.4-7.4-12.2-8.1c7.1-2.6,4.6-4.9,10.8-6.7
		c10.2-2.9,18.1-6,23-8.3c2.8-0.4,5.7-2.5,7.4-3c0.9-0.2,2.4-3,3.1-3.3c0.6-0.4,0.5-5.3,0.8-6c-4.6-14.6-19-19.5-25.3-21.7
		c-6.4-1.5-17.5-1.2-28.6-0.2c-11.1,1-25.3,3.3-36.4,5.9C572.9,351,560,355,550,360.6c-4.9,3-7.4,3.8-9.9,5.5
		c-1.2,1.4,0.4,1.2-0.3,2.3c-0.4,0.6,2.8,0.9,2.4,1.3c-0.4,0.5-13.4,11.1-13.1,11.2c3.8,2.5,6.4,4.2,8.4,5.1c-4,3.4-0.9,5.8-0.8,6.2
		c0.1,0.6,3.9,0.9,4.3,1.5c0.8,1,4.6,0.4,6.3,1.1c3.1,0.3,8.8-1.5,14.5-2.5c11.2-2.3,20.1-5,31.1-7.8c11-2.8,19.1-4.1,30.2-4.8
		c8.3-0.5,14.1-0.8,19.1-1.2c-1.2,0.4-20.7,15.2-38,20.7c-13.8,2-36.8,1.5-53.3,5.4c-3.7,2.1-6.5,7.7-7.1,8
		c-0.3,0.1,0.6,6.3,0.4,6.6c-0.2,0.3,21.5,4.6,21.5,5c0.1,0.4,1.1,0.9,2.5,1.5c-2.5,0.8-4.9,1.4-7.3,2c-7.5,1.5-13.9,4-19.4,4.9
		c-5.2,0.7-12.7,8-17.9,11.6c-0.9,1.9-1.9,3.9-1.8,4c0.2,0.1,2.8,9.8,3.1,9.8c0.5,0.1,4.3,3.2,5.3,3.3c0.8,2.2,5,4.2,8.1,7.1
		c6.1,6.1,32,8.8,62.9,10.3c31,2.6,57,2.7,78.7-8c10.9-3.1,39.6-11,39.6-11S711,455,705.1,454.6"/>
	<path style="clip-path:url(#SVGID_00000089566954569833896240000007195771281276139163_);" d="M948.3,336.5
		c-4.6-0.1-10.9-0.4-19-0.8c-8.1-0.4-42.7,1.6-52.2,0.1c-9.5-1.7-42.8-1.5-59-2.3c-34.6-1.7-84.6-2.6-107.9-1.9
		c-11.7,0.4-37.7,1.4-37.8,1.4S659,348,659,348.1c-0.3,14.6,16,18.5,15.7,22c11.3,1.9,21.4,2.2,25.8-5.1c0.1-0.1,4.8-0.6,10.4-0.7
		c23.4-0.4,112.7-2.8,128.6-4.1c15.9-3.1,29.1-3.2,38.4-5.8c9.3-2.4,30.8-5.5,34.4-6.2c3.6-0.6,9.4-1,17.4-2.4
		c8-1.4,20.1-8,18.5-7.9"/>
	<path style="clip-path:url(#SVGID_00000089566954569833896240000007195771281276139163_);" d="M345.1,463.5
		c-12.7,3.1-33.8,4.2-38.4,2.6c-1.2-0.4-1.7-0.5-2-0.4c0-0.3-0.3-1.1-1.6-3c-3.8-5.5-0.8-33.7,1.7-41c2.5-7.3,3.9-13.3,15-26.9
		c1.6-2,3.3-3.9,5.1-5.7c1.2-0.3,2.4-0.6,3.5-0.9c8.1-1.9,11.7-2.4,21.7-3.5c10.1-1.1,15.4-0.4,30.1,1.5
		c14.7,1.8,45.6,5.4,47.1,21.4C428.7,423.1,406,448.4,345.1,463.5 M303.1,398c0.1,0,0.2,0.1,0.3,0.1
		C302.4,398.5,301.8,398.7,303.1,398 M446.3,390.9c-2.2-8.1-6.7-24.6-14.3-31.4c-7.6-6.8-26.6-16.1-41.4-17.1
		c-18.1-1.1-28.2-1.5-32.3-0.4c-19,3.7-19.4,9.6-24,11.1c-7.9,2.7-50.6,45.7-44,42.4c1-0.2-15.7,18.7-19,35.8
		c-1.3,7,1,41.1,3.8,47.2c2.8,6.1,15.6,17.3,20.2,19c4.6,1.7,13.9,3.7,18,3.9c4.1,0.3,7.1,0.6,11.5,1.1c4.4,0.6,21.4-2.8,33.5-7.7
		c12.1-4.9,25.9-11.6,38-17.9c12.2-6.3,38.4-26,47.3-48C446.9,420.8,448.5,399,446.3,390.9"/>
	<path style="clip-path:url(#SVGID_00000089566954569833896240000007195771281276139163_);" d="M422.2,210
		c-0.1-5.2-12.2-13.3-30.7-18.1c-28-7.3-54.5-13.3-53.4-19.3c0.8-4.8,0.3-3.3,5.6-7.3c16.9-12.7,54.7-26.1,64.5-20.4
		c-2.7-1.5-7.7-7.8-14.7-9c-6.5-1-9-1-11.5-0.8c-13.9,1.5-38.6,15.5-50.6,22.3c-7.8,4.4-19.6,16.9-10.1,30.6
		c33.1,31.9,80.6,4.4,79.6,32.1c-0.5,14.3,1,26.8-45.3,33.6c-18.2,2.7-61,8.1-73.8-0.6c-2-1.2-0.5,0.2-2-1.1
		c-1.5-1.2-0.8,0.4-2.5-0.7c-1.1-1.2-1.3-1.9-2.8-3.2c-3-0.9,0.5-12.8,0.9-13.5c1.5-2.5-2.6-4.7-3.9-2.2c-1.1,1.1-2.4,3.9-5.2,7.3
		c-3.6,3.1-4.6,9.3-5.4,11c-0.9,1.8-0.4,4-0.6,5.7c-0.8,1.8,1.5,6.4,2.2,8.3c12.3,17,40.3,19.4,59.5,16.8
		c25.3-2.4,65.7-10.8,87.7-24.8C420.2,248.2,422.5,226,422.2,210"/>
	<path style="clip-path:url(#SVGID_00000089566954569833896240000007195771281276139163_);" d="M443,159.6c0,0-4.1-1.8-4.1-1.8
		c0,0-1.1-0.2-1.1-0.2c0,0-0.5,0-0.6,0c-0.1-0.8-0.6-0.8-0.9-1.6c-0.7-0.8-9.2,2.2-9.8,2.5c-0.5,0.3-4.7,11.4-5.3,17.9
		c-0.5,6.5-0.5,16.4,0.1,26.5c0.6,10.1,1.6,20.6,6.5,29.1c2.6,4.2,3.6,15,5.9,17.3c0.7,2.6,0.3-3.1,0.7-2.4c0.2,1.7,3.3,6.9,3.3,6.9
		s2.8-10,2.8-12.6c1.6-2.9,1.2-6.4,2.5-11.2c2.5-9.5,1.7-18.2,1.1-28.3c-0.6-10.1-0.7-16.9-0.2-23.5c0.1-1,0.1-1.8,0-2.3
		c0.5-4.4,0.2-5.8,1-7.9C446.7,163.4,443.1,159.6,443,159.6"/>
	<path style="clip-path:url(#SVGID_00000089566954569833896240000007195771281276139163_);" d="M490.9,223.1c0,0.1,1.9-1,2-1.1
		c0.1-0.2,1.4-1.9,1.5-2.2c3.7-7.5,7.7-33.2,10.9-41.3c0.7,23.2,13.2,55.9,16.1,71.9c3.2,13.8,16.1,9.4,13.4-4.5
		c-2.7-15.8-6.2-46.7-8.2-69.5c-1.7-13.9-1.3-20.9-5.1-30.9c-0.1-0.1-1.5-2.4-1.6-2.5c-0.1-0.1-5.5-3.3-5.6-3.3
		c-11.6,2-15.3,5.6-18.9,13.8c-3.6,9.5-6.2,18.8-12,31.8c-1-3.1-1.5-5.8-2.2-10.7c-1-6.2-8-4.7-6.9-6c-18.8-8.6-19,4.2-17.3,12.1
		c-1.1,10.7-2.7,18-3.9,31.9c-0.8,10-9.8,38.6-7.2,48.3c13.4-0.8,21.3-37.4,22.2-48.7c0.7-0.7,1.1-6.7,1.4-7.7
		c1.1,1.2,11.6,21.3,12,21c0.8,0,3.1,0.1,4.4,0.1"/>
	<path style="clip-path:url(#SVGID_00000089566954569833896240000007195771281276139163_);" d="M571.4,209.9c-2,1.4-0.7,0.9-3.2,1.2
		c-2.5,0.4-10-0.8-12.5-1.6c-2.5-0.9-14.5-28.5,3.2-30.3c1-0.1,7-1,11.1,0.3c5.4,1.1,10.2,7.2,10.9,14.6
		C581.6,202.7,576.7,205.9,571.4,209.9 M597.2,188.5c-8.5-21.9-34.5-31.8-54.9-20.1c-6.3,2.6-13.7,10.6-15.9,17.9
		c-0.5,3.3,0.6,14,4.3,15.7c4,1.5,5.2,3.8,6.2,4.2c1.6,2.6,3.6,6.5,5.8,4.3c2.9,12.4,14.8,18.2,27.6,16.8
		C587.5,224,601.3,206.3,597.2,188.5"/>
	<path style="clip-path:url(#SVGID_00000089566954569833896240000007195771281276139163_);" d="M593.1,184.8
		C593.1,184.8,593.1,184.8,593.1,184.8C593.1,184.8,593.1,184.8,593.1,184.8"/>
	<path style="clip-path:url(#SVGID_00000089566954569833896240000007195771281276139163_);" d="M607.1,237
		C607.1,237.1,607.2,237.1,607.1,237C607.1,237,607.1,237,607.1,237 M606.3,236.6c0,0,0,0,0.1,0.1
		C606.3,236.7,606.3,236.7,606.3,236.6C606.3,236.6,606.3,236.6,606.3,236.6 M655.4,207.7c0.7-12.1-1.3-21.5-1.3-30.6
		c0.2-16.6-1.9-41.1-4-56.2c0.1-1.5-4.2,3.4-3.9-2.2c-2.3,38.8-2.6,44.7-7.9,81c0.7-5.1-7.8-15.7-9.4-17.6
		c-6.8-6.9-6.1-13.7-16.1-21.6c-0.5-0.1-3.8-1.8-4.1-1.7c-0.1,0-4.2-0.4-4.3-0.3c-0.1,0.1-5.8,2.5-5.8,2.7c0.1,0.6,1.3,0.4,2.6,0.1
		c-1.5,0.9-4,2.4-4,2.5c0,0.1-0.1,0.9-0.4,2c-2.6,2.6-6.4,6.9-5.7,6.3c5.8,9.1,0.7,10.8,2.4,20.6c0.4,4.3,0.9,11.1,2.7,18.9
		c2.2,9.2,1.6,25,6.6,27.2c-0.4,1.5,0.9,2.8,2.3,3.3c0,0.1,2.4-0.6,2.5-0.6c0.1,0,1.2-2.3,1.3-2.5c3.9-10.4,1.2-37.8,2.1-50.1
		c15.8,12.2,18.1,31.6,23.2,46c2.2,4.5,4.5,6.7,8.4,11.6C662.4,242.2,654.3,227.5,655.4,207.7"/>
	<path style="display:none;clip-path:url(#SVGID_00000089566954569833896240000007195771281276139163_);fill:#1D1D1B;" d="
		M496.1,125.4c-0.3-0.5-4.5-6-5.5-6.4c-0.6-1-3.5-2.2-5-3.2c-6.2,0.1-10.7,4.1-10.9,4.1c-0.3,0-1.4,3.7-1.6,3.9
		c-0.5,0.4-0.3,4.1-0.5,4.9c2.1,1.2,2.1,11.9,3,12.7c0.6,1.6,10.7,8.5,12.3,7.8c1.6-0.6,6.6-7.3,5.9-8.9
		C493.9,139.5,497,129.4,496.1,125.4"/>
	<path style="clip-path:url(#SVGID_00000089566954569833896240000007195771281276139163_);" d="M510.5,94.3
		c0,18.5-17.9,56.1-36,52.9c-23.5-4.1-16.2-40-24.5-52.1c-3.2-4.7-0.3-7.3-1-10.3c-2.6-11.1,3.9-25.6,26.3-29.4
		C493.4,52.4,510.5,75.8,510.5,94.3z"/>
	
		<circle style="clip-path:url(#SVGID_00000089566954569833896240000007195771281276139163_);fill:#FFFFFF;" cx="483.9" cy="91.1" r="14.5"/>
	<path style="clip-path:url(#SVGID_00000089566954569833896240000007195771281276139163_);fill:#FFFFFF;" d="M470.5,96.5
		c0,5-4,9-9,9s-9.1-4-9-9c0-3.2,3.7-2.7,7.9-5.3C466.3,87.5,470.5,91.5,470.5,96.5z"/>
	<circle style="clip-path:url(#SVGID_00000089566954569833896240000007195771281276139163_);" cx="484.6" cy="90.5" r="5.7"/>
	<circle style="clip-path:url(#SVGID_00000089566954569833896240000007195771281276139163_);" cx="462.2" cy="94.5" r="3.7"/>
</g>
</svg>
