<?xml version="1.0" encoding="utf-8"?>
<!-- Generator: Adobe Illustrator 25.4.0, SVG Export Plug-In . SVG Version: 6.00 Build 0)  -->
<svg version="1.1" xmlns="http://www.w3.org/2000/svg" xmlns:xlink="http://www.w3.org/1999/xlink" x="0px" y="0px"
	 viewBox="0 0 954.01 714.03" style="enable-background:new 0 0 954.01 714.03;" xml:space="preserve">
<style type="text/css">
	.st1{display:inline;}
</style>
<g id="Layer_6">
	<path class="l-s" d="M440.98,480.3c1.18-22.43,0.42-35.16,0.05-38.65c0.26-2.29-1.69-35.63-1.69-35.63s-7.81,39.68-9.08,45.02
		c-0.28-5.44-0.44-10.3-0.51-14.98c-0.12-7.92-0.56-26.27-0.6-33.04c-0.04-6.77-0.11-17.3-0.2-31.55
		c-0.1-14.25,0.04,5.18,0.42-22.42c0.29-20.97,4.14-72.32,2.26-73.93c0.03-6.15-0.2-11.85-0.45-15.92c0.16-0.87,0.37-1.78,0.63-2.73
		c-0.27,0.1-0.53,0.2-0.8,0.3c-0.17-2.19-0.33-3.55-0.41-3.73c-5.72,3.48-10.18,6.45-13.65,9.01c-17.98,6.89-19.44,8.83-20.21,21.33
		c-0.93,15.32-2.52,74.06-2.42,88.31c0.1,14.25,0.69,56.94,0.8,64.86s0.59,18.27,1.34,29.16c0.75,10.9,1.99,21.83,3.28,29.21
		s5.81,23,17.58,29.4c4.55,2.47,11.33,0.71,11.52,0.66c6.45-1.79,8.45-8.93,9.63-18.33C439.26,500.44,440.36,492.25,440.98,480.3z"
		/>
	<path class="l-i" d="M492.57,513.98c-0.55-5.6-1.06-11.01-1.57-17.4c-0.22-6.41-0.93-16.24-1.83-29.88c-0.9-13.65-1.71-28.53-2.11-45.54
		c-1.24-16.98-2.3-22.63-2.61-36.51c-0.31-13.88,1.91-91.27,2.73-94.29c-0.35,0.19,2.89-19.53-14.21-25.92
		c-23.43-8.75-20.48,16.76-22.04,32.57c-0.93,15.86-5.82,90.49-5.82,90.49s3.74-19.67,4.58-19.81c0.04,2.78,0.09,5.37,0.15,7.74
		c0.31,13.88,0.89,12.19,0.94,15.81c0.05,3.62,0.46,14.43,0.68,31.46c1.06,16.99,1.91,32.76,2.88,46.4
		c0.97,13.64,1.7,23.85,2.49,30.21c0.51,6.39,1.13,12.95,1.85,18.53c0.77,5.57,1.62,13.43,5.46,23.56
		c4.69,10.04,5.58,17.62,8.09,21.22c0.69,4.68,5.04,7.92,9.72,7.24c4.68-0.69,7.92-5.04,7.24-9.72c1.37-4.17,0.6-10.89,3.11-21.68
		C493.94,527.73,493.07,519.58,492.57,513.98z"/>
	<g>
		<path class="l-m" d="M77.57,295.73c0.03,0.13,0.03-0.69,0.07-0.66c0,0-0.03-0.11-0.07-0.26C77.6,295.11,77.6,295.42,77.57,295.73z"/>
		<path d="M79.45,446.92c1.13-34.77-1.29-69.67-4.59-104.93c-1.29-14.69-1.82-25.81-2.02-34.24c1.93-1.28,3.49-3.15,4.33-5.5
			c0.73-2.06,0.81-4.18,0.36-6.17c0.01-0.21,0.02-0.41-0.01-0.59c-0.05-0.36-0.46-1.34-1.05-2.65c0.35,0.04,0.58,0.07,0.58,0.07
			c-0.01-0.01,0.37,1.34,0.52,1.91c-0.11-1.49-0.82-2.84-1.92-3.78c-1.08-2.36-2.4-15.19-3.3-17.42c-4.97-1.54-9.33,0.07-9.54,0.19
			c-0.12,0.07-0.81,0.84-1.43,1.54c-0.01-0.01-0.03-0.01-0.04-0.02c-1.21-0.69-9.83,13.43-11.23,13.61
			c-1.67,1.53-7.11,13.13-7.65,17.26c-1.09,8.25-0.83,25.31,1.62,45.3c2.44,19.99,3.99,35.93,6.49,46.41
			c2.43,10.49,4.01,20.97,7.63,29.92c2.96,9.07,4.72,39.94,8.76,52.43c3.54,12.56,4.79,21.34,5.79,26.24
			c0.03,0.27,0.11,0.52,0.2,0.77c1.05,9.95,1.5,15.97,1.73,18.03c0.06,1.61,1.42,2.87,3.04,2.81c1.61-0.06,2.87-1.42,2.81-3.04
			C80.68,521.01,79.37,481.62,79.45,446.92z"/>
	</g>
	<path d="M408.23,577.77c-2.25-1.18-12.91-6.9-32.13-17.25c-17.44-13.66-39.79-21.89-79.54-44.4
		c-72.07-40.79-109.34-64.24-121.06-70.45c-11.73-6.19-27.82-15.56-41.8-20.9c-7.31-2.78-15.88-9.75-25.21-12.78
		c20.29-5.36,49.7-10.59,70.5-18.87c78.56-31.25,101.22-62.35,104.52-65.65c3.45-3.14,7.88-11.1,7.83-13.5
		c-0.71-36.43-14.09-48.68-111.5-52.25c-22.01-0.81-53.47-4.96-93.86-4.62c-20.2,0.17-36.5,10.79-47.31,11.98
		c-10.81,1.12-22.83,16.23-24.24,18.36c14.56,11.13,20.44,11.53,24.1,9.97c1.02,0.94,2.37,1.52,3.86,1.51
		c0.15-0.08,0.53-0.09,0.6-0.17c0.07-0.08,4.57-2.87,4.51-2.91c-0.01-0.01-0.24-0.45-0.57-1.1c10.01-0.66,22.75-1.01,39.1-0.99
		c40.39,0.06,71.34,0.28,93.36,0.71c22.02,0.45,38.88,1.42,51.99,2.74s21.98,2.75,28.97,4.37c7,1.6,10.8,2.81,14.11,4.25
		c1.39,0.6,2.43,2.59,2.05,7.38c-0.19,2.4,0.52-0.07-3.02,2.97c-3.67,2.88-7.44,5.33-14.43,8.87c-14,7.05-24.06,12.27-31.86,15.41
		c-7.8,3.15-28.91,11.29-66.28,20.29c-37.49,8.69-77.16,16.62-123.53,26.75c-16.38,22.53-9.5,45.7-9.4,45.76
		c0.1,0.06,4.56,3.66,4.73,3.74c0.34,0.15,173.33,73.72,250.39,104.06c37.98,16.19,127.93,45.64,127.93,45.64
		S411.47,579.46,408.23,577.77z M41.95,298.36c0.01,0.01-0.03-0.07-0.08-0.18c0.02,0.01,0.04,0.02,0.05,0.03
		C42.06,298.29,41.89,298.27,41.95,298.36z"/>
	<g>
		<path d="M688.71,345.44c-0.06-0.03-0.1-0.05-0.12-0.04C688.58,345.4,688.63,345.42,688.71,345.44z"/>
		<path d="M776.2,606.18c-0.19-17.39-1.98-32.26-1.12-53.18c-2.21-58.16,3.91-117.33-1.55-175.26
			c-1.24-13.86-3.75-34.82-12.85-43.64c-13.1,2.94-17.65,13.01-18.5,24.95c-6.33,88.66-22.85,138.35-21.46,126.34
			c-3.81,32.81-5.39-106.92-8.72-139.57c2.19-2.92-7.5-14.02-7.53-13.9c0.01,0.01-3.9,1.55-5.23,1.9
			c-12.1,1.29-8.14,40.1-8.83,50.21c0.53,54.82,0.28,105.85,3.98,159.02c0.07-0.01,0.14-0.02,0.21-0.03
			c-0.01,0.77,0.24,13.71,9.98,12.66c16.69-1.79,13.86-14.11,14.11-16.43c3.54-24.21,17.26-81.39,21.96-105.54
			c-0.07,31.83-0.85,84.43-0.18,123.3c0.46,26.58-2.55,39.26,2.49,59.31C749.61,642.78,782.41,632.73,776.2,606.18z"/>
	</g>
	<g>
		<path d="M470.74,446.53c0.4-0.25,0.82-0.54,1.25-0.84c0.16-0.33,0.31-0.64,0.45-0.95C471.96,445.25,471.4,445.85,470.74,446.53z"
			/>
		<path d="M473.48,442.46c0.01,0.04-0.45,1.03-1.05,2.28C477.01,439.78,473.46,442.36,473.48,442.46z"/>
		<path d="M682.38,457.38c-6.46-3.61-15.68-3.7-27.59-7.37c-23.78-12.23-53.17-12.29-87.34-9.14c-25.68,1.49-39.89,1.76-49.41,1.9
			c2.78-1.41,4.16-6.62,7.42-8.35c5.68-3.02,5.82-9.12,20.36-4.58c3.34,0.51,6.57,0.55,9.13,0.63c3.91,0.12,10.7-0.83,12.21-1.2
			c1.5-0.37,3.02-0.79,5.44-1.51c2.42-0.71,8-1.85,19.24-2.29c11.31-0.12,23.97-3.02,32.96-17.44
			c-0.92-12.67-6.97-13.07-12.61-11.15c-4.85-5.67-9.25-8.19-13.45-8.93c7.79-2.86,5.06-5.36,11.88-7.44
			c11.25-3.19,19.98-6.64,25.34-9.13c3.12-0.44,6.26-2.8,8.19-3.29c0.96-0.25,2.69-3.26,3.4-3.67c0.71-0.41,0.55-5.89,0.88-6.61
			c-5.09-16.16-20.92-21.5-27.97-23.95c-7.09-1.69-19.31-1.36-31.61-0.27c-12.3,1.09-27.96,3.6-40.2,6.52
			c-12.24,2.91-26.43,7.28-37.47,13.49c-5.46,3.27-8.12,4.18-10.96,6.1c-1.27,1.55,0.45,1.33-0.37,2.56
			c-0.41,0.62,3.08,0.97,2.67,1.48c-0.41,0.51-14.79,12.29-14.46,12.37c4.16,2.77,7.1,4.6,9.26,5.66c-4.47,3.72-0.99,6.35-0.91,6.79
			c0.13,0.64,4.32,1.04,4.79,1.61c0.94,1.15,5.1,0.49,6.95,1.26c3.41,0.35,9.74-1.7,16.02-2.79c12.42-2.5,22.17-5.51,34.34-8.65
			c12.18-3.14,21.04-4.56,33.36-5.3c9.16-0.55,15.51-0.83,21.13-1.37c-1.35,0.49-22.83,16.79-41.98,22.8
			c-15.27,2.16-40.68,1.67-58.87,5.91c-4.04,2.27-7.16,8.52-7.84,8.84c-0.34,0.16,0.66,7,0.45,7.3c-0.2,0.31,23.76,5.11,23.77,5.51
			c0.11,0.39,1.21,0.98,2.71,1.61c-2.74,0.83-5.44,1.58-8.1,2.2c-8.32,1.7-15.36,4.46-21.46,5.36c-5.7,0.78-14.02,8.8-19.73,12.84
			c-0.97,2.05-2.05,4.32-2,4.36c0.18,0.15,3.1,10.83,3.38,10.87c0.57,0.07,4.76,3.54,5.81,3.67c0.86,2.45,5.5,4.59,8.95,7.8
			c6.78,6.72,35.29,9.67,69.48,11.39c34.2,2.89,62.9,2.94,86.93-8.79c11.99-3.42,43.76-12.13,43.76-12.13
			S688.87,457.81,682.38,457.38z"/>
	</g>
	<path d="M950.81,328.39c-5.1-0.14-12.08,0.28-21-0.1c-8.93-0.48-47.11-0.42-57.58-2.13c-10.47-1.87-47.29-1.69-65.14-2.55
		c-38.23-1.85-93.34-2.92-119.12-2.12c-12.89,0.4-41.64,1.52-41.74,1.51c-0.1-0.01-14.75,16.72-14.75,16.75
		c-0.36,16.09,17.64,20.41,17.35,24.28c12.42,2.15,23.61,2.39,28.53-5.67c0.1-0.16,5.29-0.71,11.45-0.81
		c25.79-0.41,124.44-3.08,141.97-4.51c17.55-3.37,32.16-3.58,42.41-6.43c10.25-2.69,33.98-6.08,37.97-6.84
		c4-0.67,10.37-1.08,19.18-2.64C939.15,335.64,952.49,328.29,950.81,328.39z"/>
	<path d="M404.44,387.05c-2.44-8.96-7.43-27.19-15.84-34.68c-8.38-7.53-29.38-17.8-45.74-18.83c-20-1.26-31.18-1.64-35.63-0.4
		c-20.92,4.1-43.37,10.55-48.47,12.26c-8.75,2.93-16.48,4.92-26.59,3.25c-4.92-0.24-23.83,9.65-28.52,12.07
		c1.9,9.76-7.21,5.73-2.62,15.42c1.23,7.94-1.19,12.73,1.55,17.97c-1.03,3.42-2.5,7.45-2.03,8.13c-0.56,3.75,2.03,7.25,5.78,7.81
		c3.75,0.56,7.25-2.03,7.82-5.78c0.65-0.51,0.8-0.26,2.85-3.19c5.81-1.11,7.91-5.26,15.11-8.83c1.09-0.19,2.04-0.33,2.88-0.42
		c-9.88,9.27-20.25,21.08-23.84,39.89c-1.47,7.7,1.12,45.42,4.22,52.13c3.1,6.72,17.21,19.07,22.3,20.97
		c5.09,1.9,15.3,4.04,19.86,4.35c4.56,0.32,7.85,0.62,12.74,1.23c4.89,0.61,23.58-3.13,36.93-8.54
		c13.36-5.42,28.54-12.8,41.97-19.74c13.44-6.95,42.38-28.74,52.19-53.01C405.04,420.04,406.89,396.01,404.44,387.05z
		 M246.37,394.89c0.1,0.04,0.21,0.09,0.32,0.13C245.55,395.42,244.94,395.69,246.37,394.89z M292.74,467.13
		c-13.99,3.45-37.3,4.68-42.42,2.87c-1.3-0.46-1.92-0.54-2.2-0.5c-0.01-0.35-0.33-1.24-1.75-3.3c-4.19-6.09-0.87-37.18,1.89-45.22
		c2.75-8.03,4.34-14.68,16.56-29.74c1.77-2.18,3.64-4.26,5.57-6.27c1.32-0.33,2.63-0.64,3.9-0.94c8.99-2.1,12.86-2.65,23.98-3.88
		c11.12-1.23,16.99-0.41,33.24,1.71c16.27,2.03,50.28,5.94,51.94,23.64C385.04,422.55,359.88,450.56,292.74,467.13z"/>
	<path d="M381.15,176.3c-0.09-5.71-13.42-14.63-33.92-19.99c-30.88-8.08-60.11-14.65-58.94-21.28c0.93-5.29,0.29-3.65,6.14-8.05
		c18.71-14.05,60.36-28.82,71.23-22.54c-2.94-1.7-8.45-8.66-16.19-9.9c-7.18-1.15-9.93-1.15-12.68-0.85
		c-15.36,1.67-42.58,17.14-55.87,24.65c-8.63,4.88-21.68,18.69-11.2,33.79c13.76,13.25,88.16,26.79,87.85,35.46
		c-0.56,15.81,1.06,29.62-49.96,37.07c-20.1,2.94-67.35,8.9-81.5-0.67c-2.16-1.28-0.57,0.27-2.18-1.18
		c-1.71-1.37-0.86,0.43-2.74-0.72c-1.21-1.35-1.39-2.1-3.08-3.51c-3.31-1,0.52-14.13,0.95-14.92c1.63-2.79-2.85-5.21-4.33-2.38
		c-1.17,1.19-2.62,4.29-5.77,8.06c-3.92,3.44-5.13,10.3-6,12.2c-1.04,1.94-0.42,4.44-0.68,6.24c-0.93,2,1.65,7.08,2.45,9.13
		c13.58,18.73,44.53,21.37,65.71,18.56c27.94-2.6,72.54-11.9,96.85-27.39C378.95,218.44,381.43,193.92,381.15,176.3z"/>
	<path d="M399.72,120.66c-0.02-0.02-4.49-2.02-4.5-2.01c0.02,0.03-1.22-0.19-1.25-0.17c-0.05,0.05-0.57,0-0.66,0.05
		c-0.13-0.89-0.63-0.91-0.98-1.81c-0.74-0.88-10.18,2.45-10.78,2.81c-0.59,0.38-5.24,12.56-5.8,19.76
		c-0.56,7.2-0.53,18.09,0.08,29.28c0.63,11.2,1.72,22.71,7.14,32.08c2.85,4.67,3.96,16.51,6.52,19.11c0.72,2.83,0.33-3.44,0.75-2.68
		c0.17,1.84,3.64,7.6,3.64,7.6s3.06-11,3.04-13.92c1.81-3.16,1.29-7.11,2.8-12.37c2.75-10.48,1.84-20.08,1.17-31.28
		c-0.68-11.19-0.74-18.7-0.2-25.9c0.09-1.13,0.07-1.98-0.02-2.59c0.56-4.87,0.18-6.39,1.11-8.73
		C403.79,124.86,399.75,120.67,399.72,120.66z"/>
	<g>
		<path d="M445.93,201.79c-0.05,0.06,2.15-1.11,2.2-1.2c0.12-0.21,1.51-2.09,1.67-2.45c4.05-8.24,8.53-36.68,12.07-45.56
			c0.77,25.66,14.6,61.73,17.82,79.4c3.52,15.19,17.78,10.39,14.76-4.99c-2.97-17.4-6.88-51.52-9.11-76.67
			c-1.85-15.37-1.43-23.07-5.61-34.14c-0.11-0.16-1.7-2.66-1.81-2.73c-0.11-0.07-6.05-3.67-6.14-3.65
			c-12.79,2.24-16.85,6.14-20.9,15.19c-3.94,10.46-6.81,20.8-13.24,35.08c-1.07-3.37-1.65-6.42-2.39-11.84
			c-1.1-6.82-4.46-5.23-3.17-6.58c-20.79-9.49-20.94,4.65-19.08,13.41c-1.22,11.82-3.02,19.86-4.3,35.26
			c-0.92,11.04-10.8,42.59-7.95,53.28c14.82-0.9,23.55-41.24,24.46-53.78c0.79-0.73,1.21-7.4,1.52-8.52
			c1.25,1.28,8.38,23.54,8.83,23.16c0.93,0.03,3.38,0.09,4.82,0.13"/>
	</g>
	<path d="M559.96,163.62c-9.37-24.22-38.04-35.07-60.55-22.19c-6.96,2.82-15.13,11.73-17.57,19.75c-0.57,3.59,0.65,15.5,4.79,17.31
		c4.38,1.69,5.74,4.18,6.8,4.67c1.8,2.87,4.02,7.22,6.37,4.8c3.25,13.65,16.28,20.09,30.49,18.52
		C549.19,202.78,564.47,183.24,559.96,163.62z M531.45,187.29c-2.17,1.51-0.77,0.95-3.54,1.35c-2.77,0.4-11.09-0.84-13.81-1.82
		c-2.72-0.98-16.01-31.46,3.52-33.46c1.16-0.12,7.73-1.13,12.26,0.32c5.91,1.25,11.26,7.93,11.99,16.07
		C542.74,179.33,537.36,182.83,531.45,187.29z"/>
	<g>
		<path d="M558.78,159.54C558.78,159.54,558.77,159.54,558.78,159.54C558.77,159.54,558.78,159.54,558.78,159.54z"/>
		<path d="M624.2,184.84c0.73-13.36-1.43-23.71-1.4-33.8c0.24-18.36-2.15-45.34-4.45-62.08c0.08-1.71-4.66,3.71-4.29-2.39
			c-2.56,42.84-2.83,49.39-8.67,89.39c0.82-5.61-8.56-17.31-10.38-19.43c-7.48-7.67-6.69-15.15-17.81-23.84
			c-0.5-0.13-4.15-2.03-4.47-1.92c-0.16,0.05-4.68-0.45-4.77-0.34c-0.09,0.11-6.39,2.81-6.39,2.95c0.09,0.64,1.46,0.44,2.82,0.08
			c-1.65,1.01-4.45,2.67-4.39,2.75c0.04,0.06-0.16,1.01-0.43,2.25c-2.92,2.92-7.01,7.62-6.3,6.98c6.44,10.03,0.75,11.9,2.7,22.7
			c0.39,4.76,0.95,12.26,3.03,20.88c2.45,10.2,1.74,27.64,7.33,30.05c-0.4,1.69,1,3.09,2.5,3.6c0.05,0.06,2.64-0.61,2.71-0.61
			c0.14,0,1.33-2.52,1.43-2.76c4.34-11.5,1.36-41.73,2.32-55.25c17.44,13.5,20.03,34.88,25.67,50.74c2.47,4.97,5,7.34,9.26,12.76
			C631.94,222.85,623.02,206.63,624.2,184.84z M569.98,216.73c-0.02,0.01,0.04,0.05,0.14,0.1c-0.08-0.03-0.15-0.06-0.23-0.08
			C569.96,216.73,569.99,216.73,569.98,216.73z M570.84,217.18c0.07,0.04,0.12,0.06,0.1,0.06
			C570.9,217.21,570.87,217.2,570.84,217.18z"/>
	</g>
	<path d="M451.66,93.97c-0.36-0.51-4.94-6.65-6.04-7.02c-0.7-1.05-3.9-2.45-5.55-3.56c-6.85,0.1-11.79,4.55-12.08,4.58
		c-0.29,0.03-1.55,4.12-1.81,4.33c-0.53,0.44-0.28,4.49-0.57,5.44c2.28,1.29,2.31,13.12,3.34,14.02c0.7,1.75,11.85,9.37,13.6,8.66
		c1.75-0.7,7.26-8.1,6.56-9.85C449.2,109.5,452.65,98.36,451.66,93.97z"/>
</g>
</svg>
