<?xml version="1.0" encoding="utf-8"?>
<svg version="1.1" xmlns="http://www.w3.org/2000/svg" xmlns:xlink="http://www.w3.org/1999/xlink" x="0px" y="0px"
	 viewBox="0 0 356.7 177.5" style="enable-background:new 0 0 356.7 177.5;" xml:space="preserve">
<style type="text/css">
	.st0{opacity:0.2;}
</style>
<g id="Layer_top">
	<g>
		<g>
			<path d="M89.6,111.4L38.9,86.5L12.2,96.9l11.7,63.4l14.6-6.5l0.3-22.7L97.7,165l-38.5-39.2l29.4-13.4l-7.2,6.5L79,142.1
				l25.6,16.3l28.3-7.5l10.5-38.7l-39.3-14L89.6,111.4z M38.7,114.7l0.2-14.7l15.8,7.4L38.7,114.7z M100.6,131.3l0.5-15l17.7,7.5
				L100.6,131.3z"/>
			<polygon points="144.3,104.9 150.1,154.4 167,162.1 163.8,98.4 			"/>
			<polygon points="167.9,96.9 173.7,154.4 190.5,162.1 187.4,90.4 			"/>
			<polygon points="241.1,96.9 241.9,98.5 188.4,104.8 197.7,154.4 237.5,162.1 239.1,147.1 214.1,131.3 240.4,134.6 242.2,117.4
				211.6,114.3 243.1,109.2 243.8,102.4 247.4,109.9 260.2,108.4 265.8,157.3 282.6,165 284.4,105.4 289.2,104.8 294.5,157.3
				311.3,165 313.3,101.8 353,96.9 			"/>
		</g>
		<path d="M118.7,62.5l-2.3,16l25-6.3l-2.1,10.1l26.4-5.9l1.7-27.2l12,16.8l8.2-14.1l20.7,28.7l7.2-13.7l-2.8-7.3l17.1,15.4
			l22.9-4.7l7.5-22.2l-3,34.2l27.3-11l-7.1-25.3l36.8,34.2l-12.9-60.5l-6.3,16.8l-23.6-15.7l-9.3,4.9l-0.7,8.4l-26.7-14.2L215.9,33
			l-4.4,23.1l-13.4-35.6l-13.2,4.7l-14.6-5.4l-19.6,8.4l-8,37.8l-3.3-40.5c0,0-15.7,4.9-16.1,4.9l-3.4,24l-5.4-9.6L71.3,28.6
			L97.7,19l10.9,5l6.6-1.1L97.4,5.3L48.6,22.4l-7.7,12l48,24.1l-29.3,3.3l-23.4-3.3l2-4.1l-12-0.2L14.4,68.8l70.8,11.7L118.7,62.5z
			 M229.8,36.8l16.3,5.8l-16.6,8L229.8,36.8z"/>
		<polygon points="139.4,5.3 120.1,5.3 137.1,17.6 		"/>
	</g>
</g>
<g id="Layer_middle" class="st0">
	<g>
		<path d="M111.7,69.8l-2.8,13.7l29.5-10.2l-2.7,9.6l33.3-2.1l3.9-16l6.6,1l8.8-3.2l20.1,17.8l12-6.9l9.6,1.4l21.3,0.7l-3,9.2
			l46-12.3l-10.8-16.3L321,85.4l-19.5-65.8l-8.9,7.8l-27-11.7l-7,6.8l-3.4,2.7l-20.4-5.4l-20.9,6.4l-3,7.5l-11.7-17.2l-14.3,8.7
			L174.4,14L151,28.4l-7.3,26.1l2-35.8c0,0-24.2,10.9-24.7,10.9l-3.7,12.4l-3.9-3L70.2,28.7l27.2-6.1l11.2,1.2l14.6-1L97.4,5.3
			l-58,15.2l-9.4,14l59.5,24.1l-32.1,3.3l-25.6-3.3l6.4-4.2L23.1,48L1,73.1l84.4,7.6L111.7,69.8z M232.4,40.3l6.6,2.5l-6.9,3.9
			L232.4,40.3z"/>
		<polygon points="142.9,5.3 111.2,2.3 137.1,20.6 		"/>
	</g>
	<g id="Layer_5">
		<g>
			<path d="M144.2,104.9L144.2,104.9l-41-10.8l-13.6,17.4L38.9,78.3L5,98.8l19,69.6l14.5-14.6l4.7-11.8l54.6,22.9l-11.8-16.3
				l19.7,18.6l27.2-16.3l12.8-34.2l4.4,37.6l16.9,17.4l-1.1-84.6L144.2,104.9z M42.8,110.6l-4-10.6l15.8,7.4L42.8,110.6z
				 M81.4,118.9l-2.1,20.5l-8.4-11.7l17.7-15.3L81.4,118.9z M104.7,126.1l-3.7-9.9l12.8,8.3L104.7,126.1z"/>
			<polygon points="236.7,88.5 241.9,98.5 188,98.2 187.4,82.2 167.8,96.9 173.7,154.4 190.7,171.8 188.8,119.2 197.7,154.4
				235.2,169.9 247.1,142.5 214.1,131.3 240.4,134.6 252.1,118.3 211.6,114.3 242.6,112.8 249.4,114.2 254.7,115.5 264.5,150.8
				265.8,157.3 281.7,173.1 289.2,104.8 293,128.3 294.5,157.3 310.6,175.3 321.4,107.4 353.1,96.9 			"/>
		</g>
	</g>
</g>
<g id="Layer_bottom" class="st0">
	<g>
		<path d="M115.5,65.8l-3.1,14.7l26-7.2l-2.7,9.6l32.1-4.5l2.1-21.6l9.6,9.1l8.8-8.2l20.1,22.8l12-11.9l9.6,6.4l24.3-2.3l-1.1,10.9
			l36-11l-5.8-16.3L318,83.1l-16.5-63.5l-8,12l-25.5-13.4l-9.4,8.3l-0.4,3.7l-23.4-10.4l-20,9.8l-3.9,12.2l-12.4-23l-13.6,6.5
			L173,17l-22,11.4l-7.3,26.1l-2-31.8c0,0-18.2,7.9-18.7,7.9l-3.7,17.4l-2.8-4.5L70.2,28.7l27.2-8.1l11.2,3.2l9.6-1L97.4,5.3
			L43.8,21L36,34.5l53.5,24.1l-32.1,3.3l-25.6-3.3l6.4-4.2l-13.3-3.1L8,70.8l77.4,9.8L115.5,65.8z M232.5,40.2l13.5,2.4l-16.6,8
			L232.5,40.2z"/>
		<polygon points="140.9,5.2 116.2,4.1 137.1,17.6 		"/>
		<path d="M144.3,104.9l0.4,3.3L104,96.7l-14.4,14.7L38.9,82.3L8.4,97.6l15.5,67.1l14.6-10.8l3.4-16.5L97.7,165l-32.3-38.2
			l23.2-14.4l-7.2,6.5L79,142.1l25.6,20.5l28.3-11.6l12.9-33.1l4.3,36.5l16.8,12.9l-1.1-75.1L144.3,104.9z M42.8,110.6l-4-10.6
			l15.8,7.4L42.8,110.6z M104.7,126.1l-3.7-9.9l17.7,7.5L104.7,126.1z"/>
		<polygon points="238.9,92.8 241.9,98.5 188,101.9 187.4,86.2 167.8,96.8 173.7,154.3 190.6,167.2 188.8,121.7 197.7,154.4
			236.2,165.9 243.2,145 214.1,131.3 240.4,134.6 247.7,117.9 211.6,114.3 245.3,110.2 247.4,110 257.2,112.8 264.5,150.8
			265.8,157.3 282.2,169.2 289.2,104.8 293,128.3 294.5,157.3 311,170.5 316.9,104.5 353.1,96.9 		"/>
	</g>
</g>
</svg>
