<?xml version="1.0" encoding="utf-8"?>
<!-- Generator: Adobe Illustrator 24.0.0, SVG Export Plug-In . SVG Version: 6.00 Build 0)  -->
<svg version="1.1" xmlns="http://www.w3.org/2000/svg" xmlns:xlink="http://www.w3.org/1999/xlink" x="0px" y="0px"
	 viewBox="0 0 666.4 102" style="enable-background:new 0 0 666.4 102;" xml:space="preserve">
<style type="text/css">
	.st0{opacity:0.2;}
</style>
<g id="Layer_top">
	<g>
		<g>
			<path d="M399.6,35.4l-50.7-24.9l-26.7,10.5l11.7,63.4l14.6-6.5l0.3-22.7L407.7,89l-38.5-39.2l29.4-13.4l-7.2,6.5L389,66.1
				l25.6,16.3l28.3-7.5l10.5-38.7l-39.3-14L399.6,35.4z M348.7,38.7l0.2-14.7l15.8,7.4L348.7,38.7z M410.6,55.3l0.5-15l17.7,7.5
				L410.6,55.3z"/>
			<polygon points="454.3,28.9 460.1,78.4 477,86.1 473.8,22.4 			"/>
			<polygon points="477.9,20.9 483.7,78.4 500.5,86.1 497.4,14.4 			"/>
			<polygon points="551.1,20.9 551.9,22.5 498.4,28.8 507.7,78.4 547.5,86.1 549.1,71.1 524.1,55.3 550.4,58.6 552.2,41.4
				521.6,38.3 553.1,33.2 553.8,26.4 557.4,33.9 570.2,32.4 575.8,81.3 592.6,89 594.4,29.4 599.2,28.8 604.5,81.3 621.3,89
				623.3,25.8 663,20.9 			"/>
		</g>
		<path d="M118.7,66.5l-2.3,16l25-6.3l-2.1,10.1l26.4-5.9l1.7-27.2l12,16.8l8.2-14.1l20.7,28.7l7.2-13.7l-2.8-7.3l17.1,15.4
			l22.9-4.7l7.5-22.2l-3,34.2l27.3-11l-7.1-25.3l36.8,34.2l-12.9-60.5l-6.3,16.8l-23.6-15.7l-9.3,4.9l-0.7,8.4l-26.7-14.2L215.9,37
			l-4.4,23.1l-13.4-35.6l-13.2,4.7l-14.6-5.4l-19.6,8.4l-8,37.8l-3.3-40.5c0,0-15.7,4.9-16.1,4.9l-3.4,24l-5.4-9.6L71.3,32.6
			L97.7,23l10.9,5l6.6-1.1L97.4,9.3L48.6,26.4l-7.7,12l48,24.1l-29.3,3.3l-23.4-3.3l2-4.1l-12-0.2L14.4,72.8l70.8,11.7L118.7,66.5z
			 M229.8,40.8l16.3,5.8l-16.6,8L229.8,40.8z"/>
		<polygon points="139.4,9.3 120.1,9.3 137.1,21.6 		"/>
	</g>
</g>
<g id="Layer_middle" class="st0">
	<g>
		<path d="M111.7,73.8l-2.8,13.7l29.5-10.2l-2.7,9.6l33.3-2.1l3.9-16l6.6,1l8.8-3.2l20.1,17.8l12-6.9l9.6,1.4l21.3,0.7l-3,9.2
			l46-12.3l-10.8-16.3L321,89.4l-19.5-65.8l-8.9,7.8l-27-11.7l-7,6.8l-3.4,2.7l-20.4-5.4l-20.9,6.4l-3,7.5l-11.7-17.2l-14.3,8.7
			L174.4,18L151,32.4l-7.3,26.1l2-35.8c0,0-24.2,10.9-24.7,10.9l-3.7,12.4l-3.9-3L70.2,32.7l27.2-6.1l11.2,1.2l14.6-1L97.4,9.3
			l-58,15.2l-9.4,14l59.5,24.1l-32.1,3.3l-25.6-3.3l6.4-4.2L23.1,52L1,77.1l84.4,7.6L111.7,73.8z M232.4,44.3l6.6,2.5l-6.9,3.9
			L232.4,44.3z"/>
		<polygon points="142.9,9.3 111.2,6.3 137.1,24.6 		"/>
	</g>
	<g id="Layer_5">
		<g>
			<path d="M454.2,28.9L454.2,28.9l-41-10.8l-13.6,17.4L348.9,2.3l-34,20.5l19,69.6l14.5-14.6l4.7-11.8l54.6,22.9l-11.8-16.3
				l19.7,18.6l27.2-16.3l12.8-34.2l4.4,37.6L477,95.8l-1.1-84.6L454.2,28.9z M352.8,34.6l-4-10.6l15.8,7.4L352.8,34.6z M391.4,42.9
				l-2.1,20.5l-8.4-11.7l17.7-15.3L391.4,42.9z M414.7,50.1l-3.7-9.9l12.8,8.3L414.7,50.1z"/>
			<polygon points="546.7,12.5 551.9,22.5 498,22.2 497.4,6.2 477.8,20.9 483.7,78.4 500.7,95.8 498.8,43.2 507.7,78.4 545.2,93.9
				557.1,66.5 524.1,55.3 550.4,58.6 562.1,42.3 521.6,38.3 552.6,36.8 559.4,38.2 564.7,39.5 574.5,74.8 575.8,81.3 591.7,97.1
				599.2,28.8 603,52.3 604.5,81.3 620.6,99.3 631.4,31.4 663.1,20.9 			"/>
		</g>
	</g>
</g>
<g id="Layer_bottom" class="st0">
	<g>
		<path d="M115.5,69.8l-3.1,14.7l26-7.2l-2.7,9.6l32.1-4.5l2.1-21.6l9.6,9.1l8.8-8.2l20.1,22.8l12-11.9l9.6,6.4l24.3-2.3l-1.1,10.9
			l36-11l-5.8-16.3L318,87.1l-16.5-63.5l-8,12l-25.5-13.4l-9.4,8.3l-0.4,3.7l-23.4-10.4l-20,9.8l-3.9,12.2l-12.4-23l-13.6,6.5
			L173,21l-22,11.4l-7.3,26.1l-2-31.8c0,0-18.2,7.9-18.7,7.9l-3.7,17.4l-2.8-4.5L70.2,32.7l27.2-8.1l11.2,3.2l9.6-1L97.4,9.3
			L43.8,25L36,38.5l53.5,24.1l-32.1,3.3l-25.6-3.3l6.4-4.2l-13.3-3.1L8,74.8l77.4,9.8L115.5,69.8z M232.5,44.2l13.5,2.4l-16.6,8
			L232.5,44.2z"/>
		<polygon points="140.9,9.2 116.2,8.1 137.1,21.6 		"/>
		<path d="M454.3,28.9l0.4,3.3L414,20.7l-14.4,14.7L348.9,6.3l-30.5,15.2l15.5,67.1l14.6-10.8l3.4-16.5L407.7,89l-32.3-38.2
			l23.2-14.4l-7.2,6.5L389,66.1l25.6,20.5l28.3-11.6l12.9-33.1l4.3,36.5L477,91.2l-1.1-75.1L454.3,28.9z M352.8,34.6l-4-10.6
			l15.8,7.4L352.8,34.6z M414.7,50.1l-3.7-9.9l17.7,7.5L414.7,50.1z"/>
		<polygon points="548.9,16.8 551.9,22.5 498,25.9 497.4,10.2 477.8,20.8 483.7,78.3 500.6,91.2 498.8,45.7 507.7,78.4 546.2,89.9
			553.2,69 524.1,55.3 550.4,58.6 557.7,41.9 521.6,38.3 555.3,34.2 557.4,34 567.2,36.8 574.5,74.8 575.8,81.3 592.2,93.2
			599.2,28.8 603,52.3 604.5,81.3 621,94.5 626.9,28.5 663.1,20.9 		"/>
	</g>
</g>
</svg>
