<svg xmlns="http://www.w3.org/2000/svg" xmlns:xlink="http://www.w3.org/1999/xlink" viewBox="0 0 470.15 370.89"><defs><style>.cls-1{fill:none;}.cls-2,.cls-4{fill:#fff;}.cls-2{opacity:0.5;}.cls-3{clip-path:url(#clip-path);}.cls-5{clip-path:url(#clip-path-2);}.cls-6{clip-path:url(#clip-path-3);}.cls-7{clip-path:url(#clip-path-4);}.cls-8{fill:url(#New_Gradient_Swatch_1);}.cls-9{fill:url(#New_Gradient_Swatch_1-2);}.cls-10{fill:url(#New_Gradient_Swatch_1-3);}.cls-11{fill:url(#New_Gradient_Swatch_1-4);}.cls-12{fill:url(#New_Gradient_Swatch_1-5);}</style><clipPath id="clip-path"><polygon class="cls-1" points="90.66 209.31 90.66 209.31 90.66 209.31 90.66 209.31 0.03 261.64 90.66 313.96 90.66 313.96 90.66 313.96 90.66 313.96 90.66 313.96 181.29 261.64 90.66 209.31 90.66 209.31 90.66 209.31"/></clipPath><clipPath id="clip-path-2"><polygon class="cls-1" points="90.64 104.66 90.64 104.66 90.63 104.66 90.63 104.66 0.01 156.98 90.63 209.31 90.63 209.31 90.64 209.31 90.64 209.31 90.64 209.31 181.27 156.98 90.64 104.66 90.64 104.66 90.64 104.66"/></clipPath><clipPath id="clip-path-3"><polygon class="cls-1" points="189.75 266.23 189.75 266.23 189.75 266.23 189.75 266.23 99.12 318.56 189.75 370.88 189.75 370.88 189.75 370.88 189.75 370.88 189.75 370.88 280.38 318.56 189.75 266.23 189.75 266.23 189.75 266.23"/></clipPath><clipPath id="clip-path-4"><polygon class="cls-1" points="90.76 0 90.76 0 90.76 0 90.76 0.01 0.13 52.33 90.76 104.65 90.76 104.66 90.76 104.65 90.76 104.66 90.76 104.65 181.39 52.33 90.76 0.01 90.76 0 90.76 0"/></clipPath><linearGradient id="New_Gradient_Swatch_1" x1="23.06" y1="12.93" x2="164.02" y2="94.96" gradientUnits="userSpaceOnUse"><stop offset="0" stop-opacity="0"/><stop offset="1" stop-color="#fff"/></linearGradient><linearGradient id="New_Gradient_Swatch_1-2" x1="122.05" y1="279.16" x2="263.02" y2="361.19" xlink:href="#New_Gradient_Swatch_1"/><linearGradient id="New_Gradient_Swatch_1-3" x1="311.81" y1="65.25" x2="452.78" y2="147.29" xlink:href="#New_Gradient_Swatch_1"/><linearGradient id="New_Gradient_Swatch_1-4" x1="22.96" y1="117.58" x2="163.92" y2="199.62" xlink:href="#New_Gradient_Swatch_1"/><linearGradient id="New_Gradient_Swatch_1-5" x1="23.13" y1="222.47" x2="117" y2="277.1" xlink:href="#New_Gradient_Swatch_1"/></defs><title>sjr-white</title><g id="Layer_1" data-name="Layer 1"><polygon class="cls-2" points="181.39 52.33 90.64 104.66 0.13 52.33 91.15 0 181.39 52.33"/><polygon class="cls-2" points="90.66 209.31 0.28 261.64 90.66 313.96 90.66 209.31"/><polygon class="cls-2" points="181.26 156.98 90.51 209.31 0 156.98 90.64 104.66 181.26 156.98"/><polygon class="cls-2" points="280.38 318.56 189.63 370.88 99.12 318.56 190.14 266.23 280.38 318.56"/><polygon class="cls-2" points="470.15 104.65 379.4 156.98 288.89 104.65 379.9 52.33 470.15 104.65"/><polygon class="cls-4" points="181.29 261.63 181.29 156.99 90.66 209.31 90.66 209.31 90.66 313.96 181.3 261.64 181.29 261.63 181.29 261.63"/><path class="cls-4" d="M288.88,104.66,379.52,157h0m0,0-90.63-52.32V209.31L379.48,157Zm-90.6,52.33,90.63,52.33V157l-90.63,52.33Zm90.6,52.33-90.63-52.33V314l90.63-52.32Z"/><polygon class="cls-4" points="90.63 104.65 0 52.33 0.01 52.33 0.01 156.98 90.64 104.65 90.63 104.65 90.63 104.65"/><path class="cls-4" d="M189.79,161.58V56.92l90.64,52.33-90.64,52.33m0,0,90.63-52.33V213.9l-90.63-52.32Zm90.6,52.32L189.8,266.23V161.58l90.63,52.32Zm-90.6,52.33,90.63-52.33V318.56l-90.63-52.33Z"/><polygon class="cls-8" points="181.39 52.33 90.64 104.66 0.13 52.33 91.15 0 181.39 52.33"/><polygon class="cls-9" points="280.38 318.56 189.63 370.88 99.12 318.56 190.14 266.23 280.38 318.56"/><polygon class="cls-10" points="470.15 104.65 379.4 156.98 288.89 104.65 379.9 52.33 470.15 104.65"/><polygon class="cls-11" points="181.29 156.98 90.66 209.31 0.03 156.98 91.05 104.66 181.29 156.98"/><polygon class="cls-12" points="90.6 209.31 0.34 261.64 90.6 313.96 90.6 209.31"/></g></svg>