<?xml version="1.0" encoding="utf-8"?>
<!-- Generator: Adobe Illustrator 24.0.0, SVG Export Plug-In . SVG Version: 6.00 Build 0)  -->
<svg version="1.1" xmlns="http://www.w3.org/2000/svg" xmlns:xlink="http://www.w3.org/1999/xlink" x="0px" y="0px"
	 viewBox="0 0 470.1 370.9" style="enable-background:new 0 0 470.1 370.9;" xml:space="preserve">
<style type="text/css">
	.st0{opacity:0.6;fill:#FFFFFF;enable-background:new    ;}
	.st1{fill:#FFFFFF;}
	.st2{fill:#FFFFFF;enable-background:new    ;}
</style>
<g id="Layer_2">
</g>
<g id="Layer_1">
	<title>sjr-5-white-v2</title>
	<g id="Layer_1_1_">
		<polygon class="st0" points="181.4,52.3 90.6,104.7 0.1,52.3 91.2,0 		"/>
		<polygon class="st0" points="90.7,209.3 0.3,261.6 90.7,314 		"/>
		<polygon class="st0" points="181.3,157 90.5,209.3 0,157 90.6,104.7 		"/>
		<polygon class="st0" points="280.4,318.5 189.6,370.9 99.1,318.5 190.1,266.2 		"/>
		<polygon class="st0" points="470.1,104.7 379.4,157 288.9,104.7 379.9,52.3 		"/>
		<polygon class="st1" points="181.3,261.6 181.3,157 90.7,209.3 90.7,209.3 90.7,314 181.3,261.6 181.3,261.6 		"/>
		<polygon class="st1" points="90.6,104.7 0,52.3 0,52.3 0,157 90.6,104.7 90.6,104.7 		"/>
	</g>
	<polygon class="st2" points="280.4,318.5 189.8,266.2 189.8,56.9 280.4,109.2 	"/>
	<polygon class="st2" points="288.9,104.7 379.4,157 379.5,261.6 289,313.9 	"/>
</g>
</svg>
