<svg xmlns="http://www.w3.org/2000/svg" width="373" height="810" fill="none" viewBox="0 0 373 810">
  <g clip-path="url(#clip0)">
    <path fill="#fff" d="M0 0h373v810H0z"/>
    <path fill="#000" d="M0 0h373v819H0z"/>
    <path fill="#000" stroke="#777" d="M-10.5.5h393v71h-393z"/>
    <path fill="#fff" d="M74.407 613.85h1.636L78.636 626h-1.605l-.554-3.06h-2.475l-.585 3.06h-1.59l2.58-12.15zm1.846 7.875l-1.02-5.475-1.005 5.475h2.025zm10.18 4.41c-.85 0-1.515-.17-1.995-.51-.47-.34-.795-.815-.975-1.425-.18-.61-.27-1.375-.27-2.295v-8.055h1.62v8.13c0 .92.105 1.62.315 2.1.22.48.655.72 1.305.72.65 0 1.08-.24 1.29-.72.22-.48.33-1.18.33-2.1v-8.13h1.605v8.055c0 .92-.09 1.685-.27 2.295-.18.61-.505 1.085-.975 1.425-.47.34-1.13.51-1.98.51zm5.01-12.285h1.155l3.45 8.07v-8.07h1.41V626h-1.08l-3.495-8.295V626h-1.44v-12.15zm8.014 0h1.665V626h-1.665v-12.15zm9.211 14.61c-.61-.3-1.34-1.08-2.19-2.34-.06.01-.155.015-.285.015-1.19 0-2.045-.335-2.565-1.005-.51-.68-.765-1.66-.765-2.94v-4.605c0-1.26.26-2.215.78-2.865.52-.65 1.37-.975 2.55-.975 1.18 0 2.03.33 2.55.99.52.65.78 1.6.78 2.85v4.62c0 1.93-.595 3.145-1.785 3.645.5.65.9 1.075 1.2 1.275l-.27 1.335zm-2.475-3.66c.64 0 1.07-.185 1.29-.555.22-.37.33-.93.33-1.68v-5.325c0-.74-.11-1.285-.33-1.635-.22-.36-.65-.54-1.29-.54s-1.07.18-1.29.54c-.22.35-.33.895-.33 1.635v5.325c0 .75.11 1.31.33 1.68.22.37.65.555 1.29.555zm8.145 1.335c-.85 0-1.515-.17-1.995-.51-.47-.34-.795-.815-.975-1.425-.18-.61-.27-1.375-.27-2.295v-8.055h1.62v8.13c0 .92.105 1.62.315 2.1.22.48.655.72 1.305.72.65 0 1.08-.24 1.29-.72.22-.48.33-1.18.33-2.1v-8.13h1.605v8.055c0 .92-.09 1.685-.27 2.295-.18.61-.505 1.085-.975 1.425-.47.34-1.13.51-1.98.51zm5.01-12.285h4.71v1.26h-3.015v4.02h2.445v1.2h-2.445v4.455h3.045V626h-4.74v-12.15zm9.536 0h2.445c1.23 0 2.13.255 2.7.765.58.5.87 1.32.87 2.46 0 1.56-.5 2.505-1.5 2.835l1.725 6.09h-1.635l-1.59-5.7h-1.32v5.7h-1.695v-12.15zm2.34 5.235c.73 0 1.25-.145 1.56-.435.32-.29.48-.815.48-1.575 0-.5-.055-.89-.165-1.17a1.1 1.1 0 00-.585-.63c-.28-.14-.675-.21-1.185-.21h-.75v4.02h.645zm7.358-5.235h1.635l2.595 12.15h-1.605l-.555-3.06h-2.475l-.585 3.06h-1.59l2.58-12.15zm1.845 7.875l-1.02-5.475-1.005 5.475h2.025zm3.618-7.875h1.155l3.45 8.07v-8.07h1.41V626h-1.08l-3.495-8.295V626h-1.44v-12.15zm10.82 12.3c-1.1 0-1.895-.345-2.385-1.035-.49-.7-.735-1.735-.735-3.105v-4.065c0-.94.095-1.71.285-2.31.2-.61.535-1.075 1.005-1.395.48-.33 1.135-.495 1.965-.495 1.12 0 1.925.285 2.415.855.5.57.75 1.465.75 2.685v.45h-1.59v-.375c0-.58-.035-1.025-.105-1.335-.07-.32-.22-.56-.45-.72-.22-.16-.55-.24-.99-.24-.47 0-.82.11-1.05.33-.23.21-.38.495-.45.855-.06.36-.09.84-.09 1.44v4.5c0 .93.11 1.6.33 2.01.23.4.665.6 1.305.6.63 0 1.06-.22 1.29-.66.24-.44.36-1.145.36-2.115v-.84h-1.545v-1.2h3.075V626h-1.065l-.165-1.395c-.38 1.03-1.1 1.545-2.16 1.545zm5.132-12.3h4.71v1.26h-3.015v4.02h2.445v1.2h-2.445v4.455h3.045V626h-4.74v-12.15zm12.641 12.285c-1.19 0-2.045-.335-2.565-1.005-.51-.68-.765-1.66-.765-2.94v-4.605c0-1.26.26-2.215.78-2.865.52-.65 1.37-.975 2.55-.975 1.18 0 2.025.33 2.535.99.52.65.78 1.6.78 2.85v4.62c0 1.26-.26 2.23-.78 2.91-.52.68-1.365 1.02-2.535 1.02zm0-1.335c.63 0 1.055-.185 1.275-.555.22-.37.33-.93.33-1.68v-5.325c0-.74-.11-1.285-.33-1.635-.22-.36-.645-.54-1.275-.54-.64 0-1.07.18-1.29.54-.22.35-.33.895-.33 1.635v5.325c0 .75.11 1.31.33 1.68.22.37.65.555 1.29.555zm4.981-10.95h4.695v1.215h-3v4.05h2.325v1.2h-2.325V626h-1.695v-12.15zm9.287 0h2.64c1.31 0 2.235.3 2.775.9.55.6.825 1.535.825 2.805v4.47c0 1.34-.27 2.34-.81 3-.53.65-1.415.975-2.655.975h-2.775v-12.15zm2.655 10.935c.59 0 1.015-.115 1.275-.345.27-.23.435-.54.495-.93.07-.4.105-1 .105-1.8v-3.945c0-.69-.045-1.215-.135-1.575-.08-.37-.255-.64-.525-.81-.27-.18-.69-.27-1.26-.27h-.915v9.675h.96zm8.391 1.35c-.85 0-1.515-.17-1.995-.51-.47-.34-.795-.815-.975-1.425-.18-.61-.27-1.375-.27-2.295v-8.055h1.62v8.13c0 .92.105 1.62.315 2.1.22.48.655.72 1.305.72.65 0 1.08-.24 1.29-.72.22-.48.33-1.18.33-2.1v-8.13h1.605v8.055c0 .92-.09 1.685-.27 2.295-.18.61-.505 1.085-.975 1.425-.47.34-1.13.51-1.98.51zm5.009-12.285h2.445c1.23 0 2.13.255 2.7.765.58.5.87 1.32.87 2.46 0 1.56-.5 2.505-1.5 2.835l1.725 6.09h-1.635l-1.59-5.7h-1.32v5.7h-1.695v-12.15zm2.34 5.235c.73 0 1.25-.145 1.56-.435.32-.29.48-.815.48-1.575 0-.5-.055-.89-.165-1.17a1.1 1.1 0 00-.585-.63c-.28-.14-.675-.21-1.185-.21h-.75v4.02h.645zm7.358-5.235h1.635l2.595 12.15h-1.605l-.555-3.06h-2.475l-.585 3.06h-1.59l2.58-12.15zm1.845 7.875l-1.02-5.475-1.005 5.475h2.025zm3.618-7.875h2.79c1.1 0 1.915.25 2.445.75.53.49.795 1.255.795 2.295 0 1.55-.58 2.405-1.74 2.565.72.17 1.245.51 1.575 1.02.33.5.495 1.185.495 2.055 0 1.09-.26 1.94-.78 2.55-.51.61-1.29.915-2.34.915h-3.24v-12.15zm2.7 5.07c.7 0 1.185-.15 1.455-.45.27-.31.405-.835.405-1.575 0-.54-.085-.935-.255-1.185-.16-.26-.405-.425-.735-.495-.33-.07-.82-.105-1.47-.105h-.405v3.81h1.005zm.135 5.865c.5 0 .885-.075 1.155-.225.28-.16.475-.4.585-.72.11-.32.165-.755.165-1.305 0-.78-.16-1.36-.48-1.74-.32-.39-.84-.585-1.56-.585h-1.005v4.575h1.14zm5.031-10.935h1.695v10.935h3.105V626h-4.8v-12.15zm5.962 0h4.71v1.26h-3.015v4.02h2.445v1.2h-2.445v4.455h3.045V626h-4.74v-12.15zm12.582 12.285c-1.2 0-2.045-.355-2.535-1.065-.49-.72-.735-1.71-.735-2.97v-4.29c0-1.33.24-2.34.72-3.03s1.33-1.035 2.55-1.035c1.09 0 1.87.295 2.34.885.48.59.72 1.46.72 2.61v.96h-1.605v-.855c0-.56-.025-.99-.075-1.29-.05-.3-.18-.54-.39-.72-.2-.18-.525-.27-.975-.27-.46 0-.805.1-1.035.3-.22.19-.365.46-.435.81-.07.34-.105.8-.105 1.38v4.815c0 .62.05 1.105.15 1.455.1.35.26.6.48.75.23.15.545.225.945.225.43 0 .75-.095.96-.285.21-.19.34-.45.39-.78.06-.33.09-.78.09-1.35v-.9h1.605v.9c0 1.21-.23 2.14-.69 2.79-.45.64-1.24.96-2.37.96zm4.674-12.285h1.695v10.935h3.105V626h-4.8v-12.15zm8.979 12.285c-1.19 0-2.045-.335-2.565-1.005-.51-.68-.765-1.66-.765-2.94v-4.605c0-1.26.26-2.215.78-2.865.52-.65 1.37-.975 2.55-.975 1.18 0 2.025.33 2.535.99.52.65.78 1.6.78 2.85v4.62c0 1.26-.26 2.23-.78 2.91-.52.68-1.365 1.02-2.535 1.02zm0-1.335c.63 0 1.055-.185 1.275-.555.22-.37.33-.93.33-1.68v-5.325c0-.74-.11-1.285-.33-1.635-.22-.36-.645-.54-1.275-.54-.64 0-1.07.18-1.29.54-.22.35-.33.895-.33 1.635v5.325c0 .75.11 1.31.33 1.68.22.37.65.555 1.29.555zm6.316-9.69h-2.055v-1.26h5.745v1.26h-1.995V626h-1.695v-10.89zm4.861-1.26h1.695v5.25h3.12v-5.25h1.695V626h-1.695v-5.685h-3.12V626h-1.695v-12.15zm8.499 0h1.665V626h-1.665v-12.15zm3.63 0h1.155l3.45 8.07v-8.07h1.41V626h-1.08l-3.495-8.295V626h-1.44v-12.15zm10.82 12.3c-1.1 0-1.895-.345-2.385-1.035-.49-.7-.735-1.735-.735-3.105v-4.065c0-.94.095-1.71.285-2.31.2-.61.535-1.075 1.005-1.395.48-.33 1.135-.495 1.965-.495 1.12 0 1.925.285 2.415.855.5.57.75 1.465.75 2.685v.45h-1.59v-.375c0-.58-.035-1.025-.105-1.335-.07-.32-.22-.56-.45-.72-.22-.16-.55-.24-.99-.24-.47 0-.82.11-1.05.33-.23.21-.38.495-.45.855-.06.36-.09.84-.09 1.44v4.5c0 .93.11 1.6.33 2.01.23.4.665.6 1.305.6.63 0 1.06-.22 1.29-.66.24-.44.36-1.145.36-2.115v-.84h-1.545v-1.2h3.075V626h-1.065l-.165-1.395c-.38 1.03-1.1 1.545-2.16 1.545zm5.088-8.085h1.62v1.71h-1.62v-1.71zm0 4.785h1.62v1.71h-1.62v-1.71zm-240.666 13h2.64c1.31 0 2.235.3 2.775.9.55.6.825 1.535.825 2.805v4.47c0 1.34-.27 2.34-.81 3-.53.65-1.415.975-2.655.975h-2.775v-12.15zm2.655 10.935c.59 0 1.015-.115 1.275-.345.27-.23.435-.54.495-.93.07-.4.105-1 .105-1.8v-3.945c0-.69-.045-1.215-.135-1.575-.08-.37-.255-.64-.525-.81-.27-.18-.69-.27-1.26-.27h-.915v9.675h.96zm5.255-10.935h4.71v1.26h-3.015v4.02h2.445v1.2h-2.445v4.455h3.045V648h-4.74v-12.15zm8.974 12.285c-1.02 0-1.8-.315-2.34-.945-.53-.63-.825-1.495-.885-2.595l1.5-.405c.05.78.2 1.41.45 1.89.26.48.685.72 1.275.72.44 0 .77-.12.99-.36.23-.25.345-.605.345-1.065 0-.5-.105-.915-.315-1.245-.21-.33-.545-.695-1.005-1.095l-2.04-1.8c-.41-.36-.71-.745-.9-1.155-.18-.42-.27-.93-.27-1.53 0-.89.255-1.58.765-2.07.51-.49 1.205-.735 2.085-.735.96 0 1.685.255 2.175.765.49.51.785 1.3.885 2.37l-1.44.39c-.05-.71-.19-1.255-.42-1.635-.22-.39-.62-.585-1.2-.585-.43 0-.76.115-.99.345-.23.22-.345.55-.345.99 0 .36.06.665.18.915.12.24.325.485.615.735l2.055 1.8c.53.47.95.98 1.26 1.53.32.55.48 1.175.48 1.875 0 .89-.27 1.595-.81 2.115-.54.52-1.24.78-2.1.78zm4.314-12.285h1.666V648h-1.665v-12.15zm6.526 12.3c-1.1 0-1.895-.345-2.385-1.035-.49-.7-.735-1.735-.735-3.105v-4.065c0-.94.095-1.71.285-2.31.2-.61.535-1.075 1.005-1.395.48-.33 1.135-.495 1.965-.495 1.12 0 1.925.285 2.415.855.5.57.75 1.465.75 2.685v.45h-1.59v-.375c0-.58-.035-1.025-.105-1.335-.07-.32-.22-.56-.45-.72-.22-.16-.55-.24-.99-.24-.47 0-.82.11-1.05.33-.23.21-.38.495-.45.855-.06.36-.09.84-.09 1.44v4.5c0 .93.11 1.6.33 2.01.23.4.665.6 1.305.6.63 0 1.06-.22 1.29-.66.24-.44.36-1.145.36-2.115v-.84h-1.545v-1.2h3.075V648h-1.065l-.165-1.395c-.38 1.03-1.1 1.545-2.16 1.545zm5.133-12.3h1.154l3.45 8.07v-8.07h1.41V648h-1.08l-3.495-8.295V648h-1.44v-12.15zm7.924 0h4.71v1.26h-3.015v4.02h2.445v1.2h-2.445v4.455h3.045V648h-4.74v-12.15zm6.109 0h2.64c1.31 0 2.235.3 2.775.9.55.6.825 1.535.825 2.805v4.47c0 1.34-.27 2.34-.81 3-.53.65-1.415.975-2.655.975h-2.775v-12.15zm2.655 10.935c.59 0 1.015-.115 1.275-.345.27-.23.435-.54.495-.93.07-.4.105-1 .105-1.8v-3.945c0-.69-.045-1.215-.135-1.575-.08-.37-.255-.64-.525-.81-.27-.18-.69-.27-1.26-.27h-.915v9.675h.96zm4.91 2.49c.27-.09.48-.25.63-.48.16-.22.24-.485.24-.795h-.855v-1.725h1.65v1.695c0 .53-.115.95-.345 1.26-.23.32-.585.565-1.065.735l-.255-.69zm9.435-1.14c-1.02 0-1.8-.315-2.34-.945-.53-.63-.825-1.495-.885-2.595l1.5-.405c.05.78.2 1.41.45 1.89.26.48.685.72 1.275.72.44 0 .77-.12.99-.36.23-.25.345-.605.345-1.065 0-.5-.105-.915-.315-1.245-.21-.33-.545-.695-1.005-1.095l-2.04-1.8c-.41-.36-.71-.745-.9-1.155-.18-.42-.27-.93-.27-1.53 0-.89.255-1.58.765-2.07.51-.49 1.205-.735 2.085-.735.96 0 1.685.255 2.175.765.49.51.785 1.3.885 2.37l-1.44.39c-.05-.71-.19-1.255-.42-1.635-.22-.39-.62-.585-1.2-.585-.43 0-.76.115-.99.345-.23.22-.345.55-.345.99 0 .36.06.665.18.915.12.24.325.485.615.735l2.055 1.8c.53.47.95.98 1.26 1.53.32.55.48 1.175.48 1.875 0 .89-.27 1.595-.81 2.115-.54.52-1.24.78-2.1.78zm7.33 0c-1.19 0-2.045-.335-2.565-1.005-.51-.68-.765-1.66-.765-2.94v-4.605c0-1.26.26-2.215.78-2.865.52-.65 1.37-.975 2.55-.975 1.18 0 2.025.33 2.535.99.52.65.78 1.6.78 2.85v4.62c0 1.26-.26 2.23-.78 2.91-.52.68-1.365 1.02-2.535 1.02zm0-1.335c.63 0 1.055-.185 1.275-.555.22-.37.33-.93.33-1.68v-5.325c0-.74-.11-1.285-.33-1.635-.22-.36-.645-.54-1.275-.54-.64 0-1.07.18-1.29.54-.22.35-.33.895-.33 1.635v5.325c0 .75.11 1.31.33 1.68.22.37.65.555 1.29.555zm8.116 1.335c-.85 0-1.515-.17-1.995-.51-.47-.34-.795-.815-.975-1.425-.18-.61-.27-1.375-.27-2.295v-8.055h1.62v8.13c0 .92.105 1.62.315 2.1.22.48.655.72 1.305.72.65 0 1.08-.24 1.29-.72.22-.48.33-1.18.33-2.1v-8.13h1.605v8.055c0 .92-.09 1.685-.27 2.295-.18.61-.505 1.085-.975 1.425-.47.34-1.13.51-1.98.51zm5.01-12.285h2.445c1.23 0 2.13.255 2.7.765.58.5.87 1.32.87 2.46 0 1.56-.5 2.505-1.5 2.835l1.725 6.09h-1.635l-1.59-5.7h-1.32v5.7h-1.695v-12.15zm2.34 5.235c.73 0 1.25-.145 1.56-.435.32-.29.48-.815.48-1.575 0-.5-.055-.89-.165-1.17a1.1 1.1 0 00-.585-.63c-.28-.14-.675-.21-1.185-.21h-.75v4.02h.645zm8.483 7.05c-1.2 0-2.045-.355-2.535-1.065-.49-.72-.735-1.71-.735-2.97v-4.29c0-1.33.24-2.34.72-3.03s1.33-1.035 2.55-1.035c1.09 0 1.87.295 2.34.885.48.59.72 1.46.72 2.61v.96h-1.605v-.855c0-.56-.025-.99-.075-1.29-.05-.3-.18-.54-.39-.72-.2-.18-.525-.27-.975-.27-.46 0-.805.1-1.035.3-.22.19-.365.46-.435.81-.07.34-.105.8-.105 1.38v4.815c0 .62.05 1.105.15 1.455.1.35.26.6.48.75.23.15.545.225.945.225.43 0 .75-.095.96-.285.21-.19.34-.45.39-.78.06-.33.09-.78.09-1.35v-.9h1.605v.9c0 1.21-.23 2.14-.69 2.79-.45.64-1.24.96-2.37.96zm4.675-12.285h4.71v1.26h-3.015v4.02h2.445v1.2h-2.445v4.455h3.045V648h-4.74v-12.15zm6.108 0h2.64c1.31 0 2.235.3 2.775.9.55.6.825 1.535.825 2.805v4.47c0 1.34-.27 2.34-.81 3-.53.65-1.415.975-2.655.975h-2.775v-12.15zm2.655 10.935c.59 0 1.015-.115 1.275-.345.27-.23.435-.54.495-.93.07-.4.105-1 .105-1.8v-3.945c0-.69-.045-1.215-.135-1.575-.08-.37-.255-.64-.525-.81-.27-.18-.69-.27-1.26-.27h-.915v9.675h.96zm10.603-10.935h1.635l2.595 12.15h-1.605l-.555-3.06h-2.475l-.585 3.06h-1.59l2.58-12.15zm1.845 7.875l-1.02-5.475-1.005 5.475h2.025zm3.618-7.875h1.155l3.45 8.07v-8.07h1.41V648h-1.08l-3.495-8.295V648h-1.44v-12.15zm7.925 0h2.64c1.31 0 2.235.3 2.775.9.55.6.825 1.535.825 2.805v4.47c0 1.34-.27 2.34-.81 3-.53.65-1.415.975-2.655.975h-2.775v-12.15zm2.655 10.935c.59 0 1.015-.115 1.275-.345.27-.23.435-.54.495-.93.07-.4.105-1 .105-1.8v-3.945c0-.69-.045-1.215-.135-1.575-.08-.37-.255-.64-.525-.81-.27-.18-.69-.27-1.26-.27h-.915v9.675h.96zm8.683-10.935h4.71v1.26h-3.015v4.02h2.445v1.2h-2.445v4.455h3.045V648h-4.74v-12.15zm6.108 0h1.155l3.45 8.07v-8.07h1.41V648h-1.08l-3.495-8.295V648h-1.44v-12.15zm10.82 12.3c-1.1 0-1.895-.345-2.385-1.035-.49-.7-.735-1.735-.735-3.105v-4.065c0-.94.095-1.71.285-2.31.2-.61.535-1.075 1.005-1.395.48-.33 1.135-.495 1.965-.495 1.12 0 1.925.285 2.415.855.5.57.75 1.465.75 2.685v.45h-1.59v-.375c0-.58-.035-1.025-.105-1.335-.07-.32-.22-.56-.45-.72-.22-.16-.55-.24-.99-.24-.47 0-.82.11-1.05.33-.23.21-.38.495-.45.855-.06.36-.09.84-.09 1.44v4.5c0 .93.11 1.6.33 2.01.23.4.665.6 1.305.6.63 0 1.06-.22 1.29-.66.24-.44.36-1.145.36-2.115v-.84h-1.545v-1.2h3.075V648h-1.065l-.165-1.395c-.38 1.03-1.1 1.545-2.16 1.545zm5.222-12.3h1.665V648h-1.665v-12.15zm3.631 0h1.155l3.45 8.07v-8.07h1.41V648h-1.08l-3.495-8.295V648h-1.44v-12.15zm7.925 0h4.71v1.26h-3.015v4.02h2.445v1.2h-2.445v4.455h3.045V648h-4.74v-12.15zm6.108 0h4.71v1.26h-3.015v4.02h2.445v1.2h-2.445v4.455h3.045V648h-4.74v-12.15zm6.108 0h2.445c1.23 0 2.13.255 2.7.765.58.5.87 1.32.87 2.46 0 1.56-.5 2.505-1.5 2.835l1.725 6.09h-1.635l-1.59-5.7h-1.32v5.7h-1.695v-12.15zm2.34 5.235c.73 0 1.25-.145 1.56-.435.32-.29.48-.815.48-1.575 0-.5-.055-.89-.165-1.17a1.1 1.1 0 00-.585-.63c-.28-.14-.675-.21-1.185-.21h-.75v4.02h.645zm5.439-5.235h4.71v1.26h-3.015v4.02h2.445v1.2h-2.445v4.455h3.045V648h-4.74v-12.15zm6.108 0h2.64c1.31 0 2.235.3 2.775.9.55.6.825 1.535.825 2.805v4.47c0 1.34-.27 2.34-.81 3-.53.65-1.415.975-2.655.975h-2.775v-12.15zm2.655 10.935c.59 0 1.015-.115 1.275-.345.27-.23.435-.54.495-.93.07-.4.105-1 .105-1.8v-3.945c0-.69-.045-1.215-.135-1.575-.08-.37-.255-.64-.525-.81-.27-.18-.69-.27-1.26-.27h-.915v9.675h.96zm10.018-9.675h-2.055v-1.26h5.745v1.26h-1.995V648h-1.695v-10.89zm7.966 11.025c-1.19 0-2.045-.335-2.565-1.005-.51-.68-.765-1.66-.765-2.94v-4.605c0-1.26.26-2.215.78-2.865.52-.65 1.37-.975 2.55-.975 1.18 0 2.025.33 2.535.99.52.65.78 1.6.78 2.85v4.62c0 1.26-.26 2.23-.78 2.91-.52.68-1.365 1.02-2.535 1.02zm0-1.335c.63 0 1.055-.185 1.275-.555.22-.37.33-.93.33-1.68v-5.325c0-.74-.11-1.285-.33-1.635-.22-.36-.645-.54-1.275-.54-.64 0-1.07.18-1.29.54-.22.35-.33.895-.33 1.635v5.325c0 .75.11 1.31.33 1.68.22.37.65.555 1.29.555zm8.409-10.95h1.695v10.935h3.105V648h-4.8v-12.15zm7.882 0h1.635l2.595 12.15h-1.605l-.555-3.06h-2.475l-.585 3.06h-1.59l2.58-12.15zm1.845 7.875l-1.02-5.475-1.005 5.475h2.025zm6.483 4.41c-1.02 0-1.8-.315-2.34-.945-.53-.63-.825-1.495-.885-2.595l1.5-.405c.05.78.2 1.41.45 1.89.26.48.685.72 1.275.72.44 0 .77-.12.99-.36.23-.25.345-.605.345-1.065 0-.5-.105-.915-.315-1.245-.21-.33-.545-.695-1.005-1.095l-2.04-1.8c-.41-.36-.71-.745-.9-1.155-.18-.42-.27-.93-.27-1.53 0-.89.255-1.58.765-2.07.51-.49 1.205-.735 2.085-.735.96 0 1.685.255 2.175.765.49.51.785 1.3.885 2.37l-1.44.39c-.05-.71-.19-1.255-.42-1.635-.22-.39-.62-.585-1.2-.585-.43 0-.76.115-.99.345-.23.22-.345.55-.345.99 0 .36.06.665.18.915.12.24.325.485.615.735l2.055 1.8c.53.47.95.98 1.26 1.53.32.55.48 1.175.48 1.875 0 .89-.27 1.595-.81 2.115-.54.52-1.24.78-2.1.78zm5.56-11.025h-2.055v-1.26h5.745v1.26h-1.995V648h-1.695v-10.89z"/>
    <g clip-path="url(#clip1)">
      <path fill="#fff" stroke="#fff" stroke-miterlimit="3.864" stroke-width="3.775" d="M52.317 195.677l12.366-10.043c1.399 1.181 2.577 2.658 3.46 4.283.883 1.625 1.546 3.471 1.988 5.612 1.325-.96 2.87-2.215 4.637-3.766 1.767-1.551 3.828-3.471 6.257-5.834l5.815 6.129 3.46-3.396 1.399 1.403a42.97 42.97 0 00-2.209 3.249c-.662.96-1.104 1.846-1.472 2.584v24c.147.591.368 1.182.736 1.551.368.443.81.813 1.399 1.034l1.472-1.181 1.399 1.403L85 229.942c-1.987-1.182-3.313-2.585-4.122-4.21-.81-1.624-1.178-4.061-1.178-7.163v-21.711l-3.607-3.544-5.815 4.578v22.671l2.355 3.102-6.477 6.35-6.773-6.35 2.503-2.807v-23.704c0-.591-.294-1.329-.81-2.142-.515-.812-1.251-1.477-2.134-2.067l-6.625 5.317v22.301l2.429 3.102-6.552 6.35-6.772-6.35L44 220.858v-23.704c0-.886-.148-1.625-.442-2.289a4.612 4.612 0 00-1.325-1.625l-1.472 1.182-1.399-1.477 7.288-7.385c1.987 1.108 3.386 2.437 4.27 3.988.882 1.477 1.324 3.47 1.324 5.76v.369h.074z"/>
      <path stroke="#000" stroke-miterlimit="3.864" stroke-width="1.246" d="M52.317 195.677l12.366-10.043c1.399 1.181 2.577 2.658 3.46 4.283.883 1.625 1.546 3.471 1.988 5.612 1.325-.96 2.87-2.215 4.637-3.766 1.767-1.551 3.828-3.471 6.257-5.834l5.815 6.129 3.46-3.396 1.399 1.403a42.97 42.97 0 00-2.209 3.249c-.662.96-1.104 1.846-1.472 2.584v24c.147.591.368 1.182.736 1.551.368.443.81.813 1.399 1.034l1.472-1.181 1.399 1.403L85 229.942c-1.987-1.182-3.313-2.585-4.122-4.21-.81-1.624-1.178-4.061-1.178-7.163v-21.711l-3.607-3.544-5.815 4.578v22.671l2.355 3.102-6.477 6.35-6.773-6.35 2.503-2.807v-23.704c0-.591-.294-1.329-.81-2.142-.515-.812-1.251-1.477-2.134-2.067l-6.625 5.317v22.301l2.429 3.102-6.552 6.35-6.772-6.35L44 220.858v-23.704c0-.886-.148-1.625-.442-2.289a4.612 4.612 0 00-1.325-1.625l-1.472 1.182-1.399-1.477 7.288-7.385c1.987 1.108 3.386 2.437 4.27 3.988.882 1.477 1.324 3.47 1.324 5.76v.369h.074z"/>
      <path fill="#fff" fill-rule="evenodd" d="M112.678 219.603l-11.263 10.191h-.809c-2.209-2.216-3.828-4.209-4.712-6.129-.957-1.92-1.398-3.988-1.398-6.203 0-2.807.736-5.539 2.135-8.345 1.398-2.806 3.533-5.539 6.33-8.271l-4.122-11.741c.147 0 .368.073.589.073h1.03c1.841 0 3.46-.295 4.932-.96 1.399-.664 2.577-1.55 3.534-2.806l12.219 4.505 2.429-1.92.442.665c-1.031 1.624-1.767 3.027-2.208 4.135-.442 1.108-.737 2.068-.81 2.954v24c.147.591.368 1.181.736 1.624.368.443.81.813 1.399 1.108l1.619-1.181 1.251 1.403-7.95 7.237c-1.84-1.108-3.165-2.437-4.048-3.988-.884-1.551-1.325-3.545-1.325-5.834v-.517zm0-2.658v-9.822l-8.466-4.652c-.809 1.329-1.472 2.732-1.84 4.209a17.399 17.399 0 00-.589 4.431c0 2.363.368 4.504 1.178 6.424a13.988 13.988 0 003.607 5.17l6.11-5.76zm-8.245-16.173l8.318 4.579v-9.969l-11.851-4.505 3.533 9.895z" clip-rule="evenodd"/>
      <path stroke="#fff" stroke-miterlimit="3.864" stroke-width="3.775" d="M112.678 219.603l-11.263 10.191h-.809c-2.209-2.216-3.828-4.209-4.712-6.129-.957-1.92-1.398-3.988-1.398-6.203 0-2.807.736-5.539 2.135-8.345 1.398-2.806 3.533-5.539 6.33-8.271l-4.122-11.741c.147 0 .368.073.589.073h1.03c1.841 0 3.46-.295 4.932-.96 1.399-.664 2.577-1.55 3.534-2.806l12.219 4.505 2.429-1.92.442.665c-1.031 1.624-1.767 3.027-2.208 4.135-.442 1.108-.737 2.068-.81 2.954v24c.147.591.368 1.181.736 1.624.368.443.81.813 1.399 1.108l1.619-1.181 1.251 1.403-7.95 7.237c-1.84-1.108-3.165-2.437-4.048-3.988-.884-1.551-1.325-3.545-1.325-5.834v-.517 0zm0-2.658v-9.822l-8.466-4.652c-.809 1.329-1.472 2.732-1.84 4.209a17.399 17.399 0 00-.589 4.431c0 2.363.368 4.504 1.178 6.424a13.988 13.988 0 003.607 5.17l6.11-5.76zm-8.245-16.173l8.318 4.579v-9.969l-11.851-4.505 3.533 9.895z"/>
      <path stroke="#000" stroke-miterlimit="3.864" stroke-width="1.246" d="M112.678 219.603l-11.263 10.191h-.809c-2.209-2.216-3.828-4.209-4.712-6.129-.957-1.92-1.398-3.988-1.398-6.203 0-2.807.736-5.539 2.135-8.345 1.398-2.806 3.533-5.539 6.33-8.271l-4.122-11.741c.147 0 .368.073.589.073h1.03c1.841 0 3.46-.295 4.932-.96 1.399-.664 2.577-1.55 3.534-2.806l12.219 4.505 2.429-1.92.442.665c-1.031 1.624-1.767 3.027-2.208 4.135-.442 1.108-.737 2.068-.81 2.954v24c.147.591.368 1.181.736 1.624.368.443.81.813 1.399 1.108l1.619-1.181 1.251 1.403-7.95 7.237c-1.84-1.108-3.165-2.437-4.048-3.988-.884-1.551-1.325-3.545-1.325-5.834v-.517 0zm0-2.658v-9.822l-8.466-4.652c-.809 1.329-1.472 2.732-1.84 4.209a17.399 17.399 0 00-.589 4.431c0 2.363.368 4.504 1.178 6.424a13.988 13.988 0 003.607 5.17l6.11-5.76zm-8.245-16.173l8.318 4.579v-9.969l-11.851-4.505 3.533 9.895z"/>
      <path fill="#fff" stroke="#fff" stroke-miterlimit="3.864" stroke-width="3.775" d="M170.021 170.126l-1.325 1.034-1.399-1.403 7.288-7.237s4.416.812 7.287.886c3.166 0 8.024-.886 8.024-.886v52.135c0 3.988-.515 6.794-2.797 10.117-3.313 4.8-9.864 5.982-14.575 7.09l-1.841-1.404c2.135-.886 5.227-1.624 7.73-4.652 1.84-2.215 2.65-3.84 3.165-6.72v-48s-3.607.148-5.889 0c-2.135-.221-5.668-.96-5.668-.96z"/>
      <path stroke="#000" stroke-miterlimit="3.864" stroke-width="1.246" d="M170.021 170.126l-1.325 1.034-1.399-1.403 7.288-7.237s4.416.812 7.287.886c3.166 0 8.024-.886 8.024-.886v52.135c0 3.988-.515 6.794-2.797 10.117-3.313 4.8-9.864 5.982-14.575 7.09l-1.841-1.404c2.135-.886 5.227-1.624 7.73-4.652 1.84-2.215 2.65-3.84 3.165-6.72v-48s-3.607.148-5.889 0c-2.135-.221-5.668-.96-5.668-.96z"/>
      <path fill="#fff" fill-rule="evenodd" d="M209.108 185.56l11.336 12.48c-2.282 1.698-4.637 3.545-7.066 5.465a295.113 295.113 0 00-7.877 6.646v9.304l6.846 3.176 5.668-3.914 1.252 1.477c-1.914 1.329-3.902 2.806-5.963 4.357-2.061 1.551-4.196 3.323-6.404 5.243a27.745 27.745 0 00-5.742-3.323 30.753 30.753 0 00-6.551-1.994c.957-.739 1.546-1.551 1.987-2.659.369-1.033.589-2.436.589-4.209v-24.591a43.713 43.713 0 005.448-2.88c1.987-1.181 4.122-2.732 6.477-4.578zm-3.975 22.08l8.098-6.646-8.098-8.714v15.36z" clip-rule="evenodd"/>
      <path stroke="#fff" stroke-miterlimit="3.864" stroke-width="3.775" d="M209.108 185.56l11.336 12.48c-2.282 1.698-4.637 3.545-7.066 5.465a295.113 295.113 0 00-7.877 6.646v9.304l6.846 3.176 5.668-3.914 1.252 1.477c-1.914 1.329-3.902 2.806-5.963 4.357-2.061 1.551-4.196 3.323-6.404 5.243a27.745 27.745 0 00-5.742-3.323 30.753 30.753 0 00-6.551-1.994c.957-.739 1.546-1.551 1.987-2.659.369-1.033.589-2.436.589-4.209v-24.591a43.713 43.713 0 005.448-2.88c1.987-1.181 4.122-2.732 6.477-4.578zm-3.975 22.08l8.098-6.646-8.098-8.714v15.36z"/>
      <path stroke="#000" stroke-miterlimit="3.864" stroke-width="1.246" d="M209.108 185.56l11.336 12.48c-2.282 1.698-4.637 3.545-7.066 5.465a295.113 295.113 0 00-7.877 6.646v9.304l6.846 3.176 5.668-3.914 1.252 1.477c-1.914 1.329-3.902 2.806-5.963 4.357-2.061 1.551-4.196 3.323-6.404 5.243a27.745 27.745 0 00-5.742-3.323 30.753 30.753 0 00-6.551-1.994c.957-.739 1.546-1.551 1.987-2.659.369-1.033.589-2.436.589-4.209v-24.591a43.713 43.713 0 005.448-2.88c1.987-1.181 4.122-2.732 6.477-4.578zm-3.975 22.08l8.098-6.646-8.098-8.714v15.36z"/>
      <path fill="#fff" fill-rule="evenodd" d="M243.338 222.114v-11.963l-4.932-2.88-9.496 13.144c1.03-.369 1.987-.664 2.944-.812.957-.148 1.914-.295 2.871-.295 1.399 0 2.797.221 4.196.738 1.472.443 2.944 1.182 4.417 2.068zm-11.852-18.683l4.785 2.806 8.023-11.594c-.957.148-1.84.295-2.65.369-.809.074-1.472.148-2.061.148-1.398 0-2.723-.148-4.048-.517a20.125 20.125 0 01-4.049-1.625v10.413zm-10.232 24.738l10.6-15.581-8.318-4.874v-14.696a33.098 33.098 0 005.668-3.249 30.634 30.634 0 004.932-4.357c2.135 1.182 4.196 2.142 6.11 2.806 1.914.665 3.68.96 5.226.96 1.399 0 2.577-.295 3.386-.886.81-.59 1.252-1.329 1.252-2.363 0-.517-.368-1.181-1.104-2.141-.737-.886-1.105-1.625-1.105-2.068 0-.591.221-1.108.663-1.551.442-.443.957-.664 1.546-.664.883 0 1.693.369 2.208 1.033.589.665.81 1.551.81 2.659 0 .886-.221 1.846-.589 2.806s-1.104 2.068-1.988 3.397l-7.729 11.225 8.024 5.243v17.206a24.045 24.045 0 00-5.447 2.511c-1.841 1.107-3.607 2.51-5.448 4.209a14.614 14.614 0 00-4.195-2.289c-1.399-.517-2.871-.739-4.344-.739-1.398 0-2.797.222-4.195.591-1.399.369-2.871 1.034-4.417 1.846l-1.546-1.034z" clip-rule="evenodd"/>
      <path stroke="#fff" stroke-miterlimit="3.864" stroke-width="3.775" d="M243.338 222.114v-11.963l-4.932-2.88-9.496 13.144c1.03-.369 1.987-.664 2.944-.812.957-.148 1.914-.295 2.871-.295 1.399 0 2.797.221 4.196.738 1.472.443 2.944 1.182 4.417 2.068zm-11.852-18.683l4.785 2.806 8.023-11.594c-.957.148-1.84.295-2.65.369-.809.074-1.472.148-2.061.148-1.398 0-2.723-.148-4.048-.517a20.125 20.125 0 01-4.049-1.625v10.413zm-10.232 24.738l10.6-15.581-8.318-4.874v-14.696a33.098 33.098 0 005.668-3.249 30.634 30.634 0 004.932-4.357c2.135 1.182 4.196 2.142 6.11 2.806 1.914.665 3.68.96 5.226.96 1.399 0 2.577-.295 3.386-.886.81-.59 1.252-1.329 1.252-2.363 0-.517-.368-1.181-1.104-2.141-.737-.886-1.105-1.625-1.105-2.068 0-.591.221-1.108.663-1.551.442-.443.957-.664 1.546-.664.883 0 1.693.369 2.208 1.033.589.665.81 1.551.81 2.659 0 .886-.221 1.846-.589 2.806s-1.104 2.068-1.988 3.397l-7.729 11.225 8.024 5.243v17.206a24.045 24.045 0 00-5.447 2.511c-1.841 1.107-3.607 2.51-5.448 4.209a14.614 14.614 0 00-4.195-2.289c-1.399-.517-2.871-.739-4.344-.739-1.398 0-2.797.222-4.195.591-1.399.369-2.871 1.034-4.417 1.846l-1.546-1.034z"/>
      <path stroke="#000" stroke-miterlimit="3.864" stroke-width="1.246" d="M243.338 222.114v-11.963l-4.932-2.88-9.496 13.144c1.03-.369 1.987-.664 2.944-.812.957-.148 1.914-.295 2.871-.295 1.399 0 2.797.221 4.196.738 1.472.443 2.944 1.182 4.417 2.068zm-11.852-18.683l4.785 2.806 8.023-11.594c-.957.148-1.84.295-2.65.369-.809.074-1.472.148-2.061.148-1.398 0-2.723-.148-4.048-.517a20.125 20.125 0 01-4.049-1.625v10.413zm-10.232 24.738l10.6-15.581-8.318-4.874v-14.696a33.098 33.098 0 005.668-3.249 30.634 30.634 0 004.932-4.357c2.135 1.182 4.196 2.142 6.11 2.806 1.914.665 3.68.96 5.226.96 1.399 0 2.577-.295 3.386-.886.81-.59 1.252-1.329 1.252-2.363 0-.517-.368-1.181-1.104-2.141-.737-.886-1.105-1.625-1.105-2.068 0-.591.221-1.108.663-1.551.442-.443.957-.664 1.546-.664.883 0 1.693.369 2.208 1.033.589.665.81 1.551.81 2.659 0 .886-.221 1.846-.589 2.806s-1.104 2.068-1.988 3.397l-7.729 11.225 8.024 5.243v17.206a24.045 24.045 0 00-5.447 2.511c-1.841 1.107-3.607 2.51-5.448 4.209a14.614 14.614 0 00-4.195-2.289c-1.399-.517-2.871-.739-4.344-.739-1.398 0-2.797.222-4.195.591-1.399.369-2.871 1.034-4.417 1.846l-1.546-1.034z"/>
      <path fill="#fff" stroke="#fff" stroke-miterlimit="3.864" stroke-width="3.775" d="M258.575 192.206h-3.018v-1.624l11.631-15.877v12.553h8.759v4.8h-8.759v26.733l4.343 3.766 2.429-1.994 1.251 1.403c-1.104 1.034-2.282 2.216-3.607 3.471a256.285 256.285 0 00-4.269 4.357c-1.841-1.92-3.681-3.471-5.521-4.652-1.84-1.182-3.754-2.142-5.742-2.733.884-.738 1.546-1.551 1.988-2.658.368-1.034.589-2.437.589-4.209v-23.336h-.074z"/>
      <path stroke="#000" stroke-miterlimit="3.864" stroke-width="1.246" d="M258.575 192.206h-3.018v-1.624l11.631-15.877v12.553h8.759v4.8h-8.759v26.733l4.343 3.766 2.429-1.994 1.251 1.403c-1.104 1.034-2.282 2.216-3.607 3.471a256.285 256.285 0 00-4.269 4.357c-1.841-1.92-3.681-3.471-5.521-4.652-1.84-1.182-3.754-2.142-5.742-2.733.884-.738 1.546-1.551 1.988-2.658.368-1.034.589-2.437.589-4.209v-23.336h-.074z"/>
      <path fill="#fff" fill-rule="evenodd" d="M291.774 185.56l11.336 12.48c-2.282 1.698-4.638 3.545-7.067 5.465a295.189 295.189 0 00-7.876 6.646v9.304l6.772 3.176 5.668-3.914 1.251 1.477c-1.914 1.329-3.901 2.806-5.962 4.357-2.061 1.551-4.196 3.323-6.404 5.243a27.745 27.745 0 00-5.742-3.323 30.77 30.77 0 00-6.551-1.994c.957-.739 1.545-1.551 1.987-2.659.368-1.033.589-2.436.589-4.209v-24.591a43.705 43.705 0 005.447-2.88c2.061-1.181 4.196-2.732 6.552-4.578zm-3.975 22.08l8.097-6.646-8.097-8.714v15.36z" clip-rule="evenodd"/>
      <path stroke="#fff" stroke-miterlimit="3.864" stroke-width="3.775" d="M291.774 185.56l11.336 12.48c-2.282 1.698-4.638 3.545-7.067 5.465a295.189 295.189 0 00-7.876 6.646v9.304l6.772 3.176 5.668-3.914 1.251 1.477c-1.914 1.329-3.901 2.806-5.962 4.357-2.061 1.551-4.196 3.323-6.404 5.243a27.745 27.745 0 00-5.742-3.323 30.77 30.77 0 00-6.551-1.994c.957-.739 1.545-1.551 1.987-2.659.368-1.033.589-2.436.589-4.209v-24.591a43.705 43.705 0 005.447-2.88c2.061-1.181 4.196-2.732 6.552-4.578zm-3.975 22.08l8.097-6.646-8.097-8.714v15.36z"/>
      <path stroke="#000" stroke-miterlimit="3.864" stroke-width="1.246" d="M291.774 185.56l11.336 12.48c-2.282 1.698-4.638 3.545-7.067 5.465a295.189 295.189 0 00-7.876 6.646v9.304l6.772 3.176 5.668-3.914 1.251 1.477c-1.914 1.329-3.901 2.806-5.962 4.357-2.061 1.551-4.196 3.323-6.404 5.243a27.745 27.745 0 00-5.742-3.323 30.77 30.77 0 00-6.551-1.994c.957-.739 1.545-1.551 1.987-2.659.368-1.033.589-2.436.589-4.209v-24.591a43.705 43.705 0 005.447-2.88c2.061-1.181 4.196-2.732 6.552-4.578zm-3.975 22.08l8.097-6.646-8.097-8.714v15.36z"/>
      <path fill="#fff" stroke="#fff" stroke-miterlimit="3.864" stroke-width="3.775" d="M312.164 185.56c1.84 1.034 3.165 2.068 3.975 3.249a7.976 7.976 0 011.399 4.209l8.465-7.458 5.889 7.089-5.963 5.539-5.005-5.539-3.313 2.659v23.704l4.564 3.619 2.429-2.068 1.252 1.403c-1.473 1.329-2.798 2.659-4.123 3.988l-3.901 3.914c-1.546-1.699-3.239-3.176-5.153-4.357-1.914-1.182-3.975-2.216-6.33-3.028.883-.738 1.545-1.551 1.987-2.658.368-1.034.589-2.437.589-4.21v-18.461c0-.886-.147-1.625-.442-2.289a4.606 4.606 0 00-1.325-1.625l-1.472 1.182-1.398-1.477 7.876-7.385z"/>
      <path stroke="#000" stroke-miterlimit="3.864" stroke-width="1.246" d="M312.164 185.56c1.84 1.034 3.165 2.068 3.975 3.249a7.976 7.976 0 011.399 4.209l8.465-7.458 5.889 7.089-5.963 5.539-5.005-5.539-3.313 2.659v23.704l4.564 3.619 2.429-2.068 1.252 1.403c-1.473 1.329-2.798 2.659-4.123 3.988l-3.901 3.914c-1.546-1.699-3.239-3.176-5.153-4.357-1.914-1.182-3.975-2.216-6.33-3.028.883-.738 1.545-1.551 1.987-2.658.368-1.034.589-2.437.589-4.21v-18.461c0-.886-.147-1.625-.442-2.289a4.606 4.606 0 00-1.325-1.625l-1.472 1.182-1.398-1.477 7.876-7.385z"/>
      <path fill="#fff" fill-rule="evenodd" d="M332.701 186.963v-2.88h1.252c.221 0 .441 0 .589.074a.58.58 0 01.294.295c.074.148.147.296.147.443 0 .222-.073.37-.221.517-.147.148-.368.222-.588.296.073.074.147.074.22.147.074.074.221.222.295.37l.515.812h-.442l-.368-.591c-.073-.148-.22-.295-.294-.369l-.221-.222c-.073 0-.147-.073-.147-.073h-.663v1.255h-.368v-.074zm.368-1.625h.81c.147 0 .295 0 .368-.073.074 0 .147-.074.221-.148.074-.074.074-.148.074-.222 0-.147-.074-.221-.148-.369-.073-.074-.22-.148-.441-.148h-.884v.96z" clip-rule="evenodd"/>
      <path stroke="#fff" stroke-miterlimit="3.864" stroke-width=".223" d="M331.376 185.486a2.297 2.297 0 012.282-2.289 2.297 2.297 0 012.282 2.289 2.296 2.296 0 01-2.282 2.289 2.297 2.297 0 01-2.282-2.289z"/>
      <path fill="#fff" d="M139.767 218.643c1.619.665 3.165 1.329 4.711 1.994 1.546.591 3.091 1.181 4.564 1.772v-25.403l-6.846-4.874-2.429 1.625v24.886zM157.286 175v48c-2.65.812-5.005 1.772-7.14 2.954-2.135 1.181-4.049 2.584-5.668 4.135-2.282-1.772-4.711-3.323-7.435-4.578a36.74 36.74 0 00-8.318-2.806c.957-.739 1.619-1.625 1.988-2.659.368-1.034.588-2.584.588-4.652v-22.302c1.399-.295 5.08-1.624 8.024-3.175 3.239-1.699 7.214-5.169 7.214-5.169l2.503 1.698v-12.554c0-.886-.148-1.624-.442-2.289a4.615 4.615 0 00-1.325-1.625l-1.472 1.182-1.399-1.477 7.288-7.385c1.987 1.108 3.386 2.437 4.269 3.988.883 1.477 1.325 3.471 1.325 5.76V175z"/>
      <path stroke="#fff" stroke-miterlimit="3.864" stroke-width="3.775" d="M139.767 218.643c1.619.665 3.165 1.329 4.711 1.994 1.546.591 3.091 1.181 4.564 1.772v-25.403l-6.846-4.874-2.429 1.625v24.886zM157.286 175v48c-2.65.812-5.005 1.772-7.14 2.954-2.135 1.181-4.049 2.584-5.668 4.135-2.282-1.772-4.711-3.323-7.435-4.578a36.74 36.74 0 00-8.318-2.806c.957-.739 1.619-1.625 1.988-2.659.368-1.034.588-2.584.588-4.652v-22.302c1.399-.295 5.08-1.624 8.024-3.175 3.239-1.699 7.214-5.169 7.214-5.169l2.503 1.698v-12.554c0-.886-.148-1.624-.442-2.289a4.615 4.615 0 00-1.325-1.625l-1.472 1.182-1.399-1.477 7.288-7.385c1.987 1.108 3.386 2.437 4.269 3.988.883 1.477 1.325 3.471 1.325 5.76V175z"/>
      <path stroke="#000" stroke-miterlimit="3.864" stroke-width="1.246" d="M139.767 218.643c1.619.665 3.165 1.329 4.711 1.994 1.546.591 3.091 1.181 4.564 1.772v-25.403l-6.846-4.874-2.429 1.625v24.886zM157.286 175v48c-2.65.812-5.005 1.772-7.14 2.954-2.135 1.181-4.049 2.584-5.668 4.135-2.282-1.772-4.711-3.323-7.435-4.578a36.74 36.74 0 00-8.318-2.806c.957-.739 1.619-1.625 1.988-2.659.368-1.034.588-2.584.588-4.652v-22.302c1.399-.295 5.08-1.624 8.024-3.175 3.239-1.699 7.214-5.169 7.214-5.169l2.503 1.698v-12.554c0-.886-.148-1.624-.442-2.289a4.615 4.615 0 00-1.325-1.625l-1.472 1.182-1.399-1.477 7.288-7.385c1.987 1.108 3.386 2.437 4.269 3.988.883 1.477 1.325 3.471 1.325 5.76V175z"/>
    </g>
    <path fill="#fff" d="M323 45h23v-2.667h-23V45zm0-6.667h23v-2.666h-23v2.666zM323 29v2.667h23V29h-23zM39.018 31.513c0 .364.293.66.654.66a.658.658 0 00.656-.66.657.657 0 00-.656-.66.657.657 0 00-.654.66zm-2.682-.116c0-1.885 1.517-3.414 3.39-3.414 1.871 0 3.389 1.529 3.389 3.414 0 1.887-1.518 3.416-3.39 3.416s-3.39-1.53-3.39-3.416z"/>
    <path fill="#fff" fill-rule="evenodd" d="M34.715 43.636c.126.138.13.172.168.424-.151-.185-.15-.227-.168-.424zM33.958 43.043c.181.236.259 1.016 0 1.355.027-.24-.089-.835 0-1.355zM32.698 43.043c.26.312.349.671.504 1.101-.368-.347-.55-.868-.504-1.1zM35.891 41.52c.365.564-.296 2.642-.42 3.133-.243-.186-.24-.123-.336-.255.748-.298.499-2.087.756-2.879zM37.068 40.672h.504c.05.19.063.226.168.34-.199 1.167-.063 3.954-.924 4.402.003-1.738-.627-2.95-.336-4.488.3-.029.442-.075.588-.254zM39.421 40.334h.672c.095.177.121.155.169.423-.692.768-1.011 2.744-1.26 3.98-.837-.83-1.093-2.429-1.094-3.895.362-.19 1.186-.287 1.513-.508zM30.26 39.995c.723.229.548.88.925 1.44l.673.508c.47.744.513 2.032.504 3.218-.128.045-.143.057-.336.084-.617-1.406-2.083-3.355-1.765-5.25zM32.698 39.656l2.521.085c-.397.297-2.257.162-2.521-.085zM49.255 39.572c.093.168.05.153 0 .338-.06-.197-.047-.209 0-.338zM35.723 39.572c.26-.008.532-.012.673.084l-.673.085v-.17zM18.83 39.741c.285-.418.514-.47.673-.677.261.133.329.004.42.338-.459.09-.681.275-1.092.34zM37.152 35.592c-.216.265-.67.297-.84.593.436-.002.556.081.84.17.201-.322.362-.498 0-.763zM56.566 34.576h.336c-.323.202-.318.199-.336 0zM33.034 28.31c.074.11.075.21.084.423l-.084-.423zM33.454 26.956c.032.275 0 .347-.084.508l-.084-.424.168-.084zM35.05 25.94c-.06.22-.024.281-.336.338.264-.216.206-.187.337-.338zM33.622 25.008h.504c-.192.159-.29.16-.504.17v-.17zM31.437 24.076c.244-.005.46-.003.589.085-.244.005-.46.004-.589-.085zM30.597 24.076c.212.007.312.01.42.085-.213-.006-.313-.01-.42-.085zM37.236 23.568c.007.218-.164.272-.336.17l.336-.17zM24.882 21.536a1.23 1.23 0 00.084.593c.252-.233.29-.186.42-.338-.207-.13-.19-.195-.504-.255zM26.815 21.452c-.083.256-.165.253-.252.508.193.074.291.075.504.084a1.57 1.57 0 00.084-.508l-.336-.084zM35.135 20.52c.196.025.208.038.336.085-.263.038-.204.067-.336-.085zM25.89 20.52c-.158.184-.186.102-.252.423.263.246.079.805.169 1.016.19-.144.08-.433.168-.677.07-.197.26-.296.335-.592-.22-.065-.2-.102-.42-.17zM59.087 19.588c-.022.341-.13.424.168.594.094-.213.182-.462.252-.593h-.42zM62.029 19.25c-.266.034-.32.083-.505.17.136.152.307.332.505.422v-.592zM42.026 19.25c.305.214.306.232.42 0h-.42zM60.264 18.657c-.142.264-.418.54-.336.762.243-.237.348-.135.588-.338-.115-.284-.158-.224-.084-.424h-.168zM29 15.694h.336c-.212.218-.298.272-.504.338.122-.22.112-.235.168-.338zM30.429 13.492c-.114.107-.149.116-.336.17.148.111.271.058.336 0v-.17zM27.74 13.492c-.17.258-.48.298-.085.424.115-.403.152-.337.084-.424zM32.53 57.777c1.402-.031 1.312.668 2.1.931.564.188.678-.361 1.177-.254 1.063.229 3.597 1.656 3.026 2.964-1.281.169-2.205.185-3.11-.593-.258-.223-.137-.516-.504-.677l-1.008.762c-.36.013-.957.063-1.176-.085-.462-.153-1.626-1.655-1.43-2.117.164-.653.513-.567.924-.931z" clip-rule="evenodd"/>
    <path fill="#000" fill-rule="evenodd" d="M37.404 56.676c-.13.21-.25.214-.168.423.111.341.222.347.672.339.216.097.114.163.588.17-.315-.407-.734-.671-1.092-.932zM35.891 56.422c-.102.209-.148.13-.252.338.442.195 1.091.37 1.429.424-.306-.382-.856-.696-1.177-.762zM34.8 56.084c-.043.27-.074.247-.17.423l.841.169c-.355-.278-.344-.467-.672-.592zM33.286 55.914c.179.247.66.37 1.008.424-.319-.334-.362-.437-1.008-.424zM41.606 55.406c-.084.988-.807 1.267-1.176 1.948l-.42-.085c-.025.197-.039.21-.085.339-.306-.093-.539-.083-1.009-.085.154.217.118.16.168.423.495-.014.668-.046 1.093 0 .148-.181.446-.17.588-.338.293-.345 1.11-1.699 1.177-2.202h-.336zM31.27 55.406c.29.242.367.318.756.339-.281-.076-.451-.275-.757-.339zM29.756 54.813v.339c.23.145.21.214.589.254-.372-.306-.255-.456-.589-.593zM37.572 53.543c.132.36.043.308.168.254l-.168-.254zM31.101 53.374l.336.254c-.16-.198-.073-.193-.336-.254zM30.765 53.12c-.113.16-.108.074-.169.338.306-.063.27.003.337-.084l-.168-.254zM32.53 51.934c-.148.22-.311.257-.505.424.174.063.164.05.336.084.073-.055.264-.113.336-.17-.108-.377.037-.226-.168-.338zM41.775 52.527c.452-.395.347-1.307.336-1.778l-.253.593c-.146.223-.094.82-.083 1.185z" clip-rule="evenodd"/>
    <path fill="#fff" fill-rule="evenodd" d="M30.314 31.222c0 .274.22.496.493.496a.495.495 0 00.493-.496.495.495 0 00-.493-.497.495.495 0 00-.493.497zm9.948 21.644c.02.202-.163.341-.175.74-.2-.037-.161.038-.33-.063l.135.222c-.07.054-.164.097-.375.122-.207-.36-.4-.292-.84-.254-.621.257-.625.341-1.092.423l-.084-.423c-.243.219-.43.364-.757.423-.065-.196-.16-.41-.336-.508-.136.196-.123.2-.42.254-.136-.196-.123-.2-.42-.254-.287.257-.387-.076-.84-.17-.125.193-.177.255-.421.34-.126-.217-.065-.24-.252-.34-.236.128-1.95-.57-2.858-.592.598.547 1.327.785 1.85 1.1.087-.007.395-.192.588-.084 1.68.941 4.064 1.298 6.471 1.27.264-.41.499-.814.588-1.44l-.12-.039c.111-2.397.32-4.682.781-6.74.286-1.277-.137-2.677.168-3.98.157-.67.413-1.53.589-2.117.183-.611-.129-1.294-.084-1.778h-.422c.085-.287.09-.283.169-.508-.562.41-.759-.087-1.093-.084-.28.001-1.2.229-1.513.338-.367.349-1.09.253-1.597.085-.023.302-.009.282-.168.423-.22.156-.753.264-1.008.339.358-.745.332-1.484.672-2.033.256-.412.676-.485.756-1.1-1.212.295-2.5.066-3.446.762-.344.253-.27.64-.504 1.016-.08-.205-.082-.362-.084-.593.093-.117.125-.243.168-.423.299-.163.99-.537 1.26-.762l-1.008.17c-.422.3-1.03 1.23-1.77.999-.675-.163-1.631-1.263-1.887-1.063.204.31 1.733 1.308 1.808 1.588-.602-.542-1.448-1.238-2.185-1.355-.05.146-.075.267-.084.508.512.803.45 1.607 1.344 2.032-.32.008-1.172-.551-1.26-.593.002.33.041.381-.169.508l-.504-.423c.166.44.219.784.252 1.1-.754-.616-.41-1.042-.756-1.608-.402-.347-.789-.434-1.01-.762-.28-.418-.17-.849-.42-1.355-.148-.302-.53-.377-.672-.762.313.403.518.315.925.254.13-1.541 1.406-2.226.924-3.895-.183-.635-1.544-2.62-1.428-3.472.071-.53.514-.956.672-1.354v-.762c.094-.343.187-.76.336-1.186.26-.744.81-1.637 1.26-2.286.634-.913 1.51-1.832 2.438-2.455.437-.294 1.436-.64 1.68-1.1.124-.233.034-.42.169-.594.04.607-.115.925.168 1.44-.29-.212-.217-.183-.505-.254-.27.428-.737.706-1.008 1.1-.567.824-.996 1.782-1.43 2.71-1.177.13-2.386 1.1-2.52 2.286.809-.544 1.166-1.462 2.016-1.694-.384.389-.643.408-.672 1.017-.218.323.045.688.168.931.288-.155.675-.18 1.177-.17-1.83.139-3.618 1.745-3.026 3.811.15.522.522.948.672 1.524.088-2.415 1.269-2.08 3.362-1.863.18.288.257.397.252.931-.376.507-.562 2.283-1.008 2.54-.339.271-.804.193-1.26.17a3.276 3.276 0 00-1.01-.847c.453.918-.048.979.925 1.44-.341.185-.957-.252-1.008-.17-.088.219.137.339 0 .424-.083.067-.231.122-.336.17.169.789-.642 1.782-.252 2.793.242.147.585.367.756.593.264-.198.385-.318.588-.423-.044-1.181.177-2.752 1.26-2.794.133.222.204.35.506.423-.06-.34-.155-.31-.252-.593.338-.001.334.082.588.17a1.329 1.329 0 01-.252-.932c.363-.003.242.185.336-.17-.457-.67.716-2.63.924-3.302l.084.423c.382-.01.788.009 1.009.17.686.227 1.268 2.08.925 2.879-.08.183-.312.458-.42.677.349-.194.503-.29.84-.339-.126.307-.13.34-.168.593.55-.504 1.19-.051 1.68.085.312.627.697 1.73 1.261 2.117.529.362 1.278.266 1.933.508.577.213 2.603 1.203 2.857 1.608.372.593 1.331 2.245 1.009 3.218-.056.169-.28.44-.336.678-.08.337.228.424.168.592l-.168.508c-.056.154-.352.416-.42.593-.158.407-.228.858-.336 1.185-.306.923-.35 2.32-.589 3.218-.323 1.22.175 3.082-.083 4.149-.138.565.184 1.44-.085 1.863.008-.457-.015-.931-.084-1.27-.304.457-.337 1.037-.336 1.608.295-.069.227-.119.42-.254v.593c-.174.248-.04.479-.168.846-.2.58-.81 1.67-1.345 1.948-.5.26-1.803.277-2.437.084-1.81-.549-3.468-1.307-5.547-1.778-.902-.204-3.028-.326-3.362-.931-.377-.44-.073-1.336.169-1.694.37-.549.932-.87 1.176-1.609l.085-1.355c.506-2.27-.09-5.044-.085-7.197.41.407.228.845.337 1.355.273 1.281.34 3.2.252 4.234.38-.771.496-1.247.756-1.779l.084 1.186c.336.543.027 1.352.252 2.201.079.296.256.78.337 1.101.169-1.148 1.142-3.242 1.596-4.064l.084 2.117c.31.488.096 2.021.084 2.71l-.587.338.504.084c.16-.594.599-2.64 1.008-2.963.306.24.923 2.307.673 2.963-.069.18-.246.192-.336.424h.336c.273-1.118.448-2.888.756-4.065.751.953.346 2.572.757 3.81.294-.44.062-1.124.168-1.608.24-1.1.257-2.475.672-3.387.33.382.492.8.588 1.186v.677c.348.213 1.246 2.645 1.262 2.797z" clip-rule="evenodd"/>
    <path fill="#fff" fill-rule="evenodd" d="M45.606 28.234c.183.461.335.94.454 1.43l.168-.338c-.235-.3-.436-.678-.622-1.092zM61.61 24.33v1.779l.168-1.61c.021.519.077 1.292.084 1.864-.147.217-.034.259-.084.423-.44.722.205 1.477 0 2.117-.075.233-.263.73-.337 1.016l-.335-.085c.176.227.29.291.336.678-.206.221-.122.34-.505.423.154-.302.117-.244.168-.508-.401.394-.829 1.126-.924 1.608-.68.01-1.095.88-1.513 1.27.273.24.128.128.252.34-.243.07-.216.117-.504.168.154-.217.117-.159.168-.423-.745-.068-1.446.623-2.101.762-.109-.215-.093-.243-.336-.339-.29.224-1.171.32-1.597.34-.103-.344-.248-.477-.672-.51-.315-.184-.529.111-.925.17-.39-.527-.611-.267-1.093-.592l-.504-.847c-.235.217-.192.251-.42.338v-.762c.246-.272.385-.992.42-1.44-.526.011-.739.048-1.176 0l-1.261 1.186c.544-.71.752-1.439 1.68-1.609-.828-.086-1.726.775-2.773.254-.39-.193-.624-.658-1.008-.846v.423c.506.568.193 1.47.42 2.371.286 1.134-.118 2.504-.42 3.641l-.084-.762c.398-.35.172-1.094.168-1.693-.01-1.33.212-3.501-.84-3.641.065.592.263.652.252 1.27-.214.543-.023.992.084 1.44.305 1.282-.17 3.037-.672 3.64-.273.327-.788.458-1.177.678-.45.254-1.5.647-2.354.423-.792-.207-1.612-.719-2.353-.93.36-.256 1.578-.353 1.934-.424-.558.052-1.555-.045-1.85-.339.96.024 1.614-.057 2.186-.339l.084-.423c-.59.36-1.225.434-2.017.423 1.63-.371 3.566-1.83 3.278-3.471-.12-.686.468-1.358.252-2.117-.227-.794-1.502-2.681-2.353-2.794-.163.266-.549-.09-1.01.084-1.333.507-2.388 1.375-4.201 1.016-.116-.36-.285-.39-.337-.846-.2-.36.226-.904.337-1.27l-.84.169c.586-.324 1.484-.48 1.848-.762.179-.14.121-.39.252-.593.131-.203 1.249-.737 1.513-.847 1.145-.475 2.454 0 3.194.339 1.427.655 2.548 1.975 3.282 3.573-.32-.78-.618-1.611-1.013-2.218-.237-.365-1.495-1.713-1.513-1.778-.54-.095-.762-.436-1.345-.508-.07.072-1.023-.223-1.513-.17-.837.091-1.492.556-2.353.677 1.705-1.123 2.756-2.901 4.286-4.064l-.504-.085c-.184.108-.243-.078-.42 0l-.757.593-.504-.085c-.072.029-.198.325-.588.424-.344.087-.524-.144-.672-.17-.172-.03-.435.218-.589.254l-.924-.084c-.25.103-.618.407-.925.508-.14-.158-.366-.18-.504-.339h.841c.029-.474.257-.812.167-1.1-.01-.034-.23-.268-.252-.34l.085-1.693c-.034-.088-.214-.193-.252-.338.093-.466-.149-.682-.253-.847-.23-.365-.28-.883-.42-1.1-.394-.341-1.127-.591-1.428-1.017.195-.016.237-.016.336-.084-.328-.014-.3.033-.588.084.063-.26.05-.25.084-.423-.563.104-.844.072-1.43-.085-.42-.162-.539 0-1.176 0 .06-.209.062-.213 0-.423l-.252.339c-.415.193-.673.394-1.26.423v.34c-.259.075-.25.133-.589.168.272-.24.129-.127.252-.338-.346.092-.373.07-.42.338 0 0 .328.017.168.085-.235.345-.394.406-.672.508-.326.148-.402.064-.505.339.018.362-.048.538-.252.677.077-.333.112-.402.168-.508-.332.247-.443.313-.84.338-.09-.246-.028-.53-.252-.677-.22.486-.075 1.151-.42 1.355v-.762c.425-.508.459-1.514.756-2.117.764-1.549 2.079-3.12 3.614-3.895.577-.292 3.85-.909 4.622-.677.53.16 1.193.493 1.681.677.65.247 1.155.318 1.681.677 2.056 1.405 3.875 4.9 3.866 8.383.31.197.511.265 1.092.254.316.248.78.25 1.177.424.835.364 1.633.994 2.353 1.523 2.3 1.692 3.718 5.88 4.538 9.145.612.209 1.669.485 2.353.677 1.098.31 2.315-.191 2.942-.423.585-.217 1.057-.193 1.513-.509.326-.225.362-.591.588-.931.33-.493.808-1.05 1.093-1.609.516-1.014.446-2.977.42-3.98.272.39.258.922.252 1.355.228-.25.322-.387.42-.593h.253v.001zM44.128 42.112l.167.339c-.136.106-.168.178-.252.338-.025-.373.005-.493.085-.677zM47.658 41.943c-.031.285-.163.444-.42.508l.42-.508zM45.22 41.012c-.057.378-.242.591-.504.761.189-.312.376-.56.504-.761zM45.472 40.25c.139.198.075.56 0 .762v-.763zM49.086 39.91c.204.4-.52 1.119-.672 1.525.164-.443.451-1.084.672-1.525zM45.388 38.048c.117.16.114.517 0 .677v-.677zM53.204 37.963h1.43l-1.43.17v-.17zM55.39 37.879c.275-.01.603-.02.756.084-.381.022-.75.166-1.009 0l.252-.084zM50.263 37.285c.502.063 1.23.3 1.68.509-.47-.111-1.26-.17-1.596-.254l-.084-.255zM49.842 37.032c.158.07.224.117.42.169-.315.116-.249.153-.335.084l-.085-.253z" clip-rule="evenodd"/>
    <path fill="#fff" fill-rule="evenodd" d="M46.397 36.608c.094.168.05.153 0 .339-.06-.197-.046-.21 0-.339zM59.255 36.355a1.426 1.426 0 01-.354.318c-.563.454-1.56 1.12-1.83.952.493-.447 1.289-.596 1.83-.952.165-.133.293-.248.354-.319zM49.339 36.355c.2.09.23.166.336.338-.305-.199-.263-.139-.336-.338zM48.834 35.423c.272.13.45.502.504.846-.228-.377-.398-.518-.504-.846zM60.852 34.83c-.234.404-.384.736-.672.931.288-.356.497-.63.672-.931zM53.96 34.83c.293-.01.676-.028.841.085-.292.01-.675.028-.84-.085zM55.473 34.746c.15.032.44.005.673.084-.445.108-.661.153-.673-.084zM52.7 34.576h.336c-.312.269-.326.26-.336 0zM56.902 34.491c.196.017.238.016.337.085-.196-.017-.238-.017-.337-.085zM51.271 34.491c.213.007.313.01.42.085-.213-.006-.312-.01-.42-.085zM18.158 38.895c.16.336.16.89.589 1.1.204.125.424.025.756 0 .286-.387.635-.339.672-1.016-.503-.038-.114-.219-.672-.338-.101.353-.46.612-.84.677-.06-.173-.084-.395-.084-.677.398-.26.722-.933.84-1.44-.336-.157-.478-.645-.504-1.1.412-.362.111-.535.336-1.017.125-.268.614-.58.827-.83-.38.46-.85 1.357-.91 2.185.53.555 1.403 1.525 1.428 2.54-.499.656-.578 1.281-1.765 1.27-.885.575-1.808-.893-1.765-1.862.151.837.587 1.409 1.26 1.523a9.207 9.207 0 01-.335-.677c-.19-.124-.182-.207-.42-.339.383-.014.325-.05.587 0zM21.1 33.56c1.842.038 3.01.2 4.37.847-.594-.215-1.967-.553-2.521-.678-.945-.213-1.952.496-2.437.254.277-.28.404-.244.588-.423zM62.449 31.782c.172.257-.008.584-.168.762l.168-.762zM25.89 31.358h.337l.168.339c-.344-.114-.75-.177-.925-.254.22-.268.286-.29.42-.34v.255z" clip-rule="evenodd"/>
    <path fill="#fff" fill-rule="evenodd" d="M25.386 31.02c-.192.358-.19.393-.504.423-.12-.046-.554-.136-.84-.17.023-.197.037-.209.083-.338-.42.359-.807.361-1.345.339-.083-.353.036-.244-.252-.34l-.167.509c-.294.056-.518.26-.673.17-.256-.193.049-.178-.336-.255-.031.284-.073.223 0 .423-.235.156-.238.27-.588.34.052-.277.084-.348.168-.509-.39.357-.567.464-.672.762.017.325.014.44-.336.508-.245-.005-.28.064-.336.17.26-.036.2-.06.42 0-.178.47-.246.534-.588.593-.013.582-.52 1.823-.925 2.032-.554-.707-.19-3.306.084-3.896 1.16-2.505 3.29-4.108 7.144-3.302-.513.428-.827 1.306-1.008 1.863-.094.286.105.401 0 .508.07.244.353.205.671.17zM62.785 27.718c.62.606.141 2.541-.065 3.315.188-.771.074-2.539.065-3.315zM25.975 23.23h.756c-.226.18-.496.174-.756.17v-.17zM27.74 22.383c-.112.545-.424.78-.925.847.375-.247.742-.565.924-.847zM27.067 19.758h.336c.326.4 1.235 1.306.672 2.032-.113-.263.024-.601-.084-.846l-.505-.762-.504-.17.085-.254zM25.554 19.588c.229 0 .386.004.504.085-.344.07-.466.208-.504.593.316-.08.925.12 1.513.085l.42.508c.007.612.009.737-.084 1.185-.29.16-.342.25-.84.254-.432-.326-.225.156-.673.085-.101-.156-.212-.213-.588-.254-.129.209-.192.192-.252.508.194.137.197.124.252.424-1.55-.98-.354-2.706.252-3.473zM60.432 19.928l.084.677c-.254-.268-.38-.373-.588-.509-.063.453-.148.354 0 .678h-.336c-.126-.214-.127-.268-.42-.339-.055.16-.08.331-.085.593.212.148.222.156.252.508-.494-.604-.666-1.06-.672-1.862.762-.826.68-1.436 2.353-1.44.237.224.575.309.84.508.28.21.425.601.673.846v1.102c-.122.08-.183.302-.252.169.104-.336.087-.644 0-.763-.416.01-.991-.165-1.85-.168zM32.782 15.186c1.136.28 1.483 1.853 1.176 3.302-.059-1.168-.212-2.088-.672-2.794-.136-.21-.378-.253-.504-.508zM31.27 14.847c.491.015 1.14.095 1.428.339l-2.27.085c-.33.127-.635.355-1.092.423.185-.197 1.798-.75 1.933-.847z" clip-rule="evenodd"/>
    <g>
      <path fill="#000" stroke="#777" d="M187.5.5h109v71h-109z"/>
      <path fill="#fff" d="M223.21 33l-4.38-6.56a.993.993 0 00-.83-.42c-.32 0-.64.14-.83.43L212.79 33H208c-.55 0-1 .45-1 1 0 .09.01.18.04.27l2.54 9.27c.23.84 1 1.46 1.92 1.46h13c.92 0 1.69-.62 1.93-1.46l2.54-9.27.03-.27c0-.55-.45-1-1-1h-4.79zM215 33l3-4.4 3 4.4h-6zm3 8c-1.1 0-2-.9-2-2s.9-2 2-2 2 .9 2 2-.9 2-2 2z"/>
      <rect width="35" height="31" x="243" y="21" stroke="#444" stroke-width="2" rx="2"/>
      <path fill="#fff" d="M260.015 45.198c-1.466 0-2.574-.477-3.322-1.43-.733-.953-1.1-2.23-1.1-3.828v-7.678c0-1.628.36-2.904 1.078-3.828.734-.939 1.848-1.408 3.344-1.408 1.482 0 2.582.47 3.3 1.408.734.924 1.1 2.2 1.1 3.828v7.678c0 1.613-.366 2.897-1.1 3.85-.733.939-1.833 1.408-3.3 1.408zm0-1.936c1.35 0 2.024-1.1 2.024-3.3V32.24c0-1.012-.146-1.811-.44-2.398-.278-.601-.806-.902-1.584-.902-.777 0-1.312.3-1.606.902-.293.587-.44 1.386-.44 2.398v7.722c0 2.2.682 3.3 2.046 3.3z"/>
    </g>
    <g>
      <path fill="#000" stroke="#777" d="M78.5.5h109v71h-109z"/>
      <rect width="35" height="31" x="134" y="21" stroke="#444" stroke-width="2" rx="2"/>
      <path fill="#fff" d="M151.015 45.198c-1.466 0-2.574-.477-3.322-1.43-.733-.953-1.1-2.23-1.1-3.828v-7.678c0-1.628.36-2.904 1.078-3.828.734-.939 1.848-1.408 3.344-1.408 1.482 0 2.582.47 3.3 1.408.734.924 1.1 2.2 1.1 3.828v7.678c0 1.613-.366 2.897-1.1 3.85-.733.939-1.833 1.408-3.3 1.408zm0-1.936c1.35 0 2.024-1.1 2.024-3.3V32.24c0-1.012-.146-1.811-.44-2.398-.278-.601-.806-.902-1.584-.902-.777 0-1.312.3-1.606.902-.293.587-.44 1.386-.44 2.398v7.722c0 2.2.682 3.3 2.046 3.3z"/>
    </g>
    <g>
      <path fill="#fff" d="M192.211 390.742a3.191 3.191 0 003.192 3.188 3.191 3.191 0 003.194-3.188 3.19 3.19 0 00-3.194-3.187 3.187 3.187 0 00-3.192 3.187zm-13.075-.558c0-9.109 7.397-16.495 16.524-16.495s16.525 7.386 16.525 16.495c0 9.11-7.398 16.496-16.525 16.496-9.127 0-16.524-7.386-16.524-16.496z"/>
      <path fill="#fff" fill-rule="evenodd" d="M171.234 449.301c.614.665.638.827.822 2.045-.74-.893-.729-1.098-.822-2.045zM167.547 446.436c.883 1.14 1.258 4.906 0 6.544.129-1.163-.433-4.032 0-6.544zM161.401 446.436c1.267 1.505 1.703 3.239 2.458 5.317-1.793-1.678-2.678-4.195-2.458-5.317zM176.971 439.074c1.777 2.73-1.444 12.766-2.049 15.135-1.187-.896-1.173-.591-1.639-1.229 3.648-1.44 2.431-10.081 3.688-13.906zM182.705 434.984h2.46c.241.918.306 1.087.82 1.636-.971 5.642-.31 19.103-4.507 21.268.016-8.398-3.058-14.253-1.637-21.677 1.466-.142 2.152-.365 2.864-1.227zM194.179 433.348h3.276c.461.856.588.751.822 2.045-3.375 3.708-4.93 13.253-6.146 19.223-4.074-4.005-5.323-11.73-5.327-18.816 1.763-.914 5.782-1.383 7.375-2.452zM149.521 431.714c3.523 1.103 2.669 4.248 4.507 6.953l3.278 2.454c2.29 3.594 2.502 9.816 2.458 15.542-.621.218-.694.276-1.637.409-3.007-6.791-10.154-16.207-8.606-25.358zM161.401 430.076l12.292.409c-1.934 1.433-11.005.782-12.292-.409zM242.116 429.667c.457.811.242.74 0 1.636-.29-.952-.226-1.01 0-1.636zM176.151 429.667c1.266-.038 2.593-.056 3.278.409l-3.278.409v-.818zM93.8 430.485c1.384-2.017 2.502-2.27 3.277-3.272 1.273.642 1.603.02 2.05 1.636-2.239.435-3.322 1.327-5.327 1.636zM183.117 410.444c-1.055 1.282-3.265 1.436-4.098 2.863 2.125-.009 2.71.393 4.098.818.981-1.548 1.762-2.399 0-3.681zM277.76 405.537h1.639c-1.575.977-1.553.959-1.639 0zM163.042 375.271c.359.531.366 1.011.409 2.045l-.409-2.045zM165.089 368.729c.154 1.329-.002 1.678-.41 2.454l-.41-2.045.82-.409zM172.873 363.821c-.295 1.061-.122 1.361-1.64 1.636 1.287-1.045.999-.905 1.64-1.636zM165.908 359.32h2.458c-.939.769-1.418.776-2.458.82v-.82zM155.257 354.821c1.189-.024 2.24-.018 2.868.411-1.189.024-2.242.018-2.868-.411zM151.16 354.821c1.036.033 1.522.049 2.048.411-1.038-.029-1.524-.049-2.048-.411zM183.526 352.367c.033 1.054-.799 1.314-1.637.818l1.637-.818zM123.298 342.553c-.084.836-.033 1.696.412 2.863 1.229-1.123 1.409-.898 2.047-1.634-1.009-.629-.931-.94-2.459-1.229zM132.724 342.144c-.405 1.24-.805 1.222-1.229 2.454.939.358 1.418.365 2.458.409.244-.703.364-1.289.41-2.454l-1.639-.409zM173.283 337.643c.954.12 1.016.186 1.639.409-1.284.186-.996.324-1.639-.409zM128.217 337.643c-.772.887-.911.493-1.231 2.045 1.284 1.187.384 3.888.821 4.908.931-.698.392-2.092.819-3.272.343-.95 1.266-1.428 1.638-2.861-1.078-.311-.978-.491-2.047-.82zM290.05 333.144c-.106 1.645-.634 2.045.82 2.865.457-1.025.885-2.232 1.229-2.865h-2.049zM304.391 331.51c-1.295.164-1.556.402-2.461.816.663.74 1.497 1.609 2.461 2.045v-2.861zM206.879 331.51c1.484 1.033 1.491 1.12 2.049 0h-2.049zM295.786 328.645c-.69 1.277-2.036 2.611-1.637 3.681 1.186-1.147 1.696-.654 2.866-1.634-.562-1.37-.768-1.08-.409-2.045h-.82v-.002zM143.375 314.332h1.637c-1.033 1.057-1.45 1.315-2.457 1.636.598-1.067.549-1.136.82-1.636zM150.34 303.699c-.555.516-.725.559-1.639.819.725.538 1.326.28 1.639 0v-.819zM137.229 303.699c-.829 1.247-2.333 1.439-.41 2.045.561-1.945.741-1.626.41-2.045zM160.582 517.601c6.836-.149 6.399 3.229 10.243 4.499 2.748.907 3.299-1.747 5.736-1.227 5.181 1.105 17.534 8 14.75 14.315-6.246.816-10.751.892-15.158-2.863-1.264-1.078-.672-2.492-2.458-3.272l-4.917 3.681c-1.752.064-4.665.304-5.734-.409-2.253-.738-7.924-7.993-6.966-10.225.798-3.156 2.497-2.739 4.504-4.499z" clip-rule="evenodd"/>
      <path fill="#000" fill-rule="evenodd" d="M184.346 512.284c-.638 1.018-1.22 1.033-.821 2.045.544 1.647 1.083 1.673 3.277 1.634 1.053.471.554.787 2.868.818-1.538-1.963-3.58-3.237-5.324-4.497zM176.971 511.057c-.499 1.009-.723.631-1.229 1.634 2.152.942 5.317 1.785 6.963 2.045-1.49-1.843-4.17-3.361-5.734-3.679zM171.646 509.423c-.208 1.302-.357 1.194-.821 2.043l4.097.818c-1.732-1.343-1.677-2.257-3.276-2.861zM164.269 508.605c.872 1.193 3.214 1.789 4.917 2.045-1.557-1.614-1.767-2.11-4.917-2.045zM204.83 506.151c-.408 4.77-3.937 6.119-5.736 9.407l-2.048-.411c-.121.955-.186 1.014-.41 1.636-1.492-.447-2.628-.396-4.919-.409.75 1.051.574.771.82 2.045 2.411-.071 3.256-.222 5.326 0 .723-.876 2.173-.825 2.868-1.636 1.428-1.663 5.409-8.202 5.736-10.634h-1.637v.002zM154.437 506.151c1.414 1.169 1.796 1.536 3.688 1.634-1.369-.363-2.198-1.327-3.688-1.634zM147.062 503.286v1.636c1.117.7 1.024 1.036 2.868 1.227-1.813-1.478-1.243-2.201-2.868-2.863zM185.165 497.151c.643 1.736.208 1.489.82 1.227l-.82-1.227zM153.618 496.335l1.639 1.227c-.781-.958-.359-.934-1.639-1.227zM151.977 495.106c-.548.778-.526.357-.819 1.636 1.488-.307 1.309.011 1.639-.409l-.82-1.227zM160.582 489.381c-.72 1.061-1.515 1.241-2.459 2.044.849.308.798.244 1.637.409.354-.265 1.288-.548 1.639-.819-.528-1.825.179-1.095-.817-1.634zM205.652 492.243c2.205-1.908 1.691-6.313 1.637-8.588l-1.229 2.863c-.714 1.081-.461 3.966-.408 5.725z" clip-rule="evenodd"/>
      <path fill="#fff" fill-rule="evenodd" d="M149.779 389.335a2.403 2.403 0 002.406 2.399 2.403 2.403 0 002.404-2.399c0-1.325-1.078-2.4-2.404-2.4a2.404 2.404 0 00-2.406 2.4zm48.498 104.546c.098.976-.796 1.647-.855 3.572-.974-.178-.783.184-1.604-.302l.656 1.071c-.344.262-.802.469-1.827.589-1.012-1.736-1.948-1.409-4.097-1.227-3.028 1.245-3.047 1.649-5.325 2.045l-.409-2.045c-1.184 1.058-2.095 1.761-3.688 2.045-.319-.945-.779-1.976-1.639-2.454-.661.947-.599.963-2.048 1.227-.662-.945-.6-.962-2.049-1.227-1.395 1.242-1.885-.365-4.097-.818-.603.929-.86 1.231-2.049 1.636-.612-1.043-.317-1.16-1.227-1.636-1.151.614-9.508-2.752-13.933-2.863 2.914 2.645 6.466 3.794 9.016 5.317.428-.038 1.928-.931 2.868-.411 8.195 4.548 19.814 6.27 31.547 6.135 1.288-1.976 2.431-3.932 2.868-6.953l-.582-.189c.537-11.577 1.557-22.615 3.804-32.556 1.395-6.167-.669-12.931.819-19.223.765-3.237 2.012-7.392 2.868-10.224.892-2.954-.624-6.255-.41-8.589h-2.054c.414-1.389.437-1.367.822-2.454-2.737 1.977-3.699-.422-5.329-.409-1.367.009-5.852 1.107-7.375 1.634-1.79 1.685-5.312 1.223-7.783.409-.114 1.461-.043 1.363-.819 2.045-1.078.754-3.673 1.276-4.917 1.636 1.746-3.596 1.623-7.168 3.276-9.816 1.247-1.991 3.298-2.345 3.688-5.317-5.911 1.427-12.188.32-16.799 3.681-1.679 1.223-1.315 3.094-2.459 4.908-.393-.987-.4-1.747-.409-2.863.453-.567.61-1.174.817-2.045 1.459-.784 4.824-2.592 6.146-3.681l-4.916.82c-2.058 1.456-5.017 5.944-8.632 4.828-3.285-.787-7.949-6.101-9.196-5.134.994 1.495 8.449 6.319 8.813 7.668-2.933-2.614-7.06-5.979-10.651-6.544-.245.705-.364 1.289-.411 2.454 2.498 3.881 2.194 7.763 6.555 9.816-1.562.038-5.714-2.662-6.145-2.863.011 1.596.202 1.839-.822 2.454l-2.458-2.045c.81 2.121 1.069 3.786 1.229 5.317-3.676-2.978-1.996-5.039-3.687-7.771-1.958-1.676-3.843-2.098-4.917-3.679-1.373-2.02-.834-4.1-2.049-6.544-.726-1.462-2.587-1.822-3.278-3.681 1.526 1.943 2.524 1.519 4.507 1.227.632-7.448 6.855-10.752 4.507-18.816-.892-3.065-7.528-12.652-6.965-16.769.35-2.559 2.508-4.62 3.278-6.542v-3.681c.457-1.656.91-3.668 1.639-5.726 1.269-3.593 3.951-7.907 6.146-11.041 3.084-4.413 7.36-8.852 11.88-11.861 2.132-1.421 7.002-3.092 8.193-5.317.601-1.119.165-2.025.821-2.863.195 2.932-.561 4.465.819 6.953-1.416-1.023-1.059-.881-2.46-1.227-1.313 2.067-3.594 3.412-4.917 5.315-2.76 3.981-4.856 8.608-6.965 13.088-5.742.629-11.638 5.317-12.292 11.043 3.946-2.626 5.689-7.06 9.832-8.18-1.872 1.876-3.134 1.967-3.278 4.908-1.062 1.56.219 3.327.82 4.499 1.404-.749 3.29-.865 5.736-.818-8.92.665-17.637 8.425-14.75 18.405.728 2.521 2.545 4.581 3.277 7.362.43-11.666 6.185-10.047 16.389-8.998.876 1.389 1.252 1.916 1.23 4.497-1.834 2.447-2.743 11.025-4.917 12.27-1.65 1.307-3.917.929-6.146.818-1.142-1.512-3.169-3.197-4.917-4.09 2.204 4.434-.236 4.726 4.509 6.953-1.666.896-4.669-1.216-4.917-.818-.428 1.054.671 1.634 0 2.045-.402.325-1.125.591-1.639.818.825 3.815-3.128 8.612-1.229 13.497 1.182.709 2.852 1.77 3.686 2.863 1.291-.958 1.879-1.536 2.87-2.045-.215-5.704.859-13.294 6.146-13.497.644 1.074.989 1.694 2.46 2.045-.29-1.64-.754-1.493-1.229-2.865 1.652-.005 1.633.396 2.868.818-1.122-1.583-1.373-3.106-1.229-4.499 1.77-.014 1.18.896 1.639-.818-2.227-3.239 3.492-12.701 4.507-15.951l.409 2.045c1.861-.051 3.839.04 4.917.82 3.344 1.096 6.181 10.047 4.507 13.904-.384.885-1.519 2.212-2.048 3.272 1.704-.936 2.456-1.398 4.097-1.636-.614 1.483-.636 1.645-.82 2.863 2.688-2.436 5.806-.249 8.195.409 1.517 3.03 3.396 8.358 6.146 10.225 2.577 1.752 6.229 1.287 9.422 2.454 2.815 1.029 12.689 5.813 13.929 7.771 1.813 2.863 6.488 10.843 4.916 15.542-.271.814-1.364 2.121-1.637 3.272-.388 1.632 1.113 2.052.82 2.863l-.82 2.454c-.271.739-1.715 2.008-2.048 2.863-.767 1.966-1.109 4.142-1.637 5.725-1.49 4.458-1.707 11.201-2.869 15.54-1.578 5.897.851 14.888-.409 20.041-.669 2.729.899 6.955-.412 8.998.037-2.205-.074-4.497-.41-6.137-1.482 2.213-1.642 5.012-1.637 7.771 1.439-.331 1.106-.572 2.047-1.227v2.863c-.847 1.2-.198 2.314-.819 4.09-.975 2.796-3.945 8.066-6.556 9.405-2.442 1.254-8.788 1.34-11.88.409-8.823-2.652-16.908-6.315-27.042-8.589-4.398-.987-14.763-1.574-16.389-4.499-1.84-2.123-.355-6.453.821-8.18 1.808-2.652 4.543-4.204 5.736-7.77l.41-6.544c2.467-10.963-.432-24.367-.41-34.765 1.994 1.967 1.109 4.081 1.639 6.544 1.333 6.188 1.661 15.458 1.229 20.45 1.85-3.723 2.419-6.022 3.688-8.589l.409 5.724c1.639 2.627.13 6.531 1.23 10.636.382 1.425 1.247 3.764 1.639 5.317.825-5.546 5.57-15.66 7.784-19.632l.41 10.225c1.512 2.356.465 9.765.41 13.088l-2.866 1.634 2.458.409c.779-2.871 2.919-12.755 4.917-14.313 1.487 1.161 4.499 11.143 3.278 14.313-.336.87-1.201.927-1.638 2.045h1.638c1.329-5.399 2.185-13.948 3.687-19.632 3.662 4.602 1.685 12.421 3.688 18.405 1.435-2.127.304-5.434.819-7.769 1.173-5.315 1.253-11.956 3.278-16.36 1.61 1.845 2.4 3.866 2.868 5.726v3.272c1.695 1.027 6.075 12.773 6.15 13.509z" clip-rule="evenodd"/>
      <path fill="#fff" fill-rule="evenodd" d="M224.332 374.906a52.074 52.074 0 012.212 6.909l.82-1.636c-1.148-1.447-2.127-3.278-3.032-5.273zm78.01-18.858v8.589l.819-7.771c.106 2.503.377 6.237.41 8.998-.714 1.049-.166 1.252-.41 2.045-2.139 3.488 1 7.135 0 10.225-.364 1.125-1.278 3.528-1.639 4.908l-1.637-.409c.862 1.096 1.419 1.407 1.637 3.272-1.003 1.07-.591 1.647-2.458 2.045.749-1.46.572-1.178.82-2.454-1.958 1.903-4.041 5.438-4.507 7.769-3.311.049-5.34 4.246-7.376 6.135 1.33 1.156.627.618 1.23 1.636-1.188.342-1.055.569-2.459.818.75-1.051.572-.769.82-2.045-3.633-.327-7.049 3.01-10.243 3.681-.529-1.042-.45-1.175-1.639-1.638-1.414 1.083-5.707 1.549-7.783 1.638-.503-1.656-1.211-2.298-3.278-2.456-1.534-.891-2.577.534-4.507.818-1.9-2.547-2.981-1.291-5.327-2.861l-2.46-4.09c-1.145 1.049-.934 1.212-2.049 1.634v-3.681c1.201-1.314 1.88-4.792 2.049-6.953-2.566.051-3.602.227-5.734 0l-6.146 5.726c2.655-3.434 3.664-6.949 8.194-7.771-4.039-.416-8.416 3.741-13.521 1.227-1.904-.936-3.044-3.179-4.916-4.088v2.045c2.469 2.739.941 7.1 2.048 11.452 1.393 5.477-.575 12.092-2.048 17.587l-.41-3.681c1.941-1.694.838-5.285.819-8.18-.045-6.422 1.035-16.911-4.097-17.587.319 2.859 1.288 3.15 1.229 6.135-1.041 2.623-.109 4.792.41 6.955 1.488 6.195-.823 14.669-3.276 17.586-1.328 1.576-3.837 2.207-5.736 3.272-2.189 1.226-7.31 3.127-11.473 2.045-3.862-1.001-7.859-3.473-11.472-4.499 1.75-1.234 7.692-1.703 9.426-2.045-2.721.251-7.579-.218-9.014-1.636 4.674.115 7.863-.274 10.653-1.636l.409-2.044c-2.877 1.735-5.971 2.095-9.831 2.044 7.948-1.795 17.381-8.843 15.977-16.768-.586-3.31 2.284-6.561 1.229-10.225-1.103-3.834-7.322-12.95-11.472-13.497-.79 1.287-2.673-.436-4.917.409-6.501 2.448-11.645 6.64-20.486 4.908-.563-1.738-1.386-1.883-1.639-4.09-.972-1.738 1.102-4.366 1.639-6.137l-4.097.82c2.862-1.565 7.238-2.314 9.014-3.681.872-.671.59-1.885 1.229-2.863.639-.981 6.087-3.561 7.373-4.09 5.581-2.296 11.966-.002 15.57 1.636 6.96 3.167 12.423 9.54 16.001 17.26-1.562-3.77-3.014-7.784-4.939-10.716-1.156-1.761-7.289-8.271-7.375-8.589-2.635-.456-3.716-2.105-6.555-2.454-.341.351-4.99-1.076-7.375-.82-4.085.442-7.274 2.687-11.471 3.272 8.307-5.426 13.434-14.013 20.894-19.63l-2.458-.41c-.9.523-1.184-.377-2.049 0l-3.687 2.864-2.459-.41c-.349.138-.967 1.566-2.87 2.045-1.675.421-2.553-.693-3.276-.818-.834-.142-2.119 1.05-2.868 1.227l-4.507-.409c-1.22.499-3.012 1.966-4.507 2.453-.683-.761-1.782-.867-2.458-1.634h4.099c.14-2.288 1.255-3.922.818-5.318-.051-.162-1.124-1.291-1.229-1.635l.411-8.179c-.164-.428-1.04-.935-1.229-1.635.455-2.252-.723-3.295-1.229-4.09-1.124-1.765-1.364-4.268-2.049-5.315-1.921-1.647-5.496-2.855-6.963-4.909.952-.08 1.156-.079 1.637-.409-1.599-.068-1.464.159-2.867.409.308-1.257.244-1.206.41-2.045-2.742.501-4.114.347-6.965-.409-2.054-.786-2.632-.004-5.736 0 .287-1.011.298-1.033 0-2.045l-1.23 1.637c-2.021.933-3.281 1.902-6.146 2.045v1.636c-1.258.366-1.212.647-2.868.818 1.328-1.158.627-.618 1.229-1.636-1.689.448-1.817.342-2.048 1.636 0 0 1.601.08.819.409-1.143 1.664-1.919 1.96-3.278 2.454-1.589.713-1.957.309-2.458 1.636.088 1.751-.235 2.598-1.229 3.272.375-1.608.546-1.945.819-2.456-1.62 1.195-2.159 1.511-4.097 1.636-.437-1.192-.136-2.563-1.229-3.272-1.073 2.347-.364 5.559-2.049 6.544v-3.681c2.073-2.454 2.238-7.311 3.688-10.224 3.724-7.482 10.134-15.068 17.616-18.812 2.817-1.413 18.773-4.392 22.535-3.272 2.586.769 5.817 2.379 8.195 3.272 3.172 1.19 5.632 1.536 8.194 3.27 10.023 6.785 18.89 23.671 18.846 40.49 1.515.949 2.495 1.278 5.327 1.227 1.538 1.198 3.798 1.209 5.736 2.045 4.072 1.758 7.963 4.805 11.472 7.36 11.21 8.173 18.125 28.403 22.124 44.17 2.981 1.009 8.132 2.343 11.47 3.272 5.35 1.492 11.285-.925 14.341-2.045 2.851-1.047 5.153-.933 7.375-2.456 1.591-1.089 1.764-2.857 2.868-4.499 1.604-2.383 3.939-5.071 5.326-7.771 2.519-4.9 2.176-14.378 2.049-19.222 1.326 1.885 1.256 4.451 1.227 6.543 1.113-1.212 1.57-1.872 2.049-2.863h1.231v.004zM217.122 441.937l.818 1.636c-.665.514-.821.86-1.229 1.636-.124-1.805.025-2.383.411-3.272zM234.331 441.121c-.151 1.378-.794 2.143-2.049 2.454l2.049-2.454zM222.449 436.622c-.281 1.827-1.182 2.857-2.459 3.679.922-1.509 1.832-2.708 2.459-3.679zM223.678 432.941c.675.958.364 2.707 0 3.681v-3.681zM241.296 431.303c.994 1.934-2.54 5.403-3.278 7.362.8-2.138 2.2-5.235 3.278-7.362zM223.268 422.305c.566.773.552 2.502 0 3.272v-3.272zM261.371 421.896h6.965l-6.965.82v-.82zM272.024 421.489c1.342-.047 2.944-.098 3.686.409-1.856.104-3.659.798-4.917 0l1.231-.409zM247.03 418.624c2.448.304 5.997 1.447 8.195 2.454-2.298-.536-6.15-.823-7.785-1.227l-.41-1.227zM244.982 417.397c.766.342 1.091.566 2.048.818-1.536.56-1.216.738-1.637.409l-.411-1.227z" clip-rule="evenodd"/>
      <path fill="#fff" fill-rule="evenodd" d="M228.183 415.354c.459.811.246.738 0 1.634-.288-.952-.224-1.012 0-1.634zM290.87 414.127c-.467.604-1.057 1.102-1.725 1.538-2.746 2.196-7.605 5.406-8.928 4.597 2.409-2.156 6.288-2.877 8.928-4.597.801-.64 1.424-1.196 1.725-1.538zM242.525 414.127c.98.44 1.12.802 1.639 1.636-1.486-.961-1.28-.671-1.639-1.636zM240.065 409.626c1.329.633 2.194 2.427 2.458 4.09-1.11-1.823-1.941-2.503-2.458-4.09zM298.654 406.764c-1.143 1.95-1.873 3.555-3.276 4.498 1.404-1.721 2.422-3.046 3.276-4.498zM265.058 406.764c1.425-.053 3.293-.137 4.098.41-1.424.053-3.293.137-4.098-.41zM272.432 406.356c.728.158 2.143.028 3.278.409-2.169.52-3.222.738-3.278-.409zM258.914 405.537h1.637c-1.524 1.297-1.591 1.256-1.637 0zM279.399 405.128c.954.079 1.158.078 1.639.409-.954-.08-1.158-.08-1.639-.409zM251.947 405.128c1.038.03 1.524.049 2.049.409-1.038-.03-1.523-.05-2.049-.409zM90.522 426.397c.781 1.627.774 4.297 2.87 5.317.994.604 2.065.118 3.687 0 1.392-1.872 3.092-1.638 3.276-4.91-2.455-.183-.559-1.056-3.276-1.634-.495 1.705-2.247 2.958-4.097 3.272-.293-.838-.408-1.91-.41-3.272 1.94-1.252 3.519-4.506 4.097-6.953-1.638-.758-2.33-3.115-2.458-5.317 2.009-1.745.541-2.583 1.637-4.908.612-1.294 2.994-2.803 4.032-4.01-1.854 2.225-4.14 6.552-4.44 10.554 2.586 2.681 6.846 7.368 6.966 12.27-2.433 3.168-2.82 6.186-8.605 6.135-4.314 2.774-8.813-4.314-8.604-8.998.736 4.043 2.861 6.806 6.146 7.36a44.29 44.29 0 01-1.637-3.272c-.93-.598-.885-1.001-2.049-1.636 1.869-.069 1.588-.247 2.865.002zM104.862 400.629c8.982.183 14.672.97 21.306 4.09-2.897-1.037-9.589-2.669-12.292-3.272-4.605-1.029-9.516 2.395-11.882 1.227 1.353-1.353 1.974-1.18 2.868-2.045zM306.437 392.04c.838 1.245-.036 2.823-.817 3.681l.817-3.681zM128.217 389.995h1.639l.819 1.636c-1.675-.553-3.655-.853-4.507-1.227 1.069-1.293 1.391-1.404 2.049-1.638v1.229z" clip-rule="evenodd"/>
      <path fill="#fff" fill-rule="evenodd" d="M125.757 388.359c-.935 1.728-.922 1.897-2.459 2.045-.584-.224-2.697-.658-4.097-.818.118-.953.184-1.013.41-1.636-2.045 1.734-3.934 1.745-6.556 1.636-.406-1.705.175-1.175-1.229-1.636l-.818 2.454c-1.431.271-2.522 1.259-3.278.818-1.249-.929.235-.855-1.639-1.229-.153 1.37-.358 1.08 0 2.045-1.143.752-1.158 1.303-2.868 1.638.255-1.333.412-1.678.82-2.454-1.901 1.721-2.764 2.241-3.278 3.681.087 1.568.073 2.121-1.637 2.454-1.193-.028-1.366.309-1.637.818 1.27-.173.976-.291 2.047 0-.865 2.274-1.197 2.579-2.867 2.863-.062 2.812-2.535 8.808-4.507 9.815-2.702-3.413-.923-15.965.41-18.815 5.654-12.101 16.038-19.843 34.825-15.951-2.502 2.067-4.032 6.306-4.915 8.998-.455 1.381.512 1.938 0 2.454.343 1.18 1.725.989 3.273.82zM308.078 372.41c3.017 2.928.687 12.275-.319 16.014.916-3.726.363-12.264.319-16.014zM128.626 350.733h3.686c-1.1.874-2.414.843-3.686.818v-.818zM137.229 346.641c-.543 2.634-2.061 3.767-4.505 4.092 1.828-1.194 3.614-2.73 4.505-4.092zM133.951 333.964h1.637c1.59 1.927 6.024 6.308 3.278 9.816-.552-1.272.115-2.905-.41-4.09l-2.46-3.681-2.458-.818.413-1.227zM126.576 333.144c1.114-.001 1.883.017 2.458.411-1.679.333-2.272 1-2.458 2.861 1.541-.381 4.511.577 7.375.409l2.047 2.454c.033 2.96.044 3.561-.41 5.726-1.409.769-1.666 1.204-4.095 1.227-2.104-1.576-1.095.753-3.278.409-.495-.752-1.034-1.027-2.868-1.227-.628 1.009-.938.931-1.229 2.456.948.66.963.596 1.229 2.045-7.554-4.73-1.723-13.068 1.229-16.771zM296.606 334.782l.409 3.27c-1.236-1.294-1.855-1.797-2.866-2.454-.309 2.185-.721 1.705 0 3.272h-1.641c-.611-1.034-.617-1.292-2.048-1.636-.266.767-.39 1.6-.41 2.863 1.034.716 1.082.753 1.229 2.454-2.411-2.919-3.25-5.122-3.278-8.996 3.715-3.986 3.32-6.936 11.473-6.955 1.154 1.086 2.804 1.493 4.097 2.456 1.362 1.011 2.067 2.905 3.278 4.088v5.319c-.597.391-.894 1.462-1.229.816.508-1.623.422-3.106 0-3.681-2.031.042-4.833-.799-9.014-.816zM161.811 311.878c5.541 1.357 7.233 8.951 5.736 15.951-.288-5.644-1.036-10.086-3.278-13.497-.665-1.014-1.845-1.223-2.458-2.454zM154.437 310.242c2.399.073 5.562.46 6.964 1.636l-11.061.411c-1.617.616-3.097 1.714-5.328 2.045.905-.952 8.764-3.624 9.425-4.092z" clip-rule="evenodd"/>
    </g>
    <path fill="#000" stroke="#444" stroke-width="2" d="M114.5 39.923c-2.566 3.883-8 8.077-8 8.077s-5.039-4.487-7.5-8.077c-2.828-4.125-5-10-5-11.538v0C94 26.846 94 23 99.5 23s7 5.385 7 5.385 1.2-5.385 6-5.385 6.5 3.462 6.5 5.385c0 1.923-1.808 7.466-4.5 11.538z"/>
  </g>
  <defs>
    <clipPath id="clip0">
      <path fill="#fff" d="M0 0h373v810H0z"/>
    </clipPath>
    <clipPath id="clip1">
      <path fill="#fff" d="M0 0h318v96H0z" transform="translate(32 151)"/>
    </clipPath>
  </defs>
</svg>
