<?xml version="1.0" standalone="no"?>
<!DOCTYPE svg PUBLIC "-//W3C//DTD SVG 20010904//EN"
 "http://www.w3.org/TR/2001/REC-SVG-20010904/DTD/svg10.dtd">
<svg version="1.0" xmlns="http://www.w3.org/2000/svg"
 width="1124.000000pt" height="1124.000000pt" viewBox="0 0 1124.000000 1124.000000"
 preserveAspectRatio="xMidYMid meet">
<metadata>
Created by potrace 1.14, written by Peter Selinger 2001-2017
</metadata>
<g transform="translate(0.000000,1124.000000) scale(0.100000,-0.100000)"
fill="#000000" stroke="none">
<path d="M5260 11229 c-269 -28 -747 -140 -1085 -253 -1132 -382 -1917 -1091
-2210 -1996 -87 -272 -120 -481 -120 -780 0 -235 8 -311 52 -535 31 -157 28
-219 -19 -445 -42 -203 -45 -390 -10 -514 30 -106 80 -211 153 -324 231 -356
365 -775 494 -1539 19 -115 71 -462 115 -773 122 -855 187 -1235 275 -1605
316 -1329 865 -2065 1757 -2353 419 -136 755 -145 1121 -32 812 253 1653 1104
2392 2421 106 189 337 650 429 859 522 1176 820 2385 793 3215 -8 232 -19 336
-57 572 -231 1392 -1132 2829 -2230 3557 -246 163 -431 261 -672 355 -374 145
-808 208 -1178 170z m1020 -2609 c421 -32 788 -193 1091 -478 384 -361 583
-872 548 -1404 -49 -761 -588 -1404 -1336 -1594 -799 -203 -1656 199 -2014
945 -19 39 -37 71 -41 71 -5 0 -8 -20 -8 -44 0 -24 -7 -80 -15 -123 -83 -437
-430 -785 -865 -867 -106 -20 -313 -21 -417 -1 -345 65 -639 290 -788 602 -76
159 -121 404 -98 532 32 172 104 227 478 366 99 37 242 98 319 135 l138 69
-61 -55 c-108 -98 -164 -252 -142 -392 38 -246 275 -422 514 -382 363 62 507
502 248 761 -35 34 -83 69 -126 90 -68 33 -74 34 -190 34 -109 0 -125 -3 -180
-28 -78 -35 -44 -9 56 43 162 84 293 120 438 120 208 0 380 -85 515 -254 26
-33 50 -62 51 -64 2 -2 1 43 -2 100 -9 180 26 421 88 610 42 130 156 355 236
468 305 425 787 699 1301 739 59 4 112 9 117 10 6 0 71 -4 145 -9z"/>
<path d="M6158 7620 c-155 -18 -280 -81 -399 -200 -136 -136 -197 -270 -206
-455 -6 -130 13 -223 71 -340 113 -229 332 -372 587 -383 136 -6 229 14 350
75 161 80 287 230 346 408 36 113 39 285 4 395 -38 124 -87 206 -176 296 -156
158 -358 229 -577 204z"/>
</g>
</svg>
