<?xml version="1.0" standalone="no"?>
<!DOCTYPE svg PUBLIC "-//W3C//DTD SVG 20010904//EN"
 "http://www.w3.org/TR/2001/REC-SVG-20010904/DTD/svg10.dtd">
<svg version="1.0" xmlns="http://www.w3.org/2000/svg"
 width="984.000000pt" height="984.000000pt" viewBox="0 0 984.000000 984.000000"
 preserveAspectRatio="xMidYMid meet">
<metadata>
Created by potrace 1.14, written by Peter Selinger 2001-2017
</metadata>
<g transform="translate(0.000000,984.000000) scale(0.100000,-0.100000)"
fill="#000000" stroke="none">
<path d="M4887 9405 c-15 -8 -30 -14 -32 -14 -3 0 -26 -9 -51 -21 -26 -11 -51
-20 -55 -20 -5 0 -17 -4 -27 -10 -19 -10 -36 -18 -222 -95 -74 -31 -145 -59
-157 -62 -13 -3 -23 -9 -23 -12 0 -4 -6 -8 -12 -8 -7 0 -35 -10 -63 -23 -27
-13 -56 -23 -62 -23 -7 0 -13 -4 -13 -9 0 -4 -7 -8 -15 -8 -8 0 -38 -11 -67
-24 -115 -51 -282 -119 -295 -119 -7 0 -13 -4 -13 -9 0 -4 -7 -8 -15 -8 -8 0
-23 -4 -33 -10 -24 -13 -132 -60 -138 -60 -3 0 -20 -6 -37 -14 -47 -21 -300
-127 -312 -130 -5 -2 -28 -11 -50 -21 -22 -10 -46 -20 -52 -21 -24 -4 -73 -29
-73 -36 0 -5 -3 -7 -7 -6 -12 2 -67 -14 -78 -23 -6 -4 -35 -17 -65 -29 -30
-11 -70 -28 -87 -36 -18 -8 -50 -21 -70 -28 -21 -7 -58 -22 -83 -34 -25 -11
-70 -30 -100 -42 -30 -12 -71 -29 -90 -37 -19 -8 -44 -19 -55 -24 -11 -4 -49
-20 -85 -35 -36 -14 -78 -32 -95 -39 -16 -7 -52 -21 -78 -31 -26 -9 -50 -21
-53 -25 -3 -5 -12 -9 -19 -9 -8 0 -44 -13 -80 -30 -36 -16 -68 -30 -71 -30 -3
0 -20 -6 -37 -14 -18 -8 -97 -42 -177 -75 -189 -78 -204 -84 -210 -86 -3 -1
-16 -6 -30 -12 -39 -17 -229 -94 -240 -98 -8 -3 -83 -35 -125 -54 -22 -10 -58
-24 -80 -31 -22 -7 -42 -16 -45 -20 -3 -3 -34 -17 -70 -30 -36 -13 -76 -30
-90 -37 -14 -7 -28 -13 -33 -13 -4 0 -29 -10 -55 -21 -26 -12 -63 -28 -82 -36
-19 -8 -44 -18 -55 -23 -11 -4 -41 -17 -67 -29 -26 -12 -50 -21 -54 -21 -3 0
-30 -11 -60 -25 -30 -14 -57 -25 -60 -25 -3 0 -29 -11 -57 -23 -29 -13 -74
-32 -102 -42 -27 -11 -53 -24 -57 -29 -4 -6 -8 -7 -8 -2 0 5 -7 2 -17 -5 -9
-8 -18 -13 -20 -11 -2 1 -24 -6 -49 -18 -26 -11 -50 -20 -55 -20 -31 0 7 -21
114 -64 135 -54 178 -72 222 -92 42 -19 201 -85 325 -134 58 -23 129 -53 158
-66 29 -13 54 -24 56 -24 2 0 21 -8 42 -17 22 -9 41 -17 44 -18 5 0 191 -77
255 -105 92 -40 113 -49 180 -75 39 -15 76 -32 82 -37 7 -6 13 -8 13 -5 0 5
44 -12 157 -64 23 -10 44 -19 47 -19 2 0 25 -9 50 -20 26 -11 48 -20 51 -20 3
0 26 -10 52 -21 69 -30 97 -42 103 -44 3 -1 16 -6 30 -12 14 -6 66 -27 115
-48 50 -20 104 -43 122 -51 17 -8 33 -14 36 -14 2 0 26 -10 53 -22 27 -12 54
-23 59 -24 6 -1 30 -11 55 -22 25 -12 101 -44 170 -72 69 -28 134 -55 145 -60
60 -27 306 -127 318 -129 4 0 21 -8 37 -16 16 -8 31 -14 32 -13 2 1 17 -5 33
-14 17 -8 46 -22 66 -31 25 -11 38 -23 41 -41 3 -15 1 -29 -3 -32 -5 -3 -5
-14 1 -24 7 -13 7 -21 0 -25 -8 -5 -8 -11 -1 -19 6 -7 8 -15 5 -19 -9 -8 -11
-76 -2 -90 3 -6 2 -19 -3 -28 -5 -10 -6 -20 -1 -23 9 -5 6 -81 -3 -96 -3 -6
-1 -10 5 -10 7 0 8 -6 1 -18 -6 -11 -6 -24 0 -34 6 -10 6 -19 0 -22 -6 -4 -6
-18 -1 -36 5 -18 5 -32 -1 -35 -5 -4 -5 -14 1 -25 7 -13 7 -21 0 -25 -8 -5 -8
-11 -1 -19 6 -7 8 -16 5 -19 -9 -8 -9 -85 -1 -93 3 -4 2 -14 -3 -23 -5 -10 -5
-23 -1 -29 4 -7 5 -33 1 -58 -4 -24 -3 -47 2 -50 4 -3 4 -13 -1 -23 -5 -9 -6
-23 -2 -29 4 -7 5 -33 1 -58 -4 -24 -3 -47 2 -50 4 -3 4 -13 -1 -23 -5 -9 -6
-23 -2 -29 4 -7 5 -33 1 -58 -4 -24 -3 -47 2 -50 4 -3 4 -13 -2 -23 -5 -10 -7
-21 -3 -25 9 -9 10 -58 1 -83 -4 -14 -3 -23 3 -23 6 0 6 -6 0 -18 -6 -11 -6
-24 0 -34 6 -10 6 -19 0 -22 -6 -4 -6 -18 -1 -36 5 -18 5 -32 -1 -35 -5 -4 -5
-14 1 -25 7 -13 7 -21 0 -25 -7 -5 -8 -11 -1 -19 5 -6 7 -17 3 -23 -8 -13 -7
-81 2 -90 3 -3 1 -14 -4 -24 -6 -10 -7 -20 -2 -23 9 -5 6 -81 -3 -96 -3 -6 -1
-10 5 -10 7 0 8 -6 1 -18 -6 -11 -6 -24 0 -34 6 -10 6 -19 0 -22 -6 -4 -6 -18
-1 -36 5 -18 5 -32 -1 -35 -5 -4 -5 -14 1 -25 7 -13 7 -21 0 -25 -7 -5 -8 -11
-1 -19 5 -6 7 -17 3 -23 -8 -13 -7 -81 2 -90 3 -3 1 -14 -4 -24 -6 -10 -7 -20
-2 -23 9 -5 6 -81 -3 -96 -3 -6 -1 -10 5 -10 7 0 8 -6 1 -18 -6 -11 -6 -24 0
-34 6 -10 6 -19 0 -22 -6 -4 -6 -18 -1 -36 5 -18 5 -32 -1 -35 -5 -4 -5 -13 1
-24 6 -12 5 -22 -1 -28 -8 -8 -7 -13 0 -17 8 -5 8 -13 1 -26 -6 -12 -7 -21 0
-25 6 -4 6 -15 0 -30 -6 -16 -6 -25 1 -25 6 0 6 -6 0 -18 -6 -11 -6 -24 0 -34
6 -10 6 -19 0 -22 -6 -4 -6 -18 -1 -36 5 -18 5 -32 -1 -35 -5 -4 -5 -14 1 -25
7 -13 7 -21 0 -25 -7 -5 -8 -11 -1 -19 5 -6 7 -17 3 -23 -8 -13 -7 -81 2 -90
3 -3 1 -14 -4 -24 -6 -10 -7 -20 -2 -23 9 -5 6 -81 -3 -96 -3 -6 -1 -10 5 -10
7 0 8 -6 1 -18 -6 -11 -6 -24 0 -34 5 -10 5 -19 0 -22 -4 -3 -5 -24 -1 -46 6
-35 5 -40 -11 -40 -11 0 -27 4 -37 9 -23 13 -259 111 -266 111 -3 0 -29 11
-58 24 -29 13 -89 38 -133 55 -44 18 -93 38 -110 46 -16 8 -86 37 -155 65 -69
28 -136 56 -150 62 -14 6 -34 14 -45 18 -11 5 -40 17 -65 28 -25 10 -62 25
-82 33 -21 7 -38 17 -38 23 0 5 -3 7 -6 4 -7 -7 -169 57 -236 93 -10 5 -22 9
-28 9 -6 0 -32 10 -58 21 -79 36 -106 47 -135 58 -23 9 -27 16 -28 53 -1 24
-1 47 0 51 1 7 2 26 1 70 0 21 0 44 1 82 0 42 0 45 -3 87 -2 21 0 38 3 38 3 0
3 18 -1 39 -4 21 -3 46 2 55 6 10 5 16 -1 16 -7 0 -7 8 -1 24 5 13 6 26 4 29
-9 8 -10 70 -3 98 4 15 3 32 -1 40 -5 7 -4 21 1 31 6 12 6 18 0 18 -7 0 -7 8
-1 24 5 13 7 26 4 29 -8 8 -11 77 -3 77 4 0 4 12 0 28 -4 15 -5 38 -1 52 3 13
3 45 0 71 -3 25 -3 57 1 71 4 14 3 32 -1 39 -5 7 -5 20 -1 28 5 9 5 25 1 36
-4 11 -4 32 1 47 4 14 5 29 2 32 -7 7 -9 76 -2 76 3 0 3 18 -1 39 -4 21 -3 46
2 55 6 10 5 16 -1 16 -7 0 -7 8 -2 23 5 12 5 30 2 41 -7 19 -4 96 4 104 13 14
-22 42 -77 63 -35 12 -66 27 -69 32 -3 5 -10 9 -15 9 -9 0 -44 12 -74 25 -8 3
-17 7 -20 8 -11 4 -48 19 -100 41 -30 13 -100 41 -155 64 -55 23 -109 45 -120
50 -11 5 -49 21 -85 36 -36 14 -76 31 -90 37 -14 6 -27 11 -30 12 -3 1 -16 6
-30 12 -138 59 -250 104 -260 105 -3 0 -21 9 -40 19 -19 11 -38 19 -43 19 -4
0 -28 9 -53 20 -41 19 -92 41 -104 45 -3 1 -16 6 -30 12 -29 13 -194 80 -227
94 l-23 9 0 -1640 0 -1640 44 -20 c25 -11 48 -20 51 -20 3 0 25 -9 48 -19 23
-10 94 -40 157 -66 63 -26 134 -56 157 -66 24 -10 45 -19 48 -19 6 0 92 -37
119 -52 10 -5 26 -11 35 -13 16 -4 116 -45 201 -82 48 -21 112 -47 120 -49 3
0 23 -9 45 -18 89 -40 129 -56 145 -61 3 -1 22 -9 44 -18 21 -9 41 -17 45 -17
3 0 28 -11 55 -25 27 -14 53 -25 56 -25 4 0 29 -10 56 -22 27 -12 51 -23 54
-23 3 -1 16 -6 30 -12 14 -6 61 -25 105 -43 44 -17 98 -40 120 -50 22 -10 76
-32 120 -50 44 -17 94 -38 110 -45 17 -7 125 -52 240 -100 116 -47 228 -94
251 -105 23 -11 44 -20 47 -20 5 0 168 -67 397 -163 14 -6 27 -11 30 -12 12
-4 50 -20 108 -46 34 -15 62 -26 62 -23 0 3 12 -1 28 -10 30 -16 65 -31 162
-70 69 -28 84 -35 140 -59 19 -9 60 -25 90 -37 30 -12 69 -27 85 -35 28 -12
63 -26 75 -30 3 -1 19 -7 35 -14 40 -18 47 -21 215 -92 80 -33 150 -62 155
-63 6 -2 27 -10 47 -20 21 -9 39 -16 41 -16 3 0 26 -10 53 -22 27 -12 51 -23
54 -23 3 -1 16 -6 30 -12 14 -6 45 -19 70 -28 25 -10 49 -22 55 -27 5 -4 17
-8 27 -8 10 0 18 -5 18 -11 0 -5 4 -8 8 -5 5 3 36 -8 70 -24 34 -16 62 -27 62
-23 0 3 6 1 13 -4 6 -5 39 -20 72 -33 33 -13 64 -27 70 -32 5 -4 17 -8 27 -8
10 0 18 -4 18 -8 0 -5 6 -9 13 -9 6 0 29 -8 50 -17 l37 -16 0 332 c0 183 1
1291 3 2463 l2 2130 125 51 c153 63 157 65 250 104 41 18 80 33 85 34 11 3 69
28 120 51 17 7 37 15 45 17 8 2 17 5 20 8 3 3 32 16 65 29 33 13 78 32 100 41
22 10 87 37 145 60 58 24 123 51 145 60 41 18 76 32 85 35 9 3 45 18 99 42 29
12 60 23 67 23 8 0 14 4 14 8 0 5 6 9 13 9 6 0 37 12 68 26 31 14 60 23 63 20
3 -4 6 -2 6 3 0 6 25 18 55 29 52 17 72 35 40 35 -8 0 -15 5 -15 12 0 6 -3 9
-6 5 -3 -3 -32 5 -63 19 -106 48 -324 136 -329 134 -1 0 -15 6 -30 13 -36 19
-110 51 -142 62 -8 3 -53 22 -95 40 -22 10 -45 19 -51 20 -6 2 -27 10 -45 18
-19 9 -90 39 -159 67 -69 28 -134 55 -145 60 -11 5 -60 26 -110 46 -49 20
-103 42 -120 49 -55 25 -420 177 -430 179 -5 2 -21 8 -35 14 -80 37 -367 154
-377 155 -7 0 -13 5 -13 10 0 6 -3 8 -6 4 -4 -3 -28 5 -55 19 -27 13 -52 25
-56 25 -5 0 -23 7 -42 15 -18 8 -35 14 -37 14 -2 0 -26 10 -52 21 -81 36 -105
46 -187 79 -44 18 -98 40 -120 49 -38 17 -74 32 -85 36 -3 1 -16 6 -30 12 -14
6 -54 23 -90 37 -36 15 -78 33 -95 40 -16 8 -74 31 -127 52 -54 22 -98 42 -98
46 0 4 10 10 22 14 13 4 51 20 85 35 33 16 66 29 72 29 6 0 11 5 11 12 0 6 3
9 6 6 3 -4 35 7 72 24 108 49 141 63 267 118 123 53 188 81 240 105 17 7 84
37 150 65 66 29 138 60 160 70 144 65 322 142 330 144 6 1 30 12 55 23 25 12
71 33 103 47 l57 25 153 -65 c184 -78 176 -74 260 -113 37 -17 70 -31 73 -31
3 0 36 -13 73 -30 101 -44 125 -53 134 -52 4 1 7 -3 7 -8 0 -6 6 -10 14 -10 7
0 44 -14 82 -30 38 -17 78 -35 89 -39 11 -5 47 -21 80 -36 33 -15 65 -28 70
-30 14 -3 50 -18 129 -54 38 -17 75 -31 82 -31 8 0 14 -4 14 -10 0 -5 7 -10
16 -10 8 0 39 -11 67 -24 88 -41 146 -66 151 -66 3 0 30 -11 61 -25 30 -14 80
-36 110 -50 31 -14 58 -25 61 -25 3 0 30 -11 60 -25 30 -14 57 -25 59 -25 2 0
34 -13 70 -30 36 -16 68 -30 70 -30 3 0 27 -9 53 -21 151 -67 202 -89 256
-110 28 -11 69 -29 91 -39 22 -11 74 -33 115 -51 41 -17 89 -37 105 -44 17 -7
75 -32 130 -55 55 -24 120 -51 145 -62 25 -11 54 -24 65 -28 11 -5 52 -23 90
-40 39 -18 75 -33 80 -34 6 -1 37 -15 70 -31 74 -35 114 -36 185 -3 30 14 87
38 125 53 39 16 74 32 80 37 5 4 15 8 22 8 7 0 36 11 65 24 29 14 82 37 118
51 36 14 74 30 85 35 67 30 156 69 160 69 3 1 22 8 43 17 20 8 98 40 172 71
74 30 159 66 188 79 29 13 56 24 60 24 4 1 25 9 47 20 22 11 43 19 46 20 4 0
28 10 55 22 27 12 51 23 54 23 3 1 21 8 40 16 19 9 68 29 107 45 40 16 73 32
73 35 0 7 -44 26 -70 31 -8 2 -17 5 -20 8 -3 3 -48 23 -100 45 -52 21 -119 49
-148 62 -29 12 -55 23 -57 23 -2 0 -48 18 -102 41 -54 22 -136 57 -183 76 -90
37 -129 54 -184 78 -19 8 -36 15 -39 15 -2 0 -26 10 -53 22 -27 12 -51 22 -54
23 -7 0 -75 29 -148 61 -29 13 -56 24 -61 24 -4 0 -21 6 -37 14 -43 21 -85 38
-239 102 -77 31 -156 64 -175 72 -19 9 -40 17 -47 18 -7 1 -31 11 -55 22 -82
39 -158 71 -158 67 0 -3 -17 4 -37 14 -21 11 -78 36 -128 56 -49 19 -99 40
-110 44 -65 29 -96 41 -145 61 -30 12 -74 30 -98 41 -23 10 -49 19 -57 19 -8
0 -15 5 -15 10 0 6 -3 9 -7 8 -9 -1 -25 5 -90 33 -23 11 -44 19 -46 19 -3 0
-22 8 -43 17 -22 9 -41 17 -44 18 -3 0 -27 11 -54 23 -27 12 -54 22 -60 22 -7
0 -16 4 -22 9 -5 4 -38 20 -74 34 -61 24 -305 126 -360 149 -14 6 -27 12 -30
13 -7 2 -30 12 -140 57 -85 35 -129 53 -225 94 -16 7 -61 25 -100 40 -38 15
-81 35 -95 43 -13 9 -26 15 -27 13 -5 -5 -155 58 -170 70 -7 6 -13 8 -13 4 0
-3 -26 6 -57 20 -32 14 -107 45 -168 70 -60 24 -119 48 -130 53 -11 5 -37 16
-57 25 -21 9 -53 22 -70 30 -18 8 -51 21 -73 29 -22 9 -85 34 -139 57 -55 22
-100 40 -100 40 -1 0 -13 -7 -29 -15z"/>
<path d="M9791 5720 c-24 -11 -49 -20 -57 -20 -8 0 -14 -4 -14 -8 0 -5 -6 -9
-12 -9 -7 0 -35 -10 -63 -23 -80 -36 -129 -56 -155 -65 -6 -2 -8 -3 -150 -63
-58 -24 -109 -45 -115 -46 -5 -1 -15 -4 -20 -8 -6 -4 -73 -32 -150 -63 -77
-31 -160 -66 -185 -77 -24 -11 -49 -21 -55 -23 -5 -1 -30 -10 -55 -20 -25 -11
-47 -18 -49 -16 -2 1 -7 -1 -10 -6 -3 -5 -37 -22 -76 -37 -38 -16 -81 -33 -95
-39 -14 -6 -27 -11 -30 -12 -14 -5 -67 -27 -85 -35 -11 -5 -49 -21 -85 -36
-36 -14 -78 -32 -95 -39 -16 -8 -64 -27 -105 -44 -41 -16 -93 -37 -115 -47
-22 -10 -42 -18 -45 -19 -8 -3 -63 -24 -87 -35 -51 -22 -72 -31 -158 -66 -49
-20 -96 -41 -102 -46 -7 -6 -13 -7 -13 -3 0 4 -7 1 -17 -6 -9 -8 -18 -13 -19
-12 -2 2 -29 -8 -60 -22 -31 -14 -62 -25 -68 -25 -7 0 -16 -4 -22 -8 -9 -9
-174 -77 -186 -77 -4 0 -13 -6 -20 -12 -6 -7 -18 -13 -25 -13 -7 0 -37 -11
-67 -25 -30 -14 -59 -25 -63 -25 -5 0 -34 -12 -64 -26 -30 -15 -58 -27 -64
-29 -12 -2 -9 -1 -197 -81 -82 -34 -148 -60 -148 -57 0 2 -7 -3 -16 -12 -9 -8
-13 -22 -10 -30 3 -8 1 -15 -4 -15 -5 0 -5 -13 0 -30 5 -16 5 -30 1 -30 -8 0
-6 -58 3 -67 3 -3 1 -14 -4 -24 -7 -12 -7 -20 0 -24 6 -4 7 -13 1 -24 -5 -9
-6 -23 -1 -31 4 -7 4 -24 -1 -37 -5 -14 -5 -23 1 -23 6 0 6 -9 0 -25 -6 -15
-6 -26 0 -30 6 -4 7 -13 1 -24 -5 -9 -6 -23 -1 -30 4 -8 4 -27 0 -42 -5 -16
-5 -29 0 -29 5 0 5 -13 0 -30 -5 -18 -5 -30 0 -30 6 0 5 -11 0 -26 -7 -16 -7
-32 0 -43 5 -10 6 -21 3 -25 -8 -7 -7 -116 1 -124 3 -2 1 -13 -4 -23 -7 -12
-7 -20 0 -24 6 -4 7 -13 1 -24 -5 -9 -6 -23 -1 -31 4 -7 5 -23 0 -35 -5 -12
-4 -28 0 -35 5 -8 6 -19 2 -24 -7 -12 -5 -116 2 -124 3 -2 1 -13 -4 -23 -7
-12 -7 -20 0 -24 6 -4 7 -13 1 -24 -5 -9 -6 -23 -2 -30 5 -7 5 -30 1 -52 -4
-22 -3 -42 1 -45 5 -3 5 -13 0 -23 -6 -10 -6 -23 -1 -31 5 -8 5 -21 1 -29 -9
-16 -7 -49 3 -58 3 -3 1 -14 -4 -24 -7 -12 -7 -20 0 -24 6 -4 7 -13 1 -24 -5
-9 -6 -23 -1 -31 4 -7 4 -24 -1 -37 -5 -14 -5 -23 1 -23 6 0 6 -9 0 -25 -6
-15 -6 -26 0 -30 6 -4 7 -13 1 -24 -5 -9 -6 -23 -1 -30 4 -8 4 -27 0 -42 -5
-16 -5 -29 0 -29 5 0 5 -13 0 -30 -5 -18 -5 -30 0 -30 6 0 5 -11 0 -26 -7 -16
-7 -32 0 -43 5 -10 6 -21 3 -25 -8 -7 -7 -116 1 -124 3 -2 1 -13 -4 -23 -7
-12 -7 -20 0 -24 6 -4 7 -13 1 -24 -5 -9 -6 -23 -2 -30 5 -7 5 -30 1 -51 -4
-21 -4 -44 1 -51 4 -7 3 -21 -2 -30 -6 -12 -5 -20 1 -24 6 -4 8 -11 4 -16 -9
-15 -11 -79 -2 -79 3 0 3 -13 -2 -30 -5 -16 -5 -30 -1 -30 4 0 5 -22 1 -50 -3
-27 -3 -55 1 -62 4 -6 3 -20 -2 -29 -6 -12 -5 -20 1 -24 6 -4 8 -11 4 -16 -9
-15 -11 -79 -2 -79 3 0 3 -13 -2 -30 -5 -16 -5 -30 -1 -30 4 0 5 -22 1 -50 -3
-27 -3 -55 1 -62 4 -6 3 -20 -2 -29 -6 -12 -5 -20 1 -24 6 -4 8 -11 4 -16 -9
-15 -11 -79 -2 -79 3 0 3 -13 -2 -30 -5 -19 -5 -30 1 -30 6 0 8 -4 5 -8 -10
-17 -7 -142 4 -143 3 0 18 4 33 10 16 6 30 11 33 11 2 0 23 9 47 19 23 11 71
32 107 46 36 14 80 33 99 42 18 8 39 16 45 17 6 2 37 15 70 29 32 15 61 27 63
27 3 0 19 6 36 14 50 22 539 225 557 231 15 5 68 27 85 35 11 5 27 11 35 12 8
2 18 6 21 11 3 4 15 9 26 11 11 3 29 9 39 15 11 5 35 17 54 24 19 8 85 36 146
61 62 25 116 46 121 46 5 0 10 6 10 13 3 47 3 107 0 134 -2 18 0 33 4 33 3 0
3 18 -1 39 -4 22 -3 45 1 52 4 8 3 19 -2 25 -6 7 -6 14 -2 17 5 3 6 37 3 75
-3 39 -2 81 1 94 3 13 3 30 -1 38 -4 8 -4 24 0 35 4 11 4 29 0 40 -4 11 -4 29
0 39 3 11 3 38 0 62 -4 24 -3 49 1 56 4 7 3 18 -2 24 -7 8 -6 14 1 19 6 3 8
10 5 14 -2 5 -5 42 -5 82 0 41 0 82 0 92 0 30 0 63 1 112 0 17 0 36 0 43 -1 6
-1 18 -2 25 0 6 0 26 1 42 0 17 -1 45 -3 63 -2 17 0 32 4 32 3 0 3 18 -1 39
-4 22 -3 45 1 52 4 8 3 19 -2 25 -7 8 -6 14 1 19 6 3 8 10 5 14 -4 7 -6 85 -4
184 0 10 12 22 27 28 15 6 43 17 62 26 153 67 446 186 458 186 6 0 12 4 12 9
0 4 5 8 11 8 9 0 126 47 204 81 51 22 481 201 490 203 14 4 57 22 108 45 23
11 55 23 70 26 15 4 27 11 27 16 0 5 3 8 8 7 12 -4 154 55 158 67 2 5 3 375 2
822 l-3 812 -44 -19z"/>
</g>
</svg>
